<?xml version="1.0" encoding="utf-8"?>
<!-- Generator: Adobe Illustrator 19.0.0, SVG Export Plug-In . SVG Version: 6.00 Build 0)  -->
<svg version="1.1" xmlns="http://www.w3.org/2000/svg" xmlns:xlink="http://www.w3.org/1999/xlink" x="0px" y="0px"
	 viewBox="0 0 242 155" style="enable-background:new 0 0 242 155;" xml:space="preserve">
<style type="text/css">
	.st0{fill:#7A601E;}
	.st1{opacity:0.25;fill:#7A601E;}
	.st2{opacity:0.5;fill:#7A601E;}
	.st3{opacity:0.75;fill:#7A601E;}
	.st4{fill:#F9F9F9;}
	.st5{fill:none;}
	.st6{fill:none;stroke:#000000;stroke-width:0.5;stroke-miterlimit:10;}
	.st7{fill:#FFFFFF;}
	.st8{display:none;}
</style>
<g id="Capa_2">
	<path id="XMLID_28_" class="st0" d="M230,155H12c-6.6,0-12-5.4-12-12V12C0,5.4,5.4,0,12,0h218c6.6,0,12,5.4,12,12v131
		C242,149.6,236.6,155,230,155z"/>
</g>
<g id="Capa_3">
	<rect id="XMLID_29_" y="103" width="242" height="18.5"/>
	<g id="XMLID_30_">
	</g>
</g>
<g id="Capa_6">
	<path id="XMLID_41_" class="st1" d="M18.4,109h-0.2v-1.2c0-1.1-2.5-2-5.6-2s-5.6,0.9-5.6,2v1.2H6.9c-0.3,0-0.6,0.3-0.6,0.6v2
		c0,0.3,0.3,0.6,0.6,0.6h0.2v4c0,0.4,0.4,0.8,0.8,0.8v0.8c0,0.4,0.4,0.8,0.8,0.8h0.8c0.4,0,0.8-0.4,0.8-0.8V117h4.8v0.8
		c0,0.4,0.4,0.8,0.8,0.8h0.8c0.4,0,0.8-0.4,0.8-0.8V117h0.2c0.4,0,0.6-0.3,0.6-0.6v-4.1h0.2c0.3,0,0.6-0.3,0.6-0.6v-2
		C19,109.3,18.8,109,18.4,109z M10.3,107.6c0-0.1,0.1-0.2,0.2-0.2h4.4c0.1,0,0.2,0.1,0.2,0.2v0.4c0,0.1-0.1,0.2-0.2,0.2h-4.4
		c-0.1,0-0.2-0.1-0.2-0.2V107.6z M9.1,115.8c-0.4,0-0.8-0.4-0.8-0.8s0.4-0.8,0.8-0.8c0.4,0,0.8,0.4,0.8,0.8S9.5,115.8,9.1,115.8z
		 M12.3,113H9.5c-0.4,0-0.8-0.4-0.8-0.8v-2.4c0-0.4,0.4-0.8,0.8-0.8h2.8V113z M13.1,113v-4h2.8c0.4,0,0.8,0.4,0.8,0.8v2.4
		c0,0.4-0.4,0.8-0.8,0.8H13.1z M16.2,115.8c-0.4,0-0.8-0.4-0.8-0.8s0.4-0.8,0.8-0.8c0.4,0,0.8,0.4,0.8,0.8S16.7,115.8,16.2,115.8z"
		/>
	<path id="XMLID_40_" class="st2" d="M33.2,109H33v-1.2c0-1.1-2.5-2-5.6-2s-5.6,0.9-5.6,2v1.2h-0.2c-0.3,0-0.6,0.3-0.6,0.6v2
		c0,0.3,0.3,0.6,0.6,0.6h0.2v4c0,0.4,0.4,0.8,0.8,0.8v0.8c0,0.4,0.4,0.8,0.8,0.8h0.8c0.4,0,0.8-0.4,0.8-0.8V117h4.8v0.8
		c0,0.4,0.4,0.8,0.8,0.8h0.8c0.4,0,0.8-0.4,0.8-0.8V117h0.2c0.4,0,0.6-0.3,0.6-0.6v-4.1h0.2c0.3,0,0.6-0.3,0.6-0.6v-2
		C33.8,109.3,33.5,109,33.2,109z M25.1,107.6c0-0.1,0.1-0.2,0.2-0.2h4.4c0.1,0,0.2,0.1,0.2,0.2v0.4c0,0.1-0.1,0.2-0.2,0.2h-4.4
		c-0.1,0-0.2-0.1-0.2-0.2V107.6z M23.9,115.8c-0.4,0-0.8-0.4-0.8-0.8s0.4-0.8,0.8-0.8s0.8,0.4,0.8,0.8S24.3,115.8,23.9,115.8z
		 M27,113h-2.8c-0.4,0-0.8-0.4-0.8-0.8v-2.4c0-0.4,0.4-0.8,0.8-0.8H27V113z M27.8,113v-4h2.8c0.4,0,0.8,0.4,0.8,0.8v2.4
		c0,0.4-0.4,0.8-0.8,0.8H27.8z M31,115.8c-0.4,0-0.8-0.4-0.8-0.8s0.4-0.8,0.8-0.8c0.4,0,0.8,0.4,0.8,0.8S31.4,115.8,31,115.8z"/>
	<path id="XMLID_48_" class="st3" d="M48,109h-0.2v-1.2c0-1.1-2.5-2-5.6-2c-3.1,0-5.6,0.9-5.6,2v1.2h-0.2c-0.3,0-0.6,0.3-0.6,0.6v2
		c0,0.3,0.3,0.6,0.6,0.6h0.2v4c0,0.4,0.4,0.8,0.8,0.8v0.8c0,0.4,0.4,0.8,0.8,0.8H39c0.4,0,0.8-0.4,0.8-0.8V117h4.8v0.8
		c0,0.4,0.4,0.8,0.8,0.8h0.8c0.4,0,0.8-0.4,0.8-0.8V117h0.2c0.4,0,0.6-0.3,0.6-0.6v-4.1H48c0.3,0,0.6-0.3,0.6-0.6v-2
		C48.6,109.3,48.3,109,48,109z M39.8,107.6c0-0.1,0.1-0.2,0.2-0.2h4.4c0.1,0,0.2,0.1,0.2,0.2v0.4c0,0.1-0.1,0.2-0.2,0.2H40
		c-0.1,0-0.2-0.1-0.2-0.2V107.6z M38.6,115.8c-0.4,0-0.8-0.4-0.8-0.8s0.4-0.8,0.8-0.8c0.4,0,0.8,0.4,0.8,0.8S39.1,115.8,38.6,115.8z
		 M41.8,113H39c-0.4,0-0.8-0.4-0.8-0.8v-2.4c0-0.4,0.4-0.8,0.8-0.8h2.8V113z M42.6,113v-4h2.8c0.4,0,0.8,0.4,0.8,0.8v2.4
		c0,0.4-0.4,0.8-0.8,0.8H42.6z M45.8,115.8c-0.4,0-0.8-0.4-0.8-0.8s0.4-0.8,0.8-0.8c0.4,0,0.8,0.4,0.8,0.8S46.2,115.8,45.8,115.8z"
		/>
	<path id="XMLID_55_" class="st0" d="M62.7,109h-0.2v-1.2c0-1.1-2.5-2-5.6-2s-5.6,0.9-5.6,2v1.2h-0.2c-0.3,0-0.6,0.3-0.6,0.6v2
		c0,0.3,0.3,0.6,0.6,0.6h0.2v4c0,0.4,0.4,0.8,0.8,0.8v0.8c0,0.4,0.4,0.8,0.8,0.8h0.8c0.4,0,0.8-0.4,0.8-0.8V117h4.8v0.8
		c0,0.4,0.4,0.8,0.8,0.8h0.8c0.4,0,0.8-0.4,0.8-0.8V117h0.2c0.4,0,0.6-0.3,0.6-0.6v-4.1h0.2c0.3,0,0.6-0.3,0.6-0.6v-2
		C63.3,109.3,63.1,109,62.7,109z M54.6,107.6c0-0.1,0.1-0.2,0.2-0.2h4.4c0.1,0,0.2,0.1,0.2,0.2v0.4c0,0.1-0.1,0.2-0.2,0.2h-4.4
		c-0.1,0-0.2-0.1-0.2-0.2V107.6z M53.4,115.8c-0.4,0-0.8-0.4-0.8-0.8s0.4-0.8,0.8-0.8c0.4,0,0.8,0.4,0.8,0.8S53.8,115.8,53.4,115.8z
		 M56.6,113h-2.8c-0.4,0-0.8-0.4-0.8-0.8v-2.4c0-0.4,0.4-0.8,0.8-0.8h2.8V113z M57.4,113v-4h2.8c0.4,0,0.8,0.4,0.8,0.8v2.4
		c0,0.4-0.4,0.8-0.8,0.8H57.4z M60.5,115.8c-0.4,0-0.8-0.4-0.8-0.8s0.4-0.8,0.8-0.8s0.8,0.4,0.8,0.8S61,115.8,60.5,115.8z"/>
</g>
<g id="Capa_7">
</g>
<g id="Capa_5">
	<rect id="XMLID_33_" y="9.5" class="st4" width="242" height="93.5"/>
</g>
<g id="Capa_4">
	<g id="XMLID_31_">
		<path id="XMLID_227_" d="M96.5,83.4c0,0.9-0.3,1.5-0.9,2s-1.4,0.7-2.5,0.7h-1v3.4h-1v-8.6h2.2C95.5,80.9,96.5,81.8,96.5,83.4z
			 M92.1,85.3H93c0.9,0,1.5-0.1,1.9-0.4s0.6-0.7,0.6-1.4c0-0.6-0.2-1-0.6-1.3s-0.9-0.4-1.7-0.4h-1.1V85.3z"/>
		<path id="XMLID_230_" d="M101.1,83c0.3,0,0.5,0,0.8,0.1l-0.1,0.9c-0.3-0.1-0.5-0.1-0.7-0.1c-0.5,0-1,0.2-1.3,0.6s-0.6,0.9-0.6,1.6
			v3.4h-1v-6.4H99l0.1,1.2h0c0.2-0.4,0.5-0.7,0.9-1S100.7,83,101.1,83z"/>
		<path id="XMLID_232_" d="M105.8,89.6c-0.9,0-1.7-0.3-2.2-0.9s-0.8-1.4-0.8-2.4c0-1,0.3-1.9,0.8-2.5s1.2-0.9,2.1-0.9
			c0.8,0,1.4,0.3,1.9,0.8s0.7,1.2,0.7,2.1v0.6h-4.4c0,0.8,0.2,1.3,0.6,1.7s0.9,0.6,1.5,0.6c0.7,0,1.4-0.1,2.1-0.4v0.9
			c-0.3,0.1-0.7,0.3-1,0.3S106.2,89.6,105.8,89.6z M105.5,83.8c-0.5,0-0.9,0.2-1.2,0.5s-0.5,0.8-0.5,1.4h3.4c0-0.6-0.1-1.1-0.4-1.4
			S106,83.8,105.5,83.8z"/>
		<path id="XMLID_235_" d="M110.7,83.1v4.2c0,0.5,0.1,0.9,0.4,1.2s0.6,0.4,1.1,0.4c0.7,0,1.2-0.2,1.5-0.6s0.5-1,0.5-1.8v-3.4h1v6.4
			h-0.8l-0.1-0.9h-0.1c-0.2,0.3-0.5,0.6-0.8,0.7s-0.8,0.3-1.2,0.3c-0.8,0-1.4-0.2-1.8-0.6s-0.6-1-0.6-1.8v-4.2H110.7z"/>
		<path id="XMLID_237_" d="M117,83.7c0-0.5,0.2-0.8,0.7-0.8c0.5,0,0.7,0.3,0.7,0.8c0,0.3-0.1,0.4-0.2,0.6s-0.3,0.2-0.5,0.2
			c-0.2,0-0.4-0.1-0.5-0.2S117,84,117,83.7z M117,88.9c0-0.3,0.1-0.5,0.2-0.6s0.3-0.2,0.5-0.2c0.2,0,0.4,0.1,0.5,0.2
			s0.2,0.3,0.2,0.6c0,0.3-0.1,0.4-0.2,0.6s-0.3,0.2-0.5,0.2c-0.2,0-0.4-0.1-0.5-0.2S117,89.2,117,88.9z"/>
		<path id="XMLID_240_" d="M127.4,89.5h-1.8v-5l0-0.8l0-0.9c-0.3,0.3-0.5,0.5-0.6,0.6l-1,0.8l-0.9-1.1l2.8-2.2h1.5V89.5z"/>
		<path id="XMLID_242_" d="M132,88.2c-0.2,0.8-0.5,1.7-1,2.8h-1.3c0.3-1,0.5-2,0.6-2.9h1.6L132,88.2z"/>
		<path id="XMLID_244_" d="M138.9,82.8c0,0.5-0.2,1-0.5,1.4s-0.8,0.6-1.4,0.8v0c0.7,0.1,1.2,0.3,1.6,0.6s0.5,0.8,0.5,1.4
			c0,0.8-0.3,1.5-0.9,1.9s-1.5,0.7-2.6,0.7c-0.9,0-1.8-0.2-2.5-0.5v-1.5c0.3,0.2,0.7,0.3,1.1,0.4s0.8,0.2,1.2,0.2
			c0.6,0,1-0.1,1.3-0.3s0.4-0.5,0.4-1c0-0.4-0.2-0.7-0.5-0.9s-0.9-0.3-1.6-0.3h-0.7v-1.4h0.7c0.7,0,1.1-0.1,1.5-0.3s0.5-0.5,0.5-0.9
			c0-0.6-0.4-1-1.2-1c-0.3,0-0.6,0-0.9,0.1s-0.6,0.3-1,0.5l-0.8-1.2c0.8-0.6,1.7-0.8,2.8-0.8c0.9,0,1.6,0.2,2.1,0.5
			S138.9,82.2,138.9,82.8z"/>
		<path id="XMLID_246_" d="M146,85.2c0,1.5-0.2,2.6-0.7,3.3s-1.2,1.1-2.3,1.1c-1,0-1.7-0.4-2.2-1.1s-0.8-1.8-0.8-3.3
			c0-1.5,0.2-2.6,0.7-3.3s1.2-1.1,2.3-1.1c1,0,1.7,0.4,2.2,1.1S146,83.8,146,85.2z M141.9,85.2c0,1.1,0.1,1.8,0.3,2.3
			s0.5,0.7,0.9,0.7c0.4,0,0.7-0.2,0.9-0.7s0.3-1.2,0.3-2.3c0-1.1-0.1-1.8-0.3-2.3s-0.5-0.7-0.9-0.7c-0.4,0-0.7,0.2-0.9,0.7
			S141.9,84.2,141.9,85.2z"/>
		<path id="XMLID_249_" d="M151.2,82.3c-0.5,0-0.9,0.1-1.2,0.4s-0.5,0.7-0.6,1.2h2.4v1h-2.4l0,0.2v0.3l0,0.2h2.1v1h-2
			c0.2,0.9,0.8,1.4,1.9,1.4c0.6,0,1.1-0.1,1.6-0.3v1.5c-0.5,0.2-1,0.3-1.7,0.3c-1,0-1.7-0.3-2.4-0.8s-1-1.2-1.2-2.2h-0.8v-1h0.7
			c0-0.1,0-0.2,0-0.4l0-0.3h-0.7v-1h0.8c0.1-0.9,0.5-1.7,1.2-2.2s1.4-0.8,2.4-0.8c0.7,0,1.4,0.2,2.1,0.5l-0.6,1.4
			c-0.3-0.1-0.5-0.2-0.8-0.3S151.4,82.3,151.2,82.3z"/>
	</g>
	<g id="XMLID_62_">
		<path id="XMLID_197_" d="M84.3,28c0,1.5-0.7,2.9-2.5,3.7c2.3,0.7,3.1,3.1,3.1,4.3c0,4.3-3.2,5.7-7.3,5.7c-3.1,0-6.1,0-9.2,0V22.4
			c3.1,0,6.1,0,9.2,0C81.5,22.4,84.3,24.1,84.3,28z M72,30.2h5.6c2.3,0,3.1-1,3.1-2.1c0-0.9-0.7-2.4-3.1-2.4H72V30.2z M72,38.4h5.6
			c1.5,0,3.6-0.5,3.6-2.3c0-1.7-2.1-2.7-3.6-2.7H72V38.4z"/>
		<path id="XMLID_201_" d="M87.5,41.8V22.4h3.6v19.4H87.5z"/>
		<path id="XMLID_203_" d="M100.5,25.7h-6.2v-3.3c5.6,0,10.4,0,16,0v3.3h-6.2v16.1h-3.7V25.7z"/>
		<path id="XMLID_205_" d="M116.2,22.4v16h10v3.4h-13.7V22.4H116.2z"/>
		<path id="XMLID_207_" d="M132.4,22.4v16h10v3.4h-13.7V22.4H132.4z"/>
		<path id="XMLID_209_" d="M159.5,41.8H145c0-6.5,0-13,0-19.4h14.5v3.6h-10.9v4.5h10.5v3.4h-10.5v4.4h10.9V41.8z"/>
		<path id="XMLID_211_" d="M168.5,25.7h-6.2v-3.3c5.6,0,10.4,0,16,0v3.3h-6.2v16.1h-3.7V25.7z"/>
		<path id="XMLID_213_" d="M80.6,51.1c-0.7-1.1-2.5-2.2-4.6-2.2c-2.7,0-4,1.1-4,2.6c0,1.7,2,2.2,4.3,2.4c4.1,0.5,7.8,1.6,7.8,6.2
			c0,4.3-3.8,6.2-8.2,6.2c-4,0-7-1.2-8.5-4.8l3.1-1.6c0.9,2.1,3.1,3.1,5.5,3.1c2.3,0,4.5-0.8,4.5-2.9c0-1.8-1.9-2.6-4.5-2.9
			c-4-0.5-7.6-1.5-7.6-5.9c0-4,3.9-5.6,7.5-5.7c3,0,6.2,0.9,7.6,3.9L80.6,51.1z"/>
		<path id="XMLID_215_" d="M101.4,65.8H86.9c0-6.5,0-13,0-19.4h14.5v3.6H90.5v4.5h10.5v3.4H90.5v4.4h10.9V65.8z"/>
		<path id="XMLID_217_" d="M117.6,46.4h3.7v19.5H119v0l-10.2-13.1v13.1h-3.7V46.4h3l9.5,12V46.4z"/>
		<path id="XMLID_219_" d="M123.7,46.4h14.9v1.7l-10.1,14.2h10.1v3.5h-15.2v-2.1l9.9-13.9h-9.6V46.4z"/>
		<path id="XMLID_221_" d="M140.9,65.8V46.4h3.6v19.4H140.9z"/>
		<path id="XMLID_223_" d="M151.7,46.4v16h10v3.4H148V46.4H151.7z"/>
		<path id="XMLID_225_" d="M167.9,46.4v16h10v3.4h-13.7V46.4H167.9z"/>
	</g>
	<g id="XMLID_75_">
		<circle id="XMLID_73_" cx="48.1" cy="129.1" r="4.1"/>
		<rect id="XMLID_72_" x="31.6" y="133.7" width="8" height="3.3"/>
		<rect id="XMLID_71_" x="33.7" y="135.4" width="3.7" height="9"/>
		<rect id="XMLID_70_" x="57.2" y="133.7" width="3.7" height="10.6"/>
		<rect id="XMLID_69_" x="57.2" y="133.7" width="7" height="2.9"/>
		<rect id="XMLID_68_" x="57.2" y="137.9" width="6.6" height="2.7"/>
		<g id="XMLID_76_">
			<path id="XMLID_67_" d="M45.2,144.4h1.2h2.8h1.2l0.5-3.5c-1-0.4-2-0.6-3.1-0.6c-1.1,0-2.1,0.2-3,0.5L45.2,144.4z"/>
			<path id="XMLID_66_" d="M44.5,140.9c-1.7,0.7-3.1,1.9-4.1,3.4h3.9L44.5,140.9z"/>
			<path id="XMLID_65_" d="M51.2,141l0.2,3.4h3.8C54.3,142.9,52.9,141.7,51.2,141z"/>
			<path id="XMLID_64_" d="M47.5,138.6l-1.1-3.7c-1.4,0-2.1-1.1-2.1-1.1h-2l-1.8,8l0,0.1C42.1,139.9,44.6,138.7,47.5,138.6z"/>
			<path id="XMLID_63_" d="M55.3,142l0-0.2l-1.8-8h-2c0,0-0.7,1.1-2.1,1.1l-1.1,3.7C51,138.7,53.6,140,55.3,142z"/>
		</g>
	</g>
	<g id="XMLID_74_">
		<path id="XMLID_77_" d="M18.8,149.1h-0.5V147h-0.7v-0.5h1.9v0.5h-0.7V149.1z"/>
		<path id="XMLID_125_" d="M20.9,147.1c0.1,0,0.1,0,0.2,0l0,0.5c0,0-0.1,0-0.2,0c-0.2,0-0.3,0-0.4,0.1c-0.1,0.1-0.1,0.2-0.1,0.4v1
			h-0.5v-2h0.4l0.1,0.3h0c0.1-0.1,0.1-0.2,0.2-0.3C20.7,147.1,20.8,147.1,20.9,147.1z"/>
		<path id="XMLID_127_" d="M22.7,149.1l-0.1-0.3h0c-0.1,0.1-0.2,0.2-0.3,0.2c-0.1,0-0.2,0.1-0.4,0.1c-0.2,0-0.3-0.1-0.4-0.2
			s-0.2-0.3-0.2-0.5c0-0.2,0.1-0.4,0.2-0.5c0.1-0.1,0.4-0.2,0.7-0.2l0.3,0v-0.1c0-0.2-0.1-0.3-0.3-0.3c-0.2,0-0.3,0-0.6,0.1
			l-0.2-0.4c0.2-0.1,0.5-0.2,0.7-0.2c0.3,0,0.5,0.1,0.6,0.2s0.2,0.3,0.2,0.5v1.3H22.7z M22.6,148.2l-0.2,0c-0.2,0-0.3,0-0.3,0.1
			c-0.1,0.1-0.1,0.1-0.1,0.2c0,0.2,0.1,0.2,0.3,0.2c0.1,0,0.2,0,0.3-0.1s0.1-0.2,0.1-0.3V148.2z"/>
		<path id="XMLID_130_" d="M25.4,149.1h-0.5V148c0-0.1,0-0.2-0.1-0.3s-0.1-0.1-0.2-0.1c-0.1,0-0.3,0-0.3,0.1
			c-0.1,0.1-0.1,0.3-0.1,0.5v0.9h-0.5v-2H24l0.1,0.3h0c0.1-0.1,0.1-0.2,0.2-0.2c0.1,0,0.2-0.1,0.4-0.1c0.2,0,0.4,0.1,0.5,0.2
			c0.1,0.1,0.2,0.3,0.2,0.5V149.1z"/>
		<path id="XMLID_132_" d="M27.4,148.5c0,0.2-0.1,0.4-0.2,0.5c-0.1,0.1-0.3,0.2-0.6,0.2c-0.1,0-0.3,0-0.4,0c-0.1,0-0.2,0-0.3-0.1
			v-0.4c0.1,0,0.2,0.1,0.3,0.1c0.1,0,0.2,0,0.3,0c0.2,0,0.3-0.1,0.3-0.2c0,0,0-0.1,0-0.1c0,0-0.1-0.1-0.1-0.1s-0.1-0.1-0.3-0.1
			c-0.2-0.1-0.3-0.1-0.3-0.2s-0.1-0.1-0.2-0.2c0-0.1,0-0.2,0-0.3c0-0.2,0.1-0.3,0.2-0.4c0.1-0.1,0.3-0.1,0.6-0.1
			c0.2,0,0.5,0.1,0.7,0.2l-0.2,0.4c-0.1,0-0.2-0.1-0.3-0.1c-0.1,0-0.2,0-0.3,0c-0.2,0-0.2,0-0.2,0.1c0,0,0,0.1,0.1,0.1
			c0.1,0,0.2,0.1,0.3,0.2c0.2,0.1,0.3,0.1,0.3,0.2c0.1,0.1,0.1,0.1,0.2,0.2C27.3,148.3,27.4,148.4,27.4,148.5z"/>
		<path id="XMLID_134_" d="M28.8,149.1c-0.2,0-0.4-0.1-0.5-0.3h0c0,0.2,0,0.3,0,0.3v0.8h-0.5v-2.8h0.4l0.1,0.3h0
			c0.1-0.2,0.3-0.3,0.6-0.3c0.2,0,0.4,0.1,0.5,0.3c0.1,0.2,0.2,0.4,0.2,0.7c0,0.2,0,0.4-0.1,0.5c-0.1,0.2-0.1,0.3-0.3,0.4
			C29.1,149.1,29,149.1,28.8,149.1z M28.7,147.5c-0.1,0-0.2,0-0.3,0.1c-0.1,0.1-0.1,0.2-0.1,0.4v0.1c0,0.2,0,0.4,0.1,0.5
			s0.2,0.1,0.3,0.1c0.2,0,0.4-0.2,0.4-0.6c0-0.2,0-0.3-0.1-0.4C28.9,147.6,28.8,147.5,28.7,147.5z"/>
		<path id="XMLID_137_" d="M31.8,148.1c0,0.3-0.1,0.6-0.3,0.7s-0.4,0.3-0.7,0.3c-0.2,0-0.4,0-0.5-0.1c-0.1-0.1-0.3-0.2-0.3-0.4
			c-0.1-0.2-0.1-0.3-0.1-0.5c0-0.3,0.1-0.6,0.3-0.7c0.2-0.2,0.4-0.3,0.7-0.3c0.2,0,0.4,0,0.5,0.1c0.1,0.1,0.3,0.2,0.3,0.4
			C31.8,147.7,31.8,147.9,31.8,148.1z M30.5,148.1c0,0.2,0,0.3,0.1,0.4c0.1,0.1,0.2,0.1,0.3,0.1c0.1,0,0.2,0,0.3-0.1
			s0.1-0.2,0.1-0.4c0-0.2,0-0.3-0.1-0.4s-0.2-0.1-0.3-0.1c-0.1,0-0.2,0-0.3,0.1C30.5,147.8,30.5,147.9,30.5,148.1z"/>
		<path id="XMLID_140_" d="M33.4,147.1c0.1,0,0.1,0,0.2,0l0,0.5c0,0-0.1,0-0.2,0c-0.2,0-0.3,0-0.4,0.1c-0.1,0.1-0.1,0.2-0.1,0.4v1
			h-0.5v-2h0.4l0.1,0.3h0c0.1-0.1,0.1-0.2,0.2-0.3C33.1,147.1,33.2,147.1,33.4,147.1z"/>
		<path id="XMLID_142_" d="M34.7,148.7c0.1,0,0.2,0,0.3-0.1v0.4c-0.1,0.1-0.3,0.1-0.5,0.1c-0.2,0-0.4-0.1-0.5-0.2
			c-0.1-0.1-0.1-0.3-0.1-0.5v-0.9h-0.3v-0.2l0.3-0.2l0.2-0.4h0.3v0.4H35v0.4h-0.5v0.9c0,0.1,0,0.1,0.1,0.2
			C34.6,148.7,34.6,148.7,34.7,148.7z"/>
		<path id="XMLID_144_" d="M36.8,148.5c0,0.2-0.1,0.4-0.2,0.5c-0.1,0.1-0.3,0.2-0.6,0.2c-0.1,0-0.3,0-0.4,0c-0.1,0-0.2,0-0.3-0.1
			v-0.4c0.1,0,0.2,0.1,0.3,0.1c0.1,0,0.2,0,0.3,0c0.2,0,0.3-0.1,0.3-0.2c0,0,0-0.1,0-0.1c0,0-0.1-0.1-0.1-0.1s-0.1-0.1-0.3-0.1
			c-0.2-0.1-0.3-0.1-0.3-0.2s-0.1-0.1-0.2-0.2c0-0.1,0-0.2,0-0.3c0-0.2,0.1-0.3,0.2-0.4c0.1-0.1,0.3-0.1,0.6-0.1
			c0.2,0,0.5,0.1,0.7,0.2l-0.2,0.4c-0.1,0-0.2-0.1-0.3-0.1c-0.1,0-0.2,0-0.3,0c-0.2,0-0.2,0-0.2,0.1c0,0,0,0.1,0.1,0.1
			c0.1,0,0.2,0.1,0.3,0.2c0.2,0.1,0.3,0.1,0.3,0.2c0.1,0.1,0.1,0.1,0.2,0.2C36.8,148.3,36.8,148.4,36.8,148.5z"/>
		<path id="XMLID_146_" d="M39.3,149.1l-0.6-2h0c0,0.4,0,0.7,0,0.8v1.2h-0.5v-2.6h0.7l0.6,2h0l0.6-2h0.7v2.6h-0.5v-1.2
			c0-0.1,0-0.1,0-0.2c0-0.1,0-0.3,0-0.6h0l-0.7,2H39.3z"/>
		<path id="XMLID_148_" d="M42.9,149.1l-0.1-0.3h0c-0.1,0.1-0.1,0.2-0.2,0.2c-0.1,0-0.2,0.1-0.4,0.1c-0.2,0-0.4-0.1-0.5-0.2
			s-0.2-0.3-0.2-0.5v-1.3h0.5v1.1c0,0.1,0,0.2,0.1,0.3c0.1,0.1,0.1,0.1,0.2,0.1c0.1,0,0.3,0,0.3-0.1c0.1-0.1,0.1-0.3,0.1-0.5v-0.9
			h0.5v2H42.9z"/>
		<path id="XMLID_150_" d="M45.7,149.1h-0.5V148c0-0.1,0-0.2-0.1-0.3s-0.1-0.1-0.2-0.1c-0.1,0-0.3,0-0.3,0.1
			c-0.1,0.1-0.1,0.3-0.1,0.5v0.9h-0.5v-2h0.4l0.1,0.3h0c0.1-0.1,0.1-0.2,0.2-0.2c0.1,0,0.2-0.1,0.4-0.1c0.2,0,0.4,0.1,0.5,0.2
			c0.1,0.1,0.2,0.3,0.2,0.5V149.1z"/>
		<path id="XMLID_152_" d="M46.2,146.6c0-0.2,0.1-0.3,0.3-0.3s0.3,0.1,0.3,0.3c0,0.1,0,0.1-0.1,0.2c0,0-0.1,0.1-0.2,0.1
			C46.3,146.9,46.2,146.8,46.2,146.6z M46.8,149.1h-0.5v-2h0.5V149.1z"/>
		<path id="XMLID_155_" d="M48.1,149.1c-0.6,0-0.9-0.3-0.9-1c0-0.3,0.1-0.6,0.2-0.8s0.4-0.3,0.7-0.3c0.2,0,0.4,0,0.6,0.1l-0.2,0.4
			c-0.1,0-0.2-0.1-0.2-0.1s-0.1,0-0.2,0c-0.3,0-0.4,0.2-0.4,0.6c0,0.4,0.1,0.6,0.4,0.6c0.1,0,0.2,0,0.3,0c0.1,0,0.2-0.1,0.3-0.1v0.5
			c-0.1,0.1-0.2,0.1-0.3,0.1C48.4,149.1,48.3,149.1,48.1,149.1z"/>
		<path id="XMLID_157_" d="M49.2,146.6c0-0.2,0.1-0.3,0.3-0.3s0.3,0.1,0.3,0.3c0,0.1,0,0.1-0.1,0.2c0,0-0.1,0.1-0.2,0.1
			C49.3,146.9,49.2,146.8,49.2,146.6z M49.7,149.1h-0.5v-2h0.5V149.1z"/>
		<path id="XMLID_160_" d="M51.4,149.1c-0.2,0-0.4-0.1-0.5-0.3h0c0,0.2,0,0.3,0,0.3v0.8h-0.5v-2.8h0.4l0.1,0.3h0
			c0.1-0.2,0.3-0.3,0.6-0.3c0.2,0,0.4,0.1,0.5,0.3c0.1,0.2,0.2,0.4,0.2,0.7c0,0.2,0,0.4-0.1,0.5c-0.1,0.2-0.1,0.3-0.3,0.4
			C51.6,149.1,51.5,149.1,51.4,149.1z M51.2,147.5c-0.1,0-0.2,0-0.3,0.1c-0.1,0.1-0.1,0.2-0.1,0.4v0.1c0,0.2,0,0.4,0.1,0.5
			s0.2,0.1,0.3,0.1c0.2,0,0.4-0.2,0.4-0.6c0-0.2,0-0.3-0.1-0.4C51.4,147.6,51.3,147.5,51.2,147.5z"/>
		<path id="XMLID_163_" d="M53.8,149.1l-0.1-0.3h0c-0.1,0.1-0.2,0.2-0.3,0.2c-0.1,0-0.2,0.1-0.4,0.1c-0.2,0-0.3-0.1-0.4-0.2
			s-0.2-0.3-0.2-0.5c0-0.2,0.1-0.4,0.2-0.5c0.1-0.1,0.4-0.2,0.7-0.2l0.3,0v-0.1c0-0.2-0.1-0.3-0.3-0.3c-0.2,0-0.3,0-0.6,0.1
			l-0.2-0.4c0.2-0.1,0.5-0.2,0.7-0.2c0.3,0,0.5,0.1,0.6,0.2s0.2,0.3,0.2,0.5v1.3H53.8z M53.6,148.2l-0.2,0c-0.2,0-0.3,0-0.3,0.1
			c-0.1,0.1-0.1,0.1-0.1,0.2c0,0.2,0.1,0.2,0.3,0.2c0.1,0,0.2,0,0.3-0.1s0.1-0.2,0.1-0.3V148.2z"/>
		<path id="XMLID_166_" d="M55.3,149.1h-0.5v-2.7h0.5V149.1z"/>
		<path id="XMLID_168_" d="M57.2,148.5c0,0.2-0.1,0.4-0.2,0.5c-0.1,0.1-0.3,0.2-0.6,0.2c-0.1,0-0.3,0-0.4,0c-0.1,0-0.2,0-0.3-0.1
			v-0.4c0.1,0,0.2,0.1,0.3,0.1c0.1,0,0.2,0,0.3,0c0.2,0,0.3-0.1,0.3-0.2c0,0,0-0.1,0-0.1c0,0-0.1-0.1-0.1-0.1s-0.1-0.1-0.3-0.1
			c-0.2-0.1-0.3-0.1-0.3-0.2s-0.1-0.1-0.2-0.2c0-0.1,0-0.2,0-0.3c0-0.2,0.1-0.3,0.2-0.4c0.1-0.1,0.3-0.1,0.6-0.1
			c0.2,0,0.5,0.1,0.7,0.2l-0.2,0.4c-0.1,0-0.2-0.1-0.3-0.1c-0.1,0-0.2,0-0.3,0c-0.2,0-0.2,0-0.2,0.1c0,0,0,0.1,0.1,0.1
			c0.1,0,0.2,0.1,0.3,0.2c0.2,0.1,0.3,0.1,0.3,0.2c0.1,0.1,0.1,0.1,0.2,0.2C57.2,148.3,57.2,148.4,57.2,148.5z"/>
		<path id="XMLID_170_" d="M59.1,149.1c-0.2,0-0.4-0.1-0.5-0.3c-0.1-0.2-0.2-0.4-0.2-0.7c0-0.3,0.1-0.6,0.2-0.8
			c0.1-0.2,0.3-0.3,0.6-0.3c0.2,0,0.4,0.1,0.6,0.3h0c0-0.1,0-0.3,0-0.4v-0.6h0.5v2.7h-0.4l-0.1-0.3h0
			C59.6,149,59.4,149.1,59.1,149.1z M59.3,148.7c0.1,0,0.2,0,0.3-0.1c0.1-0.1,0.1-0.2,0.1-0.4v-0.1c0-0.2,0-0.4-0.1-0.5
			c-0.1-0.1-0.2-0.1-0.3-0.1c-0.1,0-0.2,0-0.3,0.2c-0.1,0.1-0.1,0.2-0.1,0.4c0,0.2,0,0.3,0.1,0.4C59.1,148.7,59.2,148.7,59.3,148.7z
			"/>
		<path id="XMLID_173_" d="M61.7,149.1c-0.3,0-0.6-0.1-0.7-0.3c-0.2-0.2-0.3-0.4-0.3-0.7c0-0.3,0.1-0.6,0.2-0.8
			c0.2-0.2,0.4-0.3,0.7-0.3c0.3,0,0.5,0.1,0.6,0.2c0.2,0.2,0.2,0.4,0.2,0.7v0.3h-1.3c0,0.2,0.1,0.3,0.1,0.4s0.2,0.1,0.4,0.1
			c0.1,0,0.2,0,0.3,0s0.2-0.1,0.3-0.1v0.4c-0.1,0-0.2,0.1-0.3,0.1C62,149.1,61.8,149.1,61.7,149.1z M61.6,147.5
			c-0.1,0-0.2,0-0.3,0.1c-0.1,0.1-0.1,0.2-0.1,0.3H62c0-0.1,0-0.2-0.1-0.3C61.8,147.5,61.7,147.5,61.6,147.5z"/>
		<path id="XMLID_176_" d="M64.4,149.1h-0.5v-2.6h1.5v0.4h-0.9v0.7h0.9v0.4h-0.9V149.1z"/>
		<path id="XMLID_178_" d="M65.8,146.6c0-0.2,0.1-0.3,0.3-0.3s0.3,0.1,0.3,0.3c0,0.1,0,0.1-0.1,0.2c0,0-0.1,0.1-0.2,0.1
			C65.9,146.9,65.8,146.8,65.8,146.6z M66.3,149.1h-0.5v-2h0.5V149.1z"/>
		<path id="XMLID_181_" d="M68.6,147.1v0.3l-0.3,0.1c0.1,0.1,0.1,0.2,0.1,0.3c0,0.2-0.1,0.4-0.2,0.5s-0.4,0.2-0.6,0.2l-0.1,0l-0.1,0
			c-0.1,0-0.1,0.1-0.1,0.1c0,0.1,0.1,0.1,0.3,0.1h0.3c0.2,0,0.4,0,0.5,0.1c0.1,0.1,0.2,0.2,0.2,0.4c0,0.2-0.1,0.4-0.3,0.5
			c-0.2,0.1-0.5,0.2-0.8,0.2c-0.3,0-0.5,0-0.6-0.1c-0.1-0.1-0.2-0.2-0.2-0.4c0-0.1,0-0.2,0.1-0.3c0.1-0.1,0.2-0.1,0.3-0.2
			c-0.1,0-0.1-0.1-0.1-0.1c0-0.1-0.1-0.1-0.1-0.2c0-0.1,0-0.1,0.1-0.2c0,0,0.1-0.1,0.2-0.1c-0.1,0-0.2-0.1-0.2-0.2
			c-0.1-0.1-0.1-0.2-0.1-0.3c0-0.2,0.1-0.4,0.2-0.5c0.1-0.1,0.3-0.2,0.6-0.2c0.1,0,0.1,0,0.2,0c0.1,0,0.1,0,0.1,0H68.6z M67.1,149.4
			c0,0.1,0,0.1,0.1,0.2s0.2,0.1,0.3,0.1c0.2,0,0.3,0,0.4-0.1c0.1-0.1,0.2-0.1,0.2-0.2c0-0.1,0-0.1-0.1-0.2c-0.1,0-0.2,0-0.3,0h-0.3
			c-0.1,0-0.2,0-0.2,0.1S67.1,149.3,67.1,149.4z M67.3,147.8c0,0.1,0,0.2,0.1,0.3s0.1,0.1,0.2,0.1c0.1,0,0.2,0,0.2-0.1
			s0.1-0.1,0.1-0.3c0-0.2-0.1-0.4-0.3-0.4C67.4,147.4,67.3,147.6,67.3,147.8z"/>
		<path id="XMLID_185_" d="M70.3,149.1l-0.1-0.3h0c-0.1,0.1-0.1,0.2-0.2,0.2c-0.1,0-0.2,0.1-0.4,0.1c-0.2,0-0.4-0.1-0.5-0.2
			s-0.2-0.3-0.2-0.5v-1.3h0.5v1.1c0,0.1,0,0.2,0.1,0.3c0.1,0.1,0.1,0.1,0.2,0.1c0.1,0,0.3,0,0.3-0.1c0.1-0.1,0.1-0.3,0.1-0.5v-0.9
			h0.5v2H70.3z"/>
		<path id="XMLID_187_" d="M72.2,149.1c-0.3,0-0.6-0.1-0.7-0.3c-0.2-0.2-0.3-0.4-0.3-0.7c0-0.3,0.1-0.6,0.2-0.8
			c0.2-0.2,0.4-0.3,0.7-0.3c0.3,0,0.5,0.1,0.6,0.2c0.2,0.2,0.2,0.4,0.2,0.7v0.3h-1.3c0,0.2,0.1,0.3,0.1,0.4s0.2,0.1,0.4,0.1
			c0.1,0,0.2,0,0.3,0s0.2-0.1,0.3-0.1v0.4c-0.1,0-0.2,0.1-0.3,0.1C72.5,149.1,72.3,149.1,72.2,149.1z M72.1,147.5
			c-0.1,0-0.2,0-0.3,0.1c-0.1,0.1-0.1,0.2-0.1,0.3h0.7c0-0.1,0-0.2-0.1-0.3C72.3,147.5,72.2,147.5,72.1,147.5z"/>
		<path id="XMLID_190_" d="M74.5,147.1c0.1,0,0.1,0,0.2,0l0,0.5c0,0-0.1,0-0.2,0c-0.2,0-0.3,0-0.4,0.1c-0.1,0.1-0.1,0.2-0.1,0.4v1
			h-0.5v-2h0.4l0.1,0.3h0c0.1-0.1,0.1-0.2,0.2-0.3C74.3,147.1,74.4,147.1,74.5,147.1z"/>
		<path id="XMLID_192_" d="M75.9,149.1c-0.3,0-0.6-0.1-0.7-0.3c-0.2-0.2-0.3-0.4-0.3-0.7c0-0.3,0.1-0.6,0.2-0.8
			c0.2-0.2,0.4-0.3,0.7-0.3c0.3,0,0.5,0.1,0.6,0.2c0.2,0.2,0.2,0.4,0.2,0.7v0.3h-1.3c0,0.2,0.1,0.3,0.1,0.4s0.2,0.1,0.4,0.1
			c0.1,0,0.2,0,0.3,0s0.2-0.1,0.3-0.1v0.4c-0.1,0-0.2,0.1-0.3,0.1C76.2,149.1,76.1,149.1,75.9,149.1z M75.8,147.5
			c-0.1,0-0.2,0-0.3,0.1c-0.1,0.1-0.1,0.2-0.1,0.3h0.7c0-0.1,0-0.2-0.1-0.3C76,147.5,76,147.5,75.8,147.5z"/>
		<path id="XMLID_195_" d="M78.5,148.5c0,0.2-0.1,0.4-0.2,0.5c-0.1,0.1-0.3,0.2-0.6,0.2c-0.1,0-0.3,0-0.4,0c-0.1,0-0.2,0-0.3-0.1
			v-0.4c0.1,0,0.2,0.1,0.3,0.1c0.1,0,0.2,0,0.3,0c0.2,0,0.3-0.1,0.3-0.2c0,0,0-0.1,0-0.1c0,0-0.1-0.1-0.1-0.1s-0.1-0.1-0.3-0.1
			c-0.2-0.1-0.3-0.1-0.3-0.2s-0.1-0.1-0.2-0.2c0-0.1,0-0.2,0-0.3c0-0.2,0.1-0.3,0.2-0.4c0.1-0.1,0.3-0.1,0.6-0.1
			c0.2,0,0.5,0.1,0.7,0.2l-0.2,0.4c-0.1,0-0.2-0.1-0.3-0.1c-0.1,0-0.2,0-0.3,0c-0.2,0-0.2,0-0.2,0.1c0,0,0,0.1,0.1,0.1
			c0.1,0,0.2,0.1,0.3,0.2c0.2,0.1,0.3,0.1,0.3,0.2c0.1,0.1,0.1,0.1,0.2,0.2C78.5,148.3,78.5,148.4,78.5,148.5z"/>
	</g>
	<g id="XMLID_78_">
		<rect id="XMLID_123_" x="101" y="3" class="st5" width="172" height="12.5"/>
	</g>
	<g id="XMLID_3_">
		<polygon id="XMLID_82_" points="170.2,139 173.3,135.1 173.3,142.8 		"/>
		<polygon id="XMLID_81_" points="190.6,139 187.5,135.1 187.5,142.8 		"/>
		<path id="XMLID_14_" d="M175.9,132.4l3.2-2.7v4.5c0,0-1.6,1.1-3.2,3.1V132.4z"/>
		<path id="XMLID_13_" d="M184.9,132.4l-3.2-2.7v4.5c0,0,1.6,1.1,3.2,3.1V132.4z"/>
		<path id="XMLID_12_" d="M184.9,145.4l-3.2,2.7v-4.5c0,0,1.6-1.1,3.2-3.1V145.4z"/>
		<path id="XMLID_11_" d="M175.9,145.4l3.2,2.7v-4.5c0,0-1.6-1.1-3.2-3.1V145.4z"/>
		<path id="XMLID_10_" d="M182.6,139.8c0,0-0.3,0.1,0-0.3c0.2-0.4,0.8-0.4,0.8-2.2c0,0-1.4,0.3-1.7,1c0,0-0.3,0.1-0.1-0.2
			s0.8-0.7,0.2-1.9c0,0-0.3,0.3-0.3,0.1c0-0.2-0.5-1.7-1-1.6c-0.4-0.1-0.9,1.4-1,1.6c0,0.2-0.3-0.1-0.3-0.1c-0.7,1.2,0,1.6,0.2,1.9
			s-0.1,0.2-0.1,0.2c-0.3-0.7-1.7-1-1.7-1c0,1.8,0.6,1.8,0.8,2.2c0.2,0.4,0,0.3,0,0.3c-0.7-0.7-1-0.3-1-0.3c0.6,2.2,1.4,1.9,1.4,1.9
			c-0.2,0.3-0.2,0.3-0.3,0.3c1.1,0.3,1.8-0.5,1.8-0.5l-0.1,2.1c0,0,0.1,0.2,0.2,0c0.1-0.2,0.2-0.1,0.2-0.1l0-2c0,0,0.8,0.8,1.8,0.5
			c0,0,0,0-0.3-0.3c0,0,0.8,0.3,1.4-1.9C183.6,139.5,183.3,139.1,182.6,139.8z"/>
		<g id="XMLID_9_">
			<path id="XMLID_91_" class="st6" d="M191.4,138.9c-3.6,4.7-6.2,7.3-10.9,10.9c-4.7-3.6-7.3-6.2-10.9-10.9
				c3.6-4.7,6.2-7.3,10.9-10.9C185.2,131.7,187.7,134.2,191.4,138.9z"/>
		</g>
	</g>
	<g id="XMLID_1_">
		<path id="XMLID_15_" d="M133.4,148.7l-0.5-1.4H131l-0.5,1.4h-0.9l1.9-5h0.9l1.9,5H133.4z M132.7,146.6l-0.5-1.4
			c0-0.1-0.1-0.2-0.1-0.4c-0.1-0.2-0.1-0.3-0.1-0.4c-0.1,0.3-0.2,0.6-0.3,0.9l-0.5,1.3H132.7z"/>
		<path id="XMLID_18_" d="M134.5,150.4c-0.2,0-0.4,0-0.6-0.1v-0.6c0.2,0,0.3,0.1,0.5,0.1c0.3,0,0.5-0.2,0.5-0.6v-4.2h0.8v4.3
			c0,0.4-0.1,0.7-0.3,0.9S134.8,150.4,134.5,150.4z M134.8,143.9c0-0.1,0-0.3,0.1-0.3c0.1-0.1,0.2-0.1,0.3-0.1c0.1,0,0.3,0,0.3,0.1
			c0.1,0.1,0.1,0.2,0.1,0.3c0,0.1,0,0.2-0.1,0.3c-0.1,0.1-0.2,0.1-0.3,0.1c-0.1,0-0.3,0-0.3-0.1C134.8,144.2,134.8,144,134.8,143.9z
			"/>
		<path id="XMLID_21_" d="M139.5,148.7l-0.1-0.5h0c-0.1,0.2-0.3,0.3-0.5,0.4c-0.2,0.1-0.4,0.2-0.7,0.2c-0.5,0-0.8-0.1-1-0.3
			s-0.3-0.6-0.3-1v-2.5h0.8v2.3c0,0.3,0.1,0.5,0.2,0.7c0.1,0.1,0.3,0.2,0.6,0.2c0.3,0,0.6-0.1,0.7-0.3c0.2-0.2,0.2-0.5,0.2-1v-1.9
			h0.8v3.8H139.5z"/>
		<path id="XMLID_23_" d="M144.6,148.7h-0.8v-2.3c0-0.3-0.1-0.5-0.2-0.7c-0.1-0.1-0.3-0.2-0.6-0.2c-0.3,0-0.6,0.1-0.7,0.3
			s-0.2,0.5-0.2,1v1.9h-0.8v-3.8h0.6l0.1,0.5h0c0.1-0.2,0.3-0.3,0.5-0.4c0.2-0.1,0.4-0.1,0.7-0.1c0.9,0,1.4,0.5,1.4,1.4V148.7z"/>
		<path id="XMLID_25_" d="M147.1,148.1c0.2,0,0.4,0,0.6-0.1v0.6c-0.1,0-0.2,0.1-0.3,0.1c-0.1,0-0.3,0-0.4,0c-0.8,0-1.1-0.4-1.1-1.2
			v-2h-0.5v-0.4l0.6-0.3l0.3-0.8h0.5v0.8h1.1v0.6h-1.1v2c0,0.2,0,0.3,0.1,0.4C146.8,148.1,146.9,148.1,147.1,148.1z"/>
		<path id="XMLID_27_" d="M150.8,148.7l-0.2-0.5h0c-0.2,0.2-0.4,0.4-0.5,0.5s-0.4,0.1-0.7,0.1c-0.4,0-0.7-0.1-0.9-0.3
			c-0.2-0.2-0.3-0.5-0.3-0.9c0-0.4,0.1-0.7,0.4-0.9c0.3-0.2,0.7-0.3,1.3-0.3l0.7,0v-0.2c0-0.2-0.1-0.4-0.2-0.5
			c-0.1-0.1-0.3-0.2-0.5-0.2c-0.2,0-0.4,0-0.6,0.1c-0.2,0.1-0.3,0.1-0.5,0.2l-0.3-0.6c0.2-0.1,0.4-0.2,0.7-0.2
			c0.2-0.1,0.5-0.1,0.7-0.1c0.5,0,0.8,0.1,1.1,0.3c0.2,0.2,0.4,0.5,0.4,1v2.5H150.8z M149.6,148.1c0.3,0,0.5-0.1,0.7-0.2
			s0.3-0.4,0.3-0.7v-0.3l-0.5,0c-0.4,0-0.7,0.1-0.8,0.2c-0.2,0.1-0.3,0.3-0.3,0.5c0,0.2,0,0.3,0.2,0.4
			C149.3,148.1,149.4,148.1,149.6,148.1z"/>
		<path id="XMLID_80_" d="M155.7,148.7h-0.8v-2.3c0-0.3-0.1-0.5-0.2-0.6s-0.3-0.2-0.5-0.2c-0.3,0-0.5,0.1-0.7,0.3
			c-0.1,0.2-0.2,0.5-0.2,1v1.9h-0.8v-3.8h0.6l0.1,0.5h0c0.1-0.2,0.3-0.3,0.5-0.4c0.2-0.1,0.4-0.1,0.7-0.1c0.6,0,1,0.2,1.2,0.6h0.1
			c0.1-0.2,0.3-0.3,0.5-0.4c0.2-0.1,0.4-0.2,0.7-0.2c0.5,0,0.8,0.1,1,0.3s0.3,0.6,0.3,1v2.5h-0.8v-2.3c0-0.3-0.1-0.5-0.2-0.6
			c-0.1-0.1-0.3-0.2-0.5-0.2c-0.3,0-0.5,0.1-0.7,0.3c-0.1,0.2-0.2,0.5-0.2,0.9V148.7z"/>
		<path id="XMLID_84_" d="M160.8,148.8c-0.6,0-1-0.2-1.4-0.5c-0.3-0.3-0.5-0.8-0.5-1.4c0-0.6,0.2-1.1,0.5-1.5
			c0.3-0.4,0.7-0.5,1.3-0.5c0.5,0,0.9,0.2,1.2,0.5c0.3,0.3,0.4,0.7,0.4,1.3v0.4h-2.5c0,0.4,0.1,0.6,0.3,0.8c0.2,0.2,0.5,0.3,0.8,0.3
			c0.2,0,0.4,0,0.6-0.1c0.2,0,0.4-0.1,0.6-0.2v0.7c-0.2,0.1-0.4,0.2-0.6,0.2C161.3,148.7,161.1,148.8,160.8,148.8z M160.7,145.5
			c-0.3,0-0.5,0.1-0.6,0.2c-0.2,0.2-0.2,0.4-0.3,0.7h1.7c0-0.3-0.1-0.5-0.2-0.7C161.1,145.5,160.9,145.5,160.7,145.5z"/>
		<path id="XMLID_92_" d="M166.5,148.7h-0.8v-2.3c0-0.3-0.1-0.5-0.2-0.7c-0.1-0.1-0.3-0.2-0.6-0.2c-0.3,0-0.6,0.1-0.7,0.3
			s-0.2,0.5-0.2,1v1.9h-0.8v-3.8h0.6l0.1,0.5h0c0.1-0.2,0.3-0.3,0.5-0.4c0.2-0.1,0.4-0.1,0.7-0.1c0.9,0,1.4,0.5,1.4,1.4V148.7z"/>
		<path id="XMLID_94_" d="M169.1,148.1c0.2,0,0.4,0,0.6-0.1v0.6c-0.1,0-0.2,0.1-0.3,0.1c-0.1,0-0.3,0-0.4,0c-0.8,0-1.1-0.4-1.1-1.2
			v-2h-0.5v-0.4l0.6-0.3l0.3-0.8h0.5v0.8h1.1v0.6h-1.1v2c0,0.2,0,0.3,0.1,0.4C168.8,148.1,168.9,148.1,169.1,148.1z"/>
		<path id="XMLID_96_" d="M191.7,148.8c-0.5,0-0.8-0.2-1.1-0.5c-0.3-0.3-0.4-0.8-0.4-1.4c0-0.6,0.1-1.1,0.4-1.4
			c0.3-0.3,0.6-0.5,1.1-0.5c0.5,0,0.9,0.2,1.1,0.5h0c0-0.3-0.1-0.5-0.1-0.6v-1.4h0.8v5.3H193l-0.1-0.5h0
			C192.6,148.6,192.2,148.8,191.7,148.8z M191.9,148.1c0.3,0,0.6-0.1,0.7-0.3s0.2-0.5,0.2-0.9v-0.1c0-0.5-0.1-0.8-0.2-1
			c-0.2-0.2-0.4-0.3-0.7-0.3c-0.3,0-0.5,0.1-0.7,0.3c-0.2,0.2-0.2,0.6-0.2,1c0,0.4,0.1,0.7,0.2,1C191.4,148,191.6,148.1,191.9,148.1
			z"/>
		<path id="XMLID_99_" d="M196.4,148.8c-0.6,0-1-0.2-1.4-0.5c-0.3-0.3-0.5-0.8-0.5-1.4c0-0.6,0.2-1.1,0.5-1.5
			c0.3-0.4,0.7-0.5,1.3-0.5c0.5,0,0.9,0.2,1.2,0.5c0.3,0.3,0.4,0.7,0.4,1.3v0.4h-2.5c0,0.4,0.1,0.6,0.3,0.8c0.2,0.2,0.5,0.3,0.8,0.3
			c0.2,0,0.4,0,0.6-0.1s0.4-0.1,0.6-0.2v0.7c-0.2,0.1-0.4,0.2-0.6,0.2C196.9,148.7,196.7,148.8,196.4,148.8z M196.3,145.5
			c-0.3,0-0.5,0.1-0.6,0.2c-0.2,0.2-0.2,0.4-0.3,0.7h1.7c0-0.3-0.1-0.5-0.2-0.7C196.7,145.5,196.5,145.5,196.3,145.5z"/>
		<path id="XMLID_102_" d="M201.5,148.7h-0.8v-5h2.8v0.7h-2v1.6h1.9v0.7h-1.9V148.7z"/>
		<path id="XMLID_104_" d="M204.3,143.9c0-0.1,0-0.3,0.1-0.3c0.1-0.1,0.2-0.1,0.3-0.1c0.1,0,0.3,0,0.3,0.1c0.1,0.1,0.1,0.2,0.1,0.3
			c0,0.1,0,0.2-0.1,0.3c-0.1,0.1-0.2,0.1-0.3,0.1c-0.1,0-0.3,0-0.3-0.1C204.3,144.2,204.3,144,204.3,143.9z M205.2,148.7h-0.8v-3.8
			h0.8V148.7z"/>
		<path id="XMLID_107_" d="M209.5,144.9v0.4l-0.6,0.1c0.1,0.1,0.1,0.2,0.1,0.3c0,0.1,0.1,0.2,0.1,0.4c0,0.4-0.1,0.7-0.4,0.9
			c-0.3,0.2-0.6,0.3-1.1,0.3c-0.1,0-0.2,0-0.3,0c-0.2,0.1-0.3,0.2-0.3,0.4c0,0.1,0,0.2,0.1,0.2s0.2,0.1,0.4,0.1h0.7
			c0.4,0,0.7,0.1,1,0.3c0.2,0.2,0.3,0.4,0.3,0.8c0,0.4-0.2,0.8-0.5,1c-0.4,0.2-0.9,0.3-1.5,0.3c-0.5,0-0.9-0.1-1.2-0.3
			c-0.3-0.2-0.4-0.4-0.4-0.8c0-0.2,0.1-0.4,0.2-0.6c0.1-0.2,0.4-0.3,0.6-0.3c-0.1,0-0.2-0.1-0.3-0.2c-0.1-0.1-0.1-0.2-0.1-0.3
			c0-0.1,0-0.3,0.1-0.4c0.1-0.1,0.2-0.2,0.4-0.3c-0.2-0.1-0.4-0.2-0.5-0.4s-0.2-0.4-0.2-0.7c0-0.4,0.1-0.7,0.4-1
			c0.3-0.2,0.6-0.3,1.1-0.3c0.1,0,0.2,0,0.3,0s0.2,0,0.3,0H209.5z M206.5,149.3c0,0.2,0.1,0.3,0.2,0.4c0.2,0.1,0.4,0.1,0.7,0.1
			c0.4,0,0.8-0.1,1-0.2c0.2-0.1,0.3-0.3,0.3-0.5c0-0.2-0.1-0.3-0.2-0.4c-0.1-0.1-0.3-0.1-0.7-0.1h-0.6c-0.2,0-0.4,0.1-0.5,0.2
			C206.6,149,206.5,149.1,206.5,149.3z M206.9,146.1c0,0.2,0.1,0.4,0.2,0.5s0.3,0.2,0.5,0.2c0.5,0,0.7-0.2,0.7-0.7
			c0-0.2-0.1-0.4-0.2-0.6c-0.1-0.1-0.3-0.2-0.5-0.2c-0.2,0-0.4,0.1-0.5,0.2C206.9,145.7,206.9,145.9,206.9,146.1z"/>
		<path id="XMLID_111_" d="M212.9,148.7l-0.1-0.5h0c-0.1,0.2-0.3,0.3-0.5,0.4c-0.2,0.1-0.4,0.2-0.7,0.2c-0.5,0-0.8-0.1-1-0.3
			s-0.3-0.6-0.3-1v-2.5h0.8v2.3c0,0.3,0.1,0.5,0.2,0.7c0.1,0.1,0.3,0.2,0.6,0.2c0.3,0,0.6-0.1,0.7-0.3c0.2-0.2,0.2-0.5,0.2-1v-1.9
			h0.8v3.8H212.9z"/>
		<path id="XMLID_113_" d="M216.3,148.8c-0.6,0-1-0.2-1.4-0.5c-0.3-0.3-0.5-0.8-0.5-1.4c0-0.6,0.2-1.1,0.5-1.5
			c0.3-0.4,0.7-0.5,1.3-0.5c0.5,0,0.9,0.2,1.2,0.5c0.3,0.3,0.4,0.7,0.4,1.3v0.4h-2.5c0,0.4,0.1,0.6,0.3,0.8c0.2,0.2,0.5,0.3,0.8,0.3
			c0.2,0,0.4,0,0.6-0.1s0.4-0.1,0.6-0.2v0.7c-0.2,0.1-0.4,0.2-0.6,0.2C216.8,148.7,216.6,148.8,216.3,148.8z M216.1,145.5
			c-0.3,0-0.5,0.1-0.6,0.2c-0.2,0.2-0.2,0.4-0.3,0.7h1.7c0-0.3-0.1-0.5-0.2-0.7C216.6,145.5,216.4,145.5,216.1,145.5z"/>
		<path id="XMLID_116_" d="M220.6,144.8c0.2,0,0.3,0,0.4,0l-0.1,0.7c-0.1,0-0.2,0-0.4,0c-0.3,0-0.6,0.1-0.8,0.3
			c-0.2,0.2-0.3,0.5-0.3,0.8v2h-0.8v-3.8h0.6l0.1,0.7h0c0.1-0.2,0.3-0.4,0.5-0.5C220.1,144.9,220.4,144.8,220.6,144.8z"/>
		<path id="XMLID_118_" d="M223.3,148.8c-0.6,0-1-0.2-1.4-0.5c-0.3-0.3-0.5-0.8-0.5-1.4c0-0.6,0.2-1.1,0.5-1.5
			c0.3-0.4,0.7-0.5,1.3-0.5c0.5,0,0.9,0.2,1.2,0.5c0.3,0.3,0.4,0.7,0.4,1.3v0.4h-2.5c0,0.4,0.1,0.6,0.3,0.8c0.2,0.2,0.5,0.3,0.8,0.3
			c0.2,0,0.4,0,0.6-0.1c0.2,0,0.4-0.1,0.6-0.2v0.7c-0.2,0.1-0.4,0.2-0.6,0.2C223.8,148.7,223.6,148.8,223.3,148.8z M223.2,145.5
			c-0.3,0-0.5,0.1-0.6,0.2c-0.2,0.2-0.2,0.4-0.3,0.7h1.7c0-0.3-0.1-0.5-0.2-0.7C223.7,145.5,223.5,145.5,223.2,145.5z"/>
		<path id="XMLID_121_" d="M228.3,147.6c0,0.4-0.1,0.7-0.4,0.8c-0.3,0.2-0.7,0.3-1.2,0.3c-0.5,0-0.9-0.1-1.2-0.2v-0.7
			c0.4,0.2,0.9,0.3,1.2,0.3c0.5,0,0.7-0.1,0.7-0.4c0-0.1,0-0.2-0.1-0.2c-0.1-0.1-0.1-0.1-0.3-0.2c-0.1-0.1-0.3-0.1-0.5-0.2
			c-0.4-0.2-0.7-0.3-0.9-0.5c-0.2-0.2-0.2-0.4-0.2-0.7c0-0.3,0.1-0.6,0.4-0.8c0.3-0.2,0.6-0.3,1.1-0.3c0.4,0,0.9,0.1,1.3,0.3
			l-0.3,0.6c-0.4-0.2-0.8-0.3-1-0.3c-0.4,0-0.6,0.1-0.6,0.4c0,0.1,0.1,0.2,0.2,0.3c0.1,0.1,0.4,0.2,0.7,0.3c0.3,0.1,0.5,0.2,0.7,0.3
			c0.1,0.1,0.2,0.2,0.3,0.3S228.3,147.4,228.3,147.6z"/>
	</g>
</g>
<g id="Capa_8">
	<path id="XMLID_8_" class="st7" d="M80.7,116.7c0,0-0.1,0.1-0.1,0.1c0.8-0.2,1.6-0.6,2.2-1.2c1.9-1.9,1.9-5,0-6.9
		c-0.6-0.6-1.3-1-2-1.2C83.3,110,83.3,114.1,80.7,116.7z"/>
	<path id="XMLID_5_" class="st7" d="M87.2,117.9c0,0-0.1,0.1-0.1,0.1c1-0.3,2-0.8,2.8-1.6c2.4-2.4,2.4-6.3,0-8.7
		c-0.7-0.7-1.6-1.2-2.6-1.5C90.4,109.5,90.4,114.7,87.2,117.9z"/>
	<path id="XMLID_6_" class="st7" d="M93.8,118.7c0,0-0.1,0.1-0.2,0.1c1.2-0.3,2.3-0.9,3.2-1.8c2.7-2.7,2.7-7.2,0-9.9
		c-0.8-0.8-1.9-1.4-2.9-1.7C97.5,109.1,97.5,115,93.8,118.7z"/>
	<path id="XMLID_7_" class="st7" d="M100.3,119.7c-0.1,0.1-0.1,0.1-0.2,0.2c1.3-0.4,2.6-1,3.6-2.1c3.2-3.2,3.2-8.3,0-11.5
		c-1-1-2.2-1.6-3.4-2C104.6,108.6,104.6,115.5,100.3,119.7z"/>
</g>
<g id="Capa_9">
	<path id="XMLID_87_" class="st7" d="M74.2,107.6c-2.5,0-4.5,2-4.5,4.5c0,2.5,2,4.5,4.5,4.5c2.5,0,4.5-2,4.5-4.5
		C78.7,109.6,76.7,107.6,74.2,107.6z M73.4,114.8l0.7-2.8l-0.7-2.8l2.8,2.8L73.4,114.8z"/>
</g>
<g id="Capa_1" class="st8">
	<image style="display:inline;overflow:visible;opacity:0.43;" width="242" height="155" id="XMLID_2_" xlink:href="58DBC0AE.jpg" >
	</image>
</g>
</svg>
