<?xml version="1.0" encoding="utf-8"?>
<!-- Generator: Adobe Illustrator 19.0.0, SVG Export Plug-In . SVG Version: 6.00 Build 0)  -->
<svg version="1.1" xmlns="http://www.w3.org/2000/svg" xmlns:xlink="http://www.w3.org/1999/xlink" x="0px" y="0px"
	 viewBox="0 0 242 155" style="enable-background:new 0 0 242 155;" xml:space="preserve">
<style type="text/css">
	.st0{fill:#66CC33;}
	.st1{opacity:0.25;fill:#66CC33;}
	.st2{opacity:0.5;fill:#66CC33;}
	.st3{opacity:0.75;fill:#66CC33;}
	.st4{fill:#F9F9F9;}
	.st5{fill:none;}
	.st6{fill:#FFFFFF;}
	.st7{fill:none;stroke:#000000;stroke-width:0.5;stroke-miterlimit:10;}
	.st8{display:none;}
</style>
<g id="Capa_2">
	<path id="XMLID_28_" class="st0" d="M230,155H12c-6.6,0-12-5.4-12-12V12C0,5.4,5.4,0,12,0h218c6.6,0,12,5.4,12,12v131
		C242,149.6,236.6,155,230,155z"/>
</g>
<g id="Capa_3">
	<rect id="XMLID_29_" y="103" width="242" height="18.5"/>
	<g id="XMLID_30_">
	</g>
</g>
<g id="Capa_6">
	<path id="XMLID_41_" class="st1" d="M18.4,109h-0.2v-1.2c0-1.1-2.5-2-5.6-2s-5.6,0.9-5.6,2v1.2H6.9c-0.3,0-0.6,0.3-0.6,0.6v2
		c0,0.3,0.3,0.6,0.6,0.6h0.2v4c0,0.4,0.4,0.8,0.8,0.8v0.8c0,0.4,0.4,0.8,0.8,0.8h0.8c0.4,0,0.8-0.4,0.8-0.8V117h4.8v0.8
		c0,0.4,0.4,0.8,0.8,0.8h0.8c0.4,0,0.8-0.4,0.8-0.8V117h0.2c0.4,0,0.6-0.3,0.6-0.6v-4.1h0.2c0.3,0,0.6-0.3,0.6-0.6v-2
		C19,109.3,18.8,109,18.4,109z M10.3,107.6c0-0.1,0.1-0.2,0.2-0.2h4.4c0.1,0,0.2,0.1,0.2,0.2v0.4c0,0.1-0.1,0.2-0.2,0.2h-4.4
		c-0.1,0-0.2-0.1-0.2-0.2V107.6z M9.1,115.8c-0.4,0-0.8-0.4-0.8-0.8s0.4-0.8,0.8-0.8c0.4,0,0.8,0.4,0.8,0.8S9.5,115.8,9.1,115.8z
		 M12.3,113H9.5c-0.4,0-0.8-0.4-0.8-0.8v-2.4c0-0.4,0.4-0.8,0.8-0.8h2.8V113z M13.1,113v-4h2.8c0.4,0,0.8,0.4,0.8,0.8v2.4
		c0,0.4-0.4,0.8-0.8,0.8H13.1z M16.2,115.8c-0.4,0-0.8-0.4-0.8-0.8s0.4-0.8,0.8-0.8c0.4,0,0.8,0.4,0.8,0.8S16.7,115.8,16.2,115.8z"
		/>
	<path id="XMLID_40_" class="st2" d="M33.2,109H33v-1.2c0-1.1-2.5-2-5.6-2s-5.6,0.9-5.6,2v1.2h-0.2c-0.3,0-0.6,0.3-0.6,0.6v2
		c0,0.3,0.3,0.6,0.6,0.6h0.2v4c0,0.4,0.4,0.8,0.8,0.8v0.8c0,0.4,0.4,0.8,0.8,0.8h0.8c0.4,0,0.8-0.4,0.8-0.8V117h4.8v0.8
		c0,0.4,0.4,0.8,0.8,0.8h0.8c0.4,0,0.8-0.4,0.8-0.8V117h0.2c0.4,0,0.6-0.3,0.6-0.6v-4.1h0.2c0.3,0,0.6-0.3,0.6-0.6v-2
		C33.8,109.3,33.5,109,33.2,109z M25.1,107.6c0-0.1,0.1-0.2,0.2-0.2h4.4c0.1,0,0.2,0.1,0.2,0.2v0.4c0,0.1-0.1,0.2-0.2,0.2h-4.4
		c-0.1,0-0.2-0.1-0.2-0.2V107.6z M23.9,115.8c-0.4,0-0.8-0.4-0.8-0.8s0.4-0.8,0.8-0.8s0.8,0.4,0.8,0.8S24.3,115.8,23.9,115.8z
		 M27,113h-2.8c-0.4,0-0.8-0.4-0.8-0.8v-2.4c0-0.4,0.4-0.8,0.8-0.8H27V113z M27.8,113v-4h2.8c0.4,0,0.8,0.4,0.8,0.8v2.4
		c0,0.4-0.4,0.8-0.8,0.8H27.8z M31,115.8c-0.4,0-0.8-0.4-0.8-0.8s0.4-0.8,0.8-0.8c0.4,0,0.8,0.4,0.8,0.8S31.4,115.8,31,115.8z"/>
	<path id="XMLID_48_" class="st3" d="M48,109h-0.2v-1.2c0-1.1-2.5-2-5.6-2c-3.1,0-5.6,0.9-5.6,2v1.2h-0.2c-0.3,0-0.6,0.3-0.6,0.6v2
		c0,0.3,0.3,0.6,0.6,0.6h0.2v4c0,0.4,0.4,0.8,0.8,0.8v0.8c0,0.4,0.4,0.8,0.8,0.8H39c0.4,0,0.8-0.4,0.8-0.8V117h4.8v0.8
		c0,0.4,0.4,0.8,0.8,0.8h0.8c0.4,0,0.8-0.4,0.8-0.8V117h0.2c0.4,0,0.6-0.3,0.6-0.6v-4.1H48c0.3,0,0.6-0.3,0.6-0.6v-2
		C48.6,109.3,48.3,109,48,109z M39.8,107.6c0-0.1,0.1-0.2,0.2-0.2h4.4c0.1,0,0.2,0.1,0.2,0.2v0.4c0,0.1-0.1,0.2-0.2,0.2H40
		c-0.1,0-0.2-0.1-0.2-0.2V107.6z M38.6,115.8c-0.4,0-0.8-0.4-0.8-0.8s0.4-0.8,0.8-0.8c0.4,0,0.8,0.4,0.8,0.8S39.1,115.8,38.6,115.8z
		 M41.8,113H39c-0.4,0-0.8-0.4-0.8-0.8v-2.4c0-0.4,0.4-0.8,0.8-0.8h2.8V113z M42.6,113v-4h2.8c0.4,0,0.8,0.4,0.8,0.8v2.4
		c0,0.4-0.4,0.8-0.8,0.8H42.6z M45.8,115.8c-0.4,0-0.8-0.4-0.8-0.8s0.4-0.8,0.8-0.8c0.4,0,0.8,0.4,0.8,0.8S46.2,115.8,45.8,115.8z"
		/>
	<path id="XMLID_55_" class="st0" d="M62.7,109h-0.2v-1.2c0-1.1-2.5-2-5.6-2s-5.6,0.9-5.6,2v1.2h-0.2c-0.3,0-0.6,0.3-0.6,0.6v2
		c0,0.3,0.3,0.6,0.6,0.6h0.2v4c0,0.4,0.4,0.8,0.8,0.8v0.8c0,0.4,0.4,0.8,0.8,0.8h0.8c0.4,0,0.8-0.4,0.8-0.8V117h4.8v0.8
		c0,0.4,0.4,0.8,0.8,0.8h0.8c0.4,0,0.8-0.4,0.8-0.8V117h0.2c0.4,0,0.6-0.3,0.6-0.6v-4.1h0.2c0.3,0,0.6-0.3,0.6-0.6v-2
		C63.3,109.3,63.1,109,62.7,109z M54.6,107.6c0-0.1,0.1-0.2,0.2-0.2h4.4c0.1,0,0.2,0.1,0.2,0.2v0.4c0,0.1-0.1,0.2-0.2,0.2h-4.4
		c-0.1,0-0.2-0.1-0.2-0.2V107.6z M53.4,115.8c-0.4,0-0.8-0.4-0.8-0.8s0.4-0.8,0.8-0.8c0.4,0,0.8,0.4,0.8,0.8S53.8,115.8,53.4,115.8z
		 M56.6,113h-2.8c-0.4,0-0.8-0.4-0.8-0.8v-2.4c0-0.4,0.4-0.8,0.8-0.8h2.8V113z M57.4,113v-4h2.8c0.4,0,0.8,0.4,0.8,0.8v2.4
		c0,0.4-0.4,0.8-0.8,0.8H57.4z M60.5,115.8c-0.4,0-0.8-0.4-0.8-0.8s0.4-0.8,0.8-0.8s0.8,0.4,0.8,0.8S61,115.8,60.5,115.8z"/>
</g>
<g id="Capa_7">
</g>
<g id="Capa_5">
	<rect id="XMLID_33_" y="9.5" class="st4" width="242" height="93.5"/>
</g>
<g id="Capa_4">
	<g id="XMLID_32_">
		<path id="XMLID_292_" d="M26.4,70h-1.6v-8.6h-2.9V60h7.5v1.4h-2.9V70z"/>
		<path id="XMLID_294_" d="M35.4,70l-0.3-1.1h-0.1c-0.4,0.5-0.7,0.8-1.1,0.9c-0.4,0.2-0.8,0.3-1.4,0.3c-0.7,0-1.3-0.2-1.7-0.6
			c-0.4-0.4-0.6-1-0.6-1.7c0-0.8,0.3-1.4,0.9-1.8s1.5-0.6,2.6-0.6l1.3,0V65c0-0.5-0.1-0.8-0.3-1.1s-0.6-0.4-1-0.4
			c-0.4,0-0.8,0.1-1.1,0.2c-0.4,0.1-0.7,0.2-1,0.4L31,63c0.4-0.2,0.9-0.4,1.3-0.5c0.5-0.1,0.9-0.2,1.4-0.2c1,0,1.7,0.2,2.2,0.6
			c0.5,0.4,0.7,1.1,0.7,2V70H35.4z M33.1,68.9c0.6,0,1.1-0.2,1.4-0.5c0.4-0.3,0.5-0.8,0.5-1.4v-0.7l-1,0c-0.8,0-1.3,0.2-1.7,0.4
			s-0.5,0.6-0.5,1c0,0.3,0.1,0.6,0.3,0.8S32.7,68.9,33.1,68.9z"/>
		<path id="XMLID_297_" d="M42.7,62.3c0.3,0,0.6,0,0.8,0.1l-0.2,1.5c-0.2-0.1-0.5-0.1-0.7-0.1c-0.6,0-1.2,0.2-1.6,0.6
			c-0.4,0.4-0.6,1-0.6,1.6v4h-1.6v-7.6h1.3l0.2,1.3h0.1c0.3-0.5,0.6-0.8,1-1.1C41.8,62.4,42.2,62.3,42.7,62.3z"/>
		<path id="XMLID_299_" d="M51.3,62.4v0.9L50,63.6c0.1,0.2,0.2,0.4,0.3,0.6s0.1,0.5,0.1,0.7c0,0.8-0.3,1.4-0.8,1.8
			c-0.5,0.4-1.3,0.7-2.2,0.7c-0.2,0-0.5,0-0.7-0.1c-0.3,0.2-0.5,0.5-0.5,0.8c0,0.2,0.1,0.3,0.2,0.4c0.2,0.1,0.5,0.1,0.9,0.1h1.3
			c0.8,0,1.5,0.2,1.9,0.5s0.6,0.9,0.6,1.5c0,0.9-0.4,1.5-1.1,2s-1.7,0.7-3.1,0.7c-1,0-1.8-0.2-2.4-0.5s-0.8-0.9-0.8-1.6
			c0-0.5,0.1-0.9,0.4-1.2c0.3-0.3,0.7-0.5,1.2-0.7c-0.2-0.1-0.4-0.2-0.5-0.4c-0.1-0.2-0.2-0.4-0.2-0.6c0-0.3,0.1-0.5,0.2-0.7
			c0.2-0.2,0.4-0.4,0.7-0.6c-0.4-0.2-0.7-0.4-1-0.8c-0.2-0.4-0.4-0.8-0.4-1.3c0-0.8,0.3-1.5,0.8-1.9s1.3-0.7,2.2-0.7
			c0.2,0,0.4,0,0.7,0c0.2,0,0.4,0.1,0.5,0.1H51.3z M45.3,71.2c0,0.3,0.2,0.6,0.5,0.8s0.8,0.3,1.3,0.3c0.9,0,1.5-0.1,2-0.4
			s0.6-0.6,0.6-1c0-0.3-0.1-0.6-0.4-0.7C49.1,70,48.7,70,48,70h-1.2c-0.5,0-0.8,0.1-1.1,0.3C45.5,70.5,45.3,70.8,45.3,71.2z
			 M46,64.9c0,0.5,0.1,0.8,0.4,1.1c0.2,0.3,0.6,0.4,1,0.4c0.9,0,1.4-0.5,1.4-1.5c0-0.5-0.1-0.9-0.3-1.1s-0.6-0.4-1-0.4
			c-0.5,0-0.8,0.1-1.1,0.4C46.1,64,46,64.4,46,64.9z"/>
		<path id="XMLID_303_" d="M56,70.1c-1.2,0-2.1-0.3-2.8-1c-0.7-0.7-1-1.6-1-2.8c0-1.2,0.3-2.2,0.9-2.9c0.6-0.7,1.5-1.1,2.5-1.1
			c1,0,1.8,0.3,2.4,0.9c0.6,0.6,0.9,1.4,0.9,2.5v0.9h-5c0,0.7,0.2,1.3,0.6,1.7c0.4,0.4,0.9,0.6,1.6,0.6c0.4,0,0.9,0,1.2-0.1
			c0.4-0.1,0.8-0.2,1.2-0.4v1.3c-0.4,0.2-0.8,0.3-1.2,0.4C56.9,70.1,56.5,70.1,56,70.1z M55.7,63.5c-0.5,0-0.9,0.2-1.2,0.5
			c-0.3,0.3-0.5,0.8-0.6,1.4h3.4c0-0.6-0.2-1.1-0.5-1.4S56.2,63.5,55.7,63.5z"/>
		<path id="XMLID_306_" d="M63.5,68.8c0.4,0,0.8-0.1,1.2-0.2v1.2c-0.2,0.1-0.4,0.1-0.7,0.2c-0.3,0.1-0.6,0.1-0.9,0.1
			c-1.5,0-2.3-0.8-2.3-2.4v-4.1h-1v-0.7l1.1-0.6l0.5-1.6h1v1.7h2.2v1.2h-2.2v4c0,0.4,0.1,0.7,0.3,0.9S63.2,68.8,63.5,68.8z"/>
		<path id="XMLID_308_" d="M71,70l-0.3-1.1h-0.1c-0.4,0.5-0.7,0.8-1.1,0.9c-0.4,0.2-0.8,0.3-1.4,0.3c-0.7,0-1.3-0.2-1.7-0.6
			c-0.4-0.4-0.6-1-0.6-1.7c0-0.8,0.3-1.4,0.9-1.8s1.5-0.6,2.6-0.6l1.3,0V65c0-0.5-0.1-0.8-0.3-1.1s-0.6-0.4-1-0.4
			c-0.4,0-0.8,0.1-1.1,0.2c-0.4,0.1-0.7,0.2-1,0.4L66.5,63c0.4-0.2,0.9-0.4,1.3-0.5c0.5-0.1,0.9-0.2,1.4-0.2c1,0,1.7,0.2,2.2,0.6
			c0.5,0.4,0.7,1.1,0.7,2V70H71z M68.6,68.9c0.6,0,1.1-0.2,1.4-0.5c0.4-0.3,0.5-0.8,0.5-1.4v-0.7l-1,0c-0.8,0-1.3,0.2-1.7,0.4
			s-0.5,0.6-0.5,1c0,0.3,0.1,0.6,0.3,0.8S68.2,68.9,68.6,68.9z"/>
		<path id="XMLID_311_" d="M84.4,70h-1.6v-4.7c0-0.6-0.1-1-0.3-1.3c-0.2-0.3-0.6-0.4-1-0.4c-0.6,0-1.1,0.2-1.4,0.6s-0.4,1.1-0.4,2
			V70H78v-7.6h1.3l0.2,1h0.1c0.2-0.4,0.5-0.6,0.9-0.8c0.4-0.2,0.8-0.3,1.3-0.3c1.2,0,1.9,0.4,2.3,1.2h0.1c0.2-0.4,0.5-0.7,0.9-0.9
			c0.4-0.2,0.9-0.3,1.4-0.3c0.9,0,1.6,0.2,2,0.7c0.4,0.5,0.6,1.2,0.6,2.1V70h-1.6v-4.7c0-0.6-0.1-1-0.3-1.3c-0.2-0.3-0.6-0.4-1-0.4
			c-0.6,0-1.1,0.2-1.4,0.6s-0.4,1-0.4,1.8V70z"/>
		<path id="XMLID_313_" d="M96.7,70l-0.2-1h-0.1c-0.2,0.4-0.5,0.6-1,0.8C95,70,94.6,70.1,94,70.1c-0.9,0-1.6-0.2-2.1-0.7
			c-0.5-0.5-0.7-1.1-0.7-2.1v-4.9h1.6v4.7c0,0.6,0.1,1,0.4,1.3c0.2,0.3,0.6,0.4,1.1,0.4c0.7,0,1.2-0.2,1.5-0.6s0.5-1.1,0.5-2v-3.8
			H98V70H96.7z"/>
		<path id="XMLID_315_" d="M101.9,70h-1.6V59.4h1.6V70z"/>
		<path id="XMLID_317_" d="M107,68.8c0.4,0,0.8-0.1,1.2-0.2v1.2c-0.2,0.1-0.4,0.1-0.7,0.2c-0.3,0.1-0.6,0.1-0.9,0.1
			c-1.5,0-2.3-0.8-2.3-2.4v-4.1h-1v-0.7l1.1-0.6l0.5-1.6h1v1.7h2.2v1.2h-2.2v4c0,0.4,0.1,0.7,0.3,0.9S106.7,68.8,107,68.8z"/>
		<path id="XMLID_319_" d="M109.6,60.4c0-0.3,0.1-0.5,0.2-0.7c0.2-0.2,0.4-0.2,0.7-0.2c0.3,0,0.5,0.1,0.7,0.2
			c0.2,0.2,0.2,0.4,0.2,0.7c0,0.3-0.1,0.5-0.2,0.6s-0.4,0.2-0.7,0.2c-0.3,0-0.5-0.1-0.7-0.2S109.6,60.7,109.6,60.4z M111.3,70h-1.6
			v-7.6h1.6V70z"/>
		<path id="XMLID_322_" d="M115.3,70l-2.9-7.6h1.7l1.5,4.4c0.3,0.7,0.4,1.3,0.5,1.8h0.1c0-0.3,0.2-0.9,0.5-1.8l1.5-4.4h1.7L117,70
			H115.3z"/>
		<path id="XMLID_324_" d="M121,60.4c0-0.3,0.1-0.5,0.2-0.7c0.2-0.2,0.4-0.2,0.7-0.2c0.3,0,0.5,0.1,0.7,0.2c0.2,0.2,0.2,0.4,0.2,0.7
			c0,0.3-0.1,0.5-0.2,0.6c-0.2,0.2-0.4,0.2-0.7,0.2c-0.3,0-0.5-0.1-0.7-0.2C121,60.9,121,60.7,121,60.4z M122.7,70h-1.6v-7.6h1.6V70
			z"/>
		<path id="XMLID_327_" d="M129.7,70l-0.3-1.1h-0.1c-0.4,0.5-0.7,0.8-1.1,0.9c-0.4,0.2-0.8,0.3-1.4,0.3c-0.7,0-1.3-0.2-1.7-0.6
			c-0.4-0.4-0.6-1-0.6-1.7c0-0.8,0.3-1.4,0.9-1.8s1.5-0.6,2.6-0.6l1.3,0V65c0-0.5-0.1-0.8-0.3-1.1c-0.2-0.2-0.6-0.4-1-0.4
			c-0.4,0-0.8,0.1-1.1,0.2c-0.4,0.1-0.7,0.2-1,0.4l-0.5-1.1c0.4-0.2,0.9-0.4,1.3-0.5c0.5-0.1,0.9-0.2,1.4-0.2c1,0,1.7,0.2,2.2,0.6
			c0.5,0.4,0.7,1.1,0.7,2V70H129.7z M127.3,68.9c0.6,0,1.1-0.2,1.4-0.5c0.4-0.3,0.5-0.8,0.5-1.4v-0.7l-1,0c-0.8,0-1.3,0.2-1.7,0.4
			c-0.3,0.2-0.5,0.6-0.5,1c0,0.3,0.1,0.6,0.3,0.8S126.9,68.9,127.3,68.9z"/>
		<path id="XMLID_330_" d="M135.9,68.8c0.4,0,0.8-0.1,1.2-0.2v1.2c-0.2,0.1-0.4,0.1-0.7,0.2c-0.3,0.1-0.6,0.1-0.9,0.1
			c-1.5,0-2.3-0.8-2.3-2.4v-4.1h-1v-0.7l1.1-0.6l0.5-1.6h1v1.7h2.2v1.2h-2.2v4c0,0.4,0.1,0.7,0.3,0.9
			C135.3,68.7,135.6,68.8,135.9,68.8z"/>
		<path id="XMLID_332_" d="M145,62.4v0.9l-1.3,0.2c0.1,0.2,0.2,0.4,0.3,0.6s0.1,0.5,0.1,0.7c0,0.8-0.3,1.4-0.8,1.8
			c-0.5,0.4-1.3,0.7-2.2,0.7c-0.2,0-0.5,0-0.7-0.1c-0.3,0.2-0.5,0.5-0.5,0.8c0,0.2,0.1,0.3,0.2,0.4c0.2,0.1,0.5,0.1,0.9,0.1h1.3
			c0.8,0,1.5,0.2,1.9,0.5s0.6,0.9,0.6,1.5c0,0.9-0.4,1.5-1.1,2s-1.7,0.7-3.1,0.7c-1,0-1.8-0.2-2.4-0.5s-0.8-0.9-0.8-1.6
			c0-0.5,0.1-0.9,0.4-1.2c0.3-0.3,0.7-0.5,1.2-0.7c-0.2-0.1-0.4-0.2-0.5-0.4c-0.1-0.2-0.2-0.4-0.2-0.6c0-0.3,0.1-0.5,0.2-0.7
			c0.2-0.2,0.4-0.4,0.7-0.6c-0.4-0.2-0.7-0.4-1-0.8c-0.2-0.4-0.4-0.8-0.4-1.3c0-0.8,0.3-1.5,0.8-1.9c0.5-0.5,1.3-0.7,2.2-0.7
			c0.2,0,0.4,0,0.7,0c0.2,0,0.4,0.1,0.5,0.1H145z M139,71.2c0,0.3,0.2,0.6,0.5,0.8c0.3,0.2,0.8,0.3,1.3,0.3c0.9,0,1.5-0.1,2-0.4
			s0.6-0.6,0.6-1c0-0.3-0.1-0.6-0.4-0.7c-0.2-0.1-0.7-0.2-1.3-0.2h-1.2c-0.5,0-0.8,0.1-1.1,0.3C139.2,70.5,139,70.8,139,71.2z
			 M139.7,64.9c0,0.5,0.1,0.8,0.4,1.1c0.2,0.3,0.6,0.4,1,0.4c0.9,0,1.4-0.5,1.4-1.5c0-0.5-0.1-0.9-0.3-1.1c-0.2-0.3-0.6-0.4-1-0.4
			c-0.5,0-0.8,0.1-1.1,0.4C139.8,64,139.7,64.4,139.7,64.9z"/>
		<path id="XMLID_336_" d="M149.7,70.1c-1.2,0-2.1-0.3-2.8-1c-0.7-0.7-1-1.6-1-2.8c0-1.2,0.3-2.2,0.9-2.9c0.6-0.7,1.5-1.1,2.5-1.1
			c1,0,1.8,0.3,2.4,0.9c0.6,0.6,0.9,1.4,0.9,2.5v0.9h-5c0,0.7,0.2,1.3,0.6,1.7c0.4,0.4,0.9,0.6,1.6,0.6c0.4,0,0.9,0,1.2-0.1
			c0.4-0.1,0.8-0.2,1.2-0.4v1.3c-0.4,0.2-0.8,0.3-1.2,0.4C150.6,70.1,150.2,70.1,149.7,70.1z M149.4,63.5c-0.5,0-0.9,0.2-1.2,0.5
			c-0.3,0.3-0.5,0.8-0.6,1.4h3.4c0-0.6-0.2-1.1-0.5-1.4S149.9,63.5,149.4,63.5z"/>
		<path id="XMLID_339_" d="M164.8,66.2c0,1.2-0.3,2.2-1,2.9c-0.6,0.7-1.5,1-2.6,1c-0.7,0-1.3-0.2-1.9-0.5c-0.5-0.3-1-0.8-1.3-1.4
			c-0.3-0.6-0.4-1.3-0.4-2.1c0-1.2,0.3-2.2,0.9-2.9c0.6-0.7,1.5-1,2.7-1c1.1,0,2,0.4,2.6,1.1S164.8,65,164.8,66.2z M159.3,66.2
			c0,1.7,0.6,2.6,1.9,2.6c1.3,0,1.9-0.9,1.9-2.6c0-1.7-0.6-2.6-1.9-2.6c-0.7,0-1.2,0.2-1.5,0.7C159.4,64.7,159.3,65.4,159.3,66.2z"
			/>
		<path id="XMLID_342_" d="M170.5,62.3c0.3,0,0.6,0,0.8,0.1l-0.2,1.5c-0.2-0.1-0.5-0.1-0.7-0.1c-0.6,0-1.2,0.2-1.6,0.6
			c-0.4,0.4-0.6,1-0.6,1.6v4h-1.6v-7.6h1.3l0.2,1.3h0.1c0.3-0.5,0.6-0.8,1-1.1C169.6,62.4,170,62.3,170.5,62.3z"/>
		<path id="XMLID_344_" d="M175.2,70.1c-0.9,0-1.7-0.3-2.2-1s-0.8-1.6-0.8-2.9c0-1.2,0.3-2.2,0.8-2.9c0.5-0.7,1.3-1,2.2-1
			c1,0,1.8,0.4,2.3,1.1h0.1c-0.1-0.5-0.1-1-0.1-1.3v-2.8h1.6V70h-1.3l-0.3-1h-0.1C177,69.8,176.2,70.1,175.2,70.1z M175.6,68.8
			c0.7,0,1.1-0.2,1.4-0.6c0.3-0.4,0.5-1,0.5-1.8v-0.2c0-1-0.2-1.6-0.5-2c-0.3-0.4-0.8-0.6-1.5-0.6c-0.6,0-1,0.2-1.3,0.7
			s-0.5,1.1-0.5,2c0,0.8,0.1,1.5,0.4,1.9C174.6,68.6,175.1,68.8,175.6,68.8z"/>
		<path id="XMLID_347_" d="M181.3,60.4c0-0.3,0.1-0.5,0.2-0.7c0.2-0.2,0.4-0.2,0.7-0.2c0.3,0,0.5,0.1,0.7,0.2
			c0.2,0.2,0.2,0.4,0.2,0.7c0,0.3-0.1,0.5-0.2,0.6c-0.2,0.2-0.4,0.2-0.7,0.2c-0.3,0-0.5-0.1-0.7-0.2
			C181.4,60.9,181.3,60.7,181.3,60.4z M183,70h-1.6v-7.6h1.6V70z"/>
		<path id="XMLID_350_" d="M191.9,70h-1.6v-4.6c0-0.6-0.1-1-0.4-1.3c-0.2-0.3-0.6-0.4-1.1-0.4c-0.7,0-1.2,0.2-1.5,0.6
			c-0.3,0.4-0.5,1.1-0.5,2V70h-1.6v-7.6h1.3l0.2,1h0.1c0.2-0.4,0.6-0.6,1-0.8c0.4-0.2,0.9-0.3,1.4-0.3c1.8,0,2.7,0.9,2.7,2.8V70z"/>
		<path id="XMLID_352_" d="M198.9,70l-0.3-1.1h-0.1c-0.4,0.5-0.7,0.8-1.1,0.9c-0.4,0.2-0.8,0.3-1.4,0.3c-0.7,0-1.3-0.2-1.7-0.6
			c-0.4-0.4-0.6-1-0.6-1.7c0-0.8,0.3-1.4,0.9-1.8s1.5-0.6,2.6-0.6l1.3,0V65c0-0.5-0.1-0.8-0.3-1.1c-0.2-0.2-0.6-0.4-1-0.4
			c-0.4,0-0.8,0.1-1.1,0.2c-0.4,0.1-0.7,0.2-1,0.4l-0.5-1.1c0.4-0.2,0.9-0.4,1.3-0.5c0.5-0.1,0.9-0.2,1.4-0.2c1,0,1.7,0.2,2.2,0.6
			c0.5,0.4,0.7,1.1,0.7,2V70H198.9z M197,61.5c-0.3-0.2-0.7-0.6-1.2-1c-0.5-0.4-0.8-0.8-1-1.1v-0.1h1.9c0.2,0.3,0.4,0.7,0.7,1.1
			c0.3,0.4,0.5,0.7,0.7,1v0.2H197z M196.5,68.9c0.6,0,1.1-0.2,1.4-0.5c0.4-0.3,0.5-0.8,0.5-1.4v-0.7l-1,0c-0.8,0-1.3,0.2-1.7,0.4
			c-0.3,0.2-0.5,0.6-0.5,1c0,0.3,0.1,0.6,0.3,0.8S196.1,68.9,196.5,68.9z"/>
		<path id="XMLID_356_" d="M206.1,62.3c0.3,0,0.6,0,0.8,0.1l-0.2,1.5c-0.2-0.1-0.5-0.1-0.7-0.1c-0.6,0-1.2,0.2-1.6,0.6
			c-0.4,0.4-0.6,1-0.6,1.6v4h-1.6v-7.6h1.3l0.2,1.3h0.1c0.3-0.5,0.6-0.8,1-1.1C205.2,62.4,205.7,62.3,206.1,62.3z"/>
		<path id="XMLID_358_" d="M208.2,60.4c0-0.3,0.1-0.5,0.2-0.7c0.2-0.2,0.4-0.2,0.7-0.2c0.3,0,0.5,0.1,0.7,0.2
			c0.2,0.2,0.2,0.4,0.2,0.7c0,0.3-0.1,0.5-0.2,0.6c-0.2,0.2-0.4,0.2-0.7,0.2c-0.3,0-0.5-0.1-0.7-0.2
			C208.3,60.9,208.2,60.7,208.2,60.4z M209.9,70h-1.6v-7.6h1.6V70z"/>
		<path id="XMLID_361_" d="M217,70l-0.3-1.1h-0.1c-0.4,0.5-0.7,0.8-1.1,0.9c-0.4,0.2-0.8,0.3-1.4,0.3c-0.7,0-1.3-0.2-1.7-0.6
			c-0.4-0.4-0.6-1-0.6-1.7c0-0.8,0.3-1.4,0.9-1.8s1.5-0.6,2.6-0.6l1.3,0V65c0-0.5-0.1-0.8-0.3-1.1c-0.2-0.2-0.6-0.4-1-0.4
			c-0.4,0-0.8,0.1-1.1,0.2c-0.4,0.1-0.7,0.2-1,0.4l-0.5-1.1c0.4-0.2,0.9-0.4,1.3-0.5c0.5-0.1,0.9-0.2,1.4-0.2c1,0,1.7,0.2,2.2,0.6
			c0.5,0.4,0.7,1.1,0.7,2V70H217z M214.6,68.9c0.6,0,1.1-0.2,1.4-0.5c0.4-0.3,0.5-0.8,0.5-1.4v-0.7l-1,0c-0.8,0-1.3,0.2-1.7,0.4
			c-0.3,0.2-0.5,0.6-0.5,1c0,0.3,0.1,0.6,0.3,0.8S214.2,68.9,214.6,68.9z"/>
	</g>
	<g id="XMLID_31_">
		<path id="XMLID_266_" d="M91.2,83c0,0.9-0.3,1.6-0.9,2.1s-1.4,0.7-2.5,0.7h-0.9V89h-1.4v-8.6H88c1.1,0,1.9,0.2,2.4,0.7
			S91.2,82.2,91.2,83z M86.9,84.6h0.7c0.7,0,1.2-0.1,1.6-0.4s0.5-0.6,0.5-1.2c0-0.5-0.2-0.9-0.5-1.1s-0.8-0.4-1.4-0.4h-1V84.6z"/>
		<path id="XMLID_269_" d="M96,82.4c0.3,0,0.5,0,0.7,0.1l-0.1,1.3c-0.2,0-0.4-0.1-0.6-0.1c-0.6,0-1,0.2-1.3,0.5s-0.5,0.8-0.5,1.4V89
			h-1.4v-6.5h1.1l0.2,1.1h0.1c0.2-0.4,0.5-0.7,0.8-0.9S95.6,82.4,96,82.4z"/>
		<path id="XMLID_271_" d="M100.8,89.1c-1,0-1.8-0.3-2.4-0.9s-0.9-1.4-0.9-2.4c0-1.1,0.3-1.9,0.8-2.5s1.3-0.9,2.2-0.9
			c0.9,0,1.5,0.3,2,0.8s0.7,1.2,0.7,2.1v0.7H99c0,0.6,0.2,1.1,0.5,1.5s0.8,0.5,1.4,0.5c0.4,0,0.7,0,1.1-0.1s0.7-0.2,1.1-0.4v1.1
			c-0.3,0.2-0.7,0.3-1,0.3S101.2,89.1,100.8,89.1z M100.5,83.4c-0.4,0-0.8,0.1-1.1,0.4S99,84.5,99,85.1h2.9c0-0.5-0.1-0.9-0.4-1.2
			S100.9,83.4,100.5,83.4z"/>
		<path id="XMLID_274_" d="M109.4,89l-0.2-0.8h-0.1c-0.2,0.3-0.5,0.5-0.8,0.7s-0.8,0.3-1.2,0.3c-0.8,0-1.4-0.2-1.8-0.6
			s-0.6-1-0.6-1.8v-4.2h1.4v4c0,0.5,0.1,0.9,0.3,1.1s0.5,0.4,1,0.4c0.6,0,1-0.2,1.3-0.5s0.4-0.9,0.4-1.7v-3.2h1.4V89H109.4z"/>
		<path id="XMLID_276_" d="M112.2,83.3c0-0.6,0.3-0.9,0.9-0.9c0.3,0,0.5,0.1,0.7,0.2s0.2,0.4,0.2,0.7s-0.1,0.5-0.2,0.7
			s-0.4,0.2-0.6,0.2s-0.5-0.1-0.6-0.2S112.2,83.5,112.2,83.3z M112.2,88.3c0-0.3,0.1-0.5,0.2-0.7s0.4-0.2,0.6-0.2
			c0.3,0,0.5,0.1,0.7,0.2s0.2,0.4,0.2,0.6c0,0.3-0.1,0.5-0.2,0.7s-0.4,0.2-0.6,0.2s-0.5-0.1-0.6-0.2S112.2,88.5,112.2,88.3z"/>
		<path id="XMLID_279_" d="M121.4,80.3c0.9,0,1.6,0.2,2.1,0.5s0.8,0.9,0.8,1.5c0,0.5-0.1,0.9-0.4,1.2s-0.6,0.6-1.1,0.9
			c0.6,0.4,1.1,0.7,1.3,1.1s0.4,0.7,0.4,1.2c0,0.8-0.3,1.4-0.8,1.8s-1.3,0.6-2.3,0.6c-1,0-1.8-0.2-2.3-0.6s-0.8-1-0.8-1.8
			c0-0.5,0.1-0.9,0.4-1.3s0.6-0.7,1.2-1c-0.5-0.3-0.8-0.6-1-1s-0.3-0.7-0.3-1.2c0-0.7,0.3-1.2,0.8-1.5S120.5,80.3,121.4,80.3z
			 M120.4,86.7c0,0.2,0.1,0.4,0.3,0.6s0.4,0.2,0.7,0.2c0.7,0,1-0.3,1-0.8c0-0.2-0.1-0.4-0.2-0.6s-0.4-0.4-0.8-0.6
			c-0.3,0.2-0.6,0.4-0.7,0.6S120.4,86.4,120.4,86.7z M121.4,82c-0.2,0-0.4,0.1-0.5,0.2c-0.1,0.1-0.2,0.3-0.2,0.4
			c0,0.3,0.2,0.6,0.7,0.9c0.3-0.2,0.5-0.3,0.6-0.4s0.2-0.3,0.2-0.5c0-0.2-0.1-0.3-0.2-0.5S121.6,82,121.4,82z"/>
		<path id="XMLID_283_" d="M127.8,87.2l0.1,0.1c-0.4,1.5-0.7,2.6-1,3.3h-1.6c0.1-0.5,0.2-1.1,0.3-1.8s0.2-1.2,0.2-1.6H127.8z"/>
		<path id="XMLID_285_" d="M135.2,84.7c0,1.5-0.3,2.6-0.8,3.3s-1.3,1.1-2.3,1.1c-1,0-1.8-0.4-2.3-1.1s-0.8-1.8-0.8-3.3
			c0-1.5,0.3-2.6,0.8-3.4s1.3-1.1,2.3-1.1c1,0,1.8,0.4,2.3,1.1S135.2,83.3,135.2,84.7z M131.4,84.7c0,1,0.1,1.6,0.2,2
			s0.3,0.5,0.6,0.5c0.3,0,0.5-0.2,0.6-0.6s0.2-1,0.2-2c0-0.9-0.1-1.6-0.2-2s-0.3-0.6-0.6-0.6s-0.5,0.2-0.6,0.6
			S131.4,83.8,131.4,84.7z"/>
		<path id="XMLID_288_" d="M139.5,83.4c0.5,0,0.9,0.1,1.3,0.3s0.7,0.6,0.9,1s0.3,0.9,0.3,1.4c0,1-0.3,1.7-0.9,2.2s-1.4,0.8-2.6,0.8
			c-1,0-1.8-0.2-2.4-0.5v-1.9c0.3,0.2,0.7,0.3,1.2,0.4s0.8,0.2,1.1,0.2c0.4,0,0.8-0.1,1-0.3s0.3-0.5,0.3-0.8c0-0.3-0.1-0.6-0.4-0.8
			s-0.6-0.3-1.1-0.3c-0.4,0-0.8,0.1-1.2,0.2l-0.8-0.4l0.3-4.5h4.9v1.9h-2.9l-0.1,1.1c0.3-0.1,0.5-0.1,0.7-0.1S139.4,83.4,139.5,83.4
			z"/>
		<path id="XMLID_290_" d="M150.7,82.2c-0.4,0-0.8,0.1-1,0.3s-0.4,0.5-0.4,0.8h2v1.2h-2.1l0,0.2v0.1l0,0.3v0h1.7v1.2h-1.5
			c0.1,0.6,0.6,1,1.5,1c0.6,0,1.1-0.1,1.6-0.3v1.9c-0.4,0.2-1,0.3-1.7,0.3c-1,0-1.8-0.2-2.4-0.7s-1-1.2-1.2-2.1h-0.9v-1.2h0.8l0-0.1
			v-0.1l0-0.3h-0.8v-1.2h0.9c0.2-1,0.6-1.8,1.2-2.3s1.4-0.8,2.4-0.8c0.7,0,1.4,0.1,2,0.4l-0.7,1.8C151.5,82.3,151.1,82.2,150.7,82.2
			z"/>
	</g>
	<g id="XMLID_62_">
		<path id="XMLID_259_" d="M98.9,28.7h-6.2v-3.3c5.6,0,10.4,0,16,0v3.3h-6.2v16.1h-3.7V28.7z"/>
		<path id="XMLID_261_" d="M115.4,41.7h2.9v-13h-3v-3.3h6.7v16.3h2.7v3.1h-9.2V41.7z"/>
		<path id="XMLID_263_" d="M126.3,33.7c0-11.6,17-11.6,17,0v2.8c0,11.6-17,11.6-17,0V33.7z M129.9,36.5c0,7,9.8,7,9.8,0v-2.8
			c0-6.9-9.8-7-9.8,0V36.5z"/>
	</g>
	<g id="XMLID_75_">
		<circle id="XMLID_73_" cx="48.1" cy="129.1" r="4.1"/>
		<rect id="XMLID_72_" x="31.6" y="133.7" width="8" height="3.3"/>
		<rect id="XMLID_71_" x="33.7" y="135.4" width="3.7" height="9"/>
		<rect id="XMLID_70_" x="57.2" y="133.7" width="3.7" height="10.6"/>
		<rect id="XMLID_69_" x="57.2" y="133.7" width="7" height="2.9"/>
		<rect id="XMLID_68_" x="57.2" y="137.9" width="6.6" height="2.7"/>
		<g id="XMLID_76_">
			<path id="XMLID_67_" d="M45.2,144.4h1.2h2.8h1.2l0.5-3.5c-1-0.4-2-0.6-3.1-0.6c-1.1,0-2.1,0.2-3,0.5L45.2,144.4z"/>
			<path id="XMLID_66_" d="M44.5,140.9c-1.7,0.7-3.1,1.9-4.1,3.4h3.9L44.5,140.9z"/>
			<path id="XMLID_65_" d="M51.2,141l0.2,3.4h3.8C54.3,142.9,52.9,141.7,51.2,141z"/>
			<path id="XMLID_64_" d="M47.5,138.6l-1.1-3.7c-1.4,0-2.1-1.1-2.1-1.1h-2l-1.8,8l0,0.1C42.1,139.9,44.6,138.7,47.5,138.6z"/>
			<path id="XMLID_63_" d="M55.3,142l0-0.2l-1.8-8h-2c0,0-0.7,1.1-2.1,1.1l-1.1,3.7C51,138.7,53.6,140,55.3,142z"/>
		</g>
	</g>
	<g id="XMLID_74_">
		<path id="XMLID_77_" d="M18.8,149.1h-0.5V147h-0.7v-0.5h1.9v0.5h-0.7V149.1z"/>
		<path id="XMLID_187_" d="M20.9,147.1c0.1,0,0.1,0,0.2,0l0,0.5c0,0-0.1,0-0.2,0c-0.2,0-0.3,0-0.4,0.1c-0.1,0.1-0.1,0.2-0.1,0.4v1
			h-0.5v-2h0.4l0.1,0.3h0c0.1-0.1,0.1-0.2,0.2-0.3C20.7,147.1,20.8,147.1,20.9,147.1z"/>
		<path id="XMLID_189_" d="M22.7,149.1l-0.1-0.3h0c-0.1,0.1-0.2,0.2-0.3,0.2c-0.1,0-0.2,0.1-0.4,0.1c-0.2,0-0.3-0.1-0.4-0.2
			s-0.2-0.3-0.2-0.5c0-0.2,0.1-0.4,0.2-0.5c0.1-0.1,0.4-0.2,0.7-0.2l0.3,0v-0.1c0-0.2-0.1-0.3-0.3-0.3c-0.2,0-0.3,0-0.6,0.1
			l-0.2-0.4c0.2-0.1,0.5-0.2,0.7-0.2c0.3,0,0.5,0.1,0.6,0.2s0.2,0.3,0.2,0.5v1.3H22.7z M22.6,148.2l-0.2,0c-0.2,0-0.3,0-0.3,0.1
			c-0.1,0.1-0.1,0.1-0.1,0.2c0,0.2,0.1,0.2,0.3,0.2c0.1,0,0.2,0,0.3-0.1s0.1-0.2,0.1-0.3V148.2z"/>
		<path id="XMLID_192_" d="M25.4,149.1h-0.5V148c0-0.1,0-0.2-0.1-0.3s-0.1-0.1-0.2-0.1c-0.1,0-0.3,0-0.3,0.1
			c-0.1,0.1-0.1,0.3-0.1,0.5v0.9h-0.5v-2H24l0.1,0.3h0c0.1-0.1,0.1-0.2,0.2-0.2c0.1,0,0.2-0.1,0.4-0.1c0.2,0,0.4,0.1,0.5,0.2
			c0.1,0.1,0.2,0.3,0.2,0.5V149.1z"/>
		<path id="XMLID_194_" d="M27.4,148.5c0,0.2-0.1,0.4-0.2,0.5c-0.1,0.1-0.3,0.2-0.6,0.2c-0.1,0-0.3,0-0.4,0c-0.1,0-0.2,0-0.3-0.1
			v-0.4c0.1,0,0.2,0.1,0.3,0.1c0.1,0,0.2,0,0.3,0c0.2,0,0.3-0.1,0.3-0.2c0,0,0-0.1,0-0.1c0,0-0.1-0.1-0.1-0.1s-0.1-0.1-0.3-0.1
			c-0.2-0.1-0.3-0.1-0.3-0.2s-0.1-0.1-0.2-0.2c0-0.1,0-0.2,0-0.3c0-0.2,0.1-0.3,0.2-0.4c0.1-0.1,0.3-0.1,0.6-0.1
			c0.2,0,0.5,0.1,0.7,0.2l-0.2,0.4c-0.1,0-0.2-0.1-0.3-0.1c-0.1,0-0.2,0-0.3,0c-0.2,0-0.2,0-0.2,0.1c0,0,0,0.1,0.1,0.1
			c0.1,0,0.2,0.1,0.3,0.2c0.2,0.1,0.3,0.1,0.3,0.2c0.1,0.1,0.1,0.1,0.2,0.2C27.3,148.3,27.4,148.4,27.4,148.5z"/>
		<path id="XMLID_196_" d="M28.8,149.1c-0.2,0-0.4-0.1-0.5-0.3h0c0,0.2,0,0.3,0,0.3v0.8h-0.5v-2.8h0.4l0.1,0.3h0
			c0.1-0.2,0.3-0.3,0.6-0.3c0.2,0,0.4,0.1,0.5,0.3c0.1,0.2,0.2,0.4,0.2,0.7c0,0.2,0,0.4-0.1,0.5c-0.1,0.2-0.1,0.3-0.3,0.4
			C29.1,149.1,29,149.1,28.8,149.1z M28.7,147.5c-0.1,0-0.2,0-0.3,0.1c-0.1,0.1-0.1,0.2-0.1,0.4v0.1c0,0.2,0,0.4,0.1,0.5
			s0.2,0.1,0.3,0.1c0.2,0,0.4-0.2,0.4-0.6c0-0.2,0-0.3-0.1-0.4C28.9,147.6,28.8,147.5,28.7,147.5z"/>
		<path id="XMLID_199_" d="M31.8,148.1c0,0.3-0.1,0.6-0.3,0.7s-0.4,0.3-0.7,0.3c-0.2,0-0.4,0-0.5-0.1c-0.1-0.1-0.3-0.2-0.3-0.4
			c-0.1-0.2-0.1-0.3-0.1-0.5c0-0.3,0.1-0.6,0.3-0.7c0.2-0.2,0.4-0.3,0.7-0.3c0.2,0,0.4,0,0.5,0.1c0.1,0.1,0.3,0.2,0.3,0.4
			C31.8,147.7,31.8,147.9,31.8,148.1z M30.5,148.1c0,0.2,0,0.3,0.1,0.4c0.1,0.1,0.2,0.1,0.3,0.1c0.1,0,0.2,0,0.3-0.1
			s0.1-0.2,0.1-0.4c0-0.2,0-0.3-0.1-0.4s-0.2-0.1-0.3-0.1c-0.1,0-0.2,0-0.3,0.1C30.5,147.8,30.5,147.9,30.5,148.1z"/>
		<path id="XMLID_202_" d="M33.4,147.1c0.1,0,0.1,0,0.2,0l0,0.5c0,0-0.1,0-0.2,0c-0.2,0-0.3,0-0.4,0.1c-0.1,0.1-0.1,0.2-0.1,0.4v1
			h-0.5v-2h0.4l0.1,0.3h0c0.1-0.1,0.1-0.2,0.2-0.3C33.1,147.1,33.2,147.1,33.4,147.1z"/>
		<path id="XMLID_204_" d="M34.7,148.7c0.1,0,0.2,0,0.3-0.1v0.4c-0.1,0.1-0.3,0.1-0.5,0.1c-0.2,0-0.4-0.1-0.5-0.2
			c-0.1-0.1-0.1-0.3-0.1-0.5v-0.9h-0.3v-0.2l0.3-0.2l0.2-0.4h0.3v0.4H35v0.4h-0.5v0.9c0,0.1,0,0.1,0.1,0.2
			C34.6,148.7,34.6,148.7,34.7,148.7z"/>
		<path id="XMLID_206_" d="M36.8,148.5c0,0.2-0.1,0.4-0.2,0.5c-0.1,0.1-0.3,0.2-0.6,0.2c-0.1,0-0.3,0-0.4,0c-0.1,0-0.2,0-0.3-0.1
			v-0.4c0.1,0,0.2,0.1,0.3,0.1c0.1,0,0.2,0,0.3,0c0.2,0,0.3-0.1,0.3-0.2c0,0,0-0.1,0-0.1c0,0-0.1-0.1-0.1-0.1s-0.1-0.1-0.3-0.1
			c-0.2-0.1-0.3-0.1-0.3-0.2s-0.1-0.1-0.2-0.2c0-0.1,0-0.2,0-0.3c0-0.2,0.1-0.3,0.2-0.4c0.1-0.1,0.3-0.1,0.6-0.1
			c0.2,0,0.5,0.1,0.7,0.2l-0.2,0.4c-0.1,0-0.2-0.1-0.3-0.1c-0.1,0-0.2,0-0.3,0c-0.2,0-0.2,0-0.2,0.1c0,0,0,0.1,0.1,0.1
			c0.1,0,0.2,0.1,0.3,0.2c0.2,0.1,0.3,0.1,0.3,0.2c0.1,0.1,0.1,0.1,0.2,0.2C36.8,148.3,36.8,148.4,36.8,148.5z"/>
		<path id="XMLID_208_" d="M39.3,149.1l-0.6-2h0c0,0.4,0,0.7,0,0.8v1.2h-0.5v-2.6h0.7l0.6,2h0l0.6-2h0.7v2.6h-0.5v-1.2
			c0-0.1,0-0.1,0-0.2c0-0.1,0-0.3,0-0.6h0l-0.7,2H39.3z"/>
		<path id="XMLID_210_" d="M42.9,149.1l-0.1-0.3h0c-0.1,0.1-0.1,0.2-0.2,0.2c-0.1,0-0.2,0.1-0.4,0.1c-0.2,0-0.4-0.1-0.5-0.2
			s-0.2-0.3-0.2-0.5v-1.3h0.5v1.1c0,0.1,0,0.2,0.1,0.3c0.1,0.1,0.1,0.1,0.2,0.1c0.1,0,0.3,0,0.3-0.1c0.1-0.1,0.1-0.3,0.1-0.5v-0.9
			h0.5v2H42.9z"/>
		<path id="XMLID_212_" d="M45.7,149.1h-0.5V148c0-0.1,0-0.2-0.1-0.3s-0.1-0.1-0.2-0.1c-0.1,0-0.3,0-0.3,0.1
			c-0.1,0.1-0.1,0.3-0.1,0.5v0.9h-0.5v-2h0.4l0.1,0.3h0c0.1-0.1,0.1-0.2,0.2-0.2c0.1,0,0.2-0.1,0.4-0.1c0.2,0,0.4,0.1,0.5,0.2
			c0.1,0.1,0.2,0.3,0.2,0.5V149.1z"/>
		<path id="XMLID_214_" d="M46.2,146.6c0-0.2,0.1-0.3,0.3-0.3s0.3,0.1,0.3,0.3c0,0.1,0,0.1-0.1,0.2c0,0-0.1,0.1-0.2,0.1
			C46.3,146.9,46.2,146.8,46.2,146.6z M46.8,149.1h-0.5v-2h0.5V149.1z"/>
		<path id="XMLID_217_" d="M48.1,149.1c-0.6,0-0.9-0.3-0.9-1c0-0.3,0.1-0.6,0.2-0.8s0.4-0.3,0.7-0.3c0.2,0,0.4,0,0.6,0.1l-0.2,0.4
			c-0.1,0-0.2-0.1-0.2-0.1s-0.1,0-0.2,0c-0.3,0-0.4,0.2-0.4,0.6c0,0.4,0.1,0.6,0.4,0.6c0.1,0,0.2,0,0.3,0c0.1,0,0.2-0.1,0.3-0.1v0.5
			c-0.1,0.1-0.2,0.1-0.3,0.1C48.4,149.1,48.3,149.1,48.1,149.1z"/>
		<path id="XMLID_219_" d="M49.2,146.6c0-0.2,0.1-0.3,0.3-0.3s0.3,0.1,0.3,0.3c0,0.1,0,0.1-0.1,0.2c0,0-0.1,0.1-0.2,0.1
			C49.3,146.9,49.2,146.8,49.2,146.6z M49.7,149.1h-0.5v-2h0.5V149.1z"/>
		<path id="XMLID_222_" d="M51.4,149.1c-0.2,0-0.4-0.1-0.5-0.3h0c0,0.2,0,0.3,0,0.3v0.8h-0.5v-2.8h0.4l0.1,0.3h0
			c0.1-0.2,0.3-0.3,0.6-0.3c0.2,0,0.4,0.1,0.5,0.3c0.1,0.2,0.2,0.4,0.2,0.7c0,0.2,0,0.4-0.1,0.5c-0.1,0.2-0.1,0.3-0.3,0.4
			C51.6,149.1,51.5,149.1,51.4,149.1z M51.2,147.5c-0.1,0-0.2,0-0.3,0.1c-0.1,0.1-0.1,0.2-0.1,0.4v0.1c0,0.2,0,0.4,0.1,0.5
			s0.2,0.1,0.3,0.1c0.2,0,0.4-0.2,0.4-0.6c0-0.2,0-0.3-0.1-0.4C51.4,147.6,51.3,147.5,51.2,147.5z"/>
		<path id="XMLID_225_" d="M53.8,149.1l-0.1-0.3h0c-0.1,0.1-0.2,0.2-0.3,0.2c-0.1,0-0.2,0.1-0.4,0.1c-0.2,0-0.3-0.1-0.4-0.2
			s-0.2-0.3-0.2-0.5c0-0.2,0.1-0.4,0.2-0.5c0.1-0.1,0.4-0.2,0.7-0.2l0.3,0v-0.1c0-0.2-0.1-0.3-0.3-0.3c-0.2,0-0.3,0-0.6,0.1
			l-0.2-0.4c0.2-0.1,0.5-0.2,0.7-0.2c0.3,0,0.5,0.1,0.6,0.2s0.2,0.3,0.2,0.5v1.3H53.8z M53.6,148.2l-0.2,0c-0.2,0-0.3,0-0.3,0.1
			c-0.1,0.1-0.1,0.1-0.1,0.2c0,0.2,0.1,0.2,0.3,0.2c0.1,0,0.2,0,0.3-0.1s0.1-0.2,0.1-0.3V148.2z"/>
		<path id="XMLID_228_" d="M55.3,149.1h-0.5v-2.7h0.5V149.1z"/>
		<path id="XMLID_230_" d="M57.2,148.5c0,0.2-0.1,0.4-0.2,0.5c-0.1,0.1-0.3,0.2-0.6,0.2c-0.1,0-0.3,0-0.4,0c-0.1,0-0.2,0-0.3-0.1
			v-0.4c0.1,0,0.2,0.1,0.3,0.1c0.1,0,0.2,0,0.3,0c0.2,0,0.3-0.1,0.3-0.2c0,0,0-0.1,0-0.1c0,0-0.1-0.1-0.1-0.1s-0.1-0.1-0.3-0.1
			c-0.2-0.1-0.3-0.1-0.3-0.2s-0.1-0.1-0.2-0.2c0-0.1,0-0.2,0-0.3c0-0.2,0.1-0.3,0.2-0.4c0.1-0.1,0.3-0.1,0.6-0.1
			c0.2,0,0.5,0.1,0.7,0.2l-0.2,0.4c-0.1,0-0.2-0.1-0.3-0.1c-0.1,0-0.2,0-0.3,0c-0.2,0-0.2,0-0.2,0.1c0,0,0,0.1,0.1,0.1
			c0.1,0,0.2,0.1,0.3,0.2c0.2,0.1,0.3,0.1,0.3,0.2c0.1,0.1,0.1,0.1,0.2,0.2C57.2,148.3,57.2,148.4,57.2,148.5z"/>
		<path id="XMLID_232_" d="M59.1,149.1c-0.2,0-0.4-0.1-0.5-0.3c-0.1-0.2-0.2-0.4-0.2-0.7c0-0.3,0.1-0.6,0.2-0.8
			c0.1-0.2,0.3-0.3,0.6-0.3c0.2,0,0.4,0.1,0.6,0.3h0c0-0.1,0-0.3,0-0.4v-0.6h0.5v2.7h-0.4l-0.1-0.3h0
			C59.6,149,59.4,149.1,59.1,149.1z M59.3,148.7c0.1,0,0.2,0,0.3-0.1c0.1-0.1,0.1-0.2,0.1-0.4v-0.1c0-0.2,0-0.4-0.1-0.5
			c-0.1-0.1-0.2-0.1-0.3-0.1c-0.1,0-0.2,0-0.3,0.2c-0.1,0.1-0.1,0.2-0.1,0.4c0,0.2,0,0.3,0.1,0.4C59.1,148.7,59.2,148.7,59.3,148.7z
			"/>
		<path id="XMLID_235_" d="M61.7,149.1c-0.3,0-0.6-0.1-0.7-0.3c-0.2-0.2-0.3-0.4-0.3-0.7c0-0.3,0.1-0.6,0.2-0.8
			c0.2-0.2,0.4-0.3,0.7-0.3c0.3,0,0.5,0.1,0.6,0.2c0.2,0.2,0.2,0.4,0.2,0.7v0.3h-1.3c0,0.2,0.1,0.3,0.1,0.4s0.2,0.1,0.4,0.1
			c0.1,0,0.2,0,0.3,0s0.2-0.1,0.3-0.1v0.4c-0.1,0-0.2,0.1-0.3,0.1C62,149.1,61.8,149.1,61.7,149.1z M61.6,147.5
			c-0.1,0-0.2,0-0.3,0.1c-0.1,0.1-0.1,0.2-0.1,0.3H62c0-0.1,0-0.2-0.1-0.3C61.8,147.5,61.7,147.5,61.6,147.5z"/>
		<path id="XMLID_238_" d="M64.4,149.1h-0.5v-2.6h1.5v0.4h-0.9v0.7h0.9v0.4h-0.9V149.1z"/>
		<path id="XMLID_240_" d="M65.8,146.6c0-0.2,0.1-0.3,0.3-0.3s0.3,0.1,0.3,0.3c0,0.1,0,0.1-0.1,0.2c0,0-0.1,0.1-0.2,0.1
			C65.9,146.9,65.8,146.8,65.8,146.6z M66.3,149.1h-0.5v-2h0.5V149.1z"/>
		<path id="XMLID_243_" d="M68.6,147.1v0.3l-0.3,0.1c0.1,0.1,0.1,0.2,0.1,0.3c0,0.2-0.1,0.4-0.2,0.5s-0.4,0.2-0.6,0.2l-0.1,0l-0.1,0
			c-0.1,0-0.1,0.1-0.1,0.1c0,0.1,0.1,0.1,0.3,0.1h0.3c0.2,0,0.4,0,0.5,0.1c0.1,0.1,0.2,0.2,0.2,0.4c0,0.2-0.1,0.4-0.3,0.5
			c-0.2,0.1-0.5,0.2-0.8,0.2c-0.3,0-0.5,0-0.6-0.1c-0.1-0.1-0.2-0.2-0.2-0.4c0-0.1,0-0.2,0.1-0.3c0.1-0.1,0.2-0.1,0.3-0.2
			c-0.1,0-0.1-0.1-0.1-0.1c0-0.1-0.1-0.1-0.1-0.2c0-0.1,0-0.1,0.1-0.2c0,0,0.1-0.1,0.2-0.1c-0.1,0-0.2-0.1-0.2-0.2
			c-0.1-0.1-0.1-0.2-0.1-0.3c0-0.2,0.1-0.4,0.2-0.5c0.1-0.1,0.3-0.2,0.6-0.2c0.1,0,0.1,0,0.2,0c0.1,0,0.1,0,0.1,0H68.6z M67.1,149.4
			c0,0.1,0,0.1,0.1,0.2s0.2,0.1,0.3,0.1c0.2,0,0.3,0,0.4-0.1c0.1-0.1,0.2-0.1,0.2-0.2c0-0.1,0-0.1-0.1-0.2c-0.1,0-0.2,0-0.3,0h-0.3
			c-0.1,0-0.2,0-0.2,0.1S67.1,149.3,67.1,149.4z M67.3,147.8c0,0.1,0,0.2,0.1,0.3s0.1,0.1,0.2,0.1c0.1,0,0.2,0,0.2-0.1
			s0.1-0.1,0.1-0.3c0-0.2-0.1-0.4-0.3-0.4C67.4,147.4,67.3,147.6,67.3,147.8z"/>
		<path id="XMLID_247_" d="M70.3,149.1l-0.1-0.3h0c-0.1,0.1-0.1,0.2-0.2,0.2c-0.1,0-0.2,0.1-0.4,0.1c-0.2,0-0.4-0.1-0.5-0.2
			s-0.2-0.3-0.2-0.5v-1.3h0.5v1.1c0,0.1,0,0.2,0.1,0.3c0.1,0.1,0.1,0.1,0.2,0.1c0.1,0,0.3,0,0.3-0.1c0.1-0.1,0.1-0.3,0.1-0.5v-0.9
			h0.5v2H70.3z"/>
		<path id="XMLID_249_" d="M72.2,149.1c-0.3,0-0.6-0.1-0.7-0.3c-0.2-0.2-0.3-0.4-0.3-0.7c0-0.3,0.1-0.6,0.2-0.8
			c0.2-0.2,0.4-0.3,0.7-0.3c0.3,0,0.5,0.1,0.6,0.2c0.2,0.2,0.2,0.4,0.2,0.7v0.3h-1.3c0,0.2,0.1,0.3,0.1,0.4s0.2,0.1,0.4,0.1
			c0.1,0,0.2,0,0.3,0s0.2-0.1,0.3-0.1v0.4c-0.1,0-0.2,0.1-0.3,0.1C72.5,149.1,72.3,149.1,72.2,149.1z M72.1,147.5
			c-0.1,0-0.2,0-0.3,0.1c-0.1,0.1-0.1,0.2-0.1,0.3h0.7c0-0.1,0-0.2-0.1-0.3C72.3,147.5,72.2,147.5,72.1,147.5z"/>
		<path id="XMLID_252_" d="M74.5,147.1c0.1,0,0.1,0,0.2,0l0,0.5c0,0-0.1,0-0.2,0c-0.2,0-0.3,0-0.4,0.1c-0.1,0.1-0.1,0.2-0.1,0.4v1
			h-0.5v-2h0.4l0.1,0.3h0c0.1-0.1,0.1-0.2,0.2-0.3C74.3,147.1,74.4,147.1,74.5,147.1z"/>
		<path id="XMLID_254_" d="M75.9,149.1c-0.3,0-0.6-0.1-0.7-0.3c-0.2-0.2-0.3-0.4-0.3-0.7c0-0.3,0.1-0.6,0.2-0.8
			c0.2-0.2,0.4-0.3,0.7-0.3c0.3,0,0.5,0.1,0.6,0.2c0.2,0.2,0.2,0.4,0.2,0.7v0.3h-1.3c0,0.2,0.1,0.3,0.1,0.4s0.2,0.1,0.4,0.1
			c0.1,0,0.2,0,0.3,0s0.2-0.1,0.3-0.1v0.4c-0.1,0-0.2,0.1-0.3,0.1C76.2,149.1,76.1,149.1,75.9,149.1z M75.8,147.5
			c-0.1,0-0.2,0-0.3,0.1c-0.1,0.1-0.1,0.2-0.1,0.3h0.7c0-0.1,0-0.2-0.1-0.3C76,147.5,76,147.5,75.8,147.5z"/>
		<path id="XMLID_257_" d="M78.5,148.5c0,0.2-0.1,0.4-0.2,0.5c-0.1,0.1-0.3,0.2-0.6,0.2c-0.1,0-0.3,0-0.4,0c-0.1,0-0.2,0-0.3-0.1
			v-0.4c0.1,0,0.2,0.1,0.3,0.1c0.1,0,0.2,0,0.3,0c0.2,0,0.3-0.1,0.3-0.2c0,0,0-0.1,0-0.1c0,0-0.1-0.1-0.1-0.1s-0.1-0.1-0.3-0.1
			c-0.2-0.1-0.3-0.1-0.3-0.2s-0.1-0.1-0.2-0.2c0-0.1,0-0.2,0-0.3c0-0.2,0.1-0.3,0.2-0.4c0.1-0.1,0.3-0.1,0.6-0.1
			c0.2,0,0.5,0.1,0.7,0.2l-0.2,0.4c-0.1,0-0.2-0.1-0.3-0.1c-0.1,0-0.2,0-0.3,0c-0.2,0-0.2,0-0.2,0.1c0,0,0,0.1,0.1,0.1
			c0.1,0,0.2,0.1,0.3,0.2c0.2,0.1,0.3,0.1,0.3,0.2c0.1,0.1,0.1,0.1,0.2,0.2C78.5,148.3,78.5,148.4,78.5,148.5z"/>
	</g>
	<g id="XMLID_78_">
		<rect id="XMLID_185_" x="101" y="3" class="st5" width="172" height="12.5"/>
		<path id="XMLID_137_" class="st6" d="M145.5,8.3h-1.3V4.4H143V3.3h3.8v1.1h-1.2V8.3z"/>
		<path id="XMLID_139_" class="st6" d="M150.5,8.3l-0.2-0.9h-1.6l-0.3,0.9h-1.5l1.6-5h1.8l1.7,5H150.5z M150,6.3l-0.2-0.8
			c0-0.2-0.1-0.4-0.2-0.7c-0.1-0.3-0.1-0.5-0.1-0.6c0,0.1-0.1,0.3-0.1,0.6s-0.2,0.8-0.4,1.6H150z"/>
		<path id="XMLID_142_" class="st6" d="M153.9,6.5v1.8h-1.4v-5h1.6c1.4,0,2,0.5,2,1.5c0,0.6-0.3,1-0.8,1.3l1.5,2.2h-1.5l-1.1-1.8
			H153.9z M153.9,5.5h0.3c0.5,0,0.7-0.2,0.7-0.6c0-0.3-0.2-0.5-0.7-0.5h-0.3V5.5z"/>
		<path id="XMLID_145_" class="st6" d="M159.3,5.4h2.2v2.7c-0.6,0.2-1.2,0.3-1.9,0.3c-0.8,0-1.4-0.2-1.8-0.7
			c-0.4-0.4-0.6-1.1-0.6-1.9c0-0.8,0.2-1.4,0.7-1.9s1.1-0.7,1.9-0.7c0.3,0,0.6,0,0.9,0.1s0.5,0.1,0.7,0.2l-0.4,1.1
			c-0.4-0.2-0.8-0.3-1.2-0.3c-0.4,0-0.7,0.1-0.9,0.4c-0.2,0.3-0.3,0.6-0.3,1.1c0,0.5,0.1,0.8,0.3,1.1c0.2,0.2,0.5,0.4,0.8,0.4
			c0.2,0,0.4,0,0.6-0.1V6.4h-0.9V5.4z"/>
		<path id="XMLID_147_" class="st6" d="M165.4,8.3h-3v-5h3v1.1h-1.6v0.8h1.5v1.1h-1.5v0.9h1.6V8.3z"/>
		<path id="XMLID_149_" class="st6" d="M168.5,8.3h-1.3V4.4h-1.2V3.3h3.8v1.1h-1.2V8.3z"/>
		<path id="XMLID_151_" class="st6" d="M173.5,8.3l-0.2-0.9h-1.6l-0.3,0.9h-1.5l1.6-5h1.8l1.7,5H173.5z M173,6.3l-0.2-0.8
			c0-0.2-0.1-0.4-0.2-0.7c-0.1-0.3-0.1-0.5-0.1-0.6c0,0.1-0.1,0.3-0.1,0.6s-0.2,0.8-0.4,1.6H173z"/>
		<path id="XMLID_154_" class="st6" d="M178.7,6.5v1.8h-1.4v-5h1.6c1.4,0,2,0.5,2,1.5c0,0.6-0.3,1-0.8,1.3l1.5,2.2h-1.5L179,6.5
			H178.7z M178.7,5.5h0.3c0.5,0,0.7-0.2,0.7-0.6c0-0.3-0.2-0.5-0.7-0.5h-0.3V5.5z"/>
		<path id="XMLID_157_" class="st6" d="M185,8.3h-3v-5h3v1.1h-1.6v0.8h1.5v1.1h-1.5v0.9h1.6V8.3z"/>
		<path id="XMLID_159_" class="st6" d="M188.1,4.4c-0.3,0-0.6,0.1-0.8,0.4c-0.2,0.3-0.3,0.6-0.3,1.1c0,1,0.4,1.4,1.1,1.4
			c0.2,0,0.4,0,0.6-0.1c0.2-0.1,0.4-0.1,0.6-0.2v1.1c-0.4,0.2-0.9,0.3-1.4,0.3c-0.8,0-1.3-0.2-1.7-0.7s-0.6-1.1-0.6-1.9
			c0-0.5,0.1-1,0.3-1.4c0.2-0.4,0.5-0.7,0.8-0.9c0.4-0.2,0.8-0.3,1.3-0.3c0.5,0,1.1,0.1,1.5,0.4l-0.4,1.1c-0.2-0.1-0.4-0.2-0.6-0.2
			C188.6,4.4,188.4,4.4,188.1,4.4z"/>
		<path id="XMLID_161_" class="st6" d="M193.5,8.3l-0.2-0.9h-1.6l-0.3,0.9h-1.5l1.6-5h1.8l1.7,5H193.5z M193,6.3l-0.2-0.8
			c0-0.2-0.1-0.4-0.2-0.7c-0.1-0.3-0.1-0.5-0.1-0.6c0,0.1-0.1,0.3-0.1,0.6s-0.2,0.8-0.4,1.6H193z"/>
		<path id="XMLID_164_" class="st6" d="M196.9,6.5v1.8h-1.4v-5h1.6c1.4,0,2,0.5,2,1.5c0,0.6-0.3,1-0.8,1.3l1.5,2.2h-1.5l-1.1-1.8
			H196.9z M196.9,5.5h0.3c0.5,0,0.7-0.2,0.7-0.6c0-0.3-0.2-0.5-0.7-0.5h-0.3V5.5z"/>
		<path id="XMLID_167_" class="st6" d="M201.6,6.5v1.8h-1.4v-5h1.6c1.4,0,2,0.5,2,1.5c0,0.6-0.3,1-0.8,1.3l1.5,2.2H203L202,6.5
			H201.6z M201.6,5.5h0.3c0.5,0,0.7-0.2,0.7-0.6c0-0.3-0.2-0.5-0.7-0.5h-0.3V5.5z"/>
		<path id="XMLID_170_" class="st6" d="M208,8.3h-3v-5h3v1.1h-1.6v0.8h1.5v1.1h-1.5v0.9h1.6V8.3z"/>
		<path id="XMLID_172_" class="st6" d="M210.9,5.4h2.2v2.7c-0.6,0.2-1.2,0.3-1.9,0.3c-0.8,0-1.4-0.2-1.8-0.7
			c-0.4-0.4-0.6-1.1-0.6-1.9c0-0.8,0.2-1.4,0.7-1.9s1.1-0.7,1.9-0.7c0.3,0,0.6,0,0.9,0.1s0.5,0.1,0.7,0.2l-0.4,1.1
			c-0.4-0.2-0.8-0.3-1.2-0.3c-0.4,0-0.7,0.1-0.9,0.4c-0.2,0.3-0.3,0.6-0.3,1.1c0,0.5,0.1,0.8,0.3,1.1c0.2,0.2,0.5,0.4,0.8,0.4
			c0.2,0,0.4,0,0.6-0.1V6.4h-0.9V5.4z"/>
		<path id="XMLID_174_" class="st6" d="M217.1,8.3l-0.2-0.9h-1.6L215,8.3h-1.5l1.6-5h1.8l1.7,5H217.1z M216.6,6.3l-0.2-0.8
			c0-0.2-0.1-0.4-0.2-0.7c-0.1-0.3-0.1-0.5-0.1-0.6c0,0.1-0.1,0.3-0.1,0.6s-0.2,0.8-0.4,1.6H216.6z"/>
		<path id="XMLID_177_" class="st6" d="M219.1,3.3h1.7c0.7,0,1.2,0.1,1.5,0.3c0.3,0.2,0.5,0.5,0.5,0.9c0,0.3-0.1,0.5-0.2,0.7
			s-0.3,0.3-0.6,0.4v0c0.3,0.1,0.5,0.2,0.7,0.4c0.1,0.2,0.2,0.4,0.2,0.7c0,0.5-0.2,0.8-0.5,1.1c-0.3,0.3-0.8,0.4-1.4,0.4h-1.9V3.3z
			 M220.5,5.2h0.4c0.2,0,0.3,0,0.4-0.1c0.1-0.1,0.2-0.2,0.2-0.4c0-0.3-0.2-0.4-0.6-0.4h-0.4V5.2z M220.5,6.2v1h0.5
			c0.4,0,0.6-0.2,0.6-0.5c0-0.2-0.1-0.3-0.2-0.4c-0.1-0.1-0.3-0.1-0.5-0.1H220.5z"/>
		<path id="XMLID_181_" class="st6" d="M223.8,8.3v-5h1.4v3.9h1.9v1.1H223.8z"/>
		<path id="XMLID_183_" class="st6" d="M230.9,8.3h-3v-5h3v1.1h-1.6v0.8h1.5v1.1h-1.5v0.9h1.6V8.3z"/>
	</g>
	<g id="XMLID_3_">
		<polygon id="XMLID_82_" points="170.2,139 173.3,135.1 173.3,142.8 		"/>
		<polygon id="XMLID_81_" points="190.6,139 187.5,135.1 187.5,142.8 		"/>
		<path id="XMLID_14_" d="M175.9,132.4l3.2-2.7v4.5c0,0-1.6,1.1-3.2,3.1V132.4z"/>
		<path id="XMLID_13_" d="M184.9,132.4l-3.2-2.7v4.5c0,0,1.6,1.1,3.2,3.1V132.4z"/>
		<path id="XMLID_12_" d="M184.9,145.4l-3.2,2.7v-4.5c0,0,1.6-1.1,3.2-3.1V145.4z"/>
		<path id="XMLID_11_" d="M175.9,145.4l3.2,2.7v-4.5c0,0-1.6-1.1-3.2-3.1V145.4z"/>
		<path id="XMLID_10_" d="M182.6,139.8c0,0-0.3,0.1,0-0.3c0.2-0.4,0.8-0.4,0.8-2.2c0,0-1.4,0.3-1.7,1c0,0-0.3,0.1-0.1-0.2
			s0.8-0.7,0.2-1.9c0,0-0.3,0.3-0.3,0.1c0-0.2-0.5-1.7-1-1.6c-0.4-0.1-0.9,1.4-1,1.6c0,0.2-0.3-0.1-0.3-0.1c-0.7,1.2,0,1.6,0.2,1.9
			s-0.1,0.2-0.1,0.2c-0.3-0.7-1.7-1-1.7-1c0,1.8,0.6,1.8,0.8,2.2c0.2,0.4,0,0.3,0,0.3c-0.7-0.7-1-0.3-1-0.3c0.6,2.2,1.4,1.9,1.4,1.9
			c-0.2,0.3-0.2,0.3-0.3,0.3c1.1,0.3,1.8-0.5,1.8-0.5l-0.1,2.1c0,0,0.1,0.2,0.2,0c0.1-0.2,0.2-0.1,0.2-0.1l0-2c0,0,0.8,0.8,1.8,0.5
			c0,0,0,0-0.3-0.3c0,0,0.8,0.3,1.4-1.9C183.6,139.5,183.3,139.1,182.6,139.8z"/>
		<g id="XMLID_9_">
			<path id="XMLID_91_" class="st7" d="M191.4,138.9c-3.6,4.7-6.2,7.3-10.9,10.9c-4.7-3.6-7.3-6.2-10.9-10.9
				c3.6-4.7,6.2-7.3,10.9-10.9C185.2,131.7,187.7,134.2,191.4,138.9z"/>
		</g>
	</g>
	<g id="XMLID_1_">
		<path id="XMLID_79_" d="M133.4,148.7l-0.5-1.4H131l-0.5,1.4h-0.9l1.9-5h0.9l1.9,5H133.4z M132.7,146.6l-0.5-1.4
			c0-0.1-0.1-0.2-0.1-0.4c-0.1-0.2-0.1-0.3-0.1-0.4c-0.1,0.3-0.2,0.6-0.3,0.9l-0.5,1.3H132.7z"/>
		<path id="XMLID_84_" d="M134.5,150.4c-0.2,0-0.4,0-0.6-0.1v-0.6c0.2,0,0.3,0.1,0.5,0.1c0.3,0,0.5-0.2,0.5-0.6v-4.2h0.8v4.3
			c0,0.4-0.1,0.7-0.3,0.9S134.8,150.4,134.5,150.4z M134.8,143.9c0-0.1,0-0.3,0.1-0.3c0.1-0.1,0.2-0.1,0.3-0.1c0.1,0,0.3,0,0.3,0.1
			c0.1,0.1,0.1,0.2,0.1,0.3c0,0.1,0,0.2-0.1,0.3c-0.1,0.1-0.2,0.1-0.3,0.1c-0.1,0-0.3,0-0.3-0.1C134.8,144.2,134.8,144,134.8,143.9z
			"/>
		<path id="XMLID_92_" d="M139.5,148.7l-0.1-0.5h0c-0.1,0.2-0.3,0.3-0.5,0.4c-0.2,0.1-0.4,0.2-0.7,0.2c-0.5,0-0.8-0.1-1-0.3
			s-0.3-0.6-0.3-1v-2.5h0.8v2.3c0,0.3,0.1,0.5,0.2,0.7c0.1,0.1,0.3,0.2,0.6,0.2c0.3,0,0.6-0.1,0.7-0.3c0.2-0.2,0.2-0.5,0.2-1v-1.9
			h0.8v3.8H139.5z"/>
		<path id="XMLID_94_" d="M144.6,148.7h-0.8v-2.3c0-0.3-0.1-0.5-0.2-0.7c-0.1-0.1-0.3-0.2-0.6-0.2c-0.3,0-0.6,0.1-0.7,0.3
			s-0.2,0.5-0.2,1v1.9h-0.8v-3.8h0.6l0.1,0.5h0c0.1-0.2,0.3-0.3,0.5-0.4c0.2-0.1,0.4-0.1,0.7-0.1c0.9,0,1.4,0.5,1.4,1.4V148.7z"/>
		<path id="XMLID_96_" d="M147.1,148.1c0.2,0,0.4,0,0.6-0.1v0.6c-0.1,0-0.2,0.1-0.3,0.1c-0.1,0-0.3,0-0.4,0c-0.8,0-1.1-0.4-1.1-1.2
			v-2h-0.5v-0.4l0.6-0.3l0.3-0.8h0.5v0.8h1.1v0.6h-1.1v2c0,0.2,0,0.3,0.1,0.4C146.8,148.1,146.9,148.1,147.1,148.1z"/>
		<path id="XMLID_98_" d="M150.8,148.7l-0.2-0.5h0c-0.2,0.2-0.4,0.4-0.5,0.5s-0.4,0.1-0.7,0.1c-0.4,0-0.7-0.1-0.9-0.3
			c-0.2-0.2-0.3-0.5-0.3-0.9c0-0.4,0.1-0.7,0.4-0.9c0.3-0.2,0.7-0.3,1.3-0.3l0.7,0v-0.2c0-0.2-0.1-0.4-0.2-0.5
			c-0.1-0.1-0.3-0.2-0.5-0.2c-0.2,0-0.4,0-0.6,0.1c-0.2,0.1-0.3,0.1-0.5,0.2l-0.3-0.6c0.2-0.1,0.4-0.2,0.7-0.2
			c0.2-0.1,0.5-0.1,0.7-0.1c0.5,0,0.8,0.1,1.1,0.3c0.2,0.2,0.4,0.5,0.4,1v2.5H150.8z M149.6,148.1c0.3,0,0.5-0.1,0.7-0.2
			s0.3-0.4,0.3-0.7v-0.3l-0.5,0c-0.4,0-0.7,0.1-0.8,0.2c-0.2,0.1-0.3,0.3-0.3,0.5c0,0.2,0,0.3,0.2,0.4
			C149.3,148.1,149.4,148.1,149.6,148.1z"/>
		<path id="XMLID_101_" d="M155.7,148.7h-0.8v-2.3c0-0.3-0.1-0.5-0.2-0.6s-0.3-0.2-0.5-0.2c-0.3,0-0.5,0.1-0.7,0.3
			c-0.1,0.2-0.2,0.5-0.2,1v1.9h-0.8v-3.8h0.6l0.1,0.5h0c0.1-0.2,0.3-0.3,0.5-0.4c0.2-0.1,0.4-0.1,0.7-0.1c0.6,0,1,0.2,1.2,0.6h0.1
			c0.1-0.2,0.3-0.3,0.5-0.4c0.2-0.1,0.4-0.2,0.7-0.2c0.5,0,0.8,0.1,1,0.3s0.3,0.6,0.3,1v2.5h-0.8v-2.3c0-0.3-0.1-0.5-0.2-0.6
			c-0.1-0.1-0.3-0.2-0.5-0.2c-0.3,0-0.5,0.1-0.7,0.3c-0.1,0.2-0.2,0.5-0.2,0.9V148.7z"/>
		<path id="XMLID_103_" d="M160.8,148.8c-0.6,0-1-0.2-1.4-0.5c-0.3-0.3-0.5-0.8-0.5-1.4c0-0.6,0.2-1.1,0.5-1.5
			c0.3-0.4,0.7-0.5,1.3-0.5c0.5,0,0.9,0.2,1.2,0.5c0.3,0.3,0.4,0.7,0.4,1.3v0.4h-2.5c0,0.4,0.1,0.6,0.3,0.8c0.2,0.2,0.5,0.3,0.8,0.3
			c0.2,0,0.4,0,0.6-0.1c0.2,0,0.4-0.1,0.6-0.2v0.7c-0.2,0.1-0.4,0.2-0.6,0.2C161.3,148.7,161.1,148.8,160.8,148.8z M160.7,145.5
			c-0.3,0-0.5,0.1-0.6,0.2c-0.2,0.2-0.2,0.4-0.3,0.7h1.7c0-0.3-0.1-0.5-0.2-0.7C161.1,145.5,160.9,145.5,160.7,145.5z"/>
		<path id="XMLID_106_" d="M166.5,148.7h-0.8v-2.3c0-0.3-0.1-0.5-0.2-0.7c-0.1-0.1-0.3-0.2-0.6-0.2c-0.3,0-0.6,0.1-0.7,0.3
			s-0.2,0.5-0.2,1v1.9h-0.8v-3.8h0.6l0.1,0.5h0c0.1-0.2,0.3-0.3,0.5-0.4c0.2-0.1,0.4-0.1,0.7-0.1c0.9,0,1.4,0.5,1.4,1.4V148.7z"/>
		<path id="XMLID_108_" d="M169.1,148.1c0.2,0,0.4,0,0.6-0.1v0.6c-0.1,0-0.2,0.1-0.3,0.1c-0.1,0-0.3,0-0.4,0c-0.8,0-1.1-0.4-1.1-1.2
			v-2h-0.5v-0.4l0.6-0.3l0.3-0.8h0.5v0.8h1.1v0.6h-1.1v2c0,0.2,0,0.3,0.1,0.4C168.8,148.1,168.9,148.1,169.1,148.1z"/>
		<path id="XMLID_110_" d="M191.7,148.8c-0.5,0-0.8-0.2-1.1-0.5c-0.3-0.3-0.4-0.8-0.4-1.4c0-0.6,0.1-1.1,0.4-1.4
			c0.3-0.3,0.6-0.5,1.1-0.5c0.5,0,0.9,0.2,1.1,0.5h0c0-0.3-0.1-0.5-0.1-0.6v-1.4h0.8v5.3H193l-0.1-0.5h0
			C192.6,148.6,192.2,148.8,191.7,148.8z M191.9,148.1c0.3,0,0.6-0.1,0.7-0.3s0.2-0.5,0.2-0.9v-0.1c0-0.5-0.1-0.8-0.2-1
			c-0.2-0.2-0.4-0.3-0.7-0.3c-0.3,0-0.5,0.1-0.7,0.3c-0.2,0.2-0.2,0.6-0.2,1c0,0.4,0.1,0.7,0.2,1C191.4,148,191.6,148.1,191.9,148.1
			z"/>
		<path id="XMLID_113_" d="M196.4,148.8c-0.6,0-1-0.2-1.4-0.5c-0.3-0.3-0.5-0.8-0.5-1.4c0-0.6,0.2-1.1,0.5-1.5
			c0.3-0.4,0.7-0.5,1.3-0.5c0.5,0,0.9,0.2,1.2,0.5c0.3,0.3,0.4,0.7,0.4,1.3v0.4h-2.5c0,0.4,0.1,0.6,0.3,0.8c0.2,0.2,0.5,0.3,0.8,0.3
			c0.2,0,0.4,0,0.6-0.1s0.4-0.1,0.6-0.2v0.7c-0.2,0.1-0.4,0.2-0.6,0.2C196.9,148.7,196.7,148.8,196.4,148.8z M196.3,145.5
			c-0.3,0-0.5,0.1-0.6,0.2c-0.2,0.2-0.2,0.4-0.3,0.7h1.7c0-0.3-0.1-0.5-0.2-0.7C196.7,145.5,196.5,145.5,196.3,145.5z"/>
		<path id="XMLID_116_" d="M201.5,148.7h-0.8v-5h2.8v0.7h-2v1.6h1.9v0.7h-1.9V148.7z"/>
		<path id="XMLID_118_" d="M204.3,143.9c0-0.1,0-0.3,0.1-0.3c0.1-0.1,0.2-0.1,0.3-0.1c0.1,0,0.3,0,0.3,0.1c0.1,0.1,0.1,0.2,0.1,0.3
			c0,0.1,0,0.2-0.1,0.3c-0.1,0.1-0.2,0.1-0.3,0.1c-0.1,0-0.3,0-0.3-0.1C204.3,144.2,204.3,144,204.3,143.9z M205.2,148.7h-0.8v-3.8
			h0.8V148.7z"/>
		<path id="XMLID_121_" d="M209.5,144.9v0.4l-0.6,0.1c0.1,0.1,0.1,0.2,0.1,0.3c0,0.1,0.1,0.2,0.1,0.4c0,0.4-0.1,0.7-0.4,0.9
			c-0.3,0.2-0.6,0.3-1.1,0.3c-0.1,0-0.2,0-0.3,0c-0.2,0.1-0.3,0.2-0.3,0.4c0,0.1,0,0.2,0.1,0.2s0.2,0.1,0.4,0.1h0.7
			c0.4,0,0.7,0.1,1,0.3c0.2,0.2,0.3,0.4,0.3,0.8c0,0.4-0.2,0.8-0.5,1c-0.4,0.2-0.9,0.3-1.5,0.3c-0.5,0-0.9-0.1-1.2-0.3
			c-0.3-0.2-0.4-0.4-0.4-0.8c0-0.2,0.1-0.4,0.2-0.6c0.1-0.2,0.4-0.3,0.6-0.3c-0.1,0-0.2-0.1-0.3-0.2c-0.1-0.1-0.1-0.2-0.1-0.3
			c0-0.1,0-0.3,0.1-0.4c0.1-0.1,0.2-0.2,0.4-0.3c-0.2-0.1-0.4-0.2-0.5-0.4s-0.2-0.4-0.2-0.7c0-0.4,0.1-0.7,0.4-1
			c0.3-0.2,0.6-0.3,1.1-0.3c0.1,0,0.2,0,0.3,0s0.2,0,0.3,0H209.5z M206.5,149.3c0,0.2,0.1,0.3,0.2,0.4c0.2,0.1,0.4,0.1,0.7,0.1
			c0.4,0,0.8-0.1,1-0.2c0.2-0.1,0.3-0.3,0.3-0.5c0-0.2-0.1-0.3-0.2-0.4c-0.1-0.1-0.3-0.1-0.7-0.1h-0.6c-0.2,0-0.4,0.1-0.5,0.2
			C206.6,149,206.5,149.1,206.5,149.3z M206.9,146.1c0,0.2,0.1,0.4,0.2,0.5s0.3,0.2,0.5,0.2c0.5,0,0.7-0.2,0.7-0.7
			c0-0.2-0.1-0.4-0.2-0.6c-0.1-0.1-0.3-0.2-0.5-0.2c-0.2,0-0.4,0.1-0.5,0.2C206.9,145.7,206.9,145.9,206.9,146.1z"/>
		<path id="XMLID_125_" d="M212.9,148.7l-0.1-0.5h0c-0.1,0.2-0.3,0.3-0.5,0.4c-0.2,0.1-0.4,0.2-0.7,0.2c-0.5,0-0.8-0.1-1-0.3
			s-0.3-0.6-0.3-1v-2.5h0.8v2.3c0,0.3,0.1,0.5,0.2,0.7c0.1,0.1,0.3,0.2,0.6,0.2c0.3,0,0.6-0.1,0.7-0.3c0.2-0.2,0.2-0.5,0.2-1v-1.9
			h0.8v3.8H212.9z"/>
		<path id="XMLID_127_" d="M216.3,148.8c-0.6,0-1-0.2-1.4-0.5c-0.3-0.3-0.5-0.8-0.5-1.4c0-0.6,0.2-1.1,0.5-1.5
			c0.3-0.4,0.7-0.5,1.3-0.5c0.5,0,0.9,0.2,1.2,0.5c0.3,0.3,0.4,0.7,0.4,1.3v0.4h-2.5c0,0.4,0.1,0.6,0.3,0.8c0.2,0.2,0.5,0.3,0.8,0.3
			c0.2,0,0.4,0,0.6-0.1s0.4-0.1,0.6-0.2v0.7c-0.2,0.1-0.4,0.2-0.6,0.2C216.8,148.7,216.6,148.8,216.3,148.8z M216.1,145.5
			c-0.3,0-0.5,0.1-0.6,0.2c-0.2,0.2-0.2,0.4-0.3,0.7h1.7c0-0.3-0.1-0.5-0.2-0.7C216.6,145.5,216.4,145.5,216.1,145.5z"/>
		<path id="XMLID_130_" d="M220.6,144.8c0.2,0,0.3,0,0.4,0l-0.1,0.7c-0.1,0-0.2,0-0.4,0c-0.3,0-0.6,0.1-0.8,0.3
			c-0.2,0.2-0.3,0.5-0.3,0.8v2h-0.8v-3.8h0.6l0.1,0.7h0c0.1-0.2,0.3-0.4,0.5-0.5C220.1,144.9,220.4,144.8,220.6,144.8z"/>
		<path id="XMLID_132_" d="M223.3,148.8c-0.6,0-1-0.2-1.4-0.5c-0.3-0.3-0.5-0.8-0.5-1.4c0-0.6,0.2-1.1,0.5-1.5
			c0.3-0.4,0.7-0.5,1.3-0.5c0.5,0,0.9,0.2,1.2,0.5c0.3,0.3,0.4,0.7,0.4,1.3v0.4h-2.5c0,0.4,0.1,0.6,0.3,0.8c0.2,0.2,0.5,0.3,0.8,0.3
			c0.2,0,0.4,0,0.6-0.1c0.2,0,0.4-0.1,0.6-0.2v0.7c-0.2,0.1-0.4,0.2-0.6,0.2C223.8,148.7,223.6,148.8,223.3,148.8z M223.2,145.5
			c-0.3,0-0.5,0.1-0.6,0.2c-0.2,0.2-0.2,0.4-0.3,0.7h1.7c0-0.3-0.1-0.5-0.2-0.7C223.7,145.5,223.5,145.5,223.2,145.5z"/>
		<path id="XMLID_135_" d="M228.3,147.6c0,0.4-0.1,0.7-0.4,0.8c-0.3,0.2-0.7,0.3-1.2,0.3c-0.5,0-0.9-0.1-1.2-0.2v-0.7
			c0.4,0.2,0.9,0.3,1.2,0.3c0.5,0,0.7-0.1,0.7-0.4c0-0.1,0-0.2-0.1-0.2c-0.1-0.1-0.1-0.1-0.3-0.2c-0.1-0.1-0.3-0.1-0.5-0.2
			c-0.4-0.2-0.7-0.3-0.9-0.5c-0.2-0.2-0.2-0.4-0.2-0.7c0-0.3,0.1-0.6,0.4-0.8c0.3-0.2,0.6-0.3,1.1-0.3c0.4,0,0.9,0.1,1.3,0.3
			l-0.3,0.6c-0.4-0.2-0.8-0.3-1-0.3c-0.4,0-0.6,0.1-0.6,0.4c0,0.1,0.1,0.2,0.2,0.3c0.1,0.1,0.4,0.2,0.7,0.3c0.3,0.1,0.5,0.2,0.7,0.3
			c0.1,0.1,0.2,0.2,0.3,0.3S228.3,147.4,228.3,147.6z"/>
	</g>
</g>
<g id="Capa_8">
	<path id="XMLID_8_" class="st6" d="M80.7,116.7c0,0-0.1,0.1-0.1,0.1c0.8-0.2,1.6-0.6,2.2-1.2c1.9-1.9,1.9-5,0-6.9
		c-0.6-0.6-1.3-1-2-1.2C83.3,110,83.3,114.1,80.7,116.7z"/>
	<path id="XMLID_5_" class="st6" d="M87.2,117.9c0,0-0.1,0.1-0.1,0.1c1-0.3,2-0.8,2.8-1.6c2.4-2.4,2.4-6.3,0-8.7
		c-0.7-0.7-1.6-1.2-2.6-1.5C90.4,109.5,90.4,114.7,87.2,117.9z"/>
	<path id="XMLID_6_" class="st6" d="M93.8,118.7c0,0-0.1,0.1-0.2,0.1c1.2-0.3,2.3-0.9,3.2-1.8c2.7-2.7,2.7-7.2,0-9.9
		c-0.8-0.8-1.9-1.4-2.9-1.7C97.5,109.1,97.5,115,93.8,118.7z"/>
	<path id="XMLID_7_" class="st6" d="M100.3,119.7c-0.1,0.1-0.1,0.1-0.2,0.2c1.3-0.4,2.6-1,3.6-2.1c3.2-3.2,3.2-8.3,0-11.5
		c-1-1-2.2-1.6-3.4-2C104.6,108.6,104.6,115.5,100.3,119.7z"/>
</g>
<g id="Capa_9">
	<path id="XMLID_87_" class="st6" d="M74.2,107.6c-2.5,0-4.5,2-4.5,4.5c0,2.5,2,4.5,4.5,4.5c2.5,0,4.5-2,4.5-4.5
		C78.7,109.6,76.7,107.6,74.2,107.6z M73.4,114.8l0.7-2.8l-0.7-2.8l2.8,2.8L73.4,114.8z"/>
</g>
<g id="Capa_1" class="st8">
	
		<image style="display:inline;overflow:visible;opacity:0.43;" width="242" height="155" id="XMLID_2_" xlink:href="BILLETE_T10_T10.JPG" >
	</image>
</g>
</svg>
