<?xml version="1.0" encoding="utf-8"?>
<!-- Generator: Adobe Illustrator 19.0.0, SVG Export Plug-In . SVG Version: 6.00 Build 0)  -->
<svg version="1.1" xmlns="http://www.w3.org/2000/svg" xmlns:xlink="http://www.w3.org/1999/xlink" x="0px" y="0px"
	 viewBox="0 0 242 155" style="enable-background:new 0 0 242 155;" xml:space="preserve">
<style type="text/css">
	.st0{fill:#E03890;}
	.st1{opacity:0.25;fill:#E03890;}
	.st2{opacity:0.5;fill:#E03890;}
	.st3{opacity:0.75;fill:#E03890;}
	.st4{fill:#F9F9F9;}
	.st5{fill:none;}
	.st6{fill:#FFFFFF;}
	.st7{fill:none;stroke:#000000;stroke-width:0.5;stroke-miterlimit:10;}
	.st8{display:none;}
</style>
<g id="Capa_2">
	<path id="XMLID_28_" class="st0" d="M230,155H12c-6.6,0-12-5.4-12-12V12C0,5.4,5.4,0,12,0h218c6.6,0,12,5.4,12,12v131
		C242,149.6,236.6,155,230,155z"/>
</g>
<g id="Capa_3">
	<rect id="XMLID_29_" y="103" width="242" height="18.5"/>
	<g id="XMLID_30_">
	</g>
</g>
<g id="Capa_6">
	<path id="XMLID_41_" class="st1" d="M18.4,109h-0.2v-1.2c0-1.1-2.5-2-5.6-2s-5.6,0.9-5.6,2v1.2H6.9c-0.3,0-0.6,0.3-0.6,0.6v2
		c0,0.3,0.3,0.6,0.6,0.6h0.2v4c0,0.4,0.4,0.8,0.8,0.8v0.8c0,0.4,0.4,0.8,0.8,0.8h0.8c0.4,0,0.8-0.4,0.8-0.8V117h4.8v0.8
		c0,0.4,0.4,0.8,0.8,0.8h0.8c0.4,0,0.8-0.4,0.8-0.8V117h0.2c0.4,0,0.6-0.3,0.6-0.6v-4.1h0.2c0.3,0,0.6-0.3,0.6-0.6v-2
		C19,109.3,18.8,109,18.4,109z M10.3,107.6c0-0.1,0.1-0.2,0.2-0.2h4.4c0.1,0,0.2,0.1,0.2,0.2v0.4c0,0.1-0.1,0.2-0.2,0.2h-4.4
		c-0.1,0-0.2-0.1-0.2-0.2V107.6z M9.1,115.8c-0.4,0-0.8-0.4-0.8-0.8s0.4-0.8,0.8-0.8c0.4,0,0.8,0.4,0.8,0.8S9.5,115.8,9.1,115.8z
		 M12.3,113H9.5c-0.4,0-0.8-0.4-0.8-0.8v-2.4c0-0.4,0.4-0.8,0.8-0.8h2.8V113z M13.1,113v-4h2.8c0.4,0,0.8,0.4,0.8,0.8v2.4
		c0,0.4-0.4,0.8-0.8,0.8H13.1z M16.2,115.8c-0.4,0-0.8-0.4-0.8-0.8s0.4-0.8,0.8-0.8c0.4,0,0.8,0.4,0.8,0.8S16.7,115.8,16.2,115.8z"
		/>
	<path id="XMLID_40_" class="st2" d="M33.2,109H33v-1.2c0-1.1-2.5-2-5.6-2s-5.6,0.9-5.6,2v1.2h-0.2c-0.3,0-0.6,0.3-0.6,0.6v2
		c0,0.3,0.3,0.6,0.6,0.6h0.2v4c0,0.4,0.4,0.8,0.8,0.8v0.8c0,0.4,0.4,0.8,0.8,0.8h0.8c0.4,0,0.8-0.4,0.8-0.8V117h4.8v0.8
		c0,0.4,0.4,0.8,0.8,0.8h0.8c0.4,0,0.8-0.4,0.8-0.8V117h0.2c0.4,0,0.6-0.3,0.6-0.6v-4.1h0.2c0.3,0,0.6-0.3,0.6-0.6v-2
		C33.8,109.3,33.5,109,33.2,109z M25.1,107.6c0-0.1,0.1-0.2,0.2-0.2h4.4c0.1,0,0.2,0.1,0.2,0.2v0.4c0,0.1-0.1,0.2-0.2,0.2h-4.4
		c-0.1,0-0.2-0.1-0.2-0.2V107.6z M23.9,115.8c-0.4,0-0.8-0.4-0.8-0.8s0.4-0.8,0.8-0.8s0.8,0.4,0.8,0.8S24.3,115.8,23.9,115.8z
		 M27,113h-2.8c-0.4,0-0.8-0.4-0.8-0.8v-2.4c0-0.4,0.4-0.8,0.8-0.8H27V113z M27.8,113v-4h2.8c0.4,0,0.8,0.4,0.8,0.8v2.4
		c0,0.4-0.4,0.8-0.8,0.8H27.8z M31,115.8c-0.4,0-0.8-0.4-0.8-0.8s0.4-0.8,0.8-0.8c0.4,0,0.8,0.4,0.8,0.8S31.4,115.8,31,115.8z"/>
	<path id="XMLID_48_" class="st3" d="M48,109h-0.2v-1.2c0-1.1-2.5-2-5.6-2c-3.1,0-5.6,0.9-5.6,2v1.2h-0.2c-0.3,0-0.6,0.3-0.6,0.6v2
		c0,0.3,0.3,0.6,0.6,0.6h0.2v4c0,0.4,0.4,0.8,0.8,0.8v0.8c0,0.4,0.4,0.8,0.8,0.8H39c0.4,0,0.8-0.4,0.8-0.8V117h4.8v0.8
		c0,0.4,0.4,0.8,0.8,0.8h0.8c0.4,0,0.8-0.4,0.8-0.8V117h0.2c0.4,0,0.6-0.3,0.6-0.6v-4.1H48c0.3,0,0.6-0.3,0.6-0.6v-2
		C48.6,109.3,48.3,109,48,109z M39.8,107.6c0-0.1,0.1-0.2,0.2-0.2h4.4c0.1,0,0.2,0.1,0.2,0.2v0.4c0,0.1-0.1,0.2-0.2,0.2H40
		c-0.1,0-0.2-0.1-0.2-0.2V107.6z M38.6,115.8c-0.4,0-0.8-0.4-0.8-0.8s0.4-0.8,0.8-0.8c0.4,0,0.8,0.4,0.8,0.8S39.1,115.8,38.6,115.8z
		 M41.8,113H39c-0.4,0-0.8-0.4-0.8-0.8v-2.4c0-0.4,0.4-0.8,0.8-0.8h2.8V113z M42.6,113v-4h2.8c0.4,0,0.8,0.4,0.8,0.8v2.4
		c0,0.4-0.4,0.8-0.8,0.8H42.6z M45.8,115.8c-0.4,0-0.8-0.4-0.8-0.8s0.4-0.8,0.8-0.8c0.4,0,0.8,0.4,0.8,0.8S46.2,115.8,45.8,115.8z"
		/>
	<path id="XMLID_55_" class="st0" d="M62.7,109h-0.2v-1.2c0-1.1-2.5-2-5.6-2s-5.6,0.9-5.6,2v1.2h-0.2c-0.3,0-0.6,0.3-0.6,0.6v2
		c0,0.3,0.3,0.6,0.6,0.6h0.2v4c0,0.4,0.4,0.8,0.8,0.8v0.8c0,0.4,0.4,0.8,0.8,0.8h0.8c0.4,0,0.8-0.4,0.8-0.8V117h4.8v0.8
		c0,0.4,0.4,0.8,0.8,0.8h0.8c0.4,0,0.8-0.4,0.8-0.8V117h0.2c0.4,0,0.6-0.3,0.6-0.6v-4.1h0.2c0.3,0,0.6-0.3,0.6-0.6v-2
		C63.3,109.3,63.1,109,62.7,109z M54.6,107.6c0-0.1,0.1-0.2,0.2-0.2h4.4c0.1,0,0.2,0.1,0.2,0.2v0.4c0,0.1-0.1,0.2-0.2,0.2h-4.4
		c-0.1,0-0.2-0.1-0.2-0.2V107.6z M53.4,115.8c-0.4,0-0.8-0.4-0.8-0.8s0.4-0.8,0.8-0.8c0.4,0,0.8,0.4,0.8,0.8S53.8,115.8,53.4,115.8z
		 M56.6,113h-2.8c-0.4,0-0.8-0.4-0.8-0.8v-2.4c0-0.4,0.4-0.8,0.8-0.8h2.8V113z M57.4,113v-4h2.8c0.4,0,0.8,0.4,0.8,0.8v2.4
		c0,0.4-0.4,0.8-0.8,0.8H57.4z M60.5,115.8c-0.4,0-0.8-0.4-0.8-0.8s0.4-0.8,0.8-0.8s0.8,0.4,0.8,0.8S61,115.8,60.5,115.8z"/>
</g>
<g id="Capa_7">
</g>
<g id="Capa_5">
	<rect id="XMLID_33_" y="9.5" class="st4" width="242" height="93.5"/>
</g>
<g id="Capa_4">
	<g id="XMLID_32_">
		<path id="XMLID_394_" d="M8,64.5H6.4v-8.6H3.5v-1.4H11v1.4H8V64.5z"/>
		<path id="XMLID_396_" d="M17.1,64.5l-0.3-1.1h-0.1c-0.4,0.5-0.7,0.8-1.1,0.9c-0.4,0.2-0.8,0.3-1.4,0.3c-0.7,0-1.3-0.2-1.7-0.6
			c-0.4-0.4-0.6-1-0.6-1.7c0-0.8,0.3-1.4,0.9-1.8s1.5-0.6,2.6-0.6l1.3,0v-0.4c0-0.5-0.1-0.8-0.3-1.1s-0.6-0.4-1-0.4
			c-0.4,0-0.8,0.1-1.1,0.2c-0.4,0.1-0.7,0.2-1,0.4l-0.5-1.1c0.4-0.2,0.9-0.4,1.3-0.5c0.5-0.1,0.9-0.2,1.4-0.2c1,0,1.7,0.2,2.2,0.6
			c0.5,0.4,0.7,1.1,0.7,2v5.1H17.1z M14.7,63.4c0.6,0,1.1-0.2,1.4-0.5c0.4-0.3,0.5-0.8,0.5-1.4v-0.7l-1,0c-0.8,0-1.3,0.2-1.7,0.4
			s-0.5,0.6-0.5,1c0,0.3,0.1,0.6,0.3,0.8S14.3,63.4,14.7,63.4z"/>
		<path id="XMLID_399_" d="M24.3,56.8c0.3,0,0.6,0,0.8,0.1l-0.2,1.5c-0.2-0.1-0.5-0.1-0.7-0.1c-0.6,0-1.2,0.2-1.6,0.6
			c-0.4,0.4-0.6,1-0.6,1.6v4h-1.6v-7.6h1.3l0.2,1.3H22c0.3-0.5,0.6-0.8,1-1.1C23.4,56.9,23.8,56.8,24.3,56.8z"/>
		<path id="XMLID_401_" d="M32.9,56.9v0.9l-1.3,0.2c0.1,0.2,0.2,0.4,0.3,0.6s0.1,0.5,0.1,0.7c0,0.8-0.3,1.4-0.8,1.8
			c-0.5,0.4-1.3,0.7-2.2,0.7c-0.2,0-0.5,0-0.7-0.1c-0.3,0.2-0.5,0.5-0.5,0.8c0,0.2,0.1,0.3,0.2,0.4c0.2,0.1,0.5,0.1,0.9,0.1h1.3
			c0.8,0,1.5,0.2,1.9,0.5s0.6,0.9,0.6,1.5c0,0.9-0.4,1.5-1.1,2s-1.7,0.7-3.1,0.7c-1,0-1.8-0.2-2.4-0.5s-0.8-0.9-0.8-1.6
			c0-0.5,0.1-0.9,0.4-1.2c0.3-0.3,0.7-0.5,1.2-0.7c-0.2-0.1-0.4-0.2-0.5-0.4c-0.1-0.2-0.2-0.4-0.2-0.6c0-0.3,0.1-0.5,0.2-0.7
			c0.2-0.2,0.4-0.4,0.7-0.6c-0.4-0.2-0.7-0.4-1-0.8c-0.2-0.4-0.4-0.8-0.4-1.3c0-0.8,0.3-1.5,0.8-1.9s1.3-0.7,2.2-0.7
			c0.2,0,0.4,0,0.7,0c0.2,0,0.4,0.1,0.5,0.1H32.9z M26.9,65.7c0,0.3,0.2,0.6,0.5,0.8s0.8,0.3,1.3,0.3c0.9,0,1.5-0.1,2-0.4
			s0.6-0.6,0.6-1c0-0.3-0.1-0.6-0.4-0.7c-0.2-0.1-0.7-0.2-1.3-0.2h-1.2c-0.5,0-0.8,0.1-1.1,0.3C27.1,65,26.9,65.3,26.9,65.7z
			 M27.6,59.4c0,0.5,0.1,0.8,0.4,1.1c0.2,0.3,0.6,0.4,1,0.4c0.9,0,1.4-0.5,1.4-1.5c0-0.5-0.1-0.9-0.3-1.1s-0.6-0.4-1-0.4
			c-0.5,0-0.8,0.1-1.1,0.4C27.7,58.5,27.6,58.9,27.6,59.4z"/>
		<path id="XMLID_405_" d="M37.6,64.6c-1.2,0-2.1-0.3-2.8-1c-0.7-0.7-1-1.6-1-2.8c0-1.2,0.3-2.2,0.9-2.9c0.6-0.7,1.5-1.1,2.5-1.1
			c1,0,1.8,0.3,2.4,0.9c0.6,0.6,0.9,1.4,0.9,2.5v0.9h-5c0,0.7,0.2,1.3,0.6,1.7c0.4,0.4,0.9,0.6,1.6,0.6c0.4,0,0.9,0,1.2-0.1
			c0.4-0.1,0.8-0.2,1.2-0.4v1.3c-0.4,0.2-0.8,0.3-1.2,0.4C38.5,64.6,38.1,64.6,37.6,64.6z M37.3,58c-0.5,0-0.9,0.2-1.2,0.5
			c-0.3,0.3-0.5,0.8-0.6,1.4h3.4c0-0.6-0.2-1.1-0.5-1.4S37.8,58,37.3,58z"/>
		<path id="XMLID_408_" d="M45.2,63.3c0.4,0,0.8-0.1,1.2-0.2v1.2c-0.2,0.1-0.4,0.1-0.7,0.2c-0.3,0.1-0.6,0.1-0.9,0.1
			c-1.5,0-2.3-0.8-2.3-2.4v-4.1h-1v-0.7l1.1-0.6l0.5-1.6h1v1.7h2.2v1.2h-2.2v4c0,0.4,0.1,0.7,0.3,0.9S44.8,63.3,45.2,63.3z"/>
		<path id="XMLID_410_" d="M52.6,64.5l-0.3-1.1h-0.1c-0.4,0.5-0.7,0.8-1.1,0.9c-0.4,0.2-0.8,0.3-1.4,0.3c-0.7,0-1.3-0.2-1.7-0.6
			c-0.4-0.4-0.6-1-0.6-1.7c0-0.8,0.3-1.4,0.9-1.8s1.5-0.6,2.6-0.6l1.3,0v-0.4c0-0.5-0.1-0.8-0.3-1.1s-0.6-0.4-1-0.4
			c-0.4,0-0.8,0.1-1.1,0.2c-0.4,0.1-0.7,0.2-1,0.4l-0.5-1.1c0.4-0.2,0.9-0.4,1.3-0.5c0.5-0.1,0.9-0.2,1.4-0.2c1,0,1.7,0.2,2.2,0.6
			c0.5,0.4,0.7,1.1,0.7,2v5.1H52.6z M50.2,63.4c0.6,0,1.1-0.2,1.4-0.5c0.4-0.3,0.5-0.8,0.5-1.4v-0.7l-1,0c-0.8,0-1.3,0.2-1.7,0.4
			s-0.5,0.6-0.5,1c0,0.3,0.1,0.6,0.3,0.8S49.8,63.4,50.2,63.4z"/>
		<path id="XMLID_413_" d="M66,64.5h-1.6v-4.7c0-0.6-0.1-1-0.3-1.3c-0.2-0.3-0.6-0.4-1-0.4c-0.6,0-1.1,0.2-1.4,0.6s-0.4,1.1-0.4,2
			v3.8h-1.6v-7.6h1.3l0.2,1h0.1c0.2-0.4,0.5-0.6,0.9-0.8c0.4-0.2,0.8-0.3,1.3-0.3c1.2,0,1.9,0.4,2.3,1.2h0.1
			c0.2-0.4,0.5-0.7,0.9-0.9c0.4-0.2,0.9-0.3,1.4-0.3c0.9,0,1.6,0.2,2,0.7c0.4,0.5,0.6,1.2,0.6,2.1v4.9h-1.6v-4.7
			c0-0.6-0.1-1-0.3-1.3c-0.2-0.3-0.6-0.4-1-0.4c-0.6,0-1.1,0.2-1.4,0.6s-0.4,1-0.4,1.8V64.5z"/>
		<path id="XMLID_415_" d="M78.3,64.5l-0.2-1H78c-0.2,0.4-0.5,0.6-1,0.8c-0.4,0.2-0.9,0.3-1.4,0.3c-0.9,0-1.6-0.2-2.1-0.7
			c-0.5-0.5-0.7-1.1-0.7-2.1v-4.9h1.6v4.7c0,0.6,0.1,1,0.4,1.3c0.2,0.3,0.6,0.4,1.1,0.4c0.7,0,1.2-0.2,1.5-0.6s0.5-1.1,0.5-2v-3.8
			h1.6v7.6H78.3z"/>
		<path id="XMLID_417_" d="M83.5,64.5h-1.6V53.9h1.6V64.5z"/>
		<path id="XMLID_419_" d="M88.6,63.3c0.4,0,0.8-0.1,1.2-0.2v1.2c-0.2,0.1-0.4,0.1-0.7,0.2c-0.3,0.1-0.6,0.1-0.9,0.1
			c-1.5,0-2.3-0.8-2.3-2.4v-4.1h-1v-0.7l1.1-0.6l0.5-1.6h1v1.7h2.2v1.2h-2.2v4c0,0.4,0.1,0.7,0.3,0.9S88.3,63.3,88.6,63.3z"/>
		<path id="XMLID_421_" d="M91.2,54.9c0-0.3,0.1-0.5,0.2-0.7s0.4-0.2,0.7-0.2c0.3,0,0.5,0.1,0.7,0.2s0.2,0.4,0.2,0.7
			c0,0.3-0.1,0.5-0.2,0.6s-0.4,0.2-0.7,0.2c-0.3,0-0.5-0.1-0.7-0.2S91.2,55.2,91.2,54.9z M92.9,64.5h-1.6v-7.6h1.6V64.5z"/>
		<path id="XMLID_424_" d="M96.9,64.5L94,56.9h1.7l1.5,4.4c0.3,0.7,0.4,1.3,0.5,1.8h0.1c0-0.3,0.2-0.9,0.5-1.8l1.5-4.4h1.7l-2.9,7.6
			H96.9z"/>
		<path id="XMLID_426_" d="M102.6,54.9c0-0.3,0.1-0.5,0.2-0.7s0.4-0.2,0.7-0.2c0.3,0,0.5,0.1,0.7,0.2s0.2,0.4,0.2,0.7
			c0,0.3-0.1,0.5-0.2,0.6s-0.4,0.2-0.7,0.2c-0.3,0-0.5-0.1-0.7-0.2S102.6,55.2,102.6,54.9z M104.3,64.5h-1.6v-7.6h1.6V64.5z"/>
		<path id="XMLID_429_" d="M111.3,64.5l-0.3-1.1h-0.1c-0.4,0.5-0.7,0.8-1.1,0.9c-0.4,0.2-0.8,0.3-1.4,0.3c-0.7,0-1.3-0.2-1.7-0.6
			c-0.4-0.4-0.6-1-0.6-1.7c0-0.8,0.3-1.4,0.9-1.8s1.5-0.6,2.6-0.6l1.3,0v-0.4c0-0.5-0.1-0.8-0.3-1.1s-0.6-0.4-1-0.4
			c-0.4,0-0.8,0.1-1.1,0.2c-0.4,0.1-0.7,0.2-1,0.4l-0.5-1.1c0.4-0.2,0.9-0.4,1.3-0.5c0.5-0.1,0.9-0.2,1.4-0.2c1,0,1.7,0.2,2.2,0.6
			c0.5,0.4,0.7,1.1,0.7,2v5.1H111.3z M108.9,63.4c0.6,0,1.1-0.2,1.4-0.5c0.4-0.3,0.5-0.8,0.5-1.4v-0.7l-1,0c-0.8,0-1.3,0.2-1.7,0.4
			s-0.5,0.6-0.5,1c0,0.3,0.1,0.6,0.3,0.8S108.5,63.4,108.9,63.4z"/>
		<path id="XMLID_432_" d="M117.5,63.3c0.4,0,0.8-0.1,1.2-0.2v1.2c-0.2,0.1-0.4,0.1-0.7,0.2c-0.3,0.1-0.6,0.1-0.9,0.1
			c-1.5,0-2.3-0.8-2.3-2.4v-4.1h-1v-0.7l1.1-0.6l0.5-1.6h1v1.7h2.2v1.2h-2.2v4c0,0.4,0.1,0.7,0.3,0.9S117.2,63.3,117.5,63.3z"/>
		<path id="XMLID_434_" d="M126.6,56.9v0.9l-1.3,0.2c0.1,0.2,0.2,0.4,0.3,0.6s0.1,0.5,0.1,0.7c0,0.8-0.3,1.4-0.8,1.8
			c-0.5,0.4-1.3,0.7-2.2,0.7c-0.2,0-0.5,0-0.7-0.1c-0.3,0.2-0.5,0.5-0.5,0.8c0,0.2,0.1,0.3,0.2,0.4c0.2,0.1,0.5,0.1,0.9,0.1h1.3
			c0.8,0,1.5,0.2,1.9,0.5s0.6,0.9,0.6,1.5c0,0.9-0.4,1.5-1.1,2s-1.7,0.7-3.1,0.7c-1,0-1.8-0.2-2.4-0.5s-0.8-0.9-0.8-1.6
			c0-0.5,0.1-0.9,0.4-1.2c0.3-0.3,0.7-0.5,1.2-0.7c-0.2-0.1-0.4-0.2-0.5-0.4c-0.1-0.2-0.2-0.4-0.2-0.6c0-0.3,0.1-0.5,0.2-0.7
			c0.2-0.2,0.4-0.4,0.7-0.6c-0.4-0.2-0.7-0.4-1-0.8c-0.2-0.4-0.4-0.8-0.4-1.3c0-0.8,0.3-1.5,0.8-1.9c0.5-0.5,1.3-0.7,2.2-0.7
			c0.2,0,0.4,0,0.7,0c0.2,0,0.4,0.1,0.5,0.1H126.6z M120.6,65.7c0,0.3,0.2,0.6,0.5,0.8c0.3,0.2,0.8,0.3,1.3,0.3c0.9,0,1.5-0.1,2-0.4
			s0.6-0.6,0.6-1c0-0.3-0.1-0.6-0.4-0.7c-0.2-0.1-0.7-0.2-1.3-0.2h-1.2c-0.5,0-0.8,0.1-1.1,0.3C120.8,65,120.6,65.3,120.6,65.7z
			 M121.3,59.4c0,0.5,0.1,0.8,0.4,1.1c0.2,0.3,0.6,0.4,1,0.4c0.9,0,1.4-0.5,1.4-1.5c0-0.5-0.1-0.9-0.3-1.1c-0.2-0.3-0.6-0.4-1-0.4
			c-0.5,0-0.8,0.1-1.1,0.4C121.5,58.5,121.3,58.9,121.3,59.4z"/>
		<path id="XMLID_438_" d="M131.3,64.6c-1.2,0-2.1-0.3-2.8-1c-0.7-0.7-1-1.6-1-2.8c0-1.2,0.3-2.2,0.9-2.9c0.6-0.7,1.5-1.1,2.5-1.1
			c1,0,1.8,0.3,2.4,0.9c0.6,0.6,0.9,1.4,0.9,2.5v0.9h-5c0,0.7,0.2,1.3,0.6,1.7c0.4,0.4,0.9,0.6,1.6,0.6c0.4,0,0.9,0,1.2-0.1
			c0.4-0.1,0.8-0.2,1.2-0.4v1.3c-0.4,0.2-0.8,0.3-1.2,0.4C132.3,64.6,131.8,64.6,131.3,64.6z M131,58c-0.5,0-0.9,0.2-1.2,0.5
			c-0.3,0.3-0.5,0.8-0.6,1.4h3.4c0-0.6-0.2-1.1-0.5-1.4S131.5,58,131,58z"/>
		<path id="XMLID_441_" d="M142.2,64.6c-0.9,0-1.7-0.3-2.2-1s-0.8-1.6-0.8-2.9c0-1.2,0.3-2.2,0.8-2.9c0.5-0.7,1.3-1,2.2-1
			c1,0,1.8,0.4,2.3,1.1h0.1c-0.1-0.5-0.1-1-0.1-1.3v-2.8h1.6v10.6h-1.3l-0.3-1h-0.1C144,64.3,143.2,64.6,142.2,64.6z M142.7,63.3
			c0.7,0,1.1-0.2,1.4-0.6c0.3-0.4,0.5-1,0.5-1.8v-0.2c0-1-0.2-1.6-0.5-2c-0.3-0.4-0.8-0.6-1.5-0.6c-0.6,0-1,0.2-1.3,0.7
			s-0.5,1.1-0.5,2c0,0.8,0.1,1.5,0.4,1.9C141.6,63.1,142.1,63.3,142.7,63.3z"/>
		<path id="XMLID_444_" d="M151.7,64.6c-1.2,0-2.1-0.3-2.8-1c-0.7-0.7-1-1.6-1-2.8c0-1.2,0.3-2.2,0.9-2.9c0.6-0.7,1.5-1.1,2.5-1.1
			c1,0,1.8,0.3,2.4,0.9c0.6,0.6,0.9,1.4,0.9,2.5v0.9h-5c0,0.7,0.2,1.3,0.6,1.7c0.4,0.4,0.9,0.6,1.6,0.6c0.4,0,0.9,0,1.2-0.1
			c0.4-0.1,0.8-0.2,1.2-0.4v1.3c-0.4,0.2-0.8,0.3-1.2,0.4C152.7,64.6,152.2,64.6,151.7,64.6z M151.4,58c-0.5,0-0.9,0.2-1.2,0.5
			c-0.3,0.3-0.5,0.8-0.6,1.4h3.4c0-0.6-0.2-1.1-0.5-1.4S151.9,58,151.4,58z"/>
		<path id="XMLID_447_" d="M162.9,63.3c0.4,0,0.8-0.1,1.2-0.2v1.2c-0.2,0.1-0.4,0.1-0.7,0.2c-0.3,0.1-0.6,0.1-0.9,0.1
			c-1.5,0-2.3-0.8-2.3-2.4v-4.1h-1v-0.7l1.1-0.6l0.5-1.6h1v1.7h2.2v1.2h-2.2v4c0,0.4,0.1,0.7,0.3,0.9
			C162.4,63.2,162.6,63.3,162.9,63.3z"/>
		<path id="XMLID_449_" d="M170.3,64.5l-0.3-1.1H170c-0.4,0.5-0.7,0.8-1.1,0.9c-0.4,0.2-0.8,0.3-1.4,0.3c-0.7,0-1.3-0.2-1.7-0.6
			c-0.4-0.4-0.6-1-0.6-1.7c0-0.8,0.3-1.4,0.9-1.8s1.5-0.6,2.6-0.6l1.3,0v-0.4c0-0.5-0.1-0.8-0.3-1.1c-0.2-0.2-0.6-0.4-1-0.4
			c-0.4,0-0.8,0.1-1.1,0.2c-0.4,0.1-0.7,0.2-1,0.4l-0.5-1.1c0.4-0.2,0.9-0.4,1.3-0.5c0.5-0.1,0.9-0.2,1.4-0.2c1,0,1.7,0.2,2.2,0.6
			c0.5,0.4,0.7,1.1,0.7,2v5.1H170.3z M168,63.4c0.6,0,1.1-0.2,1.4-0.5c0.4-0.3,0.5-0.8,0.5-1.4v-0.7l-1,0c-0.8,0-1.3,0.2-1.7,0.4
			c-0.3,0.2-0.5,0.6-0.5,1c0,0.3,0.1,0.6,0.3,0.8S167.6,63.4,168,63.4z"/>
		<path id="XMLID_452_" d="M177.6,56.8c0.3,0,0.6,0,0.8,0.1l-0.2,1.5c-0.2-0.1-0.5-0.1-0.7-0.1c-0.6,0-1.2,0.2-1.6,0.6
			c-0.4,0.4-0.6,1-0.6,1.6v4h-1.6v-7.6h1.3l0.2,1.3h0.1c0.3-0.5,0.6-0.8,1-1.1C176.7,56.9,177.1,56.8,177.6,56.8z"/>
		<path id="XMLID_454_" d="M179.7,54.9c0-0.3,0.1-0.5,0.2-0.7c0.2-0.2,0.4-0.2,0.7-0.2c0.3,0,0.5,0.1,0.7,0.2
			c0.2,0.2,0.2,0.4,0.2,0.7c0,0.3-0.1,0.5-0.2,0.6c-0.2,0.2-0.4,0.2-0.7,0.2c-0.3,0-0.5-0.1-0.7-0.2
			C179.8,55.4,179.7,55.2,179.7,54.9z M181.4,64.5h-1.6v-7.6h1.6V64.5z"/>
		<path id="XMLID_457_" d="M187.5,58.2h-1.8v6.3H184v-6.3h-1.2v-0.8l1.2-0.5v-0.5c0-0.9,0.2-1.6,0.6-2c0.4-0.4,1.1-0.6,1.9-0.6
			c0.6,0,1.1,0.1,1.7,0.3l-0.4,1.2c-0.4-0.1-0.8-0.2-1.1-0.2c-0.4,0-0.6,0.1-0.8,0.3c-0.2,0.2-0.2,0.6-0.2,1v0.5h1.8V58.2z"/>
		<path id="XMLID_459_" d="M193.5,64.5l-0.3-1.1h-0.1c-0.4,0.5-0.7,0.8-1.1,0.9c-0.4,0.2-0.8,0.3-1.4,0.3c-0.7,0-1.3-0.2-1.7-0.6
			c-0.4-0.4-0.6-1-0.6-1.7c0-0.8,0.3-1.4,0.9-1.8s1.5-0.6,2.6-0.6l1.3,0v-0.4c0-0.5-0.1-0.8-0.3-1.1c-0.2-0.2-0.6-0.4-1-0.4
			c-0.4,0-0.8,0.1-1.1,0.2c-0.4,0.1-0.7,0.2-1,0.4l-0.5-1.1c0.4-0.2,0.9-0.4,1.3-0.5c0.5-0.1,0.9-0.2,1.4-0.2c1,0,1.7,0.2,2.2,0.6
			c0.5,0.4,0.7,1.1,0.7,2v5.1H193.5z M191.1,63.4c0.6,0,1.1-0.2,1.4-0.5c0.4-0.3,0.5-0.8,0.5-1.4v-0.7l-1,0c-0.8,0-1.3,0.2-1.7,0.4
			c-0.3,0.2-0.5,0.6-0.5,1c0,0.3,0.1,0.6,0.3,0.8S190.7,63.4,191.1,63.4z"/>
		<path id="XMLID_462_" d="M205.6,62.3c0,0.7-0.3,1.3-0.8,1.7c-0.5,0.4-1.3,0.6-2.3,0.6c-1,0-1.8-0.2-2.4-0.5v-1.4
			c0.9,0.4,1.7,0.6,2.5,0.6c1,0,1.5-0.3,1.5-0.9c0-0.2-0.1-0.4-0.2-0.5c-0.1-0.1-0.3-0.3-0.5-0.4s-0.6-0.3-1-0.5
			c-0.9-0.3-1.5-0.7-1.8-1c-0.3-0.3-0.5-0.8-0.5-1.3c0-0.6,0.3-1.1,0.8-1.5c0.5-0.4,1.2-0.5,2.1-0.5c0.9,0,1.7,0.2,2.5,0.5l-0.5,1.2
			c-0.8-0.3-1.5-0.5-2.1-0.5c-0.8,0-1.3,0.2-1.3,0.7c0,0.2,0.1,0.4,0.3,0.6c0.2,0.2,0.7,0.4,1.4,0.7c0.6,0.2,1.1,0.5,1.4,0.7
			c0.3,0.2,0.5,0.4,0.6,0.7C205.5,61.7,205.6,62,205.6,62.3z"/>
		<path id="XMLID_464_" d="M214,60.7c0,1.2-0.3,2.2-1,2.9c-0.6,0.7-1.5,1-2.6,1c-0.7,0-1.3-0.2-1.9-0.5c-0.5-0.3-1-0.8-1.3-1.4
			c-0.3-0.6-0.4-1.3-0.4-2.1c0-1.2,0.3-2.2,0.9-2.9c0.6-0.7,1.5-1,2.7-1c1.1,0,2,0.4,2.6,1.1S214,59.5,214,60.7z M208.5,60.7
			c0,1.7,0.6,2.6,1.9,2.6c1.3,0,1.9-0.9,1.9-2.6c0-1.7-0.6-2.6-1.9-2.6c-0.7,0-1.2,0.2-1.5,0.7C208.7,59.2,208.5,59.9,208.5,60.7z"
			/>
		<path id="XMLID_467_" d="M218.9,64.6c-1.1,0-2-0.3-2.6-1c-0.6-0.7-0.9-1.6-0.9-2.9c0-1.3,0.3-2.2,0.9-2.9c0.6-0.7,1.5-1,2.7-1
			c0.8,0,1.5,0.1,2.2,0.4l-0.5,1.3c-0.7-0.3-1.2-0.4-1.7-0.4c-1.3,0-2,0.9-2,2.6c0,0.8,0.2,1.5,0.5,1.9c0.3,0.4,0.8,0.6,1.4,0.6
			c0.7,0,1.4-0.2,2-0.5v1.4c-0.3,0.2-0.6,0.3-0.9,0.4C219.8,64.6,219.4,64.6,218.9,64.6z"/>
		<path id="XMLID_469_" d="M222.7,54.9c0-0.3,0.1-0.5,0.2-0.7c0.2-0.2,0.4-0.2,0.7-0.2c0.3,0,0.5,0.1,0.7,0.2
			c0.2,0.2,0.2,0.4,0.2,0.7c0,0.3-0.1,0.5-0.2,0.6c-0.2,0.2-0.4,0.2-0.7,0.2c-0.3,0-0.5-0.1-0.7-0.2
			C222.8,55.4,222.7,55.2,222.7,54.9z M224.4,64.5h-1.6v-7.6h1.6V64.5z"/>
		<path id="XMLID_472_" d="M231.4,64.5l-0.3-1.1h-0.1c-0.4,0.5-0.7,0.8-1.1,0.9c-0.4,0.2-0.8,0.3-1.4,0.3c-0.7,0-1.3-0.2-1.7-0.6
			c-0.4-0.4-0.6-1-0.6-1.7c0-0.8,0.3-1.4,0.9-1.8s1.5-0.6,2.6-0.6l1.3,0v-0.4c0-0.5-0.1-0.8-0.3-1.1c-0.2-0.2-0.6-0.4-1-0.4
			c-0.4,0-0.8,0.1-1.1,0.2c-0.4,0.1-0.7,0.2-1,0.4l-0.5-1.1c0.4-0.2,0.9-0.4,1.3-0.5c0.5-0.1,0.9-0.2,1.4-0.2c1,0,1.7,0.2,2.2,0.6
			c0.5,0.4,0.7,1.1,0.7,2v5.1H231.4z M229.1,63.4c0.6,0,1.1-0.2,1.4-0.5c0.4-0.3,0.5-0.8,0.5-1.4v-0.7l-1,0c-0.8,0-1.3,0.2-1.7,0.4
			c-0.3,0.2-0.5,0.6-0.5,1c0,0.3,0.1,0.6,0.3,0.8S228.7,63.4,229.1,63.4z"/>
		<path id="XMLID_475_" d="M236.4,64.5h-1.6V53.9h1.6V64.5z"/>
	</g>
	<g id="XMLID_31_">
		<path id="XMLID_275_" d="M32.3,77.2c0,0.9-0.3,1.5-0.9,2s-1.4,0.7-2.5,0.7h-1v3.4h-1v-8.6h2.2C31.2,74.7,32.3,75.5,32.3,77.2z
			 M27.9,79h0.9c0.9,0,1.5-0.1,1.9-0.4s0.6-0.7,0.6-1.4c0-0.6-0.2-1-0.6-1.3s-0.9-0.4-1.7-0.4h-1.1V79z"/>
		<path id="XMLID_278_" d="M36.9,76.7c0.3,0,0.5,0,0.8,0.1l-0.1,0.9c-0.3-0.1-0.5-0.1-0.7-0.1c-0.5,0-1,0.2-1.3,0.6
			s-0.6,0.9-0.6,1.6v3.4h-1v-6.4h0.8l0.1,1.2h0c0.2-0.4,0.5-0.7,0.9-1S36.5,76.7,36.9,76.7z"/>
		<path id="XMLID_280_" d="M41.6,83.4c-0.9,0-1.7-0.3-2.2-0.9s-0.8-1.4-0.8-2.4c0-1,0.3-1.9,0.8-2.5s1.2-0.9,2.1-0.9
			c0.8,0,1.4,0.3,1.9,0.8s0.7,1.2,0.7,2.1v0.6h-4.4c0,0.8,0.2,1.3,0.6,1.7s0.9,0.6,1.5,0.6c0.7,0,1.4-0.1,2.1-0.4V83
			c-0.3,0.1-0.7,0.3-1,0.3S42,83.4,41.6,83.4z M41.3,77.5c-0.5,0-0.9,0.2-1.2,0.5s-0.5,0.8-0.5,1.4h3.4c0-0.6-0.1-1.1-0.4-1.4
			S41.8,77.5,41.3,77.5z"/>
		<path id="XMLID_283_" d="M46.5,76.8V81c0,0.5,0.1,0.9,0.4,1.2s0.6,0.4,1.1,0.4c0.7,0,1.2-0.2,1.5-0.6s0.5-1,0.5-1.8v-3.4h1v6.4
			h-0.8l-0.1-0.9h-0.1c-0.2,0.3-0.5,0.6-0.8,0.7s-0.8,0.3-1.2,0.3c-0.8,0-1.4-0.2-1.8-0.6s-0.6-1-0.6-1.8v-4.2H46.5z"/>
		<path id="XMLID_285_" d="M52.8,77.5c0-0.5,0.2-0.8,0.7-0.8c0.5,0,0.7,0.3,0.7,0.8c0,0.3-0.1,0.4-0.2,0.6s-0.3,0.2-0.5,0.2
			c-0.2,0-0.4-0.1-0.5-0.2S52.8,77.7,52.8,77.5z M52.8,82.6c0-0.3,0.1-0.5,0.2-0.6s0.3-0.2,0.5-0.2c0.2,0,0.4,0.1,0.5,0.2
			s0.2,0.3,0.2,0.6c0,0.3-0.1,0.4-0.2,0.6s-0.3,0.2-0.5,0.2c-0.2,0-0.4-0.1-0.5-0.2S52.8,82.9,52.8,82.6z"/>
		<path id="XMLID_288_" d="M63.2,83.3L63,82.3h0c-0.3,0.4-0.6,0.7-1,0.8s-0.7,0.2-1.2,0.2c-0.6,0-1.1-0.2-1.5-0.5s-0.5-0.8-0.5-1.4
			c0-1.3,1-2,3.1-2l1.1,0V79c0-0.5-0.1-0.9-0.3-1.1s-0.6-0.4-1-0.4c-0.5,0-1.1,0.2-1.8,0.5l-0.3-0.7c0.3-0.2,0.7-0.3,1-0.4
			s0.8-0.1,1.1-0.1c0.8,0,1.3,0.2,1.7,0.5s0.6,0.9,0.6,1.6v4.4H63.2z M61,82.6c0.6,0,1.1-0.2,1.4-0.5s0.5-0.8,0.5-1.4v-0.6l-1,0
			c-0.8,0-1.3,0.1-1.7,0.4s-0.5,0.5-0.5,1c0,0.4,0.1,0.6,0.3,0.8S60.6,82.6,61,82.6z"/>
		<path id="XMLID_291_" d="M68.9,76.7c0.8,0,1.5,0.3,2,0.9s0.7,1.4,0.7,2.4s-0.2,1.9-0.7,2.5s-1.1,0.9-2,0.9c-0.4,0-0.8-0.1-1.1-0.2
			s-0.6-0.4-0.9-0.7h-0.1l-0.2,0.8h-0.7v-9.1h1v2.2c0,0.5,0,0.9,0,1.3h0C67.4,77,68,76.7,68.9,76.7z M68.8,77.5
			c-0.7,0-1.1,0.2-1.4,0.6s-0.4,1-0.4,1.9s0.2,1.5,0.5,1.9s0.8,0.6,1.4,0.6c0.6,0,1-0.2,1.3-0.7s0.4-1.1,0.4-1.9
			c0-0.8-0.1-1.5-0.4-1.9S69.4,77.5,68.8,77.5z"/>
		<path id="XMLID_294_" d="M78.8,80c0,1-0.3,1.9-0.8,2.5s-1.3,0.9-2.2,0.9c-0.6,0-1.1-0.1-1.5-0.4s-0.8-0.7-1-1.2s-0.4-1.1-0.4-1.8
			c0-1,0.3-1.9,0.8-2.4s1.3-0.9,2.2-0.9c0.9,0,1.6,0.3,2.1,0.9S78.8,79,78.8,80z M73.9,80c0,0.8,0.2,1.4,0.5,1.9s0.8,0.6,1.4,0.6
			s1.1-0.2,1.5-0.6s0.5-1.1,0.5-1.9c0-0.8-0.2-1.4-0.5-1.9s-0.8-0.6-1.5-0.6c-0.6,0-1.1,0.2-1.4,0.6S73.9,79.2,73.9,80z"/>
		<path id="XMLID_297_" d="M84.9,83.3v-4.2c0-0.5-0.1-0.9-0.4-1.2s-0.6-0.4-1.1-0.4c-0.7,0-1.2,0.2-1.5,0.5s-0.5,1-0.5,1.8v3.4h-1
			v-6.4h0.8l0.2,0.9h0c0.2-0.3,0.5-0.6,0.8-0.7s0.8-0.3,1.2-0.3c0.8,0,1.4,0.2,1.7,0.6s0.6,1,0.6,1.8v4.2H84.9z"/>
		<path id="XMLID_299_" d="M91.9,83.3l-0.2-0.9h0c-0.3,0.4-0.6,0.7-1,0.8s-0.7,0.2-1.2,0.2c-0.6,0-1.1-0.2-1.5-0.5s-0.5-0.8-0.5-1.4
			c0-1.3,1-2,3.1-2l1.1,0V79c0-0.5-0.1-0.9-0.3-1.1s-0.6-0.4-1-0.4c-0.5,0-1.1,0.2-1.8,0.5l-0.3-0.7c0.3-0.2,0.7-0.3,1-0.4
			s0.8-0.1,1.1-0.1c0.8,0,1.3,0.2,1.7,0.5s0.6,0.9,0.6,1.6v4.4H91.9z M89.7,82.6c0.6,0,1.1-0.2,1.4-0.5s0.5-0.8,0.5-1.4v-0.6l-1,0
			c-0.8,0-1.3,0.1-1.7,0.4s-0.5,0.5-0.5,1c0,0.4,0.1,0.6,0.3,0.8S89.3,82.6,89.7,82.6z"/>
		<path id="XMLID_302_" d="M102.8,83.3v-4.2c0-0.5-0.1-0.9-0.3-1.2s-0.6-0.4-1-0.4c-0.6,0-1.1,0.2-1.3,0.5s-0.4,0.9-0.4,1.6v3.6h-1
			v-4.2c0-0.5-0.1-0.9-0.3-1.2s-0.6-0.4-1-0.4c-0.6,0-1.1,0.2-1.3,0.5s-0.4,1-0.4,1.8v3.4h-1v-6.4h0.8l0.2,0.9h0
			c0.2-0.3,0.4-0.6,0.8-0.7s0.7-0.3,1.1-0.3c1,0,1.7,0.4,2,1.1h0c0.2-0.3,0.5-0.6,0.8-0.8s0.8-0.3,1.2-0.3c0.7,0,1.3,0.2,1.6,0.6
			s0.5,1,0.5,1.8v4.2H102.8z"/>
		<path id="XMLID_304_" d="M108.5,83.4c-0.9,0-1.7-0.3-2.2-0.9s-0.8-1.4-0.8-2.4c0-1,0.3-1.9,0.8-2.5s1.2-0.9,2.1-0.9
			c0.8,0,1.4,0.3,1.9,0.8s0.7,1.2,0.7,2.1v0.6h-4.4c0,0.8,0.2,1.3,0.6,1.7s0.9,0.6,1.5,0.6c0.7,0,1.4-0.1,2.1-0.4V83
			c-0.3,0.1-0.7,0.3-1,0.3S108.9,83.4,108.5,83.4z M108.2,77.5c-0.5,0-0.9,0.2-1.2,0.5s-0.5,0.8-0.5,1.4h3.4c0-0.6-0.1-1.1-0.4-1.4
			S108.7,77.5,108.2,77.5z"/>
		<path id="XMLID_307_" d="M116.9,83.3v-4.2c0-0.5-0.1-0.9-0.4-1.2s-0.6-0.4-1.1-0.4c-0.7,0-1.2,0.2-1.5,0.5s-0.5,1-0.5,1.8v3.4h-1
			v-6.4h0.8l0.2,0.9h0c0.2-0.3,0.5-0.6,0.8-0.7s0.8-0.3,1.2-0.3c0.8,0,1.4,0.2,1.7,0.6s0.6,1,0.6,1.8v4.2H116.9z"/>
		<path id="XMLID_309_" d="M121.9,82.6c0.2,0,0.3,0,0.5,0s0.3-0.1,0.4-0.1v0.7c-0.1,0.1-0.3,0.1-0.5,0.1s-0.4,0-0.6,0
			c-1.2,0-1.9-0.7-1.9-2v-3.8H119v-0.5l0.9-0.4l0.4-1.4h0.6v1.5h1.9v0.8h-1.9v3.8c0,0.4,0.1,0.7,0.3,0.9
			C121.3,82.5,121.6,82.6,121.9,82.6z"/>
		<path id="XMLID_311_" d="M131.6,82.4L131.6,82.4c-0.5,0.7-1.2,1-2.1,1c-0.8,0-1.5-0.3-2-0.9s-0.7-1.4-0.7-2.4s0.2-1.9,0.7-2.5
			s1.1-0.9,2-0.9c0.9,0,1.5,0.3,2,0.9h0.1l0-0.5l0-0.5v-2.6h1v9.1h-0.8L131.6,82.4z M129.6,82.6c0.7,0,1.1-0.2,1.4-0.5
			s0.4-0.9,0.4-1.7v-0.2c0-0.9-0.2-1.6-0.5-1.9s-0.8-0.6-1.5-0.6c-0.6,0-1,0.2-1.3,0.7s-0.5,1.1-0.5,1.9c0,0.8,0.2,1.4,0.5,1.9
			S129,82.6,129.6,82.6z"/>
		<path id="XMLID_314_" d="M137.3,83.4c-0.9,0-1.7-0.3-2.2-0.9s-0.8-1.4-0.8-2.4c0-1,0.3-1.9,0.8-2.5s1.2-0.9,2.1-0.9
			c0.8,0,1.4,0.3,1.9,0.8s0.7,1.2,0.7,2.1v0.6h-4.4c0,0.8,0.2,1.3,0.6,1.7s0.9,0.6,1.5,0.6c0.7,0,1.4-0.1,2.1-0.4V83
			c-0.3,0.1-0.7,0.3-1,0.3S137.7,83.4,137.3,83.4z M137,77.5c-0.5,0-0.9,0.2-1.2,0.5s-0.5,0.8-0.5,1.4h3.4c0-0.6-0.1-1.1-0.4-1.4
			S137.5,77.5,137,77.5z"/>
		<path id="XMLID_317_" d="M148.3,83.3h-1.8v-5l0-0.8l0-0.9c-0.3,0.3-0.5,0.5-0.6,0.6l-1,0.8l-0.9-1.1l2.8-2.2h1.5V83.3z"/>
		<path id="XMLID_319_" d="M156.6,79c0,1.5-0.2,2.6-0.7,3.3s-1.2,1.1-2.3,1.1c-1,0-1.7-0.4-2.2-1.1s-0.8-1.8-0.8-3.3
			c0-1.5,0.2-2.6,0.7-3.3s1.2-1.1,2.3-1.1c1,0,1.7,0.4,2.2,1.1S156.6,77.5,156.6,79z M152.4,79c0,1.1,0.1,1.8,0.3,2.3
			s0.5,0.7,0.9,0.7c0.4,0,0.7-0.2,0.9-0.7s0.3-1.2,0.3-2.3c0-1.1-0.1-1.8-0.3-2.3s-0.5-0.7-0.9-0.7c-0.4,0-0.7,0.2-0.9,0.7
			S152.4,77.9,152.4,79z"/>
		<path id="XMLID_322_" d="M162.7,83.3l-2.5-6.6h1.9l1.3,3.7c0.1,0.5,0.2,0.9,0.3,1.3h0c0-0.4,0.1-0.8,0.3-1.3l1.3-3.7h1.9l-2.5,6.6
			H162.7z"/>
		<path id="XMLID_324_" d="M167.9,75c0-0.6,0.3-0.9,1-0.9s1,0.3,1,0.9c0,0.3-0.1,0.5-0.2,0.6s-0.4,0.2-0.7,0.2
			C168.2,75.9,167.9,75.6,167.9,75z M169.7,83.3h-1.8v-6.6h1.8V83.3z"/>
		<path id="XMLID_327_" d="M175.8,83.3l-0.3-0.9h0c-0.3,0.4-0.6,0.6-0.9,0.8s-0.7,0.2-1.2,0.2c-0.6,0-1.1-0.2-1.5-0.5
			s-0.5-0.9-0.5-1.5c0-0.7,0.2-1.2,0.7-1.5s1.2-0.5,2.2-0.5l1.1,0v-0.3c0-0.7-0.3-1-1-1c-0.5,0-1.1,0.2-1.8,0.5l-0.6-1.2
			c0.8-0.4,1.6-0.6,2.5-0.6c0.9,0,1.6,0.2,2,0.6s0.7,1,0.7,1.7v4.4H175.8z M175.2,80.2l-0.7,0c-0.5,0-0.9,0.1-1.2,0.3
			S173,81,173,81.3c0,0.5,0.3,0.8,0.9,0.8c0.4,0,0.7-0.1,1-0.4s0.4-0.6,0.4-0.9V80.2z"/>
		<path id="XMLID_330_" d="M181.6,81.9c0.3,0,0.7-0.1,1.1-0.2v1.3c-0.4,0.2-1,0.3-1.6,0.3c-0.7,0-1.2-0.2-1.6-0.5s-0.5-0.9-0.5-1.6
			V78h-0.9v-0.8l1-0.6l0.5-1.4h1.1v1.4h1.8V78h-1.8v3.2c0,0.3,0.1,0.4,0.2,0.6S181.4,81.9,181.6,81.9z"/>
		<path id="XMLID_332_" d="M189.8,76.7v0.9l-1,0.3c0.2,0.3,0.3,0.6,0.3,1c0,0.7-0.2,1.3-0.7,1.6s-1.2,0.6-2,0.6l-0.3,0l-0.3,0
			c-0.2,0.1-0.3,0.3-0.3,0.5c0,0.3,0.3,0.4,1,0.4h1.1c0.7,0,1.3,0.2,1.6,0.5s0.6,0.8,0.6,1.4c0,0.8-0.3,1.4-1,1.8s-1.6,0.6-2.8,0.6
			c-0.9,0-1.6-0.2-2.1-0.5s-0.7-0.8-0.7-1.3c0-0.4,0.1-0.7,0.4-1s0.6-0.5,1.1-0.6c-0.2-0.1-0.3-0.2-0.5-0.4s-0.2-0.4-0.2-0.6
			c0-0.3,0.1-0.5,0.2-0.6s0.4-0.3,0.6-0.5c-0.3-0.1-0.6-0.4-0.8-0.7s-0.3-0.7-0.3-1.2c0-0.7,0.2-1.3,0.7-1.7s1.1-0.6,2-0.6
			c0.2,0,0.4,0,0.7,0s0.4,0.1,0.5,0.1H189.8z M184.7,84.2c0,0.2,0.1,0.4,0.4,0.6s0.6,0.2,1,0.2c0.6,0,1.1-0.1,1.5-0.3
			s0.5-0.4,0.5-0.7c0-0.2-0.1-0.4-0.3-0.5s-0.5-0.1-1-0.1h-0.9c-0.3,0-0.6,0.1-0.8,0.2S184.7,83.9,184.7,84.2z M185.4,78.8
			c0,0.4,0.1,0.6,0.2,0.8s0.4,0.3,0.7,0.3c0.3,0,0.6-0.1,0.7-0.3s0.2-0.5,0.2-0.8c0-0.8-0.3-1.2-1-1.2
			C185.7,77.7,185.4,78.1,185.4,78.8z"/>
		<path id="XMLID_336_" d="M193.8,83.4c-1.1,0-1.9-0.3-2.5-0.9s-0.9-1.4-0.9-2.5c0-1.1,0.3-1.9,0.8-2.5s1.3-0.9,2.3-0.9
			c0.9,0,1.6,0.3,2.2,0.8s0.8,1.3,0.8,2.2v0.9h-4.2c0,0.5,0.2,0.9,0.5,1.2s0.7,0.4,1.2,0.4c0.4,0,0.8,0,1.1-0.1s0.7-0.2,1.1-0.4v1.4
			c-0.3,0.2-0.6,0.3-1,0.3S194.3,83.4,193.8,83.4z M193.6,77.8c-0.4,0-0.7,0.1-0.9,0.4s-0.3,0.6-0.4,1h2.5c0-0.4-0.1-0.8-0.3-1
			S193.9,77.8,193.6,77.8z"/>
		<path id="XMLID_339_" d="M202.5,81.3c0,0.7-0.2,1.2-0.7,1.5s-1.2,0.5-2.1,0.5c-0.5,0-0.9,0-1.2-0.1s-0.7-0.2-0.9-0.3v-1.5
			c0.3,0.2,0.7,0.3,1.1,0.4s0.8,0.2,1.1,0.2c0.6,0,1-0.2,1-0.6c0-0.1,0-0.3-0.1-0.3s-0.2-0.2-0.4-0.3s-0.5-0.2-0.8-0.4
			c-0.5-0.2-0.9-0.4-1.1-0.6s-0.4-0.4-0.5-0.6s-0.2-0.5-0.2-0.9c0-0.6,0.2-1,0.7-1.4s1.1-0.5,1.9-0.5c0.8,0,1.6,0.2,2.3,0.5
			l-0.5,1.3c-0.3-0.1-0.6-0.3-0.9-0.3s-0.6-0.1-0.9-0.1c-0.5,0-0.8,0.1-0.8,0.4c0,0.2,0.1,0.3,0.3,0.4s0.5,0.3,1.1,0.5
			c0.5,0.2,0.9,0.4,1.1,0.6s0.4,0.4,0.5,0.6S202.5,81,202.5,81.3z"/>
		<path id="XMLID_341_" d="M205,81.9l0.1,0.1c-0.1,0.4-0.2,0.8-0.4,1.4s-0.4,1-0.6,1.4h-0.7c0.1-0.4,0.2-0.9,0.3-1.5
			s0.2-1.1,0.3-1.4H205z"/>
		<path id="XMLID_343_" d="M50.9,97.7h-6v-1.3l2.2-2.2c0.6-0.7,1.1-1.1,1.2-1.4s0.3-0.5,0.4-0.7s0.1-0.4,0.1-0.7
			c0-0.3-0.1-0.6-0.3-0.8s-0.4-0.3-0.8-0.3c-0.3,0-0.7,0.1-1,0.2s-0.6,0.4-1,0.7l-1-1.2c0.4-0.4,0.8-0.6,1-0.8s0.6-0.3,0.9-0.3
			s0.7-0.1,1.1-0.1c0.5,0,1,0.1,1.4,0.3s0.7,0.5,1,0.8s0.3,0.8,0.3,1.2c0,0.4-0.1,0.8-0.2,1.1s-0.4,0.7-0.6,1.1S49,94.3,48.2,95
			l-1.1,1v0.1h3.7V97.7z"/>
		<path id="XMLID_345_" d="M53.9,96.4c-0.2,0.8-0.5,1.7-1,2.8h-1.3c0.3-1,0.5-2,0.6-2.9h1.6L53.9,96.4z"/>
		<path id="XMLID_347_" d="M61.1,93.4c0,1.5-0.2,2.6-0.7,3.3s-1.2,1.1-2.3,1.1c-1,0-1.7-0.4-2.2-1.1s-0.8-1.8-0.8-3.3
			c0-1.5,0.2-2.6,0.7-3.3s1.2-1.1,2.3-1.1c1,0,1.7,0.4,2.2,1.1S61.1,91.9,61.1,93.4z M57,93.4c0,1.1,0.1,1.8,0.3,2.3
			s0.5,0.7,0.9,0.7c0.4,0,0.7-0.2,0.9-0.7s0.3-1.2,0.3-2.3c0-1.1-0.1-1.8-0.3-2.3s-0.5-0.7-0.9-0.7c-0.4,0-0.7,0.2-0.9,0.7
			S57,92.3,57,93.4z"/>
		<path id="XMLID_350_" d="M68,93.4c0,1.5-0.2,2.6-0.7,3.3S66,97.8,65,97.8c-1,0-1.7-0.4-2.2-1.1S62,94.8,62,93.4
			c0-1.5,0.2-2.6,0.7-3.3s1.2-1.1,2.3-1.1c1,0,1.7,0.4,2.2,1.1S68,91.9,68,93.4z M63.8,93.4c0,1.1,0.1,1.8,0.3,2.3s0.5,0.7,0.9,0.7
			c0.4,0,0.7-0.2,0.9-0.7s0.3-1.2,0.3-2.3c0-1.1-0.1-1.8-0.3-2.3s-0.5-0.7-0.9-0.7c-0.4,0-0.7,0.2-0.9,0.7S63.8,92.3,63.8,93.4z"/>
		<path id="XMLID_353_" d="M76.2,90.5c-0.5,0-0.9,0.1-1.2,0.4s-0.5,0.7-0.6,1.2h2.4v1h-2.4l0,0.2v0.3l0,0.2h2.1v1h-2
			c0.2,0.9,0.8,1.4,1.9,1.4c0.6,0,1.1-0.1,1.6-0.3v1.5c-0.5,0.2-1,0.3-1.7,0.3c-1,0-1.7-0.3-2.4-0.8s-1-1.2-1.2-2.2h-0.8v-1h0.7
			c0-0.1,0-0.2,0-0.4l0-0.3h-0.7v-1h0.8c0.1-0.9,0.5-1.7,1.2-2.2s1.4-0.8,2.4-0.8c0.7,0,1.4,0.2,2.1,0.5l-0.6,1.4
			c-0.3-0.1-0.5-0.2-0.8-0.3S76.5,90.5,76.2,90.5z"/>
		<path id="XMLID_355_" d="M82,94.4c0-1,0.2-2,0.5-2.9s0.7-1.7,1.3-2.4h0.9c-0.6,0.8-1,1.6-1.3,2.5S83,93.4,83,94.4
			c0,0.9,0.1,1.9,0.4,2.7s0.7,1.7,1.2,2.4h-0.9c-0.6-0.7-1-1.4-1.3-2.3S82,95.4,82,94.4z"/>
		<path id="XMLID_357_" d="M94.3,97.7v-4.2c0-0.5-0.1-0.9-0.3-1.2s-0.6-0.4-1-0.4c-0.6,0-1.1,0.2-1.3,0.5s-0.4,0.9-0.4,1.6v3.6h-1
			v-4.2c0-0.5-0.1-0.9-0.3-1.2s-0.6-0.4-1-0.4c-0.6,0-1.1,0.2-1.3,0.5s-0.4,1-0.4,1.8v3.4h-1v-6.4h0.8l0.2,0.9h0
			c0.2-0.3,0.4-0.6,0.8-0.7s0.7-0.3,1.1-0.3c1,0,1.7,0.4,2,1.1h0c0.2-0.3,0.5-0.6,0.8-0.8s0.8-0.3,1.2-0.3c0.7,0,1.3,0.2,1.6,0.6
			s0.5,1,0.5,1.8v4.2H94.3z"/>
		<path id="XMLID_359_" d="M101.2,97.7l-0.2-0.9h0c-0.3,0.4-0.6,0.7-1,0.8s-0.7,0.2-1.2,0.2c-0.6,0-1.1-0.2-1.5-0.5
			s-0.5-0.8-0.5-1.4c0-1.3,1-2,3.1-2l1.1,0v-0.4c0-0.5-0.1-0.9-0.3-1.1s-0.6-0.4-1-0.4c-0.5,0-1.1,0.2-1.8,0.5l-0.3-0.7
			c0.3-0.2,0.7-0.3,1-0.4s0.8-0.1,1.1-0.1c0.8,0,1.3,0.2,1.7,0.5s0.6,0.9,0.6,1.6v4.4H101.2z M99,97c0.6,0,1.1-0.2,1.4-0.5
			s0.5-0.8,0.5-1.4v-0.6l-1,0c-0.8,0-1.3,0.1-1.7,0.4s-0.5,0.5-0.5,1c0,0.4,0.1,0.6,0.3,0.8S98.6,97,99,97z"/>
		<path id="XMLID_362_" d="M103.1,100.5c-0.4,0-0.7,0-0.9-0.1v-0.8c0.3,0.1,0.5,0.1,0.8,0.1c0.3,0,0.5-0.1,0.7-0.2s0.2-0.4,0.2-0.8
			v-7.5h1v7.4C104.9,99.9,104.3,100.5,103.1,100.5z M103.8,89.5c0-0.2,0.1-0.4,0.2-0.5s0.2-0.2,0.4-0.2c0.2,0,0.3,0.1,0.4,0.2
			s0.2,0.3,0.2,0.5s-0.1,0.4-0.2,0.5s-0.2,0.2-0.4,0.2c-0.2,0-0.3-0.1-0.4-0.2S103.8,89.7,103.8,89.5z"/>
		<path id="XMLID_365_" d="M112.5,94.4c0,1-0.3,1.9-0.8,2.5s-1.3,0.9-2.2,0.9c-0.6,0-1.1-0.1-1.5-0.4s-0.8-0.7-1-1.2
			s-0.4-1.1-0.4-1.8c0-1,0.3-1.9,0.8-2.4s1.3-0.9,2.2-0.9c0.9,0,1.6,0.3,2.1,0.9S112.5,93.4,112.5,94.4z M107.6,94.4
			c0,0.8,0.2,1.4,0.5,1.9s0.8,0.6,1.4,0.6s1.1-0.2,1.5-0.6s0.5-1.1,0.5-1.9c0-0.8-0.2-1.4-0.5-1.9s-0.8-0.6-1.5-0.6
			c-0.6,0-1.1,0.2-1.4,0.6S107.6,93.6,107.6,94.4z"/>
		<path id="XMLID_368_" d="M117.1,91.1c0.3,0,0.5,0,0.8,0.1l-0.1,0.9c-0.3-0.1-0.5-0.1-0.7-0.1c-0.5,0-1,0.2-1.3,0.6
			s-0.6,0.9-0.6,1.6v3.4h-1v-6.4h0.8l0.1,1.2h0c0.2-0.4,0.5-0.7,0.9-1S116.7,91.1,117.1,91.1z"/>
		<path id="XMLID_370_" d="M123.3,95.9c0,0.6-0.2,1.1-0.7,1.4s-1.1,0.5-1.9,0.5c-0.9,0-1.5-0.1-2-0.4v-0.9c0.3,0.2,0.6,0.3,1,0.4
			s0.7,0.1,1,0.1c0.5,0,0.9-0.1,1.2-0.2s0.4-0.4,0.4-0.7c0-0.3-0.1-0.5-0.3-0.6s-0.6-0.4-1.3-0.6c-0.6-0.2-1-0.4-1.3-0.6
			s-0.4-0.4-0.6-0.6s-0.2-0.5-0.2-0.8c0-0.5,0.2-0.9,0.6-1.2s1-0.5,1.8-0.5c0.7,0,1.4,0.1,2,0.4l-0.3,0.8c-0.6-0.3-1.2-0.4-1.8-0.4
			c-0.5,0-0.8,0.1-1,0.2s-0.4,0.3-0.4,0.6c0,0.2,0,0.3,0.1,0.4s0.2,0.2,0.4,0.3s0.6,0.3,1.1,0.5c0.8,0.3,1.3,0.6,1.5,0.8
			S123.3,95.5,123.3,95.9z"/>
		<path id="XMLID_372_" d="M132.3,96.8L132.3,96.8c-0.5,0.7-1.2,1-2.1,1c-0.8,0-1.5-0.3-2-0.9s-0.7-1.4-0.7-2.4s0.2-1.9,0.7-2.5
			s1.1-0.9,2-0.9c0.9,0,1.5,0.3,2,0.9h0.1l0-0.5l0-0.5v-2.6h1v9.1h-0.8L132.3,96.8z M130.4,97c0.7,0,1.1-0.2,1.4-0.5
			s0.4-0.9,0.4-1.7v-0.2c0-0.9-0.2-1.6-0.5-1.9s-0.8-0.6-1.5-0.6c-0.6,0-1,0.2-1.3,0.7s-0.5,1.1-0.5,1.9c0,0.8,0.2,1.4,0.5,1.9
			S129.8,97,130.4,97z"/>
		<path id="XMLID_375_" d="M138,97.8c-0.9,0-1.7-0.3-2.2-0.9s-0.8-1.4-0.8-2.4c0-1,0.3-1.9,0.8-2.5s1.2-0.9,2.1-0.9
			c0.8,0,1.4,0.3,1.9,0.8s0.7,1.2,0.7,2.1v0.6H136c0,0.8,0.2,1.3,0.6,1.7s0.9,0.6,1.5,0.6c0.7,0,1.4-0.1,2.1-0.4v0.9
			c-0.3,0.1-0.7,0.3-1,0.3S138.5,97.8,138,97.8z M137.8,91.9c-0.5,0-0.9,0.2-1.2,0.5s-0.5,0.8-0.5,1.4h3.4c0-0.6-0.1-1.1-0.4-1.4
			S138.3,91.9,137.8,91.9z"/>
		<path id="XMLID_378_" d="M147.9,94c0-1.7,0.3-2.9,1-3.8s1.6-1.3,2.9-1.3c0.4,0,0.8,0,1,0.1v0.8c-0.3-0.1-0.6-0.1-1-0.1
			c-0.9,0-1.6,0.3-2.1,0.9s-0.8,1.5-0.8,2.7h0.1c0.4-0.7,1.1-1,2-1c0.8,0,1.4,0.2,1.8,0.7s0.7,1.1,0.7,1.9c0,0.9-0.2,1.6-0.7,2.1
			s-1.1,0.8-2,0.8c-0.9,0-1.6-0.3-2.1-1S147.9,95.2,147.9,94z M150.8,96.9c0.6,0,1-0.2,1.3-0.5s0.5-0.9,0.5-1.5c0-0.6-0.1-1-0.4-1.3
			s-0.7-0.5-1.3-0.5c-0.4,0-0.7,0.1-1,0.2s-0.5,0.3-0.7,0.6s-0.3,0.5-0.3,0.8c0,0.4,0.1,0.8,0.2,1.1s0.4,0.6,0.7,0.8
			S150.4,96.9,150.8,96.9z"/>
		<path id="XMLID_381_" d="M157.4,92.4c0.9,0,1.6,0.2,2.1,0.7s0.8,1.1,0.8,1.8c0,0.9-0.3,1.6-0.8,2.1s-1.3,0.8-2.3,0.8
			c-1,0-1.7-0.2-2.2-0.5v-0.9c0.3,0.2,0.6,0.3,1,0.4s0.8,0.1,1.2,0.1c0.7,0,1.2-0.2,1.6-0.5s0.6-0.8,0.6-1.4c0-1.2-0.7-1.8-2.2-1.8
			c-0.4,0-0.9,0.1-1.5,0.2l-0.5-0.3l0.3-4h4.3V90h-3.4l-0.2,2.6C156.5,92.5,156.9,92.4,157.4,92.4z"/>
		<path id="XMLID_383_" d="M169.1,97.7l-0.2-0.9h0c-0.3,0.4-0.6,0.7-1,0.8s-0.7,0.2-1.2,0.2c-0.6,0-1.1-0.2-1.5-0.5
			s-0.5-0.8-0.5-1.4c0-1.3,1-2,3.1-2l1.1,0v-0.4c0-0.5-0.1-0.9-0.3-1.1s-0.6-0.4-1-0.4c-0.5,0-1.1,0.2-1.8,0.5l-0.3-0.7
			c0.3-0.2,0.7-0.3,1-0.4s0.8-0.1,1.1-0.1c0.8,0,1.3,0.2,1.7,0.5s0.6,0.9,0.6,1.6v4.4H169.1z M166.9,97c0.6,0,1.1-0.2,1.4-0.5
			s0.5-0.8,0.5-1.4v-0.6l-1,0c-0.8,0-1.3,0.1-1.7,0.4s-0.5,0.5-0.5,1c0,0.4,0.1,0.6,0.3,0.8S166.5,97,166.9,97z"/>
		<path id="XMLID_386_" d="M176.2,97.7v-4.2c0-0.5-0.1-0.9-0.4-1.2s-0.6-0.4-1.1-0.4c-0.7,0-1.2,0.2-1.5,0.5s-0.5,1-0.5,1.8v3.4h-1
			v-6.4h0.8l0.2,0.9h0c0.2-0.3,0.5-0.6,0.8-0.7s0.8-0.3,1.2-0.3c0.8,0,1.4,0.2,1.7,0.6s0.6,1,0.6,1.8v4.2H176.2z"/>
		<path id="XMLID_388_" d="M178.1,91.2h1l1.4,3.7c0.3,0.8,0.5,1.4,0.6,1.8h0c0.1-0.2,0.2-0.5,0.3-1s0.7-2,1.6-4.5h1l-2.8,7.3
			c-0.3,0.7-0.6,1.2-1,1.5s-0.8,0.5-1.3,0.5c-0.3,0-0.6,0-0.9-0.1v-0.8c0.2,0,0.5,0.1,0.7,0.1c0.7,0,1.1-0.4,1.4-1.1l0.4-0.9
			L178.1,91.2z"/>
		<path id="XMLID_390_" d="M189.3,95.9c0,0.6-0.2,1.1-0.7,1.4s-1.1,0.5-1.9,0.5c-0.9,0-1.5-0.1-2-0.4v-0.9c0.3,0.2,0.6,0.3,1,0.4
			s0.7,0.1,1,0.1c0.5,0,0.9-0.1,1.2-0.2s0.4-0.4,0.4-0.7c0-0.3-0.1-0.5-0.3-0.6s-0.6-0.4-1.3-0.6c-0.6-0.2-1-0.4-1.3-0.6
			s-0.4-0.4-0.6-0.6s-0.2-0.5-0.2-0.8c0-0.5,0.2-0.9,0.6-1.2s1-0.5,1.8-0.5c0.7,0,1.4,0.1,2,0.4l-0.3,0.8c-0.6-0.3-1.2-0.4-1.8-0.4
			c-0.5,0-0.8,0.1-1,0.2s-0.4,0.3-0.4,0.6c0,0.2,0,0.3,0.1,0.4s0.2,0.2,0.4,0.3s0.6,0.3,1.1,0.5c0.8,0.3,1.3,0.6,1.5,0.8
			S189.3,95.5,189.3,95.9z"/>
		<path id="XMLID_392_" d="M193,94.4c0,1-0.2,2-0.5,2.9s-0.7,1.7-1.3,2.3h-0.9c0.5-0.7,1-1.5,1.2-2.4s0.4-1.8,0.4-2.8
			c0-1-0.1-1.9-0.4-2.8s-0.7-1.7-1.3-2.5h0.9c0.6,0.7,1,1.5,1.3,2.4S193,93.3,193,94.4z"/>
	</g>
	<g id="XMLID_62_">
		<path id="XMLID_259_" d="M61.7,28.7h-6.2v-3.3c5.6,0,10.4,0,16,0v3.3h-6.2v16.1h-3.7V28.7z"/>
		<path id="XMLID_261_" d="M91.3,30.1c-0.7-1.1-2.5-2.2-4.6-2.2c-2.7,0-4,1.1-4,2.6c0,1.7,2,2.2,4.3,2.4c4.1,0.5,7.8,1.6,7.8,6.2
			c0,4.3-3.8,6.2-8.2,6.2c-4,0-7-1.2-8.5-4.8l3.1-1.6c0.9,2.1,3.1,3.1,5.5,3.1c2.3,0,4.5-0.8,4.5-2.9c0-1.8-1.9-2.6-4.5-2.9
			c-4-0.5-7.6-1.5-7.6-5.9c0-4,3.9-5.6,7.5-5.7c3,0,6.2,0.9,7.6,3.9L91.3,30.1z"/>
		<path id="XMLID_263_" d="M116.7,35.2c-0.1,5-3.1,10-10,10s-10-4.9-10-10s3.3-10.2,10-10.2C113.5,25,116.8,30.1,116.7,35.2z
			 M100.4,35.3c0.1,3.2,1.8,6.6,6.4,6.6s6.3-3.4,6.4-6.6c0.1-3.3-1.8-6.9-6.4-6.9S100.3,32,100.4,35.3z"/>
		<path id="XMLID_266_" d="M136.6,42.4c-2,2-4.6,2.9-7.4,2.9c-7.2,0-10.3-5-10.3-10c0-5.1,3.3-10.2,10.3-10.2c2.6,0,5.1,1,7.1,3
			l-2.4,2.4c-1.3-1.2-3-1.8-4.7-1.8c-4.7,0-6.7,3.5-6.7,6.7c0,3.2,1.9,6.6,6.7,6.6c1.7,0,3.6-0.7,4.9-2L136.6,42.4z"/>
		<path id="XMLID_268_" d="M138.7,44.8V25.4h3.6v19.4H138.7z"/>
		<path id="XMLID_270_" d="M159.5,41.1h-10.2l-1.7,3.7h-4l8.7-19.4h4l8.7,19.4h-4L159.5,41.1z M154.4,29.5l-3.6,8.3h7.2L154.4,29.5z
			"/>
		<path id="XMLID_273_" d="M170.8,25.4v16h10v3.4h-13.7V25.4H170.8z"/>
	</g>
	<g id="XMLID_75_">
		<circle id="XMLID_73_" cx="48.1" cy="129.1" r="4.1"/>
		<rect id="XMLID_72_" x="31.6" y="133.7" width="8" height="3.3"/>
		<rect id="XMLID_71_" x="33.7" y="135.4" width="3.7" height="9"/>
		<rect id="XMLID_70_" x="57.2" y="133.7" width="3.7" height="10.6"/>
		<rect id="XMLID_69_" x="57.2" y="133.7" width="7" height="2.9"/>
		<rect id="XMLID_68_" x="57.2" y="137.9" width="6.6" height="2.7"/>
		<g id="XMLID_76_">
			<path id="XMLID_67_" d="M45.2,144.4h1.2h2.8h1.2l0.5-3.5c-1-0.4-2-0.6-3.1-0.6c-1.1,0-2.1,0.2-3,0.5L45.2,144.4z"/>
			<path id="XMLID_66_" d="M44.5,140.9c-1.7,0.7-3.1,1.9-4.1,3.4h3.9L44.5,140.9z"/>
			<path id="XMLID_65_" d="M51.2,141l0.2,3.4h3.8C54.3,142.9,52.9,141.7,51.2,141z"/>
			<path id="XMLID_64_" d="M47.5,138.6l-1.1-3.7c-1.4,0-2.1-1.1-2.1-1.1h-2l-1.8,8l0,0.1C42.1,139.9,44.6,138.7,47.5,138.6z"/>
			<path id="XMLID_63_" d="M55.3,142l0-0.2l-1.8-8h-2c0,0-0.7,1.1-2.1,1.1l-1.1,3.7C51,138.7,53.6,140,55.3,142z"/>
		</g>
	</g>
	<g id="XMLID_74_">
		<path id="XMLID_77_" d="M18.8,149.1h-0.5V147h-0.7v-0.5h1.9v0.5h-0.7V149.1z"/>
		<path id="XMLID_187_" d="M20.9,147.1c0.1,0,0.1,0,0.2,0l0,0.5c0,0-0.1,0-0.2,0c-0.2,0-0.3,0-0.4,0.1c-0.1,0.1-0.1,0.2-0.1,0.4v1
			h-0.5v-2h0.4l0.1,0.3h0c0.1-0.1,0.1-0.2,0.2-0.3C20.7,147.1,20.8,147.1,20.9,147.1z"/>
		<path id="XMLID_189_" d="M22.7,149.1l-0.1-0.3h0c-0.1,0.1-0.2,0.2-0.3,0.2c-0.1,0-0.2,0.1-0.4,0.1c-0.2,0-0.3-0.1-0.4-0.2
			s-0.2-0.3-0.2-0.5c0-0.2,0.1-0.4,0.2-0.5c0.1-0.1,0.4-0.2,0.7-0.2l0.3,0v-0.1c0-0.2-0.1-0.3-0.3-0.3c-0.2,0-0.3,0-0.6,0.1
			l-0.2-0.4c0.2-0.1,0.5-0.2,0.7-0.2c0.3,0,0.5,0.1,0.6,0.2s0.2,0.3,0.2,0.5v1.3H22.7z M22.6,148.2l-0.2,0c-0.2,0-0.3,0-0.3,0.1
			c-0.1,0.1-0.1,0.1-0.1,0.2c0,0.2,0.1,0.2,0.3,0.2c0.1,0,0.2,0,0.3-0.1s0.1-0.2,0.1-0.3V148.2z"/>
		<path id="XMLID_192_" d="M25.4,149.1h-0.5V148c0-0.1,0-0.2-0.1-0.3s-0.1-0.1-0.2-0.1c-0.1,0-0.3,0-0.3,0.1
			c-0.1,0.1-0.1,0.3-0.1,0.5v0.9h-0.5v-2H24l0.1,0.3h0c0.1-0.1,0.1-0.2,0.2-0.2c0.1,0,0.2-0.1,0.4-0.1c0.2,0,0.4,0.1,0.5,0.2
			c0.1,0.1,0.2,0.3,0.2,0.5V149.1z"/>
		<path id="XMLID_194_" d="M27.4,148.5c0,0.2-0.1,0.4-0.2,0.5c-0.1,0.1-0.3,0.2-0.6,0.2c-0.1,0-0.3,0-0.4,0c-0.1,0-0.2,0-0.3-0.1
			v-0.4c0.1,0,0.2,0.1,0.3,0.1c0.1,0,0.2,0,0.3,0c0.2,0,0.3-0.1,0.3-0.2c0,0,0-0.1,0-0.1c0,0-0.1-0.1-0.1-0.1s-0.1-0.1-0.3-0.1
			c-0.2-0.1-0.3-0.1-0.3-0.2s-0.1-0.1-0.2-0.2c0-0.1,0-0.2,0-0.3c0-0.2,0.1-0.3,0.2-0.4c0.1-0.1,0.3-0.1,0.6-0.1
			c0.2,0,0.5,0.1,0.7,0.2l-0.2,0.4c-0.1,0-0.2-0.1-0.3-0.1c-0.1,0-0.2,0-0.3,0c-0.2,0-0.2,0-0.2,0.1c0,0,0,0.1,0.1,0.1
			c0.1,0,0.2,0.1,0.3,0.2c0.2,0.1,0.3,0.1,0.3,0.2c0.1,0.1,0.1,0.1,0.2,0.2C27.3,148.3,27.4,148.4,27.4,148.5z"/>
		<path id="XMLID_196_" d="M28.8,149.1c-0.2,0-0.4-0.1-0.5-0.3h0c0,0.2,0,0.3,0,0.3v0.8h-0.5v-2.8h0.4l0.1,0.3h0
			c0.1-0.2,0.3-0.3,0.6-0.3c0.2,0,0.4,0.1,0.5,0.3c0.1,0.2,0.2,0.4,0.2,0.7c0,0.2,0,0.4-0.1,0.5c-0.1,0.2-0.1,0.3-0.3,0.4
			C29.1,149.1,29,149.1,28.8,149.1z M28.7,147.5c-0.1,0-0.2,0-0.3,0.1c-0.1,0.1-0.1,0.2-0.1,0.4v0.1c0,0.2,0,0.4,0.1,0.5
			s0.2,0.1,0.3,0.1c0.2,0,0.4-0.2,0.4-0.6c0-0.2,0-0.3-0.1-0.4C28.9,147.6,28.8,147.5,28.7,147.5z"/>
		<path id="XMLID_199_" d="M31.8,148.1c0,0.3-0.1,0.6-0.3,0.7s-0.4,0.3-0.7,0.3c-0.2,0-0.4,0-0.5-0.1c-0.1-0.1-0.3-0.2-0.3-0.4
			c-0.1-0.2-0.1-0.3-0.1-0.5c0-0.3,0.1-0.6,0.3-0.7c0.2-0.2,0.4-0.3,0.7-0.3c0.2,0,0.4,0,0.5,0.1c0.1,0.1,0.3,0.2,0.3,0.4
			C31.8,147.7,31.8,147.9,31.8,148.1z M30.5,148.1c0,0.2,0,0.3,0.1,0.4c0.1,0.1,0.2,0.1,0.3,0.1c0.1,0,0.2,0,0.3-0.1
			s0.1-0.2,0.1-0.4c0-0.2,0-0.3-0.1-0.4s-0.2-0.1-0.3-0.1c-0.1,0-0.2,0-0.3,0.1C30.5,147.8,30.5,147.9,30.5,148.1z"/>
		<path id="XMLID_202_" d="M33.4,147.1c0.1,0,0.1,0,0.2,0l0,0.5c0,0-0.1,0-0.2,0c-0.2,0-0.3,0-0.4,0.1c-0.1,0.1-0.1,0.2-0.1,0.4v1
			h-0.5v-2h0.4l0.1,0.3h0c0.1-0.1,0.1-0.2,0.2-0.3C33.1,147.1,33.2,147.1,33.4,147.1z"/>
		<path id="XMLID_204_" d="M34.7,148.7c0.1,0,0.2,0,0.3-0.1v0.4c-0.1,0.1-0.3,0.1-0.5,0.1c-0.2,0-0.4-0.1-0.5-0.2
			c-0.1-0.1-0.1-0.3-0.1-0.5v-0.9h-0.3v-0.2l0.3-0.2l0.2-0.4h0.3v0.4H35v0.4h-0.5v0.9c0,0.1,0,0.1,0.1,0.2
			C34.6,148.7,34.6,148.7,34.7,148.7z"/>
		<path id="XMLID_206_" d="M36.8,148.5c0,0.2-0.1,0.4-0.2,0.5c-0.1,0.1-0.3,0.2-0.6,0.2c-0.1,0-0.3,0-0.4,0c-0.1,0-0.2,0-0.3-0.1
			v-0.4c0.1,0,0.2,0.1,0.3,0.1c0.1,0,0.2,0,0.3,0c0.2,0,0.3-0.1,0.3-0.2c0,0,0-0.1,0-0.1c0,0-0.1-0.1-0.1-0.1s-0.1-0.1-0.3-0.1
			c-0.2-0.1-0.3-0.1-0.3-0.2s-0.1-0.1-0.2-0.2c0-0.1,0-0.2,0-0.3c0-0.2,0.1-0.3,0.2-0.4c0.1-0.1,0.3-0.1,0.6-0.1
			c0.2,0,0.5,0.1,0.7,0.2l-0.2,0.4c-0.1,0-0.2-0.1-0.3-0.1c-0.1,0-0.2,0-0.3,0c-0.2,0-0.2,0-0.2,0.1c0,0,0,0.1,0.1,0.1
			c0.1,0,0.2,0.1,0.3,0.2c0.2,0.1,0.3,0.1,0.3,0.2c0.1,0.1,0.1,0.1,0.2,0.2C36.8,148.3,36.8,148.4,36.8,148.5z"/>
		<path id="XMLID_208_" d="M39.3,149.1l-0.6-2h0c0,0.4,0,0.7,0,0.8v1.2h-0.5v-2.6h0.7l0.6,2h0l0.6-2h0.7v2.6h-0.5v-1.2
			c0-0.1,0-0.1,0-0.2c0-0.1,0-0.3,0-0.6h0l-0.7,2H39.3z"/>
		<path id="XMLID_210_" d="M42.9,149.1l-0.1-0.3h0c-0.1,0.1-0.1,0.2-0.2,0.2c-0.1,0-0.2,0.1-0.4,0.1c-0.2,0-0.4-0.1-0.5-0.2
			s-0.2-0.3-0.2-0.5v-1.3h0.5v1.1c0,0.1,0,0.2,0.1,0.3c0.1,0.1,0.1,0.1,0.2,0.1c0.1,0,0.3,0,0.3-0.1c0.1-0.1,0.1-0.3,0.1-0.5v-0.9
			h0.5v2H42.9z"/>
		<path id="XMLID_212_" d="M45.7,149.1h-0.5V148c0-0.1,0-0.2-0.1-0.3s-0.1-0.1-0.2-0.1c-0.1,0-0.3,0-0.3,0.1
			c-0.1,0.1-0.1,0.3-0.1,0.5v0.9h-0.5v-2h0.4l0.1,0.3h0c0.1-0.1,0.1-0.2,0.2-0.2c0.1,0,0.2-0.1,0.4-0.1c0.2,0,0.4,0.1,0.5,0.2
			c0.1,0.1,0.2,0.3,0.2,0.5V149.1z"/>
		<path id="XMLID_214_" d="M46.2,146.6c0-0.2,0.1-0.3,0.3-0.3s0.3,0.1,0.3,0.3c0,0.1,0,0.1-0.1,0.2c0,0-0.1,0.1-0.2,0.1
			C46.3,146.9,46.2,146.8,46.2,146.6z M46.8,149.1h-0.5v-2h0.5V149.1z"/>
		<path id="XMLID_217_" d="M48.1,149.1c-0.6,0-0.9-0.3-0.9-1c0-0.3,0.1-0.6,0.2-0.8s0.4-0.3,0.7-0.3c0.2,0,0.4,0,0.6,0.1l-0.2,0.4
			c-0.1,0-0.2-0.1-0.2-0.1s-0.1,0-0.2,0c-0.3,0-0.4,0.2-0.4,0.6c0,0.4,0.1,0.6,0.4,0.6c0.1,0,0.2,0,0.3,0c0.1,0,0.2-0.1,0.3-0.1v0.5
			c-0.1,0.1-0.2,0.1-0.3,0.1C48.4,149.1,48.3,149.1,48.1,149.1z"/>
		<path id="XMLID_219_" d="M49.2,146.6c0-0.2,0.1-0.3,0.3-0.3s0.3,0.1,0.3,0.3c0,0.1,0,0.1-0.1,0.2c0,0-0.1,0.1-0.2,0.1
			C49.3,146.9,49.2,146.8,49.2,146.6z M49.7,149.1h-0.5v-2h0.5V149.1z"/>
		<path id="XMLID_222_" d="M51.4,149.1c-0.2,0-0.4-0.1-0.5-0.3h0c0,0.2,0,0.3,0,0.3v0.8h-0.5v-2.8h0.4l0.1,0.3h0
			c0.1-0.2,0.3-0.3,0.6-0.3c0.2,0,0.4,0.1,0.5,0.3c0.1,0.2,0.2,0.4,0.2,0.7c0,0.2,0,0.4-0.1,0.5c-0.1,0.2-0.1,0.3-0.3,0.4
			C51.6,149.1,51.5,149.1,51.4,149.1z M51.2,147.5c-0.1,0-0.2,0-0.3,0.1c-0.1,0.1-0.1,0.2-0.1,0.4v0.1c0,0.2,0,0.4,0.1,0.5
			s0.2,0.1,0.3,0.1c0.2,0,0.4-0.2,0.4-0.6c0-0.2,0-0.3-0.1-0.4C51.4,147.6,51.3,147.5,51.2,147.5z"/>
		<path id="XMLID_225_" d="M53.8,149.1l-0.1-0.3h0c-0.1,0.1-0.2,0.2-0.3,0.2c-0.1,0-0.2,0.1-0.4,0.1c-0.2,0-0.3-0.1-0.4-0.2
			s-0.2-0.3-0.2-0.5c0-0.2,0.1-0.4,0.2-0.5c0.1-0.1,0.4-0.2,0.7-0.2l0.3,0v-0.1c0-0.2-0.1-0.3-0.3-0.3c-0.2,0-0.3,0-0.6,0.1
			l-0.2-0.4c0.2-0.1,0.5-0.2,0.7-0.2c0.3,0,0.5,0.1,0.6,0.2s0.2,0.3,0.2,0.5v1.3H53.8z M53.6,148.2l-0.2,0c-0.2,0-0.3,0-0.3,0.1
			c-0.1,0.1-0.1,0.1-0.1,0.2c0,0.2,0.1,0.2,0.3,0.2c0.1,0,0.2,0,0.3-0.1s0.1-0.2,0.1-0.3V148.2z"/>
		<path id="XMLID_228_" d="M55.3,149.1h-0.5v-2.7h0.5V149.1z"/>
		<path id="XMLID_230_" d="M57.2,148.5c0,0.2-0.1,0.4-0.2,0.5c-0.1,0.1-0.3,0.2-0.6,0.2c-0.1,0-0.3,0-0.4,0c-0.1,0-0.2,0-0.3-0.1
			v-0.4c0.1,0,0.2,0.1,0.3,0.1c0.1,0,0.2,0,0.3,0c0.2,0,0.3-0.1,0.3-0.2c0,0,0-0.1,0-0.1c0,0-0.1-0.1-0.1-0.1s-0.1-0.1-0.3-0.1
			c-0.2-0.1-0.3-0.1-0.3-0.2s-0.1-0.1-0.2-0.2c0-0.1,0-0.2,0-0.3c0-0.2,0.1-0.3,0.2-0.4c0.1-0.1,0.3-0.1,0.6-0.1
			c0.2,0,0.5,0.1,0.7,0.2l-0.2,0.4c-0.1,0-0.2-0.1-0.3-0.1c-0.1,0-0.2,0-0.3,0c-0.2,0-0.2,0-0.2,0.1c0,0,0,0.1,0.1,0.1
			c0.1,0,0.2,0.1,0.3,0.2c0.2,0.1,0.3,0.1,0.3,0.2c0.1,0.1,0.1,0.1,0.2,0.2C57.2,148.3,57.2,148.4,57.2,148.5z"/>
		<path id="XMLID_232_" d="M59.1,149.1c-0.2,0-0.4-0.1-0.5-0.3c-0.1-0.2-0.2-0.4-0.2-0.7c0-0.3,0.1-0.6,0.2-0.8
			c0.1-0.2,0.3-0.3,0.6-0.3c0.2,0,0.4,0.1,0.6,0.3h0c0-0.1,0-0.3,0-0.4v-0.6h0.5v2.7h-0.4l-0.1-0.3h0
			C59.6,149,59.4,149.1,59.1,149.1z M59.3,148.7c0.1,0,0.2,0,0.3-0.1c0.1-0.1,0.1-0.2,0.1-0.4v-0.1c0-0.2,0-0.4-0.1-0.5
			c-0.1-0.1-0.2-0.1-0.3-0.1c-0.1,0-0.2,0-0.3,0.2c-0.1,0.1-0.1,0.2-0.1,0.4c0,0.2,0,0.3,0.1,0.4C59.1,148.7,59.2,148.7,59.3,148.7z
			"/>
		<path id="XMLID_235_" d="M61.7,149.1c-0.3,0-0.6-0.1-0.7-0.3c-0.2-0.2-0.3-0.4-0.3-0.7c0-0.3,0.1-0.6,0.2-0.8
			c0.2-0.2,0.4-0.3,0.7-0.3c0.3,0,0.5,0.1,0.6,0.2c0.2,0.2,0.2,0.4,0.2,0.7v0.3h-1.3c0,0.2,0.1,0.3,0.1,0.4s0.2,0.1,0.4,0.1
			c0.1,0,0.2,0,0.3,0s0.2-0.1,0.3-0.1v0.4c-0.1,0-0.2,0.1-0.3,0.1C62,149.1,61.8,149.1,61.7,149.1z M61.6,147.5
			c-0.1,0-0.2,0-0.3,0.1c-0.1,0.1-0.1,0.2-0.1,0.3H62c0-0.1,0-0.2-0.1-0.3C61.8,147.5,61.7,147.5,61.6,147.5z"/>
		<path id="XMLID_238_" d="M64.4,149.1h-0.5v-2.6h1.5v0.4h-0.9v0.7h0.9v0.4h-0.9V149.1z"/>
		<path id="XMLID_240_" d="M65.8,146.6c0-0.2,0.1-0.3,0.3-0.3s0.3,0.1,0.3,0.3c0,0.1,0,0.1-0.1,0.2c0,0-0.1,0.1-0.2,0.1
			C65.9,146.9,65.8,146.8,65.8,146.6z M66.3,149.1h-0.5v-2h0.5V149.1z"/>
		<path id="XMLID_243_" d="M68.6,147.1v0.3l-0.3,0.1c0.1,0.1,0.1,0.2,0.1,0.3c0,0.2-0.1,0.4-0.2,0.5s-0.4,0.2-0.6,0.2l-0.1,0l-0.1,0
			c-0.1,0-0.1,0.1-0.1,0.1c0,0.1,0.1,0.1,0.3,0.1h0.3c0.2,0,0.4,0,0.5,0.1c0.1,0.1,0.2,0.2,0.2,0.4c0,0.2-0.1,0.4-0.3,0.5
			c-0.2,0.1-0.5,0.2-0.8,0.2c-0.3,0-0.5,0-0.6-0.1c-0.1-0.1-0.2-0.2-0.2-0.4c0-0.1,0-0.2,0.1-0.3c0.1-0.1,0.2-0.1,0.3-0.2
			c-0.1,0-0.1-0.1-0.1-0.1c0-0.1-0.1-0.1-0.1-0.2c0-0.1,0-0.1,0.1-0.2c0,0,0.1-0.1,0.2-0.1c-0.1,0-0.2-0.1-0.2-0.2
			c-0.1-0.1-0.1-0.2-0.1-0.3c0-0.2,0.1-0.4,0.2-0.5c0.1-0.1,0.3-0.2,0.6-0.2c0.1,0,0.1,0,0.2,0c0.1,0,0.1,0,0.1,0H68.6z M67.1,149.4
			c0,0.1,0,0.1,0.1,0.2s0.2,0.1,0.3,0.1c0.2,0,0.3,0,0.4-0.1c0.1-0.1,0.2-0.1,0.2-0.2c0-0.1,0-0.1-0.1-0.2c-0.1,0-0.2,0-0.3,0h-0.3
			c-0.1,0-0.2,0-0.2,0.1S67.1,149.3,67.1,149.4z M67.3,147.8c0,0.1,0,0.2,0.1,0.3s0.1,0.1,0.2,0.1c0.1,0,0.2,0,0.2-0.1
			s0.1-0.1,0.1-0.3c0-0.2-0.1-0.4-0.3-0.4C67.4,147.4,67.3,147.6,67.3,147.8z"/>
		<path id="XMLID_247_" d="M70.3,149.1l-0.1-0.3h0c-0.1,0.1-0.1,0.2-0.2,0.2c-0.1,0-0.2,0.1-0.4,0.1c-0.2,0-0.4-0.1-0.5-0.2
			s-0.2-0.3-0.2-0.5v-1.3h0.5v1.1c0,0.1,0,0.2,0.1,0.3c0.1,0.1,0.1,0.1,0.2,0.1c0.1,0,0.3,0,0.3-0.1c0.1-0.1,0.1-0.3,0.1-0.5v-0.9
			h0.5v2H70.3z"/>
		<path id="XMLID_249_" d="M72.2,149.1c-0.3,0-0.6-0.1-0.7-0.3c-0.2-0.2-0.3-0.4-0.3-0.7c0-0.3,0.1-0.6,0.2-0.8
			c0.2-0.2,0.4-0.3,0.7-0.3c0.3,0,0.5,0.1,0.6,0.2c0.2,0.2,0.2,0.4,0.2,0.7v0.3h-1.3c0,0.2,0.1,0.3,0.1,0.4s0.2,0.1,0.4,0.1
			c0.1,0,0.2,0,0.3,0s0.2-0.1,0.3-0.1v0.4c-0.1,0-0.2,0.1-0.3,0.1C72.5,149.1,72.3,149.1,72.2,149.1z M72.1,147.5
			c-0.1,0-0.2,0-0.3,0.1c-0.1,0.1-0.1,0.2-0.1,0.3h0.7c0-0.1,0-0.2-0.1-0.3C72.3,147.5,72.2,147.5,72.1,147.5z"/>
		<path id="XMLID_252_" d="M74.5,147.1c0.1,0,0.1,0,0.2,0l0,0.5c0,0-0.1,0-0.2,0c-0.2,0-0.3,0-0.4,0.1c-0.1,0.1-0.1,0.2-0.1,0.4v1
			h-0.5v-2h0.4l0.1,0.3h0c0.1-0.1,0.1-0.2,0.2-0.3C74.3,147.1,74.4,147.1,74.5,147.1z"/>
		<path id="XMLID_254_" d="M75.9,149.1c-0.3,0-0.6-0.1-0.7-0.3c-0.2-0.2-0.3-0.4-0.3-0.7c0-0.3,0.1-0.6,0.2-0.8
			c0.2-0.2,0.4-0.3,0.7-0.3c0.3,0,0.5,0.1,0.6,0.2c0.2,0.2,0.2,0.4,0.2,0.7v0.3h-1.3c0,0.2,0.1,0.3,0.1,0.4s0.2,0.1,0.4,0.1
			c0.1,0,0.2,0,0.3,0s0.2-0.1,0.3-0.1v0.4c-0.1,0-0.2,0.1-0.3,0.1C76.2,149.1,76.1,149.1,75.9,149.1z M75.8,147.5
			c-0.1,0-0.2,0-0.3,0.1c-0.1,0.1-0.1,0.2-0.1,0.3h0.7c0-0.1,0-0.2-0.1-0.3C76,147.5,76,147.5,75.8,147.5z"/>
		<path id="XMLID_257_" d="M78.5,148.5c0,0.2-0.1,0.4-0.2,0.5c-0.1,0.1-0.3,0.2-0.6,0.2c-0.1,0-0.3,0-0.4,0c-0.1,0-0.2,0-0.3-0.1
			v-0.4c0.1,0,0.2,0.1,0.3,0.1c0.1,0,0.2,0,0.3,0c0.2,0,0.3-0.1,0.3-0.2c0,0,0-0.1,0-0.1c0,0-0.1-0.1-0.1-0.1s-0.1-0.1-0.3-0.1
			c-0.2-0.1-0.3-0.1-0.3-0.2s-0.1-0.1-0.2-0.2c0-0.1,0-0.2,0-0.3c0-0.2,0.1-0.3,0.2-0.4c0.1-0.1,0.3-0.1,0.6-0.1
			c0.2,0,0.5,0.1,0.7,0.2l-0.2,0.4c-0.1,0-0.2-0.1-0.3-0.1c-0.1,0-0.2,0-0.3,0c-0.2,0-0.2,0-0.2,0.1c0,0,0,0.1,0.1,0.1
			c0.1,0,0.2,0.1,0.3,0.2c0.2,0.1,0.3,0.1,0.3,0.2c0.1,0.1,0.1,0.1,0.2,0.2C78.5,148.3,78.5,148.4,78.5,148.5z"/>
	</g>
	<g id="XMLID_78_">
		<rect id="XMLID_185_" x="101" y="3" class="st5" width="172" height="12.5"/>
		<path id="XMLID_137_" class="st6" d="M145.5,8.3h-1.3V4.4H143V3.3h3.8v1.1h-1.2V8.3z"/>
		<path id="XMLID_139_" class="st6" d="M150.5,8.3l-0.2-0.9h-1.6l-0.3,0.9h-1.5l1.6-5h1.8l1.7,5H150.5z M150,6.3l-0.2-0.8
			c0-0.2-0.1-0.4-0.2-0.7c-0.1-0.3-0.1-0.5-0.1-0.6c0,0.1-0.1,0.3-0.1,0.6s-0.2,0.8-0.4,1.6H150z"/>
		<path id="XMLID_142_" class="st6" d="M153.9,6.5v1.8h-1.4v-5h1.6c1.4,0,2,0.5,2,1.5c0,0.6-0.3,1-0.8,1.3l1.5,2.2h-1.5l-1.1-1.8
			H153.9z M153.9,5.5h0.3c0.5,0,0.7-0.2,0.7-0.6c0-0.3-0.2-0.5-0.7-0.5h-0.3V5.5z"/>
		<path id="XMLID_145_" class="st6" d="M159.3,5.4h2.2v2.7c-0.6,0.2-1.2,0.3-1.9,0.3c-0.8,0-1.4-0.2-1.8-0.7
			c-0.4-0.4-0.6-1.1-0.6-1.9c0-0.8,0.2-1.4,0.7-1.9s1.1-0.7,1.9-0.7c0.3,0,0.6,0,0.9,0.1s0.5,0.1,0.7,0.2l-0.4,1.1
			c-0.4-0.2-0.8-0.3-1.2-0.3c-0.4,0-0.7,0.1-0.9,0.4c-0.2,0.3-0.3,0.6-0.3,1.1c0,0.5,0.1,0.8,0.3,1.1c0.2,0.2,0.5,0.4,0.8,0.4
			c0.2,0,0.4,0,0.6-0.1V6.4h-0.9V5.4z"/>
		<path id="XMLID_147_" class="st6" d="M165.4,8.3h-3v-5h3v1.1h-1.6v0.8h1.5v1.1h-1.5v0.9h1.6V8.3z"/>
		<path id="XMLID_149_" class="st6" d="M168.5,8.3h-1.3V4.4h-1.2V3.3h3.8v1.1h-1.2V8.3z"/>
		<path id="XMLID_151_" class="st6" d="M173.5,8.3l-0.2-0.9h-1.6l-0.3,0.9h-1.5l1.6-5h1.8l1.7,5H173.5z M173,6.3l-0.2-0.8
			c0-0.2-0.1-0.4-0.2-0.7c-0.1-0.3-0.1-0.5-0.1-0.6c0,0.1-0.1,0.3-0.1,0.6s-0.2,0.8-0.4,1.6H173z"/>
		<path id="XMLID_154_" class="st6" d="M178.7,6.5v1.8h-1.4v-5h1.6c1.4,0,2,0.5,2,1.5c0,0.6-0.3,1-0.8,1.3l1.5,2.2h-1.5L179,6.5
			H178.7z M178.7,5.5h0.3c0.5,0,0.7-0.2,0.7-0.6c0-0.3-0.2-0.5-0.7-0.5h-0.3V5.5z"/>
		<path id="XMLID_157_" class="st6" d="M185,8.3h-3v-5h3v1.1h-1.6v0.8h1.5v1.1h-1.5v0.9h1.6V8.3z"/>
		<path id="XMLID_159_" class="st6" d="M188.1,4.4c-0.3,0-0.6,0.1-0.8,0.4c-0.2,0.3-0.3,0.6-0.3,1.1c0,1,0.4,1.4,1.1,1.4
			c0.2,0,0.4,0,0.6-0.1c0.2-0.1,0.4-0.1,0.6-0.2v1.1c-0.4,0.2-0.9,0.3-1.4,0.3c-0.8,0-1.3-0.2-1.7-0.7s-0.6-1.1-0.6-1.9
			c0-0.5,0.1-1,0.3-1.4c0.2-0.4,0.5-0.7,0.8-0.9c0.4-0.2,0.8-0.3,1.3-0.3c0.5,0,1.1,0.1,1.5,0.4l-0.4,1.1c-0.2-0.1-0.4-0.2-0.6-0.2
			C188.6,4.4,188.4,4.4,188.1,4.4z"/>
		<path id="XMLID_161_" class="st6" d="M193.5,8.3l-0.2-0.9h-1.6l-0.3,0.9h-1.5l1.6-5h1.8l1.7,5H193.5z M193,6.3l-0.2-0.8
			c0-0.2-0.1-0.4-0.2-0.7c-0.1-0.3-0.1-0.5-0.1-0.6c0,0.1-0.1,0.3-0.1,0.6s-0.2,0.8-0.4,1.6H193z"/>
		<path id="XMLID_164_" class="st6" d="M196.9,6.5v1.8h-1.4v-5h1.6c1.4,0,2,0.5,2,1.5c0,0.6-0.3,1-0.8,1.3l1.5,2.2h-1.5l-1.1-1.8
			H196.9z M196.9,5.5h0.3c0.5,0,0.7-0.2,0.7-0.6c0-0.3-0.2-0.5-0.7-0.5h-0.3V5.5z"/>
		<path id="XMLID_167_" class="st6" d="M201.6,6.5v1.8h-1.4v-5h1.6c1.4,0,2,0.5,2,1.5c0,0.6-0.3,1-0.8,1.3l1.5,2.2H203L202,6.5
			H201.6z M201.6,5.5h0.3c0.5,0,0.7-0.2,0.7-0.6c0-0.3-0.2-0.5-0.7-0.5h-0.3V5.5z"/>
		<path id="XMLID_170_" class="st6" d="M208,8.3h-3v-5h3v1.1h-1.6v0.8h1.5v1.1h-1.5v0.9h1.6V8.3z"/>
		<path id="XMLID_172_" class="st6" d="M210.9,5.4h2.2v2.7c-0.6,0.2-1.2,0.3-1.9,0.3c-0.8,0-1.4-0.2-1.8-0.7
			c-0.4-0.4-0.6-1.1-0.6-1.9c0-0.8,0.2-1.4,0.7-1.9s1.1-0.7,1.9-0.7c0.3,0,0.6,0,0.9,0.1s0.5,0.1,0.7,0.2l-0.4,1.1
			c-0.4-0.2-0.8-0.3-1.2-0.3c-0.4,0-0.7,0.1-0.9,0.4c-0.2,0.3-0.3,0.6-0.3,1.1c0,0.5,0.1,0.8,0.3,1.1c0.2,0.2,0.5,0.4,0.8,0.4
			c0.2,0,0.4,0,0.6-0.1V6.4h-0.9V5.4z"/>
		<path id="XMLID_174_" class="st6" d="M217.1,8.3l-0.2-0.9h-1.6L215,8.3h-1.5l1.6-5h1.8l1.7,5H217.1z M216.6,6.3l-0.2-0.8
			c0-0.2-0.1-0.4-0.2-0.7c-0.1-0.3-0.1-0.5-0.1-0.6c0,0.1-0.1,0.3-0.1,0.6s-0.2,0.8-0.4,1.6H216.6z"/>
		<path id="XMLID_177_" class="st6" d="M219.1,3.3h1.7c0.7,0,1.2,0.1,1.5,0.3c0.3,0.2,0.5,0.5,0.5,0.9c0,0.3-0.1,0.5-0.2,0.7
			s-0.3,0.3-0.6,0.4v0c0.3,0.1,0.5,0.2,0.7,0.4c0.1,0.2,0.2,0.4,0.2,0.7c0,0.5-0.2,0.8-0.5,1.1c-0.3,0.3-0.8,0.4-1.4,0.4h-1.9V3.3z
			 M220.5,5.2h0.4c0.2,0,0.3,0,0.4-0.1c0.1-0.1,0.2-0.2,0.2-0.4c0-0.3-0.2-0.4-0.6-0.4h-0.4V5.2z M220.5,6.2v1h0.5
			c0.4,0,0.6-0.2,0.6-0.5c0-0.2-0.1-0.3-0.2-0.4c-0.1-0.1-0.3-0.1-0.5-0.1H220.5z"/>
		<path id="XMLID_181_" class="st6" d="M223.8,8.3v-5h1.4v3.9h1.9v1.1H223.8z"/>
		<path id="XMLID_183_" class="st6" d="M230.9,8.3h-3v-5h3v1.1h-1.6v0.8h1.5v1.1h-1.5v0.9h1.6V8.3z"/>
	</g>
	<g id="XMLID_3_">
		<polygon id="XMLID_82_" points="170.2,139 173.3,135.1 173.3,142.8 		"/>
		<polygon id="XMLID_81_" points="190.6,139 187.5,135.1 187.5,142.8 		"/>
		<path id="XMLID_14_" d="M175.9,132.4l3.2-2.7v4.5c0,0-1.6,1.1-3.2,3.1V132.4z"/>
		<path id="XMLID_13_" d="M184.9,132.4l-3.2-2.7v4.5c0,0,1.6,1.1,3.2,3.1V132.4z"/>
		<path id="XMLID_12_" d="M184.9,145.4l-3.2,2.7v-4.5c0,0,1.6-1.1,3.2-3.1V145.4z"/>
		<path id="XMLID_11_" d="M175.9,145.4l3.2,2.7v-4.5c0,0-1.6-1.1-3.2-3.1V145.4z"/>
		<path id="XMLID_10_" d="M182.6,139.8c0,0-0.3,0.1,0-0.3c0.2-0.4,0.8-0.4,0.8-2.2c0,0-1.4,0.3-1.7,1c0,0-0.3,0.1-0.1-0.2
			s0.8-0.7,0.2-1.9c0,0-0.3,0.3-0.3,0.1c0-0.2-0.5-1.7-1-1.6c-0.4-0.1-0.9,1.4-1,1.6c0,0.2-0.3-0.1-0.3-0.1c-0.7,1.2,0,1.6,0.2,1.9
			s-0.1,0.2-0.1,0.2c-0.3-0.7-1.7-1-1.7-1c0,1.8,0.6,1.8,0.8,2.2c0.2,0.4,0,0.3,0,0.3c-0.7-0.7-1-0.3-1-0.3c0.6,2.2,1.4,1.9,1.4,1.9
			c-0.2,0.3-0.2,0.3-0.3,0.3c1.1,0.3,1.8-0.5,1.8-0.5l-0.1,2.1c0,0,0.1,0.2,0.2,0c0.1-0.2,0.2-0.1,0.2-0.1l0-2c0,0,0.8,0.8,1.8,0.5
			c0,0,0,0-0.3-0.3c0,0,0.8,0.3,1.4-1.9C183.6,139.5,183.3,139.1,182.6,139.8z"/>
		<g id="XMLID_9_">
			<path id="XMLID_91_" class="st7" d="M191.4,138.9c-3.6,4.7-6.2,7.3-10.9,10.9c-4.7-3.6-7.3-6.2-10.9-10.9
				c3.6-4.7,6.2-7.3,10.9-10.9C185.2,131.7,187.7,134.2,191.4,138.9z"/>
		</g>
	</g>
	<g id="XMLID_1_">
		<path id="XMLID_79_" d="M133.4,148.7l-0.5-1.4H131l-0.5,1.4h-0.9l1.9-5h0.9l1.9,5H133.4z M132.7,146.6l-0.5-1.4
			c0-0.1-0.1-0.2-0.1-0.4c-0.1-0.2-0.1-0.3-0.1-0.4c-0.1,0.3-0.2,0.6-0.3,0.9l-0.5,1.3H132.7z"/>
		<path id="XMLID_84_" d="M134.5,150.4c-0.2,0-0.4,0-0.6-0.1v-0.6c0.2,0,0.3,0.1,0.5,0.1c0.3,0,0.5-0.2,0.5-0.6v-4.2h0.8v4.3
			c0,0.4-0.1,0.7-0.3,0.9S134.8,150.4,134.5,150.4z M134.8,143.9c0-0.1,0-0.3,0.1-0.3c0.1-0.1,0.2-0.1,0.3-0.1c0.1,0,0.3,0,0.3,0.1
			c0.1,0.1,0.1,0.2,0.1,0.3c0,0.1,0,0.2-0.1,0.3c-0.1,0.1-0.2,0.1-0.3,0.1c-0.1,0-0.3,0-0.3-0.1C134.8,144.2,134.8,144,134.8,143.9z
			"/>
		<path id="XMLID_92_" d="M139.5,148.7l-0.1-0.5h0c-0.1,0.2-0.3,0.3-0.5,0.4c-0.2,0.1-0.4,0.2-0.7,0.2c-0.5,0-0.8-0.1-1-0.3
			s-0.3-0.6-0.3-1v-2.5h0.8v2.3c0,0.3,0.1,0.5,0.2,0.7c0.1,0.1,0.3,0.2,0.6,0.2c0.3,0,0.6-0.1,0.7-0.3c0.2-0.2,0.2-0.5,0.2-1v-1.9
			h0.8v3.8H139.5z"/>
		<path id="XMLID_94_" d="M144.6,148.7h-0.8v-2.3c0-0.3-0.1-0.5-0.2-0.7c-0.1-0.1-0.3-0.2-0.6-0.2c-0.3,0-0.6,0.1-0.7,0.3
			s-0.2,0.5-0.2,1v1.9h-0.8v-3.8h0.6l0.1,0.5h0c0.1-0.2,0.3-0.3,0.5-0.4c0.2-0.1,0.4-0.1,0.7-0.1c0.9,0,1.4,0.5,1.4,1.4V148.7z"/>
		<path id="XMLID_96_" d="M147.1,148.1c0.2,0,0.4,0,0.6-0.1v0.6c-0.1,0-0.2,0.1-0.3,0.1c-0.1,0-0.3,0-0.4,0c-0.8,0-1.1-0.4-1.1-1.2
			v-2h-0.5v-0.4l0.6-0.3l0.3-0.8h0.5v0.8h1.1v0.6h-1.1v2c0,0.2,0,0.3,0.1,0.4C146.8,148.1,146.9,148.1,147.1,148.1z"/>
		<path id="XMLID_98_" d="M150.8,148.7l-0.2-0.5h0c-0.2,0.2-0.4,0.4-0.5,0.5s-0.4,0.1-0.7,0.1c-0.4,0-0.7-0.1-0.9-0.3
			c-0.2-0.2-0.3-0.5-0.3-0.9c0-0.4,0.1-0.7,0.4-0.9c0.3-0.2,0.7-0.3,1.3-0.3l0.7,0v-0.2c0-0.2-0.1-0.4-0.2-0.5
			c-0.1-0.1-0.3-0.2-0.5-0.2c-0.2,0-0.4,0-0.6,0.1c-0.2,0.1-0.3,0.1-0.5,0.2l-0.3-0.6c0.2-0.1,0.4-0.2,0.7-0.2
			c0.2-0.1,0.5-0.1,0.7-0.1c0.5,0,0.8,0.1,1.1,0.3c0.2,0.2,0.4,0.5,0.4,1v2.5H150.8z M149.6,148.1c0.3,0,0.5-0.1,0.7-0.2
			s0.3-0.4,0.3-0.7v-0.3l-0.5,0c-0.4,0-0.7,0.1-0.8,0.2c-0.2,0.1-0.3,0.3-0.3,0.5c0,0.2,0,0.3,0.2,0.4
			C149.3,148.1,149.4,148.1,149.6,148.1z"/>
		<path id="XMLID_101_" d="M155.7,148.7h-0.8v-2.3c0-0.3-0.1-0.5-0.2-0.6s-0.3-0.2-0.5-0.2c-0.3,0-0.5,0.1-0.7,0.3
			c-0.1,0.2-0.2,0.5-0.2,1v1.9h-0.8v-3.8h0.6l0.1,0.5h0c0.1-0.2,0.3-0.3,0.5-0.4c0.2-0.1,0.4-0.1,0.7-0.1c0.6,0,1,0.2,1.2,0.6h0.1
			c0.1-0.2,0.3-0.3,0.5-0.4c0.2-0.1,0.4-0.2,0.7-0.2c0.5,0,0.8,0.1,1,0.3s0.3,0.6,0.3,1v2.5h-0.8v-2.3c0-0.3-0.1-0.5-0.2-0.6
			c-0.1-0.1-0.3-0.2-0.5-0.2c-0.3,0-0.5,0.1-0.7,0.3c-0.1,0.2-0.2,0.5-0.2,0.9V148.7z"/>
		<path id="XMLID_103_" d="M160.8,148.8c-0.6,0-1-0.2-1.4-0.5c-0.3-0.3-0.5-0.8-0.5-1.4c0-0.6,0.2-1.1,0.5-1.5
			c0.3-0.4,0.7-0.5,1.3-0.5c0.5,0,0.9,0.2,1.2,0.5c0.3,0.3,0.4,0.7,0.4,1.3v0.4h-2.5c0,0.4,0.1,0.6,0.3,0.8c0.2,0.2,0.5,0.3,0.8,0.3
			c0.2,0,0.4,0,0.6-0.1c0.2,0,0.4-0.1,0.6-0.2v0.7c-0.2,0.1-0.4,0.2-0.6,0.2C161.3,148.7,161.1,148.8,160.8,148.8z M160.7,145.5
			c-0.3,0-0.5,0.1-0.6,0.2c-0.2,0.2-0.2,0.4-0.3,0.7h1.7c0-0.3-0.1-0.5-0.2-0.7C161.1,145.5,160.9,145.5,160.7,145.5z"/>
		<path id="XMLID_106_" d="M166.5,148.7h-0.8v-2.3c0-0.3-0.1-0.5-0.2-0.7c-0.1-0.1-0.3-0.2-0.6-0.2c-0.3,0-0.6,0.1-0.7,0.3
			s-0.2,0.5-0.2,1v1.9h-0.8v-3.8h0.6l0.1,0.5h0c0.1-0.2,0.3-0.3,0.5-0.4c0.2-0.1,0.4-0.1,0.7-0.1c0.9,0,1.4,0.5,1.4,1.4V148.7z"/>
		<path id="XMLID_108_" d="M169.1,148.1c0.2,0,0.4,0,0.6-0.1v0.6c-0.1,0-0.2,0.1-0.3,0.1c-0.1,0-0.3,0-0.4,0c-0.8,0-1.1-0.4-1.1-1.2
			v-2h-0.5v-0.4l0.6-0.3l0.3-0.8h0.5v0.8h1.1v0.6h-1.1v2c0,0.2,0,0.3,0.1,0.4C168.8,148.1,168.9,148.1,169.1,148.1z"/>
		<path id="XMLID_110_" d="M191.7,148.8c-0.5,0-0.8-0.2-1.1-0.5c-0.3-0.3-0.4-0.8-0.4-1.4c0-0.6,0.1-1.1,0.4-1.4
			c0.3-0.3,0.6-0.5,1.1-0.5c0.5,0,0.9,0.2,1.1,0.5h0c0-0.3-0.1-0.5-0.1-0.6v-1.4h0.8v5.3H193l-0.1-0.5h0
			C192.6,148.6,192.2,148.8,191.7,148.8z M191.9,148.1c0.3,0,0.6-0.1,0.7-0.3s0.2-0.5,0.2-0.9v-0.1c0-0.5-0.1-0.8-0.2-1
			c-0.2-0.2-0.4-0.3-0.7-0.3c-0.3,0-0.5,0.1-0.7,0.3c-0.2,0.2-0.2,0.6-0.2,1c0,0.4,0.1,0.7,0.2,1C191.4,148,191.6,148.1,191.9,148.1
			z"/>
		<path id="XMLID_113_" d="M196.4,148.8c-0.6,0-1-0.2-1.4-0.5c-0.3-0.3-0.5-0.8-0.5-1.4c0-0.6,0.2-1.1,0.5-1.5
			c0.3-0.4,0.7-0.5,1.3-0.5c0.5,0,0.9,0.2,1.2,0.5c0.3,0.3,0.4,0.7,0.4,1.3v0.4h-2.5c0,0.4,0.1,0.6,0.3,0.8c0.2,0.2,0.5,0.3,0.8,0.3
			c0.2,0,0.4,0,0.6-0.1s0.4-0.1,0.6-0.2v0.7c-0.2,0.1-0.4,0.2-0.6,0.2C196.9,148.7,196.7,148.8,196.4,148.8z M196.3,145.5
			c-0.3,0-0.5,0.1-0.6,0.2c-0.2,0.2-0.2,0.4-0.3,0.7h1.7c0-0.3-0.1-0.5-0.2-0.7C196.7,145.5,196.5,145.5,196.3,145.5z"/>
		<path id="XMLID_116_" d="M201.5,148.7h-0.8v-5h2.8v0.7h-2v1.6h1.9v0.7h-1.9V148.7z"/>
		<path id="XMLID_118_" d="M204.3,143.9c0-0.1,0-0.3,0.1-0.3c0.1-0.1,0.2-0.1,0.3-0.1c0.1,0,0.3,0,0.3,0.1c0.1,0.1,0.1,0.2,0.1,0.3
			c0,0.1,0,0.2-0.1,0.3c-0.1,0.1-0.2,0.1-0.3,0.1c-0.1,0-0.3,0-0.3-0.1C204.3,144.2,204.3,144,204.3,143.9z M205.2,148.7h-0.8v-3.8
			h0.8V148.7z"/>
		<path id="XMLID_121_" d="M209.5,144.9v0.4l-0.6,0.1c0.1,0.1,0.1,0.2,0.1,0.3c0,0.1,0.1,0.2,0.1,0.4c0,0.4-0.1,0.7-0.4,0.9
			c-0.3,0.2-0.6,0.3-1.1,0.3c-0.1,0-0.2,0-0.3,0c-0.2,0.1-0.3,0.2-0.3,0.4c0,0.1,0,0.2,0.1,0.2s0.2,0.1,0.4,0.1h0.7
			c0.4,0,0.7,0.1,1,0.3c0.2,0.2,0.3,0.4,0.3,0.8c0,0.4-0.2,0.8-0.5,1c-0.4,0.2-0.9,0.3-1.5,0.3c-0.5,0-0.9-0.1-1.2-0.3
			c-0.3-0.2-0.4-0.4-0.4-0.8c0-0.2,0.1-0.4,0.2-0.6c0.1-0.2,0.4-0.3,0.6-0.3c-0.1,0-0.2-0.1-0.3-0.2c-0.1-0.1-0.1-0.2-0.1-0.3
			c0-0.1,0-0.3,0.1-0.4c0.1-0.1,0.2-0.2,0.4-0.3c-0.2-0.1-0.4-0.2-0.5-0.4s-0.2-0.4-0.2-0.7c0-0.4,0.1-0.7,0.4-1
			c0.3-0.2,0.6-0.3,1.1-0.3c0.1,0,0.2,0,0.3,0s0.2,0,0.3,0H209.5z M206.5,149.3c0,0.2,0.1,0.3,0.2,0.4c0.2,0.1,0.4,0.1,0.7,0.1
			c0.4,0,0.8-0.1,1-0.2c0.2-0.1,0.3-0.3,0.3-0.5c0-0.2-0.1-0.3-0.2-0.4c-0.1-0.1-0.3-0.1-0.7-0.1h-0.6c-0.2,0-0.4,0.1-0.5,0.2
			C206.6,149,206.5,149.1,206.5,149.3z M206.9,146.1c0,0.2,0.1,0.4,0.2,0.5s0.3,0.2,0.5,0.2c0.5,0,0.7-0.2,0.7-0.7
			c0-0.2-0.1-0.4-0.2-0.6c-0.1-0.1-0.3-0.2-0.5-0.2c-0.2,0-0.4,0.1-0.5,0.2C206.9,145.7,206.9,145.9,206.9,146.1z"/>
		<path id="XMLID_125_" d="M212.9,148.7l-0.1-0.5h0c-0.1,0.2-0.3,0.3-0.5,0.4c-0.2,0.1-0.4,0.2-0.7,0.2c-0.5,0-0.8-0.1-1-0.3
			s-0.3-0.6-0.3-1v-2.5h0.8v2.3c0,0.3,0.1,0.5,0.2,0.7c0.1,0.1,0.3,0.2,0.6,0.2c0.3,0,0.6-0.1,0.7-0.3c0.2-0.2,0.2-0.5,0.2-1v-1.9
			h0.8v3.8H212.9z"/>
		<path id="XMLID_127_" d="M216.3,148.8c-0.6,0-1-0.2-1.4-0.5c-0.3-0.3-0.5-0.8-0.5-1.4c0-0.6,0.2-1.1,0.5-1.5
			c0.3-0.4,0.7-0.5,1.3-0.5c0.5,0,0.9,0.2,1.2,0.5c0.3,0.3,0.4,0.7,0.4,1.3v0.4h-2.5c0,0.4,0.1,0.6,0.3,0.8c0.2,0.2,0.5,0.3,0.8,0.3
			c0.2,0,0.4,0,0.6-0.1s0.4-0.1,0.6-0.2v0.7c-0.2,0.1-0.4,0.2-0.6,0.2C216.8,148.7,216.6,148.8,216.3,148.8z M216.1,145.5
			c-0.3,0-0.5,0.1-0.6,0.2c-0.2,0.2-0.2,0.4-0.3,0.7h1.7c0-0.3-0.1-0.5-0.2-0.7C216.6,145.5,216.4,145.5,216.1,145.5z"/>
		<path id="XMLID_130_" d="M220.6,144.8c0.2,0,0.3,0,0.4,0l-0.1,0.7c-0.1,0-0.2,0-0.4,0c-0.3,0-0.6,0.1-0.8,0.3
			c-0.2,0.2-0.3,0.5-0.3,0.8v2h-0.8v-3.8h0.6l0.1,0.7h0c0.1-0.2,0.3-0.4,0.5-0.5C220.1,144.9,220.4,144.8,220.6,144.8z"/>
		<path id="XMLID_132_" d="M223.3,148.8c-0.6,0-1-0.2-1.4-0.5c-0.3-0.3-0.5-0.8-0.5-1.4c0-0.6,0.2-1.1,0.5-1.5
			c0.3-0.4,0.7-0.5,1.3-0.5c0.5,0,0.9,0.2,1.2,0.5c0.3,0.3,0.4,0.7,0.4,1.3v0.4h-2.5c0,0.4,0.1,0.6,0.3,0.8c0.2,0.2,0.5,0.3,0.8,0.3
			c0.2,0,0.4,0,0.6-0.1c0.2,0,0.4-0.1,0.6-0.2v0.7c-0.2,0.1-0.4,0.2-0.6,0.2C223.8,148.7,223.6,148.8,223.3,148.8z M223.2,145.5
			c-0.3,0-0.5,0.1-0.6,0.2c-0.2,0.2-0.2,0.4-0.3,0.7h1.7c0-0.3-0.1-0.5-0.2-0.7C223.7,145.5,223.5,145.5,223.2,145.5z"/>
		<path id="XMLID_135_" d="M228.3,147.6c0,0.4-0.1,0.7-0.4,0.8c-0.3,0.2-0.7,0.3-1.2,0.3c-0.5,0-0.9-0.1-1.2-0.2v-0.7
			c0.4,0.2,0.9,0.3,1.2,0.3c0.5,0,0.7-0.1,0.7-0.4c0-0.1,0-0.2-0.1-0.2c-0.1-0.1-0.1-0.1-0.3-0.2c-0.1-0.1-0.3-0.1-0.5-0.2
			c-0.4-0.2-0.7-0.3-0.9-0.5c-0.2-0.2-0.2-0.4-0.2-0.7c0-0.3,0.1-0.6,0.4-0.8c0.3-0.2,0.6-0.3,1.1-0.3c0.4,0,0.9,0.1,1.3,0.3
			l-0.3,0.6c-0.4-0.2-0.8-0.3-1-0.3c-0.4,0-0.6,0.1-0.6,0.4c0,0.1,0.1,0.2,0.2,0.3c0.1,0.1,0.4,0.2,0.7,0.3c0.3,0.1,0.5,0.2,0.7,0.3
			c0.1,0.1,0.2,0.2,0.3,0.3S228.3,147.4,228.3,147.6z"/>
	</g>
</g>
<g id="Capa_8">
	<path id="XMLID_8_" class="st6" d="M80.7,116.7c0,0-0.1,0.1-0.1,0.1c0.8-0.2,1.6-0.6,2.2-1.2c1.9-1.9,1.9-5,0-6.9
		c-0.6-0.6-1.3-1-2-1.2C83.3,110,83.3,114.1,80.7,116.7z"/>
	<path id="XMLID_5_" class="st6" d="M87.2,117.9c0,0-0.1,0.1-0.1,0.1c1-0.3,2-0.8,2.8-1.6c2.4-2.4,2.4-6.3,0-8.7
		c-0.7-0.7-1.6-1.2-2.6-1.5C90.4,109.5,90.4,114.7,87.2,117.9z"/>
	<path id="XMLID_6_" class="st6" d="M93.8,118.7c0,0-0.1,0.1-0.2,0.1c1.2-0.3,2.3-0.9,3.2-1.8c2.7-2.7,2.7-7.2,0-9.9
		c-0.8-0.8-1.9-1.4-2.9-1.7C97.5,109.1,97.5,115,93.8,118.7z"/>
	<path id="XMLID_7_" class="st6" d="M100.3,119.7c-0.1,0.1-0.1,0.1-0.2,0.2c1.3-0.4,2.6-1,3.6-2.1c3.2-3.2,3.2-8.3,0-11.5
		c-1-1-2.2-1.6-3.4-2C104.6,108.6,104.6,115.5,100.3,119.7z"/>
</g>
<g id="Capa_9">
	<path id="XMLID_87_" class="st6" d="M74.2,107.6c-2.5,0-4.5,2-4.5,4.5c0,2.5,2,4.5,4.5,4.5c2.5,0,4.5-2,4.5-4.5
		C78.7,109.6,76.7,107.6,74.2,107.6z M73.4,114.8l0.7-2.8l-0.7-2.8l2.8,2.8L73.4,114.8z"/>
</g>
<g id="Capa_1" class="st8">
	
		<image style="display:inline;overflow:visible;opacity:0.43;" width="242" height="155" id="XMLID_2_" xlink:href="BILLETE_T10_T10.JPG" >
	</image>
</g>
</svg>
