<?xml version="1.0" encoding="utf-8"?>
<!-- Generator: Adobe Illustrator 19.0.0, SVG Export Plug-In . SVG Version: 6.00 Build 0)  -->
<svg version="1.1" xmlns="http://www.w3.org/2000/svg" xmlns:xlink="http://www.w3.org/1999/xlink" x="0px" y="0px"
	 viewBox="0 0 242 155" style="enable-background:new 0 0 242 155;" xml:space="preserve">
<style type="text/css">
	.st0{fill:#EDDA32;}
	.st1{opacity:0.25;fill:#EDDA32;}
	.st2{opacity:0.5;fill:#EDDA32;}
	.st3{opacity:0.75;fill:#EDDA32;}
	.st4{fill:#F9F9F9;}
	.st5{fill:none;}
	.st6{fill:#FFFFFF;}
	.st7{fill:none;stroke:#000000;stroke-width:0.5;stroke-miterlimit:10;}
	.st8{display:none;}
</style>
<g id="Capa_2">
	<path id="XMLID_28_" class="st0" d="M230,155H12c-6.6,0-12-5.4-12-12V12C0,5.4,5.4,0,12,0h218c6.6,0,12,5.4,12,12v131
		C242,149.6,236.6,155,230,155z"/>
</g>
<g id="Capa_3">
	<rect id="XMLID_29_" y="103" width="242" height="18.5"/>
	<g id="XMLID_30_">
	</g>
</g>
<g id="Capa_6">
	<path id="XMLID_41_" class="st1" d="M18.4,109h-0.2v-1.2c0-1.1-2.5-2-5.6-2s-5.6,0.9-5.6,2v1.2H6.9c-0.3,0-0.6,0.3-0.6,0.6v2
		c0,0.3,0.3,0.6,0.6,0.6h0.2v4c0,0.4,0.4,0.8,0.8,0.8v0.8c0,0.4,0.4,0.8,0.8,0.8h0.8c0.4,0,0.8-0.4,0.8-0.8V117h4.8v0.8
		c0,0.4,0.4,0.8,0.8,0.8h0.8c0.4,0,0.8-0.4,0.8-0.8V117h0.2c0.4,0,0.6-0.3,0.6-0.6v-4.1h0.2c0.3,0,0.6-0.3,0.6-0.6v-2
		C19,109.3,18.8,109,18.4,109z M10.3,107.6c0-0.1,0.1-0.2,0.2-0.2h4.4c0.1,0,0.2,0.1,0.2,0.2v0.4c0,0.1-0.1,0.2-0.2,0.2h-4.4
		c-0.1,0-0.2-0.1-0.2-0.2V107.6z M9.1,115.8c-0.4,0-0.8-0.4-0.8-0.8s0.4-0.8,0.8-0.8c0.4,0,0.8,0.4,0.8,0.8S9.5,115.8,9.1,115.8z
		 M12.3,113H9.5c-0.4,0-0.8-0.4-0.8-0.8v-2.4c0-0.4,0.4-0.8,0.8-0.8h2.8V113z M13.1,113v-4h2.8c0.4,0,0.8,0.4,0.8,0.8v2.4
		c0,0.4-0.4,0.8-0.8,0.8H13.1z M16.2,115.8c-0.4,0-0.8-0.4-0.8-0.8s0.4-0.8,0.8-0.8c0.4,0,0.8,0.4,0.8,0.8S16.7,115.8,16.2,115.8z"
		/>
	<path id="XMLID_40_" class="st2" d="M33.2,109H33v-1.2c0-1.1-2.5-2-5.6-2s-5.6,0.9-5.6,2v1.2h-0.2c-0.3,0-0.6,0.3-0.6,0.6v2
		c0,0.3,0.3,0.6,0.6,0.6h0.2v4c0,0.4,0.4,0.8,0.8,0.8v0.8c0,0.4,0.4,0.8,0.8,0.8h0.8c0.4,0,0.8-0.4,0.8-0.8V117h4.8v0.8
		c0,0.4,0.4,0.8,0.8,0.8h0.8c0.4,0,0.8-0.4,0.8-0.8V117h0.2c0.4,0,0.6-0.3,0.6-0.6v-4.1h0.2c0.3,0,0.6-0.3,0.6-0.6v-2
		C33.8,109.3,33.5,109,33.2,109z M25.1,107.6c0-0.1,0.1-0.2,0.2-0.2h4.4c0.1,0,0.2,0.1,0.2,0.2v0.4c0,0.1-0.1,0.2-0.2,0.2h-4.4
		c-0.1,0-0.2-0.1-0.2-0.2V107.6z M23.9,115.8c-0.4,0-0.8-0.4-0.8-0.8s0.4-0.8,0.8-0.8s0.8,0.4,0.8,0.8S24.3,115.8,23.9,115.8z
		 M27,113h-2.8c-0.4,0-0.8-0.4-0.8-0.8v-2.4c0-0.4,0.4-0.8,0.8-0.8H27V113z M27.8,113v-4h2.8c0.4,0,0.8,0.4,0.8,0.8v2.4
		c0,0.4-0.4,0.8-0.8,0.8H27.8z M31,115.8c-0.4,0-0.8-0.4-0.8-0.8s0.4-0.8,0.8-0.8c0.4,0,0.8,0.4,0.8,0.8S31.4,115.8,31,115.8z"/>
	<path id="XMLID_48_" class="st3" d="M48,109h-0.2v-1.2c0-1.1-2.5-2-5.6-2c-3.1,0-5.6,0.9-5.6,2v1.2h-0.2c-0.3,0-0.6,0.3-0.6,0.6v2
		c0,0.3,0.3,0.6,0.6,0.6h0.2v4c0,0.4,0.4,0.8,0.8,0.8v0.8c0,0.4,0.4,0.8,0.8,0.8H39c0.4,0,0.8-0.4,0.8-0.8V117h4.8v0.8
		c0,0.4,0.4,0.8,0.8,0.8h0.8c0.4,0,0.8-0.4,0.8-0.8V117h0.2c0.4,0,0.6-0.3,0.6-0.6v-4.1H48c0.3,0,0.6-0.3,0.6-0.6v-2
		C48.6,109.3,48.3,109,48,109z M39.8,107.6c0-0.1,0.1-0.2,0.2-0.2h4.4c0.1,0,0.2,0.1,0.2,0.2v0.4c0,0.1-0.1,0.2-0.2,0.2H40
		c-0.1,0-0.2-0.1-0.2-0.2V107.6z M38.6,115.8c-0.4,0-0.8-0.4-0.8-0.8s0.4-0.8,0.8-0.8c0.4,0,0.8,0.4,0.8,0.8S39.1,115.8,38.6,115.8z
		 M41.8,113H39c-0.4,0-0.8-0.4-0.8-0.8v-2.4c0-0.4,0.4-0.8,0.8-0.8h2.8V113z M42.6,113v-4h2.8c0.4,0,0.8,0.4,0.8,0.8v2.4
		c0,0.4-0.4,0.8-0.8,0.8H42.6z M45.8,115.8c-0.4,0-0.8-0.4-0.8-0.8s0.4-0.8,0.8-0.8c0.4,0,0.8,0.4,0.8,0.8S46.2,115.8,45.8,115.8z"
		/>
	<path id="XMLID_55_" class="st0" d="M62.7,109h-0.2v-1.2c0-1.1-2.5-2-5.6-2s-5.6,0.9-5.6,2v1.2h-0.2c-0.3,0-0.6,0.3-0.6,0.6v2
		c0,0.3,0.3,0.6,0.6,0.6h0.2v4c0,0.4,0.4,0.8,0.8,0.8v0.8c0,0.4,0.4,0.8,0.8,0.8h0.8c0.4,0,0.8-0.4,0.8-0.8V117h4.8v0.8
		c0,0.4,0.4,0.8,0.8,0.8h0.8c0.4,0,0.8-0.4,0.8-0.8V117h0.2c0.4,0,0.6-0.3,0.6-0.6v-4.1h0.2c0.3,0,0.6-0.3,0.6-0.6v-2
		C63.3,109.3,63.1,109,62.7,109z M54.6,107.6c0-0.1,0.1-0.2,0.2-0.2h4.4c0.1,0,0.2,0.1,0.2,0.2v0.4c0,0.1-0.1,0.2-0.2,0.2h-4.4
		c-0.1,0-0.2-0.1-0.2-0.2V107.6z M53.4,115.8c-0.4,0-0.8-0.4-0.8-0.8s0.4-0.8,0.8-0.8c0.4,0,0.8,0.4,0.8,0.8S53.8,115.8,53.4,115.8z
		 M56.6,113h-2.8c-0.4,0-0.8-0.4-0.8-0.8v-2.4c0-0.4,0.4-0.8,0.8-0.8h2.8V113z M57.4,113v-4h2.8c0.4,0,0.8,0.4,0.8,0.8v2.4
		c0,0.4-0.4,0.8-0.8,0.8H57.4z M60.5,115.8c-0.4,0-0.8-0.4-0.8-0.8s0.4-0.8,0.8-0.8s0.8,0.4,0.8,0.8S61,115.8,60.5,115.8z"/>
</g>
<g id="Capa_7">
</g>
<g id="Capa_5">
	<rect id="XMLID_33_" y="9.5" class="st4" width="242" height="93.5"/>
</g>
<g id="Capa_4">
	<g id="XMLID_31_">
		<path id="XMLID_300_" d="M91.5,79.2c0,0.9-0.3,1.5-0.9,2s-1.4,0.7-2.5,0.7h-1v3.4h-1v-8.6h2.2C90.5,76.7,91.5,77.5,91.5,79.2z
			 M87.1,81H88c0.9,0,1.5-0.1,1.9-0.4s0.6-0.7,0.6-1.4c0-0.6-0.2-1-0.6-1.3s-0.9-0.4-1.7-0.4h-1.1V81z"/>
		<path id="XMLID_303_" d="M96.1,78.7c0.3,0,0.5,0,0.8,0.1l-0.1,0.9c-0.3-0.1-0.5-0.1-0.7-0.1c-0.5,0-1,0.2-1.3,0.6
			s-0.6,0.9-0.6,1.6v3.4h-1v-6.4H94l0.1,1.2h0c0.2-0.4,0.5-0.7,0.9-1S95.7,78.7,96.1,78.7z"/>
		<path id="XMLID_305_" d="M100.8,85.4c-0.9,0-1.7-0.3-2.2-0.9s-0.8-1.4-0.8-2.4c0-1,0.3-1.9,0.8-2.5s1.2-0.9,2.1-0.9
			c0.8,0,1.4,0.3,1.9,0.8s0.7,1.2,0.7,2.1v0.6h-4.4c0,0.8,0.2,1.3,0.6,1.7s0.9,0.6,1.5,0.6c0.7,0,1.4-0.1,2.1-0.4V85
			c-0.3,0.1-0.7,0.3-1,0.3S101.2,85.4,100.8,85.4z M100.5,79.5c-0.5,0-0.9,0.2-1.2,0.5s-0.5,0.8-0.5,1.4h3.4c0-0.6-0.1-1.1-0.4-1.4
			S101,79.5,100.5,79.5z"/>
		<path id="XMLID_308_" d="M105.7,78.8V83c0,0.5,0.1,0.9,0.4,1.2s0.6,0.4,1.1,0.4c0.7,0,1.2-0.2,1.5-0.6s0.5-1,0.5-1.8v-3.4h1v6.4
			h-0.8l-0.1-0.9h-0.1c-0.2,0.3-0.5,0.6-0.8,0.7s-0.8,0.3-1.2,0.3c-0.8,0-1.4-0.2-1.8-0.6s-0.6-1-0.6-1.8v-4.2H105.7z"/>
		<path id="XMLID_310_" d="M112,79.5c0-0.5,0.2-0.8,0.7-0.8c0.5,0,0.7,0.3,0.7,0.8c0,0.3-0.1,0.4-0.2,0.6s-0.3,0.2-0.5,0.2
			c-0.2,0-0.4-0.1-0.5-0.2S112,79.7,112,79.5z M112,84.6c0-0.3,0.1-0.5,0.2-0.6s0.3-0.2,0.5-0.2c0.2,0,0.4,0.1,0.5,0.2
			s0.2,0.3,0.2,0.6c0,0.3-0.1,0.4-0.2,0.6s-0.3,0.2-0.5,0.2c-0.2,0-0.4-0.1-0.5-0.2S112,84.9,112,84.6z"/>
		<path id="XMLID_313_" d="M121.1,79.8c0.8,0,1.5,0.2,2,0.7s0.7,1.1,0.7,1.9c0,1-0.3,1.7-0.9,2.2s-1.4,0.8-2.5,0.8
			c-1,0-1.7-0.2-2.3-0.5v-1.6c0.3,0.2,0.7,0.3,1.1,0.4s0.8,0.2,1.2,0.2c1.1,0,1.7-0.5,1.7-1.4c0-0.9-0.6-1.3-1.7-1.3
			c-0.2,0-0.4,0-0.7,0.1s-0.5,0.1-0.6,0.1l-0.7-0.4l0.3-4.4h4.6v1.5h-3.1l-0.2,1.7l0.2,0C120.4,79.8,120.7,79.8,121.1,79.8z"/>
		<path id="XMLID_315_" d="M131,83.5h-1v1.8h-1.8v-1.8h-3.7v-1.3l3.8-5.5h1.7v5.4h1V83.5z M128.2,82.1v-1.5c0-0.2,0-0.6,0-1.1
			s0-0.7,0-0.8h0c-0.1,0.3-0.3,0.6-0.5,0.9l-1.6,2.4H128.2z"/>
		<path id="XMLID_318_" d="M133.9,84c-0.2,0.8-0.5,1.7-1,2.8h-1.3c0.3-1,0.5-2,0.6-2.9h1.6L133.9,84z"/>
		<path id="XMLID_320_" d="M140.8,78.6c0,0.5-0.2,1-0.5,1.4s-0.8,0.6-1.4,0.8v0c0.7,0.1,1.2,0.3,1.6,0.6s0.5,0.8,0.5,1.4
			c0,0.8-0.3,1.5-0.9,1.9s-1.5,0.7-2.6,0.7c-0.9,0-1.8-0.2-2.5-0.5v-1.5c0.3,0.2,0.7,0.3,1.1,0.4s0.8,0.2,1.2,0.2
			c0.6,0,1-0.1,1.3-0.3s0.4-0.5,0.4-1c0-0.4-0.2-0.7-0.5-0.9s-0.9-0.3-1.6-0.3h-0.7v-1.4h0.7c0.7,0,1.1-0.1,1.5-0.3s0.5-0.5,0.5-0.9
			c0-0.6-0.4-1-1.2-1c-0.3,0-0.6,0-0.9,0.1s-0.6,0.3-1,0.5l-0.8-1.2c0.8-0.6,1.7-0.8,2.8-0.8c0.9,0,1.6,0.2,2.1,0.5
			S140.8,78,140.8,78.6z"/>
		<path id="XMLID_322_" d="M145.1,79.8c0.8,0,1.5,0.2,2,0.7s0.7,1.1,0.7,1.9c0,1-0.3,1.7-0.9,2.2s-1.4,0.8-2.5,0.8
			c-1,0-1.7-0.2-2.3-0.5v-1.6c0.3,0.2,0.7,0.3,1.1,0.4s0.8,0.2,1.2,0.2c1.1,0,1.7-0.5,1.7-1.4c0-0.9-0.6-1.3-1.7-1.3
			c-0.2,0-0.4,0-0.7,0.1s-0.5,0.1-0.6,0.1l-0.7-0.4l0.3-4.4h4.6v1.5h-3.1l-0.2,1.7l0.2,0C144.4,79.8,144.7,79.8,145.1,79.8z"/>
		<path id="XMLID_324_" d="M156.2,78.1c-0.5,0-0.9,0.1-1.2,0.4s-0.5,0.7-0.6,1.2h2.4v1h-2.4l0,0.2v0.3l0,0.2h2.1v1h-2
			c0.2,0.9,0.8,1.4,1.9,1.4c0.6,0,1.1-0.1,1.6-0.3V85c-0.5,0.2-1,0.3-1.7,0.3c-1,0-1.7-0.3-2.4-0.8s-1-1.2-1.2-2.2h-0.8v-1h0.7
			c0-0.1,0-0.2,0-0.4l0-0.3h-0.7v-1h0.8c0.1-0.9,0.5-1.7,1.2-2.2s1.4-0.8,2.4-0.8c0.7,0,1.4,0.2,2.1,0.5l-0.6,1.4
			c-0.3-0.1-0.5-0.2-0.8-0.3S156.4,78.1,156.2,78.1z"/>
		<path id="XMLID_326_" d="M19.5,90.8c0-0.5,0.1-1,0.2-1.5s0.4-0.8,0.7-1.2h0.5c-0.3,0.4-0.5,0.8-0.6,1.2S20,90.3,20,90.8
			c0,0.5,0.1,0.9,0.2,1.4s0.4,0.9,0.6,1.2h-0.5c-0.3-0.3-0.5-0.7-0.7-1.2S19.5,91.3,19.5,90.8z"/>
		<path id="XMLID_328_" d="M22.9,92.5c-0.5,0-0.8-0.1-1.1-0.4s-0.4-0.7-0.4-1.2c0-0.5,0.1-0.9,0.4-1.2s0.6-0.5,1-0.5
			c0.4,0,0.7,0.1,1,0.4c0.2,0.3,0.4,0.6,0.4,1v0.3h-2.2c0,0.4,0.1,0.7,0.3,0.9s0.4,0.3,0.8,0.3c0.3,0,0.7-0.1,1-0.2v0.4
			c-0.2,0.1-0.3,0.1-0.5,0.2C23.3,92.5,23.1,92.5,22.9,92.5z M22.8,89.6c-0.3,0-0.5,0.1-0.6,0.3s-0.2,0.4-0.3,0.7h1.7
			c0-0.3-0.1-0.5-0.2-0.7S23,89.6,22.8,89.6z"/>
		<path id="XMLID_331_" d="M27,91.6c0,0.3-0.1,0.5-0.3,0.7s-0.5,0.2-0.9,0.2c-0.4,0-0.8-0.1-1-0.2v-0.5c0.2,0.1,0.3,0.1,0.5,0.2
			s0.3,0.1,0.5,0.1c0.3,0,0.4,0,0.6-0.1c0.1-0.1,0.2-0.2,0.2-0.4c0-0.1-0.1-0.2-0.2-0.3c-0.1-0.1-0.3-0.2-0.6-0.3
			c-0.3-0.1-0.5-0.2-0.6-0.3s-0.2-0.2-0.3-0.3s-0.1-0.2-0.1-0.4c0-0.3,0.1-0.5,0.3-0.6c0.2-0.2,0.5-0.2,0.9-0.2c0.3,0,0.7,0.1,1,0.2
			l-0.2,0.4c-0.3-0.1-0.6-0.2-0.9-0.2c-0.2,0-0.4,0-0.5,0.1s-0.2,0.2-0.2,0.3c0,0.1,0,0.2,0.1,0.2s0.1,0.1,0.2,0.2s0.3,0.1,0.6,0.2
			c0.4,0.1,0.6,0.3,0.8,0.4S27,91.4,27,91.6z"/>
		<path id="XMLID_333_" d="M29,92.5c-0.5,0-0.8-0.1-1.1-0.4c-0.3-0.3-0.4-0.7-0.4-1.2c0-0.5,0.1-1,0.4-1.2s0.6-0.4,1.1-0.4
			c0.2,0,0.3,0,0.5,0s0.3,0.1,0.4,0.1l-0.1,0.4c-0.1,0-0.2-0.1-0.4-0.1c-0.1,0-0.2,0-0.3,0c-0.7,0-1,0.4-1,1.2
			c0,0.4,0.1,0.7,0.2,0.9s0.4,0.3,0.7,0.3c0.3,0,0.5-0.1,0.8-0.2v0.4C29.6,92.5,29.4,92.5,29,92.5z"/>
		<path id="XMLID_335_" d="M33.4,90.8c0,0.5-0.1,0.9-0.4,1.2c-0.3,0.3-0.6,0.4-1.1,0.4c-0.3,0-0.5-0.1-0.8-0.2s-0.4-0.3-0.5-0.6
			s-0.2-0.5-0.2-0.9c0-0.5,0.1-0.9,0.4-1.2c0.3-0.3,0.6-0.4,1.1-0.4c0.4,0,0.8,0.1,1.1,0.4S33.4,90.3,33.4,90.8z M30.9,90.8
			c0,0.4,0.1,0.7,0.2,0.9s0.4,0.3,0.7,0.3s0.6-0.1,0.7-0.3c0.2-0.2,0.2-0.5,0.2-0.9c0-0.4-0.1-0.7-0.2-0.9c-0.2-0.2-0.4-0.3-0.7-0.3
			c-0.3,0-0.6,0.1-0.7,0.3S30.9,90.4,30.9,90.8z"/>
		<path id="XMLID_338_" d="M34.7,92.5h-0.5v-4.6h0.5V92.5z"/>
		<path id="XMLID_340_" d="M37.7,92.5L37.6,92h0c-0.2,0.2-0.3,0.3-0.5,0.4c-0.2,0.1-0.4,0.1-0.6,0.1c-0.3,0-0.6-0.1-0.7-0.2
			s-0.3-0.4-0.3-0.7c0-0.6,0.5-1,1.6-1l0.5,0v-0.2c0-0.3-0.1-0.4-0.2-0.6c-0.1-0.1-0.3-0.2-0.5-0.2c-0.3,0-0.6,0.1-0.9,0.2l-0.1-0.4
			c0.2-0.1,0.3-0.2,0.5-0.2s0.4-0.1,0.6-0.1c0.4,0,0.7,0.1,0.9,0.3s0.3,0.4,0.3,0.8v2.2H37.7z M36.6,92.1c0.3,0,0.5-0.1,0.7-0.2
			s0.3-0.4,0.3-0.7v-0.3l-0.5,0c-0.4,0-0.7,0.1-0.8,0.2c-0.2,0.1-0.3,0.3-0.3,0.5c0,0.2,0.1,0.3,0.2,0.4S36.4,92.1,36.6,92.1z"/>
		<path id="XMLID_343_" d="M40.6,89.2c0.1,0,0.3,0,0.4,0l-0.1,0.5c-0.1,0-0.3,0-0.4,0c-0.3,0-0.5,0.1-0.7,0.3s-0.3,0.5-0.3,0.8v1.7
			h-0.5v-3.2h0.4l0.1,0.6h0c0.1-0.2,0.3-0.4,0.4-0.5S40.4,89.2,40.6,89.2z"/>
		<path id="XMLID_345_" d="M43.6,91.6c0,0.3-0.1,0.5-0.3,0.7s-0.5,0.2-0.9,0.2c-0.4,0-0.8-0.1-1-0.2v-0.5c0.2,0.1,0.3,0.1,0.5,0.2
			s0.3,0.1,0.5,0.1c0.3,0,0.4,0,0.6-0.1c0.1-0.1,0.2-0.2,0.2-0.4c0-0.1-0.1-0.2-0.2-0.3c-0.1-0.1-0.3-0.2-0.6-0.3
			c-0.3-0.1-0.5-0.2-0.6-0.3s-0.2-0.2-0.3-0.3s-0.1-0.2-0.1-0.4c0-0.3,0.1-0.5,0.3-0.6c0.2-0.2,0.5-0.2,0.9-0.2c0.3,0,0.7,0.1,1,0.2
			l-0.2,0.4c-0.3-0.1-0.6-0.2-0.9-0.2c-0.2,0-0.4,0-0.5,0.1s-0.2,0.2-0.2,0.3c0,0.1,0,0.2,0.1,0.2s0.1,0.1,0.2,0.2s0.3,0.1,0.6,0.2
			c0.4,0.1,0.6,0.3,0.8,0.4S43.6,91.4,43.6,91.6z"/>
		<path id="XMLID_347_" d="M50.1,92.5v-2.1c0-0.3-0.1-0.4-0.2-0.6s-0.3-0.2-0.5-0.2c-0.3,0-0.5,0.1-0.7,0.3s-0.2,0.4-0.2,0.8v1.8H48
			v-2.1c0-0.3-0.1-0.4-0.2-0.6s-0.3-0.2-0.5-0.2c-0.3,0-0.5,0.1-0.7,0.3s-0.2,0.5-0.2,0.9v1.7H46v-3.2h0.4l0.1,0.4h0
			c0.1-0.2,0.2-0.3,0.4-0.4s0.4-0.1,0.6-0.1c0.5,0,0.8,0.2,1,0.5h0c0.1-0.2,0.2-0.3,0.4-0.4s0.4-0.1,0.6-0.1c0.4,0,0.6,0.1,0.8,0.3
			c0.2,0.2,0.3,0.5,0.3,0.9v2.1H50.1z"/>
		<path id="XMLID_349_" d="M52.9,92.5c-0.5,0-0.8-0.1-1.1-0.4s-0.4-0.7-0.4-1.2c0-0.5,0.1-0.9,0.4-1.2s0.6-0.5,1-0.5
			c0.4,0,0.7,0.1,1,0.4c0.2,0.3,0.4,0.6,0.4,1v0.3h-2.2c0,0.4,0.1,0.7,0.3,0.9s0.4,0.3,0.8,0.3c0.3,0,0.7-0.1,1-0.2v0.4
			c-0.2,0.1-0.3,0.1-0.5,0.2C53.3,92.5,53.1,92.5,52.9,92.5z M52.8,89.6c-0.3,0-0.5,0.1-0.6,0.3s-0.2,0.4-0.3,0.7h1.7
			c0-0.3-0.1-0.5-0.2-0.7S53,89.6,52.8,89.6z"/>
		<path id="XMLID_352_" d="M57.1,92.5v-2.1c0-0.3-0.1-0.5-0.2-0.6s-0.3-0.2-0.6-0.2c-0.3,0-0.6,0.1-0.7,0.3s-0.2,0.5-0.2,0.9v1.7
			h-0.5v-3.2h0.4l0.1,0.4h0c0.1-0.2,0.2-0.3,0.4-0.4s0.4-0.1,0.6-0.1c0.4,0,0.7,0.1,0.9,0.3c0.2,0.2,0.3,0.5,0.3,0.9v2.1H57.1z"/>
		<path id="XMLID_354_" d="M61.4,90.8c0,0.5-0.1,0.9-0.4,1.2c-0.3,0.3-0.6,0.4-1.1,0.4c-0.3,0-0.5-0.1-0.8-0.2s-0.4-0.3-0.5-0.6
			s-0.2-0.5-0.2-0.9c0-0.5,0.1-0.9,0.4-1.2c0.3-0.3,0.6-0.4,1.1-0.4c0.4,0,0.8,0.1,1.1,0.4S61.4,90.3,61.4,90.8z M58.9,90.8
			c0,0.4,0.1,0.7,0.2,0.9s0.4,0.3,0.7,0.3s0.6-0.1,0.7-0.3c0.2-0.2,0.2-0.5,0.2-0.9c0-0.4-0.1-0.7-0.2-0.9c-0.2-0.2-0.4-0.3-0.7-0.3
			c-0.3,0-0.6,0.1-0.7,0.3S58.9,90.4,58.9,90.8z"/>
		<path id="XMLID_357_" d="M63.7,89.2c0.1,0,0.3,0,0.4,0L64,89.7c-0.1,0-0.3,0-0.4,0c-0.3,0-0.5,0.1-0.7,0.3s-0.3,0.5-0.3,0.8v1.7
			h-0.5v-3.2h0.4l0.1,0.6h0c0.1-0.2,0.3-0.4,0.4-0.5S63.5,89.2,63.7,89.2z"/>
		<path id="XMLID_359_" d="M66.7,91.6c0,0.3-0.1,0.5-0.3,0.7s-0.5,0.2-0.9,0.2c-0.4,0-0.8-0.1-1-0.2v-0.5c0.2,0.1,0.3,0.1,0.5,0.2
			s0.3,0.1,0.5,0.1c0.3,0,0.4,0,0.6-0.1c0.1-0.1,0.2-0.2,0.2-0.4c0-0.1-0.1-0.2-0.2-0.3c-0.1-0.1-0.3-0.2-0.6-0.3
			c-0.3-0.1-0.5-0.2-0.6-0.3s-0.2-0.2-0.3-0.3s-0.1-0.2-0.1-0.4c0-0.3,0.1-0.5,0.3-0.6c0.2-0.2,0.5-0.2,0.9-0.2c0.3,0,0.7,0.1,1,0.2
			l-0.2,0.4c-0.3-0.1-0.6-0.2-0.9-0.2c-0.2,0-0.4,0-0.5,0.1s-0.2,0.2-0.2,0.3c0,0.1,0,0.2,0.1,0.2s0.1,0.1,0.2,0.2s0.3,0.1,0.6,0.2
			c0.4,0.1,0.6,0.3,0.8,0.4S66.7,91.4,66.7,91.6z"/>
		<path id="XMLID_361_" d="M71.3,92L71.3,92c-0.3,0.3-0.6,0.5-1,0.5c-0.4,0-0.7-0.1-1-0.4s-0.4-0.7-0.4-1.2s0.1-0.9,0.4-1.2
			s0.6-0.4,1-0.4c0.4,0,0.8,0.2,1,0.5h0l0-0.2l0-0.2v-1.3h0.5v4.6h-0.4L71.3,92z M70.3,92.1c0.3,0,0.6-0.1,0.7-0.3s0.2-0.5,0.2-0.9
			v-0.1c0-0.5-0.1-0.8-0.2-1s-0.4-0.3-0.7-0.3c-0.3,0-0.5,0.1-0.7,0.3s-0.2,0.5-0.2,0.9c0,0.4,0.1,0.7,0.2,0.9S70,92.1,70.3,92.1z"
			/>
		<path id="XMLID_364_" d="M74.1,92.5c-0.5,0-0.8-0.1-1.1-0.4s-0.4-0.7-0.4-1.2c0-0.5,0.1-0.9,0.4-1.2s0.6-0.5,1-0.5
			c0.4,0,0.7,0.1,1,0.4c0.2,0.3,0.4,0.6,0.4,1v0.3h-2.2c0,0.4,0.1,0.7,0.3,0.9s0.4,0.3,0.8,0.3c0.3,0,0.7-0.1,1-0.2v0.4
			c-0.2,0.1-0.3,0.1-0.5,0.2C74.5,92.5,74.3,92.5,74.1,92.5z M74,89.6c-0.3,0-0.5,0.1-0.6,0.3s-0.2,0.4-0.3,0.7h1.7
			c0-0.3-0.1-0.5-0.2-0.7S74.2,89.6,74,89.6z"/>
		<path id="XMLID_367_" d="M79.3,92.5h-0.5v-3.1c0-0.3,0-0.5,0-0.7c0,0-0.1,0.1-0.1,0.1S78.4,89,78,89.4L77.7,89l1.1-0.9h0.4V92.5z"
			/>
		<path id="XMLID_369_" d="M82.3,88.1c0.4,0,0.7,0.1,0.9,0.3s0.3,0.4,0.3,0.8c0,0.2-0.1,0.4-0.2,0.6s-0.3,0.3-0.6,0.5
			c0.3,0.2,0.6,0.3,0.7,0.5s0.2,0.4,0.2,0.6c0,0.4-0.1,0.6-0.4,0.9c-0.2,0.2-0.6,0.3-1,0.3c-0.5,0-0.8-0.1-1.1-0.3
			c-0.2-0.2-0.4-0.5-0.4-0.9c0-0.5,0.3-0.9,0.9-1.1c-0.3-0.2-0.5-0.3-0.6-0.5c-0.1-0.2-0.2-0.4-0.2-0.6c0-0.3,0.1-0.6,0.3-0.7
			C81.6,88.2,81.9,88.1,82.3,88.1z M81.4,91.4c0,0.2,0.1,0.4,0.2,0.5s0.4,0.2,0.7,0.2c0.3,0,0.5-0.1,0.7-0.2s0.2-0.3,0.2-0.6
			c0-0.2-0.1-0.4-0.2-0.5s-0.4-0.3-0.8-0.4c-0.3,0.1-0.5,0.3-0.6,0.4C81.5,91,81.4,91.2,81.4,91.4z M82.3,88.5
			c-0.2,0-0.4,0.1-0.6,0.2s-0.2,0.3-0.2,0.5c0,0.2,0.1,0.3,0.2,0.5s0.3,0.3,0.6,0.4c0.3-0.1,0.5-0.2,0.6-0.4s0.2-0.3,0.2-0.5
			c0-0.2-0.1-0.4-0.2-0.5C82.8,88.6,82.6,88.5,82.3,88.5z"/>
		<path id="XMLID_373_" d="M88.1,92.5L88,92h0c-0.2,0.2-0.3,0.3-0.5,0.4c-0.2,0.1-0.4,0.1-0.6,0.1c-0.3,0-0.6-0.1-0.7-0.2
			s-0.3-0.4-0.3-0.7c0-0.6,0.5-1,1.6-1l0.5,0v-0.2c0-0.3-0.1-0.4-0.2-0.6c-0.1-0.1-0.3-0.2-0.5-0.2c-0.3,0-0.6,0.1-0.9,0.2l-0.1-0.4
			c0.2-0.1,0.3-0.2,0.5-0.2s0.4-0.1,0.6-0.1c0.4,0,0.7,0.1,0.9,0.3s0.3,0.4,0.3,0.8v2.2H88.1z M87,92.1c0.3,0,0.5-0.1,0.7-0.2
			s0.3-0.4,0.3-0.7v-0.3l-0.5,0c-0.4,0-0.7,0.1-0.8,0.2c-0.2,0.1-0.3,0.3-0.3,0.5c0,0.2,0.1,0.3,0.2,0.4S86.8,92.1,87,92.1z"/>
		<path id="XMLID_376_" d="M91.6,92.5v-2.1c0-0.3-0.1-0.5-0.2-0.6s-0.3-0.2-0.6-0.2c-0.3,0-0.6,0.1-0.7,0.3s-0.2,0.5-0.2,0.9v1.7
			h-0.5v-3.2h0.4l0.1,0.4h0c0.1-0.2,0.2-0.3,0.4-0.4s0.4-0.1,0.6-0.1c0.4,0,0.7,0.1,0.9,0.3c0.2,0.2,0.3,0.5,0.3,0.9v2.1H91.6z"/>
		<path id="XMLID_378_" d="M92.6,89.2h0.5l0.7,1.8c0.2,0.4,0.3,0.7,0.3,0.9h0c0-0.1,0.1-0.3,0.2-0.5c0.1-0.2,0.3-1,0.8-2.2h0.5
			l-1.4,3.7c-0.1,0.4-0.3,0.6-0.5,0.8c-0.2,0.2-0.4,0.2-0.7,0.2c-0.1,0-0.3,0-0.4,0v-0.4c0.1,0,0.2,0,0.4,0c0.3,0,0.6-0.2,0.7-0.6
			l0.2-0.5L92.6,89.2z"/>
		<path id="XMLID_380_" d="M98.2,91.6c0,0.3-0.1,0.5-0.3,0.7s-0.5,0.2-0.9,0.2c-0.4,0-0.8-0.1-1-0.2v-0.5c0.2,0.1,0.3,0.1,0.5,0.2
			s0.3,0.1,0.5,0.1c0.3,0,0.4,0,0.6-0.1c0.1-0.1,0.2-0.2,0.2-0.4c0-0.1-0.1-0.2-0.2-0.3c-0.1-0.1-0.3-0.2-0.6-0.3
			c-0.3-0.1-0.5-0.2-0.6-0.3s-0.2-0.2-0.3-0.3s-0.1-0.2-0.1-0.4c0-0.3,0.1-0.5,0.3-0.6c0.2-0.2,0.5-0.2,0.9-0.2c0.3,0,0.7,0.1,1,0.2
			L98,89.8c-0.3-0.1-0.6-0.2-0.9-0.2c-0.2,0-0.4,0-0.5,0.1s-0.2,0.2-0.2,0.3c0,0.1,0,0.2,0.1,0.2s0.1,0.1,0.2,0.2s0.3,0.1,0.6,0.2
			c0.4,0.1,0.6,0.3,0.8,0.4S98.2,91.4,98.2,91.6z"/>
		<path id="XMLID_382_" d="M102.5,92.5l-0.1-0.5h0c-0.2,0.2-0.3,0.3-0.5,0.4c-0.2,0.1-0.4,0.1-0.6,0.1c-0.3,0-0.6-0.1-0.7-0.2
			s-0.3-0.4-0.3-0.7c0-0.6,0.5-1,1.6-1l0.5,0v-0.2c0-0.3-0.1-0.4-0.2-0.6c-0.1-0.1-0.3-0.2-0.5-0.2c-0.3,0-0.6,0.1-0.9,0.2l-0.1-0.4
			c0.2-0.1,0.3-0.2,0.5-0.2s0.4-0.1,0.6-0.1c0.4,0,0.7,0.1,0.9,0.3s0.3,0.4,0.3,0.8v2.2H102.5z M101.4,92.1c0.3,0,0.5-0.1,0.7-0.2
			s0.3-0.4,0.3-0.7v-0.3l-0.5,0c-0.4,0-0.7,0.1-0.8,0.2c-0.2,0.1-0.3,0.3-0.3,0.5c0,0.2,0.1,0.3,0.2,0.4S101.3,92.1,101.4,92.1z"/>
		<path id="XMLID_385_" d="M108,92.5v-2.1c0-0.3-0.1-0.4-0.2-0.6s-0.3-0.2-0.5-0.2c-0.3,0-0.5,0.1-0.7,0.3s-0.2,0.4-0.2,0.8v1.8H106
			v-2.1c0-0.3-0.1-0.4-0.2-0.6s-0.3-0.2-0.5-0.2c-0.3,0-0.5,0.1-0.7,0.3s-0.2,0.5-0.2,0.9v1.7h-0.5v-3.2h0.4l0.1,0.4h0
			c0.1-0.2,0.2-0.3,0.4-0.4s0.4-0.1,0.6-0.1c0.5,0,0.8,0.2,1,0.5h0c0.1-0.2,0.2-0.3,0.4-0.4s0.4-0.1,0.6-0.1c0.4,0,0.6,0.1,0.8,0.3
			c0.2,0.2,0.3,0.5,0.3,0.9v2.1H108z"/>
		<path id="XMLID_387_" d="M111,89.2c0.4,0,0.7,0.1,1,0.4c0.2,0.3,0.4,0.7,0.4,1.2s-0.1,0.9-0.4,1.2s-0.6,0.4-1,0.4
			c-0.2,0-0.4,0-0.6-0.1c-0.2-0.1-0.3-0.2-0.4-0.4h0l-0.1,0.4h-0.3v-4.6h0.5V89c0,0.2,0,0.5,0,0.7h0C110.2,89.3,110.5,89.2,111,89.2
			z M110.9,89.6c-0.3,0-0.6,0.1-0.7,0.3c-0.1,0.2-0.2,0.5-0.2,1s0.1,0.8,0.2,1c0.2,0.2,0.4,0.3,0.7,0.3c0.3,0,0.5-0.1,0.7-0.3
			c0.1-0.2,0.2-0.5,0.2-0.9c0-0.4-0.1-0.7-0.2-0.9S111.2,89.6,110.9,89.6z"/>
		<path id="XMLID_390_" d="M116.2,89.2c0.1,0,0.3,0,0.4,0l-0.1,0.5c-0.1,0-0.3,0-0.4,0c-0.3,0-0.5,0.1-0.7,0.3s-0.3,0.5-0.3,0.8v1.7
			h-0.5v-3.2h0.4l0.1,0.6h0c0.1-0.2,0.3-0.4,0.4-0.5S116,89.2,116.2,89.2z"/>
		<path id="XMLID_392_" d="M118.5,92.5c-0.5,0-0.8-0.1-1.1-0.4s-0.4-0.7-0.4-1.2c0-0.5,0.1-0.9,0.4-1.2s0.6-0.5,1-0.5
			c0.4,0,0.7,0.1,1,0.4c0.2,0.3,0.4,0.6,0.4,1v0.3h-2.2c0,0.4,0.1,0.7,0.3,0.9s0.4,0.3,0.8,0.3c0.3,0,0.7-0.1,1-0.2v0.4
			c-0.2,0.1-0.3,0.1-0.5,0.2C118.9,92.5,118.7,92.5,118.5,92.5z M118.4,89.6c-0.3,0-0.5,0.1-0.6,0.3s-0.2,0.4-0.3,0.7h1.7
			c0-0.3-0.1-0.5-0.2-0.7S118.7,89.6,118.4,89.6z"/>
		<path id="XMLID_395_" d="M122.6,91.6c0,0.3-0.1,0.5-0.3,0.7s-0.5,0.2-0.9,0.2c-0.4,0-0.8-0.1-1-0.2v-0.5c0.2,0.1,0.3,0.1,0.5,0.2
			s0.3,0.1,0.5,0.1c0.3,0,0.4,0,0.6-0.1c0.1-0.1,0.2-0.2,0.2-0.4c0-0.1-0.1-0.2-0.2-0.3c-0.1-0.1-0.3-0.2-0.6-0.3
			c-0.3-0.1-0.5-0.2-0.6-0.3s-0.2-0.2-0.3-0.3s-0.1-0.2-0.1-0.4c0-0.3,0.1-0.5,0.3-0.6c0.2-0.2,0.5-0.2,0.9-0.2c0.3,0,0.7,0.1,1,0.2
			l-0.2,0.4c-0.3-0.1-0.6-0.2-0.9-0.2c-0.2,0-0.4,0-0.5,0.1c-0.1,0.1-0.2,0.2-0.2,0.3c0,0.1,0,0.2,0.1,0.2s0.1,0.1,0.2,0.2
			c0.1,0.1,0.3,0.1,0.6,0.2c0.4,0.1,0.6,0.3,0.8,0.4S122.6,91.4,122.6,91.6z"/>
		<path id="XMLID_397_" d="M123.4,88.4c0-0.1,0-0.2,0.1-0.2c0.1-0.1,0.1-0.1,0.2-0.1c0.1,0,0.1,0,0.2,0.1s0.1,0.1,0.1,0.2
			s0,0.2-0.1,0.2s-0.1,0.1-0.2,0.1c-0.1,0-0.2,0-0.2-0.1S123.4,88.5,123.4,88.4z M123.9,92.5h-0.5v-3.2h0.5V92.5z"/>
		<path id="XMLID_400_" d="M127.1,92L127.1,92c-0.3,0.3-0.6,0.5-1,0.5c-0.4,0-0.7-0.1-1-0.4s-0.4-0.7-0.4-1.2s0.1-0.9,0.4-1.2
			s0.6-0.4,1-0.4c0.4,0,0.8,0.2,1,0.5h0l0-0.2l0-0.2v-1.3h0.5v4.6h-0.4L127.1,92z M126.1,92.1c0.3,0,0.6-0.1,0.7-0.3
			s0.2-0.5,0.2-0.9v-0.1c0-0.5-0.1-0.8-0.2-1s-0.4-0.3-0.7-0.3c-0.3,0-0.5,0.1-0.7,0.3s-0.2,0.5-0.2,0.9c0,0.4,0.1,0.7,0.2,0.9
			S125.8,92.1,126.1,92.1z"/>
		<path id="XMLID_403_" d="M130,92.5c-0.5,0-0.8-0.1-1.1-0.4s-0.4-0.7-0.4-1.2c0-0.5,0.1-0.9,0.4-1.2s0.6-0.5,1-0.5
			c0.4,0,0.7,0.1,1,0.4c0.2,0.3,0.4,0.6,0.4,1v0.3h-2.2c0,0.4,0.1,0.7,0.3,0.9s0.4,0.3,0.8,0.3c0.3,0,0.7-0.1,1-0.2v0.4
			c-0.2,0.1-0.3,0.1-0.5,0.2C130.4,92.5,130.2,92.5,130,92.5z M129.8,89.6c-0.3,0-0.5,0.1-0.6,0.3s-0.2,0.4-0.3,0.7h1.7
			c0-0.3-0.1-0.5-0.2-0.7S130.1,89.6,129.8,89.6z M130.2,88.8h-0.3c-0.1-0.1-0.3-0.2-0.5-0.4s-0.3-0.3-0.4-0.5v-0.1h0.6
			c0.1,0.1,0.1,0.3,0.3,0.5S130.1,88.6,130.2,88.8L130.2,88.8z"/>
		<path id="XMLID_407_" d="M134.2,92.5v-2.1c0-0.3-0.1-0.5-0.2-0.6s-0.3-0.2-0.6-0.2c-0.3,0-0.6,0.1-0.7,0.3s-0.2,0.5-0.2,0.9v1.7
			H132v-3.2h0.4l0.1,0.4h0c0.1-0.2,0.2-0.3,0.4-0.4s0.4-0.1,0.6-0.1c0.4,0,0.7,0.1,0.9,0.3c0.2,0.2,0.3,0.5,0.3,0.9v2.1H134.2z"/>
		<path id="XMLID_409_" d="M136.9,92.5c-0.5,0-0.8-0.1-1.1-0.4c-0.3-0.3-0.4-0.7-0.4-1.2c0-0.5,0.1-1,0.4-1.2s0.6-0.4,1.1-0.4
			c0.2,0,0.3,0,0.5,0s0.3,0.1,0.4,0.1l-0.1,0.4c-0.1,0-0.2-0.1-0.4-0.1c-0.1,0-0.2,0-0.3,0c-0.7,0-1,0.4-1,1.2
			c0,0.4,0.1,0.7,0.2,0.9s0.4,0.3,0.7,0.3c0.3,0,0.5-0.1,0.8-0.2v0.4C137.5,92.5,137.3,92.5,136.9,92.5z"/>
		<path id="XMLID_411_" d="M138.5,88.4c0-0.1,0-0.2,0.1-0.2c0.1-0.1,0.1-0.1,0.2-0.1c0.1,0,0.1,0,0.2,0.1s0.1,0.1,0.1,0.2
			s0,0.2-0.1,0.2s-0.1,0.1-0.2,0.1c-0.1,0-0.2,0-0.2-0.1S138.5,88.5,138.5,88.4z M139,92.5h-0.5v-3.2h0.5V92.5z"/>
		<path id="XMLID_414_" d="M142,92.5l-0.1-0.5h0c-0.2,0.2-0.3,0.3-0.5,0.4c-0.2,0.1-0.4,0.1-0.6,0.1c-0.3,0-0.6-0.1-0.7-0.2
			c-0.2-0.2-0.3-0.4-0.3-0.7c0-0.6,0.5-1,1.6-1l0.5,0v-0.2c0-0.3-0.1-0.4-0.2-0.6c-0.1-0.1-0.3-0.2-0.5-0.2c-0.3,0-0.6,0.1-0.9,0.2
			l-0.1-0.4c0.2-0.1,0.3-0.2,0.5-0.2c0.2,0,0.4-0.1,0.6-0.1c0.4,0,0.7,0.1,0.9,0.3c0.2,0.2,0.3,0.4,0.3,0.8v2.2H142z M140.9,92.1
			c0.3,0,0.5-0.1,0.7-0.2c0.2-0.2,0.3-0.4,0.3-0.7v-0.3l-0.5,0c-0.4,0-0.7,0.1-0.8,0.2c-0.2,0.1-0.3,0.3-0.3,0.5
			c0,0.2,0.1,0.3,0.2,0.4C140.6,92.1,140.7,92.1,140.9,92.1z"/>
		<path id="XMLID_417_" d="M146.4,89.6h-0.8v2.8h-0.5v-2.8h-0.6v-0.2l0.6-0.2V89c0-0.8,0.3-1.2,1-1.2c0.2,0,0.4,0,0.6,0.1l-0.1,0.4
			c-0.2-0.1-0.3-0.1-0.5-0.1c-0.2,0-0.3,0.1-0.4,0.2s-0.1,0.3-0.1,0.6v0.2h0.8V89.6z"/>
		<path id="XMLID_419_" d="M149.7,90.8c0,0.5-0.1,0.9-0.4,1.2c-0.3,0.3-0.6,0.4-1.1,0.4c-0.3,0-0.5-0.1-0.8-0.2s-0.4-0.3-0.5-0.6
			s-0.2-0.5-0.2-0.9c0-0.5,0.1-0.9,0.4-1.2c0.3-0.3,0.6-0.4,1.1-0.4c0.4,0,0.8,0.1,1.1,0.4C149.6,89.9,149.7,90.3,149.7,90.8z
			 M147.3,90.8c0,0.4,0.1,0.7,0.2,0.9s0.4,0.3,0.7,0.3s0.6-0.1,0.7-0.3c0.2-0.2,0.2-0.5,0.2-0.9c0-0.4-0.1-0.7-0.2-0.9
			c-0.2-0.2-0.4-0.3-0.7-0.3c-0.3,0-0.6,0.1-0.7,0.3S147.3,90.4,147.3,90.8z"/>
		<path id="XMLID_422_" d="M152,89.2c0.1,0,0.3,0,0.4,0l-0.1,0.5c-0.1,0-0.3,0-0.4,0c-0.3,0-0.5,0.1-0.7,0.3
			c-0.2,0.2-0.3,0.5-0.3,0.8v1.7h-0.5v-3.2h0.4l0.1,0.6h0c0.1-0.2,0.3-0.4,0.4-0.5S151.8,89.2,152,89.2z"/>
		<path id="XMLID_424_" d="M155,92.5l-0.1-0.5h0c-0.2,0.2-0.3,0.3-0.5,0.4c-0.2,0.1-0.4,0.1-0.6,0.1c-0.3,0-0.6-0.1-0.7-0.2
			c-0.2-0.2-0.3-0.4-0.3-0.7c0-0.6,0.5-1,1.6-1l0.5,0v-0.2c0-0.3-0.1-0.4-0.2-0.6c-0.1-0.1-0.3-0.2-0.5-0.2c-0.3,0-0.6,0.1-0.9,0.2
			l-0.1-0.4c0.2-0.1,0.3-0.2,0.5-0.2c0.2,0,0.4-0.1,0.6-0.1c0.4,0,0.7,0.1,0.9,0.3c0.2,0.2,0.3,0.4,0.3,0.8v2.2H155z M153.9,92.1
			c0.3,0,0.5-0.1,0.7-0.2c0.2-0.2,0.3-0.4,0.3-0.7v-0.3l-0.5,0c-0.4,0-0.7,0.1-0.8,0.2c-0.2,0.1-0.3,0.3-0.3,0.5
			c0,0.2,0.1,0.3,0.2,0.4C153.6,92.1,153.7,92.1,153.9,92.1z"/>
		<path id="XMLID_427_" d="M160.1,92L160.1,92c-0.3,0.3-0.6,0.5-1,0.5c-0.4,0-0.7-0.1-1-0.4c-0.2-0.3-0.4-0.7-0.4-1.2
			s0.1-0.9,0.4-1.2s0.6-0.4,1-0.4c0.4,0,0.8,0.2,1,0.5h0l0-0.2l0-0.2v-1.3h0.5v4.6h-0.4L160.1,92z M159.1,92.1
			c0.3,0,0.6-0.1,0.7-0.3c0.1-0.2,0.2-0.5,0.2-0.9v-0.1c0-0.5-0.1-0.8-0.2-1s-0.4-0.3-0.7-0.3c-0.3,0-0.5,0.1-0.7,0.3
			c-0.2,0.2-0.2,0.5-0.2,0.9c0,0.4,0.1,0.7,0.2,0.9S158.8,92.1,159.1,92.1z"/>
		<path id="XMLID_430_" d="M163,92.5c-0.5,0-0.8-0.1-1.1-0.4s-0.4-0.7-0.4-1.2c0-0.5,0.1-0.9,0.4-1.2c0.3-0.3,0.6-0.5,1-0.5
			c0.4,0,0.7,0.1,1,0.4c0.2,0.3,0.4,0.6,0.4,1v0.3h-2.2c0,0.4,0.1,0.7,0.3,0.9c0.2,0.2,0.4,0.3,0.8,0.3c0.3,0,0.7-0.1,1-0.2v0.4
			c-0.2,0.1-0.3,0.1-0.5,0.2C163.4,92.5,163.2,92.5,163,92.5z M162.8,89.6c-0.3,0-0.5,0.1-0.6,0.3s-0.2,0.4-0.3,0.7h1.7
			c0-0.3-0.1-0.5-0.2-0.7S163.1,89.6,162.8,89.6z"/>
		<path id="XMLID_433_" d="M165.4,92.5H165v-4.6h0.5V92.5z"/>
		<path id="XMLID_435_" d="M172.1,92.5v-2.1c0-0.3-0.1-0.4-0.2-0.6s-0.3-0.2-0.5-0.2c-0.3,0-0.5,0.1-0.7,0.3s-0.2,0.4-0.2,0.8v1.8
			h-0.5v-2.1c0-0.3-0.1-0.4-0.2-0.6s-0.3-0.2-0.5-0.2c-0.3,0-0.5,0.1-0.7,0.3c-0.1,0.2-0.2,0.5-0.2,0.9v1.7H168v-3.2h0.4l0.1,0.4h0
			c0.1-0.2,0.2-0.3,0.4-0.4c0.2-0.1,0.4-0.1,0.6-0.1c0.5,0,0.8,0.2,1,0.5h0c0.1-0.2,0.2-0.3,0.4-0.4s0.4-0.1,0.6-0.1
			c0.4,0,0.6,0.1,0.8,0.3c0.2,0.2,0.3,0.5,0.3,0.9v2.1H172.1z"/>
		<path id="XMLID_437_" d="M174.1,89.2v2.1c0,0.3,0.1,0.5,0.2,0.6s0.3,0.2,0.6,0.2c0.3,0,0.6-0.1,0.7-0.3c0.2-0.2,0.2-0.5,0.2-0.9
			v-1.7h0.5v3.2h-0.4l-0.1-0.4h0c-0.1,0.2-0.2,0.3-0.4,0.4s-0.4,0.1-0.6,0.1c-0.4,0-0.7-0.1-0.9-0.3s-0.3-0.5-0.3-0.9v-2.1H174.1z"
			/>
		<path id="XMLID_439_" d="M179.5,92.5v-2.1c0-0.3-0.1-0.5-0.2-0.6s-0.3-0.2-0.6-0.2c-0.3,0-0.6,0.1-0.7,0.3s-0.2,0.5-0.2,0.9v1.7
			h-0.5v-3.2h0.4l0.1,0.4h0c0.1-0.2,0.2-0.3,0.4-0.4s0.4-0.1,0.6-0.1c0.4,0,0.7,0.1,0.9,0.3c0.2,0.2,0.3,0.5,0.3,0.9v2.1H179.5z"/>
		<path id="XMLID_441_" d="M180.9,88.4c0-0.1,0-0.2,0.1-0.2c0.1-0.1,0.1-0.1,0.2-0.1c0.1,0,0.1,0,0.2,0.1s0.1,0.1,0.1,0.2
			s0,0.2-0.1,0.2s-0.1,0.1-0.2,0.1c-0.1,0-0.2,0-0.2-0.1S180.9,88.5,180.9,88.4z M181.5,92.5H181v-3.2h0.5V92.5z"/>
		<path id="XMLID_444_" d="M183.8,92.5c-0.5,0-0.8-0.1-1.1-0.4c-0.3-0.3-0.4-0.7-0.4-1.2c0-0.5,0.1-1,0.4-1.2s0.6-0.4,1.1-0.4
			c0.2,0,0.3,0,0.5,0s0.3,0.1,0.4,0.1l-0.1,0.4c-0.1,0-0.2-0.1-0.4-0.1c-0.1,0-0.2,0-0.3,0c-0.7,0-1,0.4-1,1.2
			c0,0.4,0.1,0.7,0.2,0.9c0.2,0.2,0.4,0.3,0.7,0.3c0.3,0,0.5-0.1,0.8-0.2v0.4C184.4,92.5,184.1,92.5,183.8,92.5z"/>
		<path id="XMLID_446_" d="M185.3,88.4c0-0.1,0-0.2,0.1-0.2c0.1-0.1,0.1-0.1,0.2-0.1c0.1,0,0.1,0,0.2,0.1s0.1,0.1,0.1,0.2
			s0,0.2-0.1,0.2s-0.1,0.1-0.2,0.1c-0.1,0-0.2,0-0.2-0.1S185.3,88.5,185.3,88.4z M185.8,92.5h-0.5v-3.2h0.5V92.5z"/>
		<path id="XMLID_449_" d="M188.4,92.5c-0.2,0-0.4,0-0.6-0.1c-0.2-0.1-0.3-0.2-0.4-0.4h0c0,0.2,0,0.4,0,0.5v1.3h-0.5v-4.7h0.4
			l0.1,0.4h0c0.1-0.2,0.3-0.3,0.4-0.4s0.4-0.1,0.6-0.1c0.4,0,0.8,0.1,1,0.4c0.2,0.3,0.3,0.7,0.3,1.2c0,0.5-0.1,0.9-0.4,1.2
			C189.1,92.4,188.8,92.5,188.4,92.5z M188.3,89.6c-0.3,0-0.6,0.1-0.7,0.3s-0.2,0.5-0.2,0.9v0.1c0,0.5,0.1,0.8,0.2,1
			c0.2,0.2,0.4,0.3,0.7,0.3c0.3,0,0.5-0.1,0.7-0.3c0.2-0.2,0.2-0.5,0.2-0.9c0-0.4-0.1-0.7-0.2-0.9C188.8,89.7,188.6,89.6,188.3,89.6
			z"/>
		<path id="XMLID_452_" d="M190.5,88.4c0-0.1,0-0.2,0.1-0.2c0.1-0.1,0.1-0.1,0.2-0.1c0.1,0,0.1,0,0.2,0.1s0.1,0.1,0.1,0.2
			s0,0.2-0.1,0.2s-0.1,0.1-0.2,0.1c-0.1,0-0.2,0-0.2-0.1S190.5,88.5,190.5,88.4z M191,92.5h-0.5v-3.2h0.5V92.5z"/>
		<path id="XMLID_455_" d="M195.8,92L195.8,92c-0.3,0.3-0.6,0.5-1,0.5c-0.4,0-0.7-0.1-1-0.4c-0.2-0.3-0.4-0.7-0.4-1.2
			s0.1-0.9,0.4-1.2s0.6-0.4,1-0.4c0.4,0,0.8,0.2,1,0.5h0l0-0.2l0-0.2v-1.3h0.5v4.6h-0.4L195.8,92z M194.8,92.1
			c0.3,0,0.6-0.1,0.7-0.3c0.1-0.2,0.2-0.5,0.2-0.9v-0.1c0-0.5-0.1-0.8-0.2-1s-0.4-0.3-0.7-0.3c-0.3,0-0.5,0.1-0.7,0.3
			c-0.2,0.2-0.2,0.5-0.2,0.9c0,0.4,0.1,0.7,0.2,0.9S194.6,92.1,194.8,92.1z"/>
		<path id="XMLID_458_" d="M198.7,92.5c-0.5,0-0.8-0.1-1.1-0.4s-0.4-0.7-0.4-1.2c0-0.5,0.1-0.9,0.4-1.2c0.3-0.3,0.6-0.5,1-0.5
			c0.4,0,0.7,0.1,1,0.4c0.2,0.3,0.4,0.6,0.4,1v0.3h-2.2c0,0.4,0.1,0.7,0.3,0.9c0.2,0.2,0.4,0.3,0.8,0.3c0.3,0,0.7-0.1,1-0.2v0.4
			c-0.2,0.1-0.3,0.1-0.5,0.2C199.1,92.5,198.9,92.5,198.7,92.5z M198.5,89.6c-0.3,0-0.5,0.1-0.6,0.3s-0.2,0.4-0.3,0.7h1.7
			c0-0.3-0.1-0.5-0.2-0.7S198.8,89.6,198.5,89.6z"/>
		<path id="XMLID_461_" d="M202.8,92.5h-0.5v-4.3h2.4v0.4h-1.9v1.6h1.8v0.4h-1.8V92.5z"/>
		<path id="XMLID_463_" d="M205.3,88.4c0-0.1,0-0.2,0.1-0.2c0.1-0.1,0.1-0.1,0.2-0.1c0.1,0,0.1,0,0.2,0.1s0.1,0.1,0.1,0.2
			s0,0.2-0.1,0.2s-0.1,0.1-0.2,0.1c-0.1,0-0.2,0-0.2-0.1S205.3,88.5,205.3,88.4z M205.8,92.5h-0.5v-3.2h0.5V92.5z"/>
		<path id="XMLID_466_" d="M209.5,89.2v0.3l-0.6,0.1c0.1,0.1,0.1,0.2,0.1,0.3s0.1,0.2,0.1,0.4c0,0.3-0.1,0.6-0.3,0.8
			s-0.5,0.3-0.9,0.3c-0.1,0-0.2,0-0.3,0c-0.2,0.1-0.3,0.2-0.3,0.4c0,0.1,0,0.2,0.1,0.2s0.2,0.1,0.4,0.1h0.6c0.3,0,0.6,0.1,0.8,0.2
			s0.3,0.4,0.3,0.6c0,0.4-0.1,0.6-0.4,0.8c-0.3,0.2-0.7,0.3-1.2,0.3c-0.4,0-0.7-0.1-1-0.2s-0.3-0.4-0.3-0.7c0-0.2,0.1-0.4,0.2-0.5
			s0.3-0.2,0.5-0.3c-0.1,0-0.2-0.1-0.2-0.2c-0.1-0.1-0.1-0.2-0.1-0.3c0-0.1,0-0.2,0.1-0.3s0.2-0.2,0.3-0.3c-0.2-0.1-0.3-0.2-0.4-0.3
			c-0.1-0.2-0.2-0.4-0.2-0.6c0-0.4,0.1-0.6,0.3-0.8c0.2-0.2,0.5-0.3,0.9-0.3c0.2,0,0.3,0,0.5,0.1H209.5z M206.9,93
			c0,0.2,0.1,0.3,0.2,0.4s0.4,0.1,0.6,0.1c0.4,0,0.7-0.1,0.9-0.2c0.2-0.1,0.3-0.3,0.3-0.5c0-0.2-0.1-0.3-0.2-0.4
			c-0.1-0.1-0.3-0.1-0.6-0.1h-0.6c-0.2,0-0.4,0.1-0.5,0.2S206.9,92.8,206.9,93z M207.2,90.3c0,0.2,0.1,0.4,0.2,0.5s0.3,0.2,0.5,0.2
			c0.5,0,0.7-0.2,0.7-0.7c0-0.5-0.2-0.7-0.7-0.7c-0.2,0-0.4,0.1-0.5,0.2S207.2,90,207.2,90.3z"/>
		<path id="XMLID_470_" d="M210.6,89.2v2.1c0,0.3,0.1,0.5,0.2,0.6s0.3,0.2,0.6,0.2c0.3,0,0.6-0.1,0.7-0.3c0.2-0.2,0.2-0.5,0.2-0.9
			v-1.7h0.5v3.2h-0.4l-0.1-0.4h0c-0.1,0.2-0.2,0.3-0.4,0.4s-0.4,0.1-0.6,0.1c-0.4,0-0.7-0.1-0.9-0.3s-0.3-0.5-0.3-0.9v-2.1H210.6z"
			/>
		<path id="XMLID_472_" d="M215.2,92.5c-0.5,0-0.8-0.1-1.1-0.4s-0.4-0.7-0.4-1.2c0-0.5,0.1-0.9,0.4-1.2c0.3-0.3,0.6-0.5,1-0.5
			c0.4,0,0.7,0.1,1,0.4c0.2,0.3,0.4,0.6,0.4,1v0.3h-2.2c0,0.4,0.1,0.7,0.3,0.9c0.2,0.2,0.4,0.3,0.8,0.3c0.3,0,0.7-0.1,1-0.2v0.4
			c-0.2,0.1-0.3,0.1-0.5,0.2C215.6,92.5,215.4,92.5,215.2,92.5z M215,89.6c-0.3,0-0.5,0.1-0.6,0.3s-0.2,0.4-0.3,0.7h1.7
			c0-0.3-0.1-0.5-0.2-0.7S215.3,89.6,215,89.6z"/>
		<path id="XMLID_475_" d="M218.6,89.2c0.1,0,0.3,0,0.4,0l-0.1,0.5c-0.1,0-0.3,0-0.4,0c-0.3,0-0.5,0.1-0.7,0.3
			c-0.2,0.2-0.3,0.5-0.3,0.8v1.7h-0.5v-3.2h0.4l0.1,0.6h0c0.1-0.2,0.3-0.4,0.4-0.5S218.4,89.2,218.6,89.2z"/>
		<path id="XMLID_477_" d="M221,92.5c-0.5,0-0.8-0.1-1.1-0.4s-0.4-0.7-0.4-1.2c0-0.5,0.1-0.9,0.4-1.2c0.3-0.3,0.6-0.5,1-0.5
			c0.4,0,0.7,0.1,1,0.4c0.2,0.3,0.4,0.6,0.4,1v0.3H220c0,0.4,0.1,0.7,0.3,0.9c0.2,0.2,0.4,0.3,0.8,0.3c0.3,0,0.7-0.1,1-0.2v0.4
			c-0.2,0.1-0.3,0.1-0.5,0.2C221.4,92.5,221.2,92.5,221,92.5z M220.9,89.6c-0.3,0-0.5,0.1-0.6,0.3s-0.2,0.4-0.3,0.7h1.7
			c0-0.3-0.1-0.5-0.2-0.7S221.1,89.6,220.9,89.6z"/>
		<path id="XMLID_480_" d="M225.1,91.6c0,0.3-0.1,0.5-0.3,0.7s-0.5,0.2-0.9,0.2c-0.4,0-0.8-0.1-1-0.2v-0.5c0.2,0.1,0.3,0.1,0.5,0.2
			c0.2,0,0.3,0.1,0.5,0.1c0.3,0,0.4,0,0.6-0.1c0.1-0.1,0.2-0.2,0.2-0.4c0-0.1-0.1-0.2-0.2-0.3c-0.1-0.1-0.3-0.2-0.6-0.3
			c-0.3-0.1-0.5-0.2-0.6-0.3c-0.1-0.1-0.2-0.2-0.3-0.3c-0.1-0.1-0.1-0.2-0.1-0.4c0-0.3,0.1-0.5,0.3-0.6c0.2-0.2,0.5-0.2,0.9-0.2
			c0.3,0,0.7,0.1,1,0.2l-0.2,0.4c-0.3-0.1-0.6-0.2-0.9-0.2c-0.2,0-0.4,0-0.5,0.1s-0.2,0.2-0.2,0.3c0,0.1,0,0.2,0.1,0.2
			c0,0.1,0.1,0.1,0.2,0.2s0.3,0.1,0.6,0.2c0.4,0.1,0.6,0.3,0.8,0.4C225,91.2,225.1,91.4,225.1,91.6z"/>
		<path id="XMLID_482_" d="M226.9,90.8c0,0.5-0.1,1-0.2,1.4c-0.2,0.4-0.4,0.8-0.7,1.2h-0.5c0.3-0.4,0.5-0.8,0.6-1.2
			c0.1-0.4,0.2-0.9,0.2-1.4c0-0.5-0.1-0.9-0.2-1.4s-0.4-0.9-0.6-1.2h0.5c0.3,0.3,0.5,0.7,0.7,1.2S226.9,90.3,226.9,90.8z"/>
	</g>
	<g id="XMLID_62_">
		<path id="XMLID_258_" d="M27.1,21.7H21v-3.3c5.6,0,10.4,0,16,0v3.3h-6.2v16.1h-3.7V21.7z"/>
		<path id="XMLID_260_" d="M55.4,21.7h-6.2v-3.3c5.6,0,10.4,0,16,0v3.3h-6.2v16.1h-3.7V21.7z"/>
		<path id="XMLID_262_" d="M84.7,37.8h-4.4l-5.7-6.5h-3.5v6.5h-3.7V18.4c3.1,0,6.2,0,9.2,0c4.6,0,7,3.1,7,6.4c0,2.7-1.2,5.4-4.9,6.1
			l5.9,6.6V37.8z M71.2,21.8V28h5.6c2.3,0,3.3-1.6,3.3-3.1c0-1.6-1-3.1-3.3-3.1H71.2z"/>
		<path id="XMLID_265_" d="M86.2,37.8V18.4h3.6v19.4H86.2z"/>
		<path id="XMLID_267_" d="M110.2,23.7l-6.3,8.4h-0.7L97,23.7v14.1h-3.7V18.4h4.2l6.1,8.4l6.1-8.4h4.2v19.4h-3.7V23.7z"/>
		<path id="XMLID_269_" d="M131.8,37.8h-14.5c0-6.5,0-13,0-19.4h14.5v3.6h-10.9v4.5h10.5v3.4h-10.5v4.4h10.9V37.8z"/>
		<path id="XMLID_271_" d="M147.2,23.1c-0.7-1.1-2.5-2.2-4.6-2.2c-2.7,0-4,1.1-4,2.6c0,1.7,2,2.2,4.3,2.4c4.1,0.5,7.8,1.6,7.8,6.2
			c0,4.3-3.8,6.2-8.2,6.2c-4,0-7-1.2-8.5-4.8l3.1-1.6c0.9,2.1,3.1,3.1,5.5,3.1c2.3,0,4.5-0.8,4.5-2.9c0-1.8-1.9-2.6-4.5-2.9
			c-4-0.5-7.6-1.5-7.6-5.9c0-4,3.9-5.6,7.5-5.7c3,0,6.2,0.9,7.6,3.9L147.2,23.1z"/>
		<path id="XMLID_273_" d="M158.6,21.7h-6.2v-3.3c5.6,0,10.4,0,16,0v3.3h-6.2v16.1h-3.7V21.7z"/>
		<path id="XMLID_275_" d="M187.9,37.8h-4.4l-5.7-6.5h-3.5v6.5h-3.7V18.4c3.1,0,6.2,0,9.2,0c4.6,0,7,3.1,7,6.4
			c0,2.7-1.2,5.4-4.9,6.1l5.9,6.6V37.8z M174.3,21.8V28h5.6c2.3,0,3.3-1.6,3.3-3.1c0-1.6-1-3.1-3.3-3.1H174.3z"/>
		<path id="XMLID_278_" d="M203.2,34.1H193l-1.7,3.7h-4l8.7-19.4h4l8.7,19.4h-4L203.2,34.1z M198.1,22.5l-3.6,8.3h7.2L198.1,22.5z"
			/>
		<path id="XMLID_281_" d="M214.4,18.4v16h10v3.4h-13.7V18.4H214.4z"/>
		<path id="XMLID_283_" d="M72.4,61.8H57.9c0-6.5,0-13,0-19.4h14.5v3.6H61.5v4.5H72v3.4H61.5v4.4h10.9V61.8z"/>
		<path id="XMLID_285_" d="M87.8,47.1c-0.7-1.1-2.5-2.2-4.6-2.2c-2.7,0-4,1.1-4,2.6c0,1.7,2,2.2,4.3,2.4c4.1,0.5,7.8,1.6,7.8,6.2
			c0,4.3-3.8,6.2-8.2,6.2c-4,0-7-1.2-8.5-4.8l3.1-1.6c0.9,2.1,3.1,3.1,5.5,3.1c2.3,0,4.5-0.8,4.5-2.9c0-1.8-1.9-2.6-4.5-2.9
			c-4-0.5-7.6-1.5-7.6-5.9c0-4,3.9-5.6,7.5-5.7c3,0,6.2,0.9,7.6,3.9L87.8,47.1z"/>
		<path id="XMLID_287_" d="M111.3,59.4c-2,2-4.6,2.9-7.4,2.9c-7.2,0-10.3-5-10.3-10c0-5.1,3.3-10.2,10.3-10.2c2.6,0,5.1,1,7.1,3
			l-2.4,2.4c-1.3-1.2-3-1.8-4.7-1.8c-4.7,0-6.7,3.5-6.7,6.7c0,3.2,1.9,6.6,6.7,6.6c1.7,0,3.6-0.7,4.9-2L111.3,59.4z"/>
		<path id="XMLID_289_" d="M132.4,52.2c-0.1,5-3.1,10-10,10c-6.8,0-10-4.9-10-10c0-5.1,3.3-10.2,10-10.2
			C129.2,42,132.5,47.1,132.4,52.2z M116.1,52.3c0.1,3.2,1.8,6.6,6.4,6.6c4.6,0,6.3-3.4,6.4-6.6c0.1-3.3-1.8-6.9-6.4-6.9
			C117.9,45.3,116,49,116.1,52.3z"/>
		<path id="XMLID_292_" d="M138.8,42.4v16h10v3.4h-13.7V42.4H138.8z"/>
		<path id="XMLID_294_" d="M165.2,58.1H155l-1.7,3.7h-4l8.7-19.4h4l8.7,19.4h-4L165.2,58.1z M160.1,46.5l-3.6,8.3h7.2L160.1,46.5z"
			/>
		<path id="XMLID_297_" d="M189.7,61.8h-4.4l-5.7-6.5h-3.5v6.5h-3.7V42.4c3.1,0,6.2,0,9.2,0c4.6,0,7,3.1,7,6.4
			c0,2.7-1.2,5.4-4.9,6.1l5.9,6.6V61.8z M176.1,45.8V52h5.6c2.3,0,3.3-1.6,3.3-3.1c0-1.6-1-3.1-3.3-3.1H176.1z"/>
	</g>
	<g id="XMLID_75_">
		<circle id="XMLID_73_" cx="48.1" cy="129.1" r="4.1"/>
		<rect id="XMLID_72_" x="31.6" y="133.7" width="8" height="3.3"/>
		<rect id="XMLID_71_" x="33.7" y="135.4" width="3.7" height="9"/>
		<rect id="XMLID_70_" x="57.2" y="133.7" width="3.7" height="10.6"/>
		<rect id="XMLID_69_" x="57.2" y="133.7" width="7" height="2.9"/>
		<rect id="XMLID_68_" x="57.2" y="137.9" width="6.6" height="2.7"/>
		<g id="XMLID_76_">
			<path id="XMLID_67_" d="M45.2,144.4h1.2h2.8h1.2l0.5-3.5c-1-0.4-2-0.6-3.1-0.6c-1.1,0-2.1,0.2-3,0.5L45.2,144.4z"/>
			<path id="XMLID_66_" d="M44.5,140.9c-1.7,0.7-3.1,1.9-4.1,3.4h3.9L44.5,140.9z"/>
			<path id="XMLID_65_" d="M51.2,141l0.2,3.4h3.8C54.3,142.9,52.9,141.7,51.2,141z"/>
			<path id="XMLID_64_" d="M47.5,138.6l-1.1-3.7c-1.4,0-2.1-1.1-2.1-1.1h-2l-1.8,8l0,0.1C42.1,139.9,44.6,138.7,47.5,138.6z"/>
			<path id="XMLID_63_" d="M55.3,142l0-0.2l-1.8-8h-2c0,0-0.7,1.1-2.1,1.1l-1.1,3.7C51,138.7,53.6,140,55.3,142z"/>
		</g>
	</g>
	<g id="XMLID_74_">
		<path id="XMLID_77_" d="M18.8,149.1h-0.5V147h-0.7v-0.5h1.9v0.5h-0.7V149.1z"/>
		<path id="XMLID_186_" d="M20.9,147.1c0.1,0,0.1,0,0.2,0l0,0.5c0,0-0.1,0-0.2,0c-0.2,0-0.3,0-0.4,0.1c-0.1,0.1-0.1,0.2-0.1,0.4v1
			h-0.5v-2h0.4l0.1,0.3h0c0.1-0.1,0.1-0.2,0.2-0.3C20.7,147.1,20.8,147.1,20.9,147.1z"/>
		<path id="XMLID_188_" d="M22.7,149.1l-0.1-0.3h0c-0.1,0.1-0.2,0.2-0.3,0.2c-0.1,0-0.2,0.1-0.4,0.1c-0.2,0-0.3-0.1-0.4-0.2
			s-0.2-0.3-0.2-0.5c0-0.2,0.1-0.4,0.2-0.5c0.1-0.1,0.4-0.2,0.7-0.2l0.3,0v-0.1c0-0.2-0.1-0.3-0.3-0.3c-0.2,0-0.3,0-0.6,0.1
			l-0.2-0.4c0.2-0.1,0.5-0.2,0.7-0.2c0.3,0,0.5,0.1,0.6,0.2s0.2,0.3,0.2,0.5v1.3H22.7z M22.6,148.2l-0.2,0c-0.2,0-0.3,0-0.3,0.1
			c-0.1,0.1-0.1,0.1-0.1,0.2c0,0.2,0.1,0.2,0.3,0.2c0.1,0,0.2,0,0.3-0.1s0.1-0.2,0.1-0.3V148.2z"/>
		<path id="XMLID_191_" d="M25.4,149.1h-0.5V148c0-0.1,0-0.2-0.1-0.3s-0.1-0.1-0.2-0.1c-0.1,0-0.3,0-0.3,0.1
			c-0.1,0.1-0.1,0.3-0.1,0.5v0.9h-0.5v-2H24l0.1,0.3h0c0.1-0.1,0.1-0.2,0.2-0.2c0.1,0,0.2-0.1,0.4-0.1c0.2,0,0.4,0.1,0.5,0.2
			c0.1,0.1,0.2,0.3,0.2,0.5V149.1z"/>
		<path id="XMLID_193_" d="M27.4,148.5c0,0.2-0.1,0.4-0.2,0.5c-0.1,0.1-0.3,0.2-0.6,0.2c-0.1,0-0.3,0-0.4,0c-0.1,0-0.2,0-0.3-0.1
			v-0.4c0.1,0,0.2,0.1,0.3,0.1c0.1,0,0.2,0,0.3,0c0.2,0,0.3-0.1,0.3-0.2c0,0,0-0.1,0-0.1c0,0-0.1-0.1-0.1-0.1s-0.1-0.1-0.3-0.1
			c-0.2-0.1-0.3-0.1-0.3-0.2s-0.1-0.1-0.2-0.2c0-0.1,0-0.2,0-0.3c0-0.2,0.1-0.3,0.2-0.4c0.1-0.1,0.3-0.1,0.6-0.1
			c0.2,0,0.5,0.1,0.7,0.2l-0.2,0.4c-0.1,0-0.2-0.1-0.3-0.1c-0.1,0-0.2,0-0.3,0c-0.2,0-0.2,0-0.2,0.1c0,0,0,0.1,0.1,0.1
			c0.1,0,0.2,0.1,0.3,0.2c0.2,0.1,0.3,0.1,0.3,0.2c0.1,0.1,0.1,0.1,0.2,0.2C27.3,148.3,27.4,148.4,27.4,148.5z"/>
		<path id="XMLID_195_" d="M28.8,149.1c-0.2,0-0.4-0.1-0.5-0.3h0c0,0.2,0,0.3,0,0.3v0.8h-0.5v-2.8h0.4l0.1,0.3h0
			c0.1-0.2,0.3-0.3,0.6-0.3c0.2,0,0.4,0.1,0.5,0.3c0.1,0.2,0.2,0.4,0.2,0.7c0,0.2,0,0.4-0.1,0.5c-0.1,0.2-0.1,0.3-0.3,0.4
			C29.1,149.1,29,149.1,28.8,149.1z M28.7,147.5c-0.1,0-0.2,0-0.3,0.1c-0.1,0.1-0.1,0.2-0.1,0.4v0.1c0,0.2,0,0.4,0.1,0.5
			s0.2,0.1,0.3,0.1c0.2,0,0.4-0.2,0.4-0.6c0-0.2,0-0.3-0.1-0.4C28.9,147.6,28.8,147.5,28.7,147.5z"/>
		<path id="XMLID_198_" d="M31.8,148.1c0,0.3-0.1,0.6-0.3,0.7s-0.4,0.3-0.7,0.3c-0.2,0-0.4,0-0.5-0.1c-0.1-0.1-0.3-0.2-0.3-0.4
			c-0.1-0.2-0.1-0.3-0.1-0.5c0-0.3,0.1-0.6,0.3-0.7c0.2-0.2,0.4-0.3,0.7-0.3c0.2,0,0.4,0,0.5,0.1c0.1,0.1,0.3,0.2,0.3,0.4
			C31.8,147.7,31.8,147.9,31.8,148.1z M30.5,148.1c0,0.2,0,0.3,0.1,0.4c0.1,0.1,0.2,0.1,0.3,0.1c0.1,0,0.2,0,0.3-0.1
			s0.1-0.2,0.1-0.4c0-0.2,0-0.3-0.1-0.4s-0.2-0.1-0.3-0.1c-0.1,0-0.2,0-0.3,0.1C30.5,147.8,30.5,147.9,30.5,148.1z"/>
		<path id="XMLID_201_" d="M33.4,147.1c0.1,0,0.1,0,0.2,0l0,0.5c0,0-0.1,0-0.2,0c-0.2,0-0.3,0-0.4,0.1c-0.1,0.1-0.1,0.2-0.1,0.4v1
			h-0.5v-2h0.4l0.1,0.3h0c0.1-0.1,0.1-0.2,0.2-0.3C33.1,147.1,33.2,147.1,33.4,147.1z"/>
		<path id="XMLID_203_" d="M34.7,148.7c0.1,0,0.2,0,0.3-0.1v0.4c-0.1,0.1-0.3,0.1-0.5,0.1c-0.2,0-0.4-0.1-0.5-0.2
			c-0.1-0.1-0.1-0.3-0.1-0.5v-0.9h-0.3v-0.2l0.3-0.2l0.2-0.4h0.3v0.4H35v0.4h-0.5v0.9c0,0.1,0,0.1,0.1,0.2
			C34.6,148.7,34.6,148.7,34.7,148.7z"/>
		<path id="XMLID_205_" d="M36.8,148.5c0,0.2-0.1,0.4-0.2,0.5c-0.1,0.1-0.3,0.2-0.6,0.2c-0.1,0-0.3,0-0.4,0c-0.1,0-0.2,0-0.3-0.1
			v-0.4c0.1,0,0.2,0.1,0.3,0.1c0.1,0,0.2,0,0.3,0c0.2,0,0.3-0.1,0.3-0.2c0,0,0-0.1,0-0.1c0,0-0.1-0.1-0.1-0.1s-0.1-0.1-0.3-0.1
			c-0.2-0.1-0.3-0.1-0.3-0.2s-0.1-0.1-0.2-0.2c0-0.1,0-0.2,0-0.3c0-0.2,0.1-0.3,0.2-0.4c0.1-0.1,0.3-0.1,0.6-0.1
			c0.2,0,0.5,0.1,0.7,0.2l-0.2,0.4c-0.1,0-0.2-0.1-0.3-0.1c-0.1,0-0.2,0-0.3,0c-0.2,0-0.2,0-0.2,0.1c0,0,0,0.1,0.1,0.1
			c0.1,0,0.2,0.1,0.3,0.2c0.2,0.1,0.3,0.1,0.3,0.2c0.1,0.1,0.1,0.1,0.2,0.2C36.8,148.3,36.8,148.4,36.8,148.5z"/>
		<path id="XMLID_207_" d="M39.3,149.1l-0.6-2h0c0,0.4,0,0.7,0,0.8v1.2h-0.5v-2.6h0.7l0.6,2h0l0.6-2h0.7v2.6h-0.5v-1.2
			c0-0.1,0-0.1,0-0.2c0-0.1,0-0.3,0-0.6h0l-0.7,2H39.3z"/>
		<path id="XMLID_209_" d="M42.9,149.1l-0.1-0.3h0c-0.1,0.1-0.1,0.2-0.2,0.2c-0.1,0-0.2,0.1-0.4,0.1c-0.2,0-0.4-0.1-0.5-0.2
			s-0.2-0.3-0.2-0.5v-1.3h0.5v1.1c0,0.1,0,0.2,0.1,0.3c0.1,0.1,0.1,0.1,0.2,0.1c0.1,0,0.3,0,0.3-0.1c0.1-0.1,0.1-0.3,0.1-0.5v-0.9
			h0.5v2H42.9z"/>
		<path id="XMLID_211_" d="M45.7,149.1h-0.5V148c0-0.1,0-0.2-0.1-0.3s-0.1-0.1-0.2-0.1c-0.1,0-0.3,0-0.3,0.1
			c-0.1,0.1-0.1,0.3-0.1,0.5v0.9h-0.5v-2h0.4l0.1,0.3h0c0.1-0.1,0.1-0.2,0.2-0.2c0.1,0,0.2-0.1,0.4-0.1c0.2,0,0.4,0.1,0.5,0.2
			c0.1,0.1,0.2,0.3,0.2,0.5V149.1z"/>
		<path id="XMLID_213_" d="M46.2,146.6c0-0.2,0.1-0.3,0.3-0.3s0.3,0.1,0.3,0.3c0,0.1,0,0.1-0.1,0.2c0,0-0.1,0.1-0.2,0.1
			C46.3,146.9,46.2,146.8,46.2,146.6z M46.8,149.1h-0.5v-2h0.5V149.1z"/>
		<path id="XMLID_216_" d="M48.1,149.1c-0.6,0-0.9-0.3-0.9-1c0-0.3,0.1-0.6,0.2-0.8s0.4-0.3,0.7-0.3c0.2,0,0.4,0,0.6,0.1l-0.2,0.4
			c-0.1,0-0.2-0.1-0.2-0.1s-0.1,0-0.2,0c-0.3,0-0.4,0.2-0.4,0.6c0,0.4,0.1,0.6,0.4,0.6c0.1,0,0.2,0,0.3,0c0.1,0,0.2-0.1,0.3-0.1v0.5
			c-0.1,0.1-0.2,0.1-0.3,0.1C48.4,149.1,48.3,149.1,48.1,149.1z"/>
		<path id="XMLID_218_" d="M49.2,146.6c0-0.2,0.1-0.3,0.3-0.3s0.3,0.1,0.3,0.3c0,0.1,0,0.1-0.1,0.2c0,0-0.1,0.1-0.2,0.1
			C49.3,146.9,49.2,146.8,49.2,146.6z M49.7,149.1h-0.5v-2h0.5V149.1z"/>
		<path id="XMLID_221_" d="M51.4,149.1c-0.2,0-0.4-0.1-0.5-0.3h0c0,0.2,0,0.3,0,0.3v0.8h-0.5v-2.8h0.4l0.1,0.3h0
			c0.1-0.2,0.3-0.3,0.6-0.3c0.2,0,0.4,0.1,0.5,0.3c0.1,0.2,0.2,0.4,0.2,0.7c0,0.2,0,0.4-0.1,0.5c-0.1,0.2-0.1,0.3-0.3,0.4
			C51.6,149.1,51.5,149.1,51.4,149.1z M51.2,147.5c-0.1,0-0.2,0-0.3,0.1c-0.1,0.1-0.1,0.2-0.1,0.4v0.1c0,0.2,0,0.4,0.1,0.5
			s0.2,0.1,0.3,0.1c0.2,0,0.4-0.2,0.4-0.6c0-0.2,0-0.3-0.1-0.4C51.4,147.6,51.3,147.5,51.2,147.5z"/>
		<path id="XMLID_224_" d="M53.8,149.1l-0.1-0.3h0c-0.1,0.1-0.2,0.2-0.3,0.2c-0.1,0-0.2,0.1-0.4,0.1c-0.2,0-0.3-0.1-0.4-0.2
			s-0.2-0.3-0.2-0.5c0-0.2,0.1-0.4,0.2-0.5c0.1-0.1,0.4-0.2,0.7-0.2l0.3,0v-0.1c0-0.2-0.1-0.3-0.3-0.3c-0.2,0-0.3,0-0.6,0.1
			l-0.2-0.4c0.2-0.1,0.5-0.2,0.7-0.2c0.3,0,0.5,0.1,0.6,0.2s0.2,0.3,0.2,0.5v1.3H53.8z M53.6,148.2l-0.2,0c-0.2,0-0.3,0-0.3,0.1
			c-0.1,0.1-0.1,0.1-0.1,0.2c0,0.2,0.1,0.2,0.3,0.2c0.1,0,0.2,0,0.3-0.1s0.1-0.2,0.1-0.3V148.2z"/>
		<path id="XMLID_227_" d="M55.3,149.1h-0.5v-2.7h0.5V149.1z"/>
		<path id="XMLID_229_" d="M57.2,148.5c0,0.2-0.1,0.4-0.2,0.5c-0.1,0.1-0.3,0.2-0.6,0.2c-0.1,0-0.3,0-0.4,0c-0.1,0-0.2,0-0.3-0.1
			v-0.4c0.1,0,0.2,0.1,0.3,0.1c0.1,0,0.2,0,0.3,0c0.2,0,0.3-0.1,0.3-0.2c0,0,0-0.1,0-0.1c0,0-0.1-0.1-0.1-0.1s-0.1-0.1-0.3-0.1
			c-0.2-0.1-0.3-0.1-0.3-0.2s-0.1-0.1-0.2-0.2c0-0.1,0-0.2,0-0.3c0-0.2,0.1-0.3,0.2-0.4c0.1-0.1,0.3-0.1,0.6-0.1
			c0.2,0,0.5,0.1,0.7,0.2l-0.2,0.4c-0.1,0-0.2-0.1-0.3-0.1c-0.1,0-0.2,0-0.3,0c-0.2,0-0.2,0-0.2,0.1c0,0,0,0.1,0.1,0.1
			c0.1,0,0.2,0.1,0.3,0.2c0.2,0.1,0.3,0.1,0.3,0.2c0.1,0.1,0.1,0.1,0.2,0.2C57.2,148.3,57.2,148.4,57.2,148.5z"/>
		<path id="XMLID_231_" d="M59.1,149.1c-0.2,0-0.4-0.1-0.5-0.3c-0.1-0.2-0.2-0.4-0.2-0.7c0-0.3,0.1-0.6,0.2-0.8
			c0.1-0.2,0.3-0.3,0.6-0.3c0.2,0,0.4,0.1,0.6,0.3h0c0-0.1,0-0.3,0-0.4v-0.6h0.5v2.7h-0.4l-0.1-0.3h0
			C59.6,149,59.4,149.1,59.1,149.1z M59.3,148.7c0.1,0,0.2,0,0.3-0.1c0.1-0.1,0.1-0.2,0.1-0.4v-0.1c0-0.2,0-0.4-0.1-0.5
			c-0.1-0.1-0.2-0.1-0.3-0.1c-0.1,0-0.2,0-0.3,0.2c-0.1,0.1-0.1,0.2-0.1,0.4c0,0.2,0,0.3,0.1,0.4C59.1,148.7,59.2,148.7,59.3,148.7z
			"/>
		<path id="XMLID_234_" d="M61.7,149.1c-0.3,0-0.6-0.1-0.7-0.3c-0.2-0.2-0.3-0.4-0.3-0.7c0-0.3,0.1-0.6,0.2-0.8
			c0.2-0.2,0.4-0.3,0.7-0.3c0.3,0,0.5,0.1,0.6,0.2c0.2,0.2,0.2,0.4,0.2,0.7v0.3h-1.3c0,0.2,0.1,0.3,0.1,0.4s0.2,0.1,0.4,0.1
			c0.1,0,0.2,0,0.3,0s0.2-0.1,0.3-0.1v0.4c-0.1,0-0.2,0.1-0.3,0.1C62,149.1,61.8,149.1,61.7,149.1z M61.6,147.5
			c-0.1,0-0.2,0-0.3,0.1c-0.1,0.1-0.1,0.2-0.1,0.3H62c0-0.1,0-0.2-0.1-0.3C61.8,147.5,61.7,147.5,61.6,147.5z"/>
		<path id="XMLID_237_" d="M64.4,149.1h-0.5v-2.6h1.5v0.4h-0.9v0.7h0.9v0.4h-0.9V149.1z"/>
		<path id="XMLID_239_" d="M65.8,146.6c0-0.2,0.1-0.3,0.3-0.3s0.3,0.1,0.3,0.3c0,0.1,0,0.1-0.1,0.2c0,0-0.1,0.1-0.2,0.1
			C65.9,146.9,65.8,146.8,65.8,146.6z M66.3,149.1h-0.5v-2h0.5V149.1z"/>
		<path id="XMLID_242_" d="M68.6,147.1v0.3l-0.3,0.1c0.1,0.1,0.1,0.2,0.1,0.3c0,0.2-0.1,0.4-0.2,0.5s-0.4,0.2-0.6,0.2l-0.1,0l-0.1,0
			c-0.1,0-0.1,0.1-0.1,0.1c0,0.1,0.1,0.1,0.3,0.1h0.3c0.2,0,0.4,0,0.5,0.1c0.1,0.1,0.2,0.2,0.2,0.4c0,0.2-0.1,0.4-0.3,0.5
			c-0.2,0.1-0.5,0.2-0.8,0.2c-0.3,0-0.5,0-0.6-0.1c-0.1-0.1-0.2-0.2-0.2-0.4c0-0.1,0-0.2,0.1-0.3c0.1-0.1,0.2-0.1,0.3-0.2
			c-0.1,0-0.1-0.1-0.1-0.1c0-0.1-0.1-0.1-0.1-0.2c0-0.1,0-0.1,0.1-0.2c0,0,0.1-0.1,0.2-0.1c-0.1,0-0.2-0.1-0.2-0.2
			c-0.1-0.1-0.1-0.2-0.1-0.3c0-0.2,0.1-0.4,0.2-0.5c0.1-0.1,0.3-0.2,0.6-0.2c0.1,0,0.1,0,0.2,0c0.1,0,0.1,0,0.1,0H68.6z M67.1,149.4
			c0,0.1,0,0.1,0.1,0.2s0.2,0.1,0.3,0.1c0.2,0,0.3,0,0.4-0.1c0.1-0.1,0.2-0.1,0.2-0.2c0-0.1,0-0.1-0.1-0.2c-0.1,0-0.2,0-0.3,0h-0.3
			c-0.1,0-0.2,0-0.2,0.1S67.1,149.3,67.1,149.4z M67.3,147.8c0,0.1,0,0.2,0.1,0.3s0.1,0.1,0.2,0.1c0.1,0,0.2,0,0.2-0.1
			s0.1-0.1,0.1-0.3c0-0.2-0.1-0.4-0.3-0.4C67.4,147.4,67.3,147.6,67.3,147.8z"/>
		<path id="XMLID_246_" d="M70.3,149.1l-0.1-0.3h0c-0.1,0.1-0.1,0.2-0.2,0.2c-0.1,0-0.2,0.1-0.4,0.1c-0.2,0-0.4-0.1-0.5-0.2
			s-0.2-0.3-0.2-0.5v-1.3h0.5v1.1c0,0.1,0,0.2,0.1,0.3c0.1,0.1,0.1,0.1,0.2,0.1c0.1,0,0.3,0,0.3-0.1c0.1-0.1,0.1-0.3,0.1-0.5v-0.9
			h0.5v2H70.3z"/>
		<path id="XMLID_248_" d="M72.2,149.1c-0.3,0-0.6-0.1-0.7-0.3c-0.2-0.2-0.3-0.4-0.3-0.7c0-0.3,0.1-0.6,0.2-0.8
			c0.2-0.2,0.4-0.3,0.7-0.3c0.3,0,0.5,0.1,0.6,0.2c0.2,0.2,0.2,0.4,0.2,0.7v0.3h-1.3c0,0.2,0.1,0.3,0.1,0.4s0.2,0.1,0.4,0.1
			c0.1,0,0.2,0,0.3,0s0.2-0.1,0.3-0.1v0.4c-0.1,0-0.2,0.1-0.3,0.1C72.5,149.1,72.3,149.1,72.2,149.1z M72.1,147.5
			c-0.1,0-0.2,0-0.3,0.1c-0.1,0.1-0.1,0.2-0.1,0.3h0.7c0-0.1,0-0.2-0.1-0.3C72.3,147.5,72.2,147.5,72.1,147.5z"/>
		<path id="XMLID_251_" d="M74.5,147.1c0.1,0,0.1,0,0.2,0l0,0.5c0,0-0.1,0-0.2,0c-0.2,0-0.3,0-0.4,0.1c-0.1,0.1-0.1,0.2-0.1,0.4v1
			h-0.5v-2h0.4l0.1,0.3h0c0.1-0.1,0.1-0.2,0.2-0.3C74.3,147.1,74.4,147.1,74.5,147.1z"/>
		<path id="XMLID_253_" d="M75.9,149.1c-0.3,0-0.6-0.1-0.7-0.3c-0.2-0.2-0.3-0.4-0.3-0.7c0-0.3,0.1-0.6,0.2-0.8
			c0.2-0.2,0.4-0.3,0.7-0.3c0.3,0,0.5,0.1,0.6,0.2c0.2,0.2,0.2,0.4,0.2,0.7v0.3h-1.3c0,0.2,0.1,0.3,0.1,0.4s0.2,0.1,0.4,0.1
			c0.1,0,0.2,0,0.3,0s0.2-0.1,0.3-0.1v0.4c-0.1,0-0.2,0.1-0.3,0.1C76.2,149.1,76.1,149.1,75.9,149.1z M75.8,147.5
			c-0.1,0-0.2,0-0.3,0.1c-0.1,0.1-0.1,0.2-0.1,0.3h0.7c0-0.1,0-0.2-0.1-0.3C76,147.5,76,147.5,75.8,147.5z"/>
		<path id="XMLID_256_" d="M78.5,148.5c0,0.2-0.1,0.4-0.2,0.5c-0.1,0.1-0.3,0.2-0.6,0.2c-0.1,0-0.3,0-0.4,0c-0.1,0-0.2,0-0.3-0.1
			v-0.4c0.1,0,0.2,0.1,0.3,0.1c0.1,0,0.2,0,0.3,0c0.2,0,0.3-0.1,0.3-0.2c0,0,0-0.1,0-0.1c0,0-0.1-0.1-0.1-0.1s-0.1-0.1-0.3-0.1
			c-0.2-0.1-0.3-0.1-0.3-0.2s-0.1-0.1-0.2-0.2c0-0.1,0-0.2,0-0.3c0-0.2,0.1-0.3,0.2-0.4c0.1-0.1,0.3-0.1,0.6-0.1
			c0.2,0,0.5,0.1,0.7,0.2l-0.2,0.4c-0.1,0-0.2-0.1-0.3-0.1c-0.1,0-0.2,0-0.3,0c-0.2,0-0.2,0-0.2,0.1c0,0,0,0.1,0.1,0.1
			c0.1,0,0.2,0.1,0.3,0.2c0.2,0.1,0.3,0.1,0.3,0.2c0.1,0.1,0.1,0.1,0.2,0.2C78.5,148.3,78.5,148.4,78.5,148.5z"/>
	</g>
	<g id="XMLID_78_">
		<rect id="XMLID_184_" x="101" y="3" class="st5" width="172" height="12.5"/>
		<path id="XMLID_136_" class="st6" d="M145.5,8.3h-1.3V4.4H143V3.3h3.8v1.1h-1.2V8.3z"/>
		<path id="XMLID_138_" class="st6" d="M150.5,8.3l-0.2-0.9h-1.6l-0.3,0.9h-1.5l1.6-5h1.8l1.7,5H150.5z M150,6.3l-0.2-0.8
			c0-0.2-0.1-0.4-0.2-0.7c-0.1-0.3-0.1-0.5-0.1-0.6c0,0.1-0.1,0.3-0.1,0.6s-0.2,0.8-0.4,1.6H150z"/>
		<path id="XMLID_141_" class="st6" d="M153.9,6.5v1.8h-1.4v-5h1.6c1.4,0,2,0.5,2,1.5c0,0.6-0.3,1-0.8,1.3l1.5,2.2h-1.5l-1.1-1.8
			H153.9z M153.9,5.5h0.3c0.5,0,0.7-0.2,0.7-0.6c0-0.3-0.2-0.5-0.7-0.5h-0.3V5.5z"/>
		<path id="XMLID_144_" class="st6" d="M159.3,5.4h2.2v2.7c-0.6,0.2-1.2,0.3-1.9,0.3c-0.8,0-1.4-0.2-1.8-0.7
			c-0.4-0.4-0.6-1.1-0.6-1.9c0-0.8,0.2-1.4,0.7-1.9s1.1-0.7,1.9-0.7c0.3,0,0.6,0,0.9,0.1s0.5,0.1,0.7,0.2l-0.4,1.1
			c-0.4-0.2-0.8-0.3-1.2-0.3c-0.4,0-0.7,0.1-0.9,0.4c-0.2,0.3-0.3,0.6-0.3,1.1c0,0.5,0.1,0.8,0.3,1.1c0.2,0.2,0.5,0.4,0.8,0.4
			c0.2,0,0.4,0,0.6-0.1V6.4h-0.9V5.4z"/>
		<path id="XMLID_146_" class="st6" d="M165.4,8.3h-3v-5h3v1.1h-1.6v0.8h1.5v1.1h-1.5v0.9h1.6V8.3z"/>
		<path id="XMLID_148_" class="st6" d="M168.5,8.3h-1.3V4.4h-1.2V3.3h3.8v1.1h-1.2V8.3z"/>
		<path id="XMLID_150_" class="st6" d="M173.5,8.3l-0.2-0.9h-1.6l-0.3,0.9h-1.5l1.6-5h1.8l1.7,5H173.5z M173,6.3l-0.2-0.8
			c0-0.2-0.1-0.4-0.2-0.7c-0.1-0.3-0.1-0.5-0.1-0.6c0,0.1-0.1,0.3-0.1,0.6s-0.2,0.8-0.4,1.6H173z"/>
		<path id="XMLID_153_" class="st6" d="M178.7,6.5v1.8h-1.4v-5h1.6c1.4,0,2,0.5,2,1.5c0,0.6-0.3,1-0.8,1.3l1.5,2.2h-1.5L179,6.5
			H178.7z M178.7,5.5h0.3c0.5,0,0.7-0.2,0.7-0.6c0-0.3-0.2-0.5-0.7-0.5h-0.3V5.5z"/>
		<path id="XMLID_156_" class="st6" d="M185,8.3h-3v-5h3v1.1h-1.6v0.8h1.5v1.1h-1.5v0.9h1.6V8.3z"/>
		<path id="XMLID_158_" class="st6" d="M188.1,4.4c-0.3,0-0.6,0.1-0.8,0.4c-0.2,0.3-0.3,0.6-0.3,1.1c0,1,0.4,1.4,1.1,1.4
			c0.2,0,0.4,0,0.6-0.1c0.2-0.1,0.4-0.1,0.6-0.2v1.1c-0.4,0.2-0.9,0.3-1.4,0.3c-0.8,0-1.3-0.2-1.7-0.7s-0.6-1.1-0.6-1.9
			c0-0.5,0.1-1,0.3-1.4c0.2-0.4,0.5-0.7,0.8-0.9c0.4-0.2,0.8-0.3,1.3-0.3c0.5,0,1.1,0.1,1.5,0.4l-0.4,1.1c-0.2-0.1-0.4-0.2-0.6-0.2
			C188.6,4.4,188.4,4.4,188.1,4.4z"/>
		<path id="XMLID_160_" class="st6" d="M193.5,8.3l-0.2-0.9h-1.6l-0.3,0.9h-1.5l1.6-5h1.8l1.7,5H193.5z M193,6.3l-0.2-0.8
			c0-0.2-0.1-0.4-0.2-0.7c-0.1-0.3-0.1-0.5-0.1-0.6c0,0.1-0.1,0.3-0.1,0.6s-0.2,0.8-0.4,1.6H193z"/>
		<path id="XMLID_163_" class="st6" d="M196.9,6.5v1.8h-1.4v-5h1.6c1.4,0,2,0.5,2,1.5c0,0.6-0.3,1-0.8,1.3l1.5,2.2h-1.5l-1.1-1.8
			H196.9z M196.9,5.5h0.3c0.5,0,0.7-0.2,0.7-0.6c0-0.3-0.2-0.5-0.7-0.5h-0.3V5.5z"/>
		<path id="XMLID_166_" class="st6" d="M201.6,6.5v1.8h-1.4v-5h1.6c1.4,0,2,0.5,2,1.5c0,0.6-0.3,1-0.8,1.3l1.5,2.2H203L202,6.5
			H201.6z M201.6,5.5h0.3c0.5,0,0.7-0.2,0.7-0.6c0-0.3-0.2-0.5-0.7-0.5h-0.3V5.5z"/>
		<path id="XMLID_169_" class="st6" d="M208,8.3h-3v-5h3v1.1h-1.6v0.8h1.5v1.1h-1.5v0.9h1.6V8.3z"/>
		<path id="XMLID_171_" class="st6" d="M210.9,5.4h2.2v2.7c-0.6,0.2-1.2,0.3-1.9,0.3c-0.8,0-1.4-0.2-1.8-0.7
			c-0.4-0.4-0.6-1.1-0.6-1.9c0-0.8,0.2-1.4,0.7-1.9s1.1-0.7,1.9-0.7c0.3,0,0.6,0,0.9,0.1s0.5,0.1,0.7,0.2l-0.4,1.1
			c-0.4-0.2-0.8-0.3-1.2-0.3c-0.4,0-0.7,0.1-0.9,0.4c-0.2,0.3-0.3,0.6-0.3,1.1c0,0.5,0.1,0.8,0.3,1.1c0.2,0.2,0.5,0.4,0.8,0.4
			c0.2,0,0.4,0,0.6-0.1V6.4h-0.9V5.4z"/>
		<path id="XMLID_173_" class="st6" d="M217.1,8.3l-0.2-0.9h-1.6L215,8.3h-1.5l1.6-5h1.8l1.7,5H217.1z M216.6,6.3l-0.2-0.8
			c0-0.2-0.1-0.4-0.2-0.7c-0.1-0.3-0.1-0.5-0.1-0.6c0,0.1-0.1,0.3-0.1,0.6s-0.2,0.8-0.4,1.6H216.6z"/>
		<path id="XMLID_176_" class="st6" d="M219.1,3.3h1.7c0.7,0,1.2,0.1,1.5,0.3c0.3,0.2,0.5,0.5,0.5,0.9c0,0.3-0.1,0.5-0.2,0.7
			s-0.3,0.3-0.6,0.4v0c0.3,0.1,0.5,0.2,0.7,0.4c0.1,0.2,0.2,0.4,0.2,0.7c0,0.5-0.2,0.8-0.5,1.1c-0.3,0.3-0.8,0.4-1.4,0.4h-1.9V3.3z
			 M220.5,5.2h0.4c0.2,0,0.3,0,0.4-0.1c0.1-0.1,0.2-0.2,0.2-0.4c0-0.3-0.2-0.4-0.6-0.4h-0.4V5.2z M220.5,6.2v1h0.5
			c0.4,0,0.6-0.2,0.6-0.5c0-0.2-0.1-0.3-0.2-0.4c-0.1-0.1-0.3-0.1-0.5-0.1H220.5z"/>
		<path id="XMLID_180_" class="st6" d="M223.8,8.3v-5h1.4v3.9h1.9v1.1H223.8z"/>
		<path id="XMLID_182_" class="st6" d="M230.9,8.3h-3v-5h3v1.1h-1.6v0.8h1.5v1.1h-1.5v0.9h1.6V8.3z"/>
	</g>
	<g id="XMLID_3_">
		<polygon id="XMLID_82_" points="170.2,139 173.3,135.1 173.3,142.8 		"/>
		<polygon id="XMLID_81_" points="190.6,139 187.5,135.1 187.5,142.8 		"/>
		<path id="XMLID_14_" d="M175.9,132.4l3.2-2.7v4.5c0,0-1.6,1.1-3.2,3.1V132.4z"/>
		<path id="XMLID_13_" d="M184.9,132.4l-3.2-2.7v4.5c0,0,1.6,1.1,3.2,3.1V132.4z"/>
		<path id="XMLID_12_" d="M184.9,145.4l-3.2,2.7v-4.5c0,0,1.6-1.1,3.2-3.1V145.4z"/>
		<path id="XMLID_11_" d="M175.9,145.4l3.2,2.7v-4.5c0,0-1.6-1.1-3.2-3.1V145.4z"/>
		<path id="XMLID_10_" d="M182.6,139.8c0,0-0.3,0.1,0-0.3c0.2-0.4,0.8-0.4,0.8-2.2c0,0-1.4,0.3-1.7,1c0,0-0.3,0.1-0.1-0.2
			s0.8-0.7,0.2-1.9c0,0-0.3,0.3-0.3,0.1c0-0.2-0.5-1.7-1-1.6c-0.4-0.1-0.9,1.4-1,1.6c0,0.2-0.3-0.1-0.3-0.1c-0.7,1.2,0,1.6,0.2,1.9
			s-0.1,0.2-0.1,0.2c-0.3-0.7-1.7-1-1.7-1c0,1.8,0.6,1.8,0.8,2.2c0.2,0.4,0,0.3,0,0.3c-0.7-0.7-1-0.3-1-0.3c0.6,2.2,1.4,1.9,1.4,1.9
			c-0.2,0.3-0.2,0.3-0.3,0.3c1.1,0.3,1.8-0.5,1.8-0.5l-0.1,2.1c0,0,0.1,0.2,0.2,0c0.1-0.2,0.2-0.1,0.2-0.1l0-2c0,0,0.8,0.8,1.8,0.5
			c0,0,0,0-0.3-0.3c0,0,0.8,0.3,1.4-1.9C183.6,139.5,183.3,139.1,182.6,139.8z"/>
		<g id="XMLID_9_">
			<path id="XMLID_91_" class="st7" d="M191.4,138.9c-3.6,4.7-6.2,7.3-10.9,10.9c-4.7-3.6-7.3-6.2-10.9-10.9
				c3.6-4.7,6.2-7.3,10.9-10.9C185.2,131.7,187.7,134.2,191.4,138.9z"/>
		</g>
	</g>
	<g id="XMLID_1_">
		<path id="XMLID_32_" d="M133.4,148.7l-0.5-1.4H131l-0.5,1.4h-0.9l1.9-5h0.9l1.9,5H133.4z M132.7,146.6l-0.5-1.4
			c0-0.1-0.1-0.2-0.1-0.4c-0.1-0.2-0.1-0.3-0.1-0.4c-0.1,0.3-0.2,0.6-0.3,0.9l-0.5,1.3H132.7z"/>
		<path id="XMLID_83_" d="M134.5,150.4c-0.2,0-0.4,0-0.6-0.1v-0.6c0.2,0,0.3,0.1,0.5,0.1c0.3,0,0.5-0.2,0.5-0.6v-4.2h0.8v4.3
			c0,0.4-0.1,0.7-0.3,0.9S134.8,150.4,134.5,150.4z M134.8,143.9c0-0.1,0-0.3,0.1-0.3c0.1-0.1,0.2-0.1,0.3-0.1c0.1,0,0.3,0,0.3,0.1
			c0.1,0.1,0.1,0.2,0.1,0.3c0,0.1,0,0.2-0.1,0.3c-0.1,0.1-0.2,0.1-0.3,0.1c-0.1,0-0.3,0-0.3-0.1C134.8,144.2,134.8,144,134.8,143.9z
			"/>
		<path id="XMLID_89_" d="M139.5,148.7l-0.1-0.5h0c-0.1,0.2-0.3,0.3-0.5,0.4c-0.2,0.1-0.4,0.2-0.7,0.2c-0.5,0-0.8-0.1-1-0.3
			s-0.3-0.6-0.3-1v-2.5h0.8v2.3c0,0.3,0.1,0.5,0.2,0.7c0.1,0.1,0.3,0.2,0.6,0.2c0.3,0,0.6-0.1,0.7-0.3c0.2-0.2,0.2-0.5,0.2-1v-1.9
			h0.8v3.8H139.5z"/>
		<path id="XMLID_93_" d="M144.6,148.7h-0.8v-2.3c0-0.3-0.1-0.5-0.2-0.7c-0.1-0.1-0.3-0.2-0.6-0.2c-0.3,0-0.6,0.1-0.7,0.3
			s-0.2,0.5-0.2,1v1.9h-0.8v-3.8h0.6l0.1,0.5h0c0.1-0.2,0.3-0.3,0.5-0.4c0.2-0.1,0.4-0.1,0.7-0.1c0.9,0,1.4,0.5,1.4,1.4V148.7z"/>
		<path id="XMLID_95_" d="M147.1,148.1c0.2,0,0.4,0,0.6-0.1v0.6c-0.1,0-0.2,0.1-0.3,0.1c-0.1,0-0.3,0-0.4,0c-0.8,0-1.1-0.4-1.1-1.2
			v-2h-0.5v-0.4l0.6-0.3l0.3-0.8h0.5v0.8h1.1v0.6h-1.1v2c0,0.2,0,0.3,0.1,0.4C146.8,148.1,146.9,148.1,147.1,148.1z"/>
		<path id="XMLID_97_" d="M150.8,148.7l-0.2-0.5h0c-0.2,0.2-0.4,0.4-0.5,0.5s-0.4,0.1-0.7,0.1c-0.4,0-0.7-0.1-0.9-0.3
			c-0.2-0.2-0.3-0.5-0.3-0.9c0-0.4,0.1-0.7,0.4-0.9c0.3-0.2,0.7-0.3,1.3-0.3l0.7,0v-0.2c0-0.2-0.1-0.4-0.2-0.5
			c-0.1-0.1-0.3-0.2-0.5-0.2c-0.2,0-0.4,0-0.6,0.1c-0.2,0.1-0.3,0.1-0.5,0.2l-0.3-0.6c0.2-0.1,0.4-0.2,0.7-0.2
			c0.2-0.1,0.5-0.1,0.7-0.1c0.5,0,0.8,0.1,1.1,0.3c0.2,0.2,0.4,0.5,0.4,1v2.5H150.8z M149.6,148.1c0.3,0,0.5-0.1,0.7-0.2
			s0.3-0.4,0.3-0.7v-0.3l-0.5,0c-0.4,0-0.7,0.1-0.8,0.2c-0.2,0.1-0.3,0.3-0.3,0.5c0,0.2,0,0.3,0.2,0.4
			C149.3,148.1,149.4,148.1,149.6,148.1z"/>
		<path id="XMLID_100_" d="M155.7,148.7h-0.8v-2.3c0-0.3-0.1-0.5-0.2-0.6s-0.3-0.2-0.5-0.2c-0.3,0-0.5,0.1-0.7,0.3
			c-0.1,0.2-0.2,0.5-0.2,1v1.9h-0.8v-3.8h0.6l0.1,0.5h0c0.1-0.2,0.3-0.3,0.5-0.4c0.2-0.1,0.4-0.1,0.7-0.1c0.6,0,1,0.2,1.2,0.6h0.1
			c0.1-0.2,0.3-0.3,0.5-0.4c0.2-0.1,0.4-0.2,0.7-0.2c0.5,0,0.8,0.1,1,0.3s0.3,0.6,0.3,1v2.5h-0.8v-2.3c0-0.3-0.1-0.5-0.2-0.6
			c-0.1-0.1-0.3-0.2-0.5-0.2c-0.3,0-0.5,0.1-0.7,0.3c-0.1,0.2-0.2,0.5-0.2,0.9V148.7z"/>
		<path id="XMLID_102_" d="M160.8,148.8c-0.6,0-1-0.2-1.4-0.5c-0.3-0.3-0.5-0.8-0.5-1.4c0-0.6,0.2-1.1,0.5-1.5
			c0.3-0.4,0.7-0.5,1.3-0.5c0.5,0,0.9,0.2,1.2,0.5c0.3,0.3,0.4,0.7,0.4,1.3v0.4h-2.5c0,0.4,0.1,0.6,0.3,0.8c0.2,0.2,0.5,0.3,0.8,0.3
			c0.2,0,0.4,0,0.6-0.1c0.2,0,0.4-0.1,0.6-0.2v0.7c-0.2,0.1-0.4,0.2-0.6,0.2C161.3,148.7,161.1,148.8,160.8,148.8z M160.7,145.5
			c-0.3,0-0.5,0.1-0.6,0.2c-0.2,0.2-0.2,0.4-0.3,0.7h1.7c0-0.3-0.1-0.5-0.2-0.7C161.1,145.5,160.9,145.5,160.7,145.5z"/>
		<path id="XMLID_105_" d="M166.5,148.7h-0.8v-2.3c0-0.3-0.1-0.5-0.2-0.7c-0.1-0.1-0.3-0.2-0.6-0.2c-0.3,0-0.6,0.1-0.7,0.3
			s-0.2,0.5-0.2,1v1.9h-0.8v-3.8h0.6l0.1,0.5h0c0.1-0.2,0.3-0.3,0.5-0.4c0.2-0.1,0.4-0.1,0.7-0.1c0.9,0,1.4,0.5,1.4,1.4V148.7z"/>
		<path id="XMLID_107_" d="M169.1,148.1c0.2,0,0.4,0,0.6-0.1v0.6c-0.1,0-0.2,0.1-0.3,0.1c-0.1,0-0.3,0-0.4,0c-0.8,0-1.1-0.4-1.1-1.2
			v-2h-0.5v-0.4l0.6-0.3l0.3-0.8h0.5v0.8h1.1v0.6h-1.1v2c0,0.2,0,0.3,0.1,0.4C168.8,148.1,168.9,148.1,169.1,148.1z"/>
		<path id="XMLID_109_" d="M191.7,148.8c-0.5,0-0.8-0.2-1.1-0.5c-0.3-0.3-0.4-0.8-0.4-1.4c0-0.6,0.1-1.1,0.4-1.4
			c0.3-0.3,0.6-0.5,1.1-0.5c0.5,0,0.9,0.2,1.1,0.5h0c0-0.3-0.1-0.5-0.1-0.6v-1.4h0.8v5.3H193l-0.1-0.5h0
			C192.6,148.6,192.2,148.8,191.7,148.8z M191.9,148.1c0.3,0,0.6-0.1,0.7-0.3s0.2-0.5,0.2-0.9v-0.1c0-0.5-0.1-0.8-0.2-1
			c-0.2-0.2-0.4-0.3-0.7-0.3c-0.3,0-0.5,0.1-0.7,0.3c-0.2,0.2-0.2,0.6-0.2,1c0,0.4,0.1,0.7,0.2,1C191.4,148,191.6,148.1,191.9,148.1
			z"/>
		<path id="XMLID_112_" d="M196.4,148.8c-0.6,0-1-0.2-1.4-0.5c-0.3-0.3-0.5-0.8-0.5-1.4c0-0.6,0.2-1.1,0.5-1.5
			c0.3-0.4,0.7-0.5,1.3-0.5c0.5,0,0.9,0.2,1.2,0.5c0.3,0.3,0.4,0.7,0.4,1.3v0.4h-2.5c0,0.4,0.1,0.6,0.3,0.8c0.2,0.2,0.5,0.3,0.8,0.3
			c0.2,0,0.4,0,0.6-0.1s0.4-0.1,0.6-0.2v0.7c-0.2,0.1-0.4,0.2-0.6,0.2C196.9,148.7,196.7,148.8,196.4,148.8z M196.3,145.5
			c-0.3,0-0.5,0.1-0.6,0.2c-0.2,0.2-0.2,0.4-0.3,0.7h1.7c0-0.3-0.1-0.5-0.2-0.7C196.7,145.5,196.5,145.5,196.3,145.5z"/>
		<path id="XMLID_115_" d="M201.5,148.7h-0.8v-5h2.8v0.7h-2v1.6h1.9v0.7h-1.9V148.7z"/>
		<path id="XMLID_117_" d="M204.3,143.9c0-0.1,0-0.3,0.1-0.3c0.1-0.1,0.2-0.1,0.3-0.1c0.1,0,0.3,0,0.3,0.1c0.1,0.1,0.1,0.2,0.1,0.3
			c0,0.1,0,0.2-0.1,0.3c-0.1,0.1-0.2,0.1-0.3,0.1c-0.1,0-0.3,0-0.3-0.1C204.3,144.2,204.3,144,204.3,143.9z M205.2,148.7h-0.8v-3.8
			h0.8V148.7z"/>
		<path id="XMLID_120_" d="M209.5,144.9v0.4l-0.6,0.1c0.1,0.1,0.1,0.2,0.1,0.3c0,0.1,0.1,0.2,0.1,0.4c0,0.4-0.1,0.7-0.4,0.9
			c-0.3,0.2-0.6,0.3-1.1,0.3c-0.1,0-0.2,0-0.3,0c-0.2,0.1-0.3,0.2-0.3,0.4c0,0.1,0,0.2,0.1,0.2s0.2,0.1,0.4,0.1h0.7
			c0.4,0,0.7,0.1,1,0.3c0.2,0.2,0.3,0.4,0.3,0.8c0,0.4-0.2,0.8-0.5,1c-0.4,0.2-0.9,0.3-1.5,0.3c-0.5,0-0.9-0.1-1.2-0.3
			c-0.3-0.2-0.4-0.4-0.4-0.8c0-0.2,0.1-0.4,0.2-0.6c0.1-0.2,0.4-0.3,0.6-0.3c-0.1,0-0.2-0.1-0.3-0.2c-0.1-0.1-0.1-0.2-0.1-0.3
			c0-0.1,0-0.3,0.1-0.4c0.1-0.1,0.2-0.2,0.4-0.3c-0.2-0.1-0.4-0.2-0.5-0.4s-0.2-0.4-0.2-0.7c0-0.4,0.1-0.7,0.4-1
			c0.3-0.2,0.6-0.3,1.1-0.3c0.1,0,0.2,0,0.3,0s0.2,0,0.3,0H209.5z M206.5,149.3c0,0.2,0.1,0.3,0.2,0.4c0.2,0.1,0.4,0.1,0.7,0.1
			c0.4,0,0.8-0.1,1-0.2c0.2-0.1,0.3-0.3,0.3-0.5c0-0.2-0.1-0.3-0.2-0.4c-0.1-0.1-0.3-0.1-0.7-0.1h-0.6c-0.2,0-0.4,0.1-0.5,0.2
			C206.6,149,206.5,149.1,206.5,149.3z M206.9,146.1c0,0.2,0.1,0.4,0.2,0.5s0.3,0.2,0.5,0.2c0.5,0,0.7-0.2,0.7-0.7
			c0-0.2-0.1-0.4-0.2-0.6c-0.1-0.1-0.3-0.2-0.5-0.2c-0.2,0-0.4,0.1-0.5,0.2C206.9,145.7,206.9,145.9,206.9,146.1z"/>
		<path id="XMLID_124_" d="M212.9,148.7l-0.1-0.5h0c-0.1,0.2-0.3,0.3-0.5,0.4c-0.2,0.1-0.4,0.2-0.7,0.2c-0.5,0-0.8-0.1-1-0.3
			s-0.3-0.6-0.3-1v-2.5h0.8v2.3c0,0.3,0.1,0.5,0.2,0.7c0.1,0.1,0.3,0.2,0.6,0.2c0.3,0,0.6-0.1,0.7-0.3c0.2-0.2,0.2-0.5,0.2-1v-1.9
			h0.8v3.8H212.9z"/>
		<path id="XMLID_126_" d="M216.3,148.8c-0.6,0-1-0.2-1.4-0.5c-0.3-0.3-0.5-0.8-0.5-1.4c0-0.6,0.2-1.1,0.5-1.5
			c0.3-0.4,0.7-0.5,1.3-0.5c0.5,0,0.9,0.2,1.2,0.5c0.3,0.3,0.4,0.7,0.4,1.3v0.4h-2.5c0,0.4,0.1,0.6,0.3,0.8c0.2,0.2,0.5,0.3,0.8,0.3
			c0.2,0,0.4,0,0.6-0.1s0.4-0.1,0.6-0.2v0.7c-0.2,0.1-0.4,0.2-0.6,0.2C216.8,148.7,216.6,148.8,216.3,148.8z M216.1,145.5
			c-0.3,0-0.5,0.1-0.6,0.2c-0.2,0.2-0.2,0.4-0.3,0.7h1.7c0-0.3-0.1-0.5-0.2-0.7C216.6,145.5,216.4,145.5,216.1,145.5z"/>
		<path id="XMLID_129_" d="M220.6,144.8c0.2,0,0.3,0,0.4,0l-0.1,0.7c-0.1,0-0.2,0-0.4,0c-0.3,0-0.6,0.1-0.8,0.3
			c-0.2,0.2-0.3,0.5-0.3,0.8v2h-0.8v-3.8h0.6l0.1,0.7h0c0.1-0.2,0.3-0.4,0.5-0.5C220.1,144.9,220.4,144.8,220.6,144.8z"/>
		<path id="XMLID_131_" d="M223.3,148.8c-0.6,0-1-0.2-1.4-0.5c-0.3-0.3-0.5-0.8-0.5-1.4c0-0.6,0.2-1.1,0.5-1.5
			c0.3-0.4,0.7-0.5,1.3-0.5c0.5,0,0.9,0.2,1.2,0.5c0.3,0.3,0.4,0.7,0.4,1.3v0.4h-2.5c0,0.4,0.1,0.6,0.3,0.8c0.2,0.2,0.5,0.3,0.8,0.3
			c0.2,0,0.4,0,0.6-0.1c0.2,0,0.4-0.1,0.6-0.2v0.7c-0.2,0.1-0.4,0.2-0.6,0.2C223.8,148.7,223.6,148.8,223.3,148.8z M223.2,145.5
			c-0.3,0-0.5,0.1-0.6,0.2c-0.2,0.2-0.2,0.4-0.3,0.7h1.7c0-0.3-0.1-0.5-0.2-0.7C223.7,145.5,223.5,145.5,223.2,145.5z"/>
		<path id="XMLID_134_" d="M228.3,147.6c0,0.4-0.1,0.7-0.4,0.8c-0.3,0.2-0.7,0.3-1.2,0.3c-0.5,0-0.9-0.1-1.2-0.2v-0.7
			c0.4,0.2,0.9,0.3,1.2,0.3c0.5,0,0.7-0.1,0.7-0.4c0-0.1,0-0.2-0.1-0.2c-0.1-0.1-0.1-0.1-0.3-0.2c-0.1-0.1-0.3-0.1-0.5-0.2
			c-0.4-0.2-0.7-0.3-0.9-0.5c-0.2-0.2-0.2-0.4-0.2-0.7c0-0.3,0.1-0.6,0.4-0.8c0.3-0.2,0.6-0.3,1.1-0.3c0.4,0,0.9,0.1,1.3,0.3
			l-0.3,0.6c-0.4-0.2-0.8-0.3-1-0.3c-0.4,0-0.6,0.1-0.6,0.4c0,0.1,0.1,0.2,0.2,0.3c0.1,0.1,0.4,0.2,0.7,0.3c0.3,0.1,0.5,0.2,0.7,0.3
			c0.1,0.1,0.2,0.2,0.3,0.3S228.3,147.4,228.3,147.6z"/>
	</g>
</g>
<g id="Capa_8">
	<path id="XMLID_8_" class="st6" d="M80.7,116.7c0,0-0.1,0.1-0.1,0.1c0.8-0.2,1.6-0.6,2.2-1.2c1.9-1.9,1.9-5,0-6.9
		c-0.6-0.6-1.3-1-2-1.2C83.3,110,83.3,114.1,80.7,116.7z"/>
	<path id="XMLID_5_" class="st6" d="M87.2,117.9c0,0-0.1,0.1-0.1,0.1c1-0.3,2-0.8,2.8-1.6c2.4-2.4,2.4-6.3,0-8.7
		c-0.7-0.7-1.6-1.2-2.6-1.5C90.4,109.5,90.4,114.7,87.2,117.9z"/>
	<path id="XMLID_6_" class="st6" d="M93.8,118.7c0,0-0.1,0.1-0.2,0.1c1.2-0.3,2.3-0.9,3.2-1.8c2.7-2.7,2.7-7.2,0-9.9
		c-0.8-0.8-1.9-1.4-2.9-1.7C97.5,109.1,97.5,115,93.8,118.7z"/>
	<path id="XMLID_7_" class="st6" d="M100.3,119.7c-0.1,0.1-0.1,0.1-0.2,0.2c1.3-0.4,2.6-1,3.6-2.1c3.2-3.2,3.2-8.3,0-11.5
		c-1-1-2.2-1.6-3.4-2C104.6,108.6,104.6,115.5,100.3,119.7z"/>
</g>
<g id="Capa_9">
	<path id="XMLID_87_" class="st6" d="M74.2,107.6c-2.5,0-4.5,2-4.5,4.5c0,2.5,2,4.5,4.5,4.5c2.5,0,4.5-2,4.5-4.5
		C78.7,109.6,76.7,107.6,74.2,107.6z M73.4,114.8l0.7-2.8l-0.7-2.8l2.8,2.8L73.4,114.8z"/>
</g>
<g id="Capa_1" class="st8">
	
		<image style="display:inline;overflow:visible;opacity:0.43;" width="242" height="155" id="XMLID_2_" xlink:href="BILLETE_T10_T10.JPG" >
	</image>
</g>
</svg>
